<svg xmlns="http://www.w3.org/2000/svg" width="216" height="76"><g fill="#3d7cb2"><text transform="translate(108 71)" font-size="12" font-family="Meiryo-Bold, Meiryo" font-weight="700"><tspan x="-108" y="0">農業農村整備民間技術情報データベース</tspan></text><path d="M101.157 50a5.274 5.274 0 01-4.288-2.207L73.325 15.032v34.221h-8.426V5.3a5.29 5.29 0 019.586-3.088l23.544 32.762V.523h8.425v44.182a5.277 5.277 0 01-3.668 5.038 5.338 5.338 0 01-1.629.257zm-50 0a5.273 5.273 0 01-4.287-2.205L23.326 15.032v34.221h-8.427V5.3a5.29 5.29 0 019.585-3.091l23.545 32.764V.522h8.425v44.182a5.3 5.3 0 01-5.3 5.3zM153.373.493L114.089.487v9.081h15.419v39.943h8.449V9.57h15.416zm21.882 49.183v-8.451c9.434 0 17.405-7.427 17.406-16.22a16.379 16.379 0 00-4.784-11.879 15.848 15.848 0 00-11.8-4.348h-6.47v40.62h-8.442V5.516a5.2 5.2 0 015.2-5.186h9.545a24.474 24.474 0 0117.851 6.745 24.762 24.762 0 017.332 17.931c.005 13.374-11.831 24.669-25.838 24.67z"/></g></svg>