<svg xmlns="http://www.w3.org/2000/svg" width="19.238" height="19.629"><path data-name="パス 466" d="M4.707 15.869l3.066-1.27a1.462 1.462 0 00.5-.322l8.873-8.818a1.922 1.922 0 00.645-1.4 2.032 2.032 0 00-.664-1.406L15.156.674a2.014 2.014 0 00-1.4-.674 1.948 1.948 0 00-1.4.645l-8.89 8.808a1.687 1.687 0 00-.181.21 1.62 1.62 0 00-.151.278l-1.288 3.057a1.3 1.3 0 00-.107.708 1.121 1.121 0 00.322.63l1.317 1.318a1.076 1.076 0 00.62.322 1.3 1.3 0 00.709-.107zm-.166-1.533a.522.522 0 01-.234.039.407.407 0 01-.234-.137l-.6-.605a.391.391 0 01-.088-.459l1.133-2.656 8.818-8.75a.489.489 0 01.785-.024l1.914 1.943a.5.5 0 01-.02.791l-8.809 8.74zm-3.526 2.008h1.172a.868.868 0 00.308-.044 1.079 1.079 0 00.269-.171l.9-.693-1.379-1.392-1.553 1.62a.429.429 0 00-.122.454.378.378 0 00.405.226zm2.568-5.859l3.838 3.867.928-.928L4.521 9.57zm7.686-7.617l3.838 3.848.938-.908-3.838-3.864zM.771 19.629h17.7a.741.741 0 00.542-.229.752.752 0 00.229-.552.784.784 0 00-.771-.771H.771a.784.784 0 00-.771.771.752.752 0 00.229.552.741.741 0 00.542.229z" fill="#fff"/></svg>