<svg xmlns="http://www.w3.org/2000/svg" width="15.703" height="19.902"><path data-name="パス 468" d="M11.191 11.211H4.316a.578.578 0 00-.42.161.53.53 0 00-.166.4.568.568 0 00.586.586h6.875a.574.574 0 00.415-.166.561.561 0 00.171-.42.522.522 0 00-.171-.4.583.583 0 00-.415-.161zm0 3.154H4.316a.568.568 0 00-.586.586.546.546 0 00.166.4.569.569 0 00.42.166h6.875a.574.574 0 00.415-.166.538.538 0 00.171-.4.561.561 0 00-.171-.42.574.574 0 00-.415-.166zm-8.252 5.537h9.824a2.978 2.978 0 002.2-.742 3.022 3.022 0 00.737-2.217V8.555a6.785 6.785 0 00-.068-1.045 2.292 2.292 0 00-.269-.781 3.814 3.814 0 00-.591-.752L9.814.928A2.869 2.869 0 008.72.181 4.359 4.359 0 007.353 0H2.939a2.969 2.969 0 00-2.2.747 3.027 3.027 0 00-.742 2.222v13.974a3.009 3.009 0 00.749 2.217 2.981 2.981 0 002.193.742zm.107-1.65a1.372 1.372 0 01-1.035-.356 1.431 1.431 0 01-.342-1.03V3.047a1.4 1.4 0 01.347-1.021 1.389 1.389 0 011.04-.356H7.07v5.2a1.887 1.887 0 00.464 1.4 1.9 1.9 0 001.392.459h5.12v8.145a1.243 1.243 0 01-1.4 1.378zM9.101 7.221a.563.563 0 01-.41-.127.547.547 0 01-.127-.4v-4.76l5.215 5.287z" fill="#fff"/></svg>