<svg xmlns="http://www.w3.org/2000/svg" width="18.975" height="20.889"><path data-name="パス 465" d="M9.493 20.888a9.087 9.087 0 003.662-.747 9.726 9.726 0 005.078-5.075 9.389 9.389 0 000-7.329 9.78 9.78 0 00-2.056-3.032 9.543 9.543 0 00-3.027-2.051 9.19 9.19 0 00-3.662-.737 9.155 9.155 0 00-3.657.737 9.7 9.7 0 00-5.088 5.08 9.39 9.39 0 00.007 7.332 9.772 9.772 0 005.078 5.078 9.076 9.076 0 003.665.744zm0-1.738a7.6 7.6 0 01-3.018-.6 7.76 7.76 0 01-4.131-4.136A7.757 7.757 0 016.47 4.248a7.62 7.62 0 013.013-.6 7.678 7.678 0 015.488 2.256 7.782 7.782 0 011.665 2.471 7.6 7.6 0 01.6 3.018 7.484 7.484 0 01-.591 3.018 7.822 7.822 0 01-1.66 2.471 7.687 7.687 0 01-5.493 2.266zM8.457 2.529h2.061V1.045a1 1 0 00-.308-.742 1 1 0 00-.728-.3.986.986 0 00-.723.3 1.009 1.009 0 00-.3.742zm6.875 1.963l1.418 1.474 1.016-1.016a1.065 1.065 0 00.342-.771.992.992 0 00-1-.986 1.1 1.1 0 00-.791.322zm-5.84 8.457a1.469 1.469 0 001.084-.454 1.552 1.552 0 00.22-1.9 1.453 1.453 0 00-.62-.552V5.605a.654.654 0 00-.2-.488.679.679 0 00-.493-.2.667.667 0 00-.483.2.654.654 0 00-.2.488v4.424a1.542 1.542 0 00-.625.566 1.539 1.539 0 001.318 2.354z" fill="#fff"/></svg>