<svg xmlns="http://www.w3.org/2000/svg" width="18.975" height="18.975"><path data-name="パス 467" d="M9.493 18.974a9.087 9.087 0 003.662-.747 9.726 9.726 0 005.078-5.075 9.389 9.389 0 000-7.329 9.78 9.78 0 00-2.056-3.032A9.543 9.543 0 0013.15.74 9.19 9.19 0 009.488.003 9.155 9.155 0 005.831.74 9.7 9.7 0 00.743 5.82a9.39 9.39 0 00.007 7.332 9.772 9.772 0 005.078 5.078 9.076 9.076 0 003.665.744zm0-1.738a7.6 7.6 0 01-3.018-.6A7.76 7.76 0 012.344 12.5 7.757 7.757 0 016.47 2.334a7.62 7.62 0 013.013-.6 7.678 7.678 0 015.488 2.256 7.782 7.782 0 011.665 2.471 7.6 7.6 0 01.6 3.018 7.484 7.484 0 01-.591 3.018 7.822 7.822 0 01-1.66 2.471 7.687 7.687 0 01-5.493 2.266zm-.01-3.125a.624.624 0 00.469-.181.677.677 0 00.176-.493v-1.221h1.7a.4.4 0 00.313-.132.461.461 0 00.117-.317.457.457 0 00-.117-.322.4.4 0 00-.312-.127h-1.7v-.693h1.7a.4.4 0 00.313-.127.5.5 0 000-.645.4.4 0 00-.312-.127h-1.27l2.2-3.535a.789.789 0 00.127-.42.585.585 0 00-.186-.435.645.645 0 00-.474-.184.635.635 0 00-.576.361L9.493 9.185 7.325 5.507a.6.6 0 00-.575-.355.637.637 0 00-.464.176.577.577 0 00-.181.43.837.837 0 00.117.42l2.2 3.545H7.178a.45.45 0 100 .9H8.85v.693H7.178a.434.434 0 00-.449.449.441.441 0 00.127.317.428.428 0 00.322.132H8.85v1.221a.677.677 0 00.176.493.612.612 0 00.457.183z" fill="#fff"/></svg>