<svg xmlns="http://www.w3.org/2000/svg" width="16.001" height="20.002"><g data-name="グループ 88864"><path data-name="パス 475" d="M12.001 11.2h-8a.6.6 0 010-1.2h8a.6.6 0 110 1.2z" fill="#fff"/><path data-name="パス 476" d="M12.001 8.2h-8a.6.6 0 010-1.2h8a.6.6 0 110 1.2z" fill="#fff"/><path data-name="パス 477" d="M12.001 5.2h-8a.6.6 0 010-1.2h8a.6.6 0 110 1.2z" fill="#fff"/><g data-name="パス 474" fill="none"><path d="M6.145 20.002H2.694a2.7 2.7 0 01-2.7-2.7v-14.6a2.7 2.7 0 012.7-2.7h10.6a2.7 2.7 0 012.7 2.7v14.6a2.7 2.7 0 01-2.7 2.7H9.845a.851.851 0 01-.85-.85v-3.651a.5.5 0 00-.5-.5h-1a.5.5 0 00-.5.5v3.648a.851.851 0 01-.85.853z"/><path d="M5.301 18.302v-2.798c0-1.214.988-2.202 2.202-2.202h.998A2.2 2.2 0 0110.7 15.5v2.801h2.6a1 1 0 001-.999V2.7a1 1 0 00-.999-.999H2.7a1 1 0 00-1 .999v14.603a1 1 0 001 1h2.6m.849 1.7l-3.45-.001A2.7 2.7 0 010 17.302V2.7A2.7 2.7 0 012.7 0h10.602a2.7 2.7 0 012.7 2.699v14.603a2.7 2.7 0 01-2.701 2.699H9.849a.85.85 0 01-.85-.85v-3.65a.498.498 0 00-.498-.499h-.998a.504.504 0 00-.502.502v3.648a.85.85 0 01-.851.85z" fill="#fff"/></g></g></svg>