<svg xmlns="http://www.w3.org/2000/svg" width="24" height="24"><path data-name="パス 463" d="M12.007 24a11.493 11.493 0 004.632-.945 12.3 12.3 0 006.423-6.423 11.876 11.876 0 00-.006-9.27 12.371 12.371 0 00-2.6-3.835 12.071 12.071 0 00-3.83-2.595 11.624 11.624 0 00-4.632-.933 11.58 11.58 0 00-4.626.933A12.268 12.268 0 00.939 7.361a11.876 11.876 0 00.011 9.271 12.36 12.36 0 006.418 6.42 11.48 11.48 0 004.639.948zm-.012-1.878a9.93 9.93 0 01-2.631-.358 10.619 10.619 0 01-2.477-1.025 8.952 8.952 0 01-2.069-1.618A5.93 5.93 0 016.55 17.41a8.525 8.525 0 012.47-1.087 11.313 11.313 0 012.971-.377 11.37 11.37 0 012.952.371 8.5 8.5 0 012.47 1.081 5.843 5.843 0 011.742 1.723 8.714 8.714 0 01-2.057 1.618 10.619 10.619 0 01-2.477 1.025 9.93 9.93 0 01-2.627.358zm0-8.165a3.794 3.794 0 01-2.05-.6 4.232 4.232 0 01-1.451-1.581 4.691 4.691 0 01-.537-2.267 4.477 4.477 0 01.537-2.174A4.276 4.276 0 019.95 5.752a3.81 3.81 0 014.082 0 4.346 4.346 0 011.458 1.581 4.436 4.436 0 01.543 2.174 4.764 4.764 0 01-.537 2.279 4.207 4.207 0 01-1.451 1.593 3.639 3.639 0 01-2.051.578z" fill="#fff"/></svg>