<svg data-name="グループ 88515" xmlns="http://www.w3.org/2000/svg" width="24" height="24"><g data-name="グループ 2309"><path data-name="長方形 508" fill="none" d="M0 0h24v24H0z"/></g><path data-name="パス 469" d="M3.939 21.902h9.824a2.978 2.978 0 002.2-.742 3.022 3.022 0 00.737-2.217v-4.222h-1.654v4.141a1.243 1.243 0 01-1.4 1.39h-9.59a1.389 1.389 0 01-1.04-.356 1.419 1.419 0 01-.347-1.03V5.047a1.4 1.4 0 01.347-1.026 1.4 1.4 0 011.04-.352h9.59a1.418 1.418 0 011.045.352 1.389 1.389 0 01.355 1.026v4.14h1.66V4.969a3.039 3.039 0 00-.737-2.222 2.966 2.966 0 00-2.2-.747h-9.83a2.969 2.969 0 00-2.2.747 3.027 3.027 0 00-.742 2.222v13.974a3.009 3.009 0 00.749 2.217 2.981 2.981 0 002.193.742zm5.83-9.15h9.385l1.387-.068-.664.6-1.436 1.348a.668.668 0 00-.244.537.715.715 0 00.2.513.666.666 0 00.5.21.688.688 0 00.508-.234l3.008-3.105a1.021 1.021 0 00.205-.3.771.771 0 00.059-.3.808.808 0 00-.059-.3.893.893 0 00-.205-.293l-3.005-3.12a.7.7 0 00-.508-.225.682.682 0 00-.5.2.745.745 0 00.044 1.06l1.432 1.346.664.6-1.387-.068H9.769a.75.75 0 00-.547.234.8.8 0 000 1.128.742.742 0 00.547.237z" fill="#fff"/></svg>