<svg xmlns="http://www.w3.org/2000/svg" xmlns:xlink="http://www.w3.org/1999/xlink" width="170" height="170" viewBox="0 0 170 170"><defs><clipPath id="a"><circle cx="85" cy="85" r="85" transform="translate(991.059 1705.196)" fill="none"/></clipPath><clipPath id="b"><circle cx="55.855" cy="55.855" r="55.855" transform="translate(945.685 1734.34)" fill="none"/></clipPath><clipPath id="c"><circle cx="55.855" cy="55.855" r="55.855" transform="translate(1094.502 1734.34)" fill="none"/></clipPath></defs><g transform="translate(-991.059 -1705.196)"><circle cx="85" cy="85" r="85" transform="translate(991.059 1705.196)" fill="#ff5a1f"/><rect width="44.752" height="5.124" transform="translate(1053.708 1787.633)" fill="#fff"/><g clip-path="url(#a)"><circle cx="55.855" cy="55.855" r="55.855" transform="translate(945.685 1734.34)" fill="#fff"/><g clip-path="url(#b)"><path d="M1024.824,1808.195l27.6-6.9,18.493,43.71-12.766,3.112a8.833,8.833,0,0,1-1.908-1.648C1045.828,1834.275,1034.4,1819.993,1024.824,1808.195Z" fill="#d7b38d"/><path d="M964.431,1898.57l-.941,2.406-3.008,5.231-2.616.969a1.725,1.725,0,0,0-.863.627l-2.408,3.4a.628.628,0,0,0-.055.887.709.709,0,0,0,.055.055.655.655,0,0,0,.812,0l.863-.863-1.675,3.479a.444.444,0,0,0,0,.5.392.392,0,0,0,.471,0l-.654,1.491a.576.576,0,0,0,.262.68.6.6,0,0,0,.68,0l3.243-4.133,2.119-.994-2.092,2.223-2.616,3.662a.445.445,0,0,0,0,.471.467.467,0,0,0,.575,0l7.847-6.175,2.616-2.25.392.392-.5,2.171a4.575,4.575,0,0,0,0,2.145,1.647,1.647,0,0,0,1.883,1.177v-2.983s.837-3.427.889-3.558l1.255-5.388,1.387-3.506Z" fill="#ffcec8"/><path d="M998.3,1806.546c-.5-.363-1.02-.68-1.491-.969a8.685,8.685,0,0,0-7.01-.811,11.2,11.2,0,0,0-4.917,4.812,38.014,38.014,0,0,0-3.009,9.261l-4.55,17.264-2.826,10.8h0l-12.241,53.546,10.464,3.086s13.5-32.749,17.68-41.852a35.139,35.139,0,0,0,1.8-5.048l4.787-17.369,5.075-18.311a16.769,16.769,0,0,0,.419-9.286,10.7,10.7,0,0,0-4.185-5.127Z" fill="#d7b38d"/><path d="M1023.7,1779.316l15.694-11.141s-1.073,18.546,10.463,25.034l-2.851,3.008a40.845,40.845,0,0,0-6.176,4.682c-.363.916-14.072,0-14.491,0s-6.618-3.531-6.618-3.531l1.046-10.829Z" fill="#2d2d3d"/><path d="M1038.453,1766.028s2.093,21.947-13.078,22.679l-.916,6.2-6.383,6.147s-5.7-5.99-7.664-7.847l2.381-15.171s-5.6-2.616-3.008-6.958,6.512-.235,6.512-.235l3.61-7.847Z" fill="#ffcec8"/><path d="M990.349,1785.2l-.419-.523a16.136,16.136,0,0,1-2.171-3.875,19.456,19.456,0,0,0-.812-2.616c12.817,2.616,17.923-8.235,20.612-14.44s8.5-10.462,19.488-9.312l1.332.183a13.523,13.523,0,0,1,10.955,15.676q-.055.311-.125.62l-.785,3.633a7.847,7.847,0,0,1-4.446-6.566,17.055,17.055,0,0,1-17.839,3.191c-5.833-2.25-6.487,1.491-6.487,1.491a5.233,5.233,0,0,0,4.159,5.65l-2.275,10.882c-.261,1.2-.419,4.446-1.543,4.682a11.363,11.363,0,0,1-3.086-.706l-3.349-.6a29.018,29.018,0,0,1-6.277-1.727l-.472-.209a18.319,18.319,0,0,1-6.46-5.441Z" fill="#2d2d3d"/><path d="M975.674,1842.331s15.7-9.1,21.685-8.84l6.985,14.125h33.22l4.578-18.311s7.847,5.231,18.891-7.638l-6.593-19.617-.915-1.465a17.681,17.681,0,0,0-13.759-8.235h-1.858l-20.534-1.387-13.367,2.907-4.965,1.1a17.635,17.635,0,0,0-8.684,4.787C982.371,1807.62,975.674,1842.331,975.674,1842.331Z" fill="#d7b38d"/><path d="M1064.9,1962.291s-60.346,15.695-87.891-5.934C977.009,1956.352,1045.15,1921.484,1064.9,1962.291Z" fill="#00320f"/><path d="M990.976,1953.5l27.884-6.67c1.7,29.9-4.029,74.131-8.187,120.326H998.456l-.288-10.463Z" fill="#ffcec8"/><path d="M1048.707,1947.59l-7.194,109.183-.288,10.462h-12.216c-3.924-47.083-7.429-92.414-7.166-119.567Z" fill="#ffcec8"/><path d="M977.009,1956.353c.811.341,1.621.628,2.459.889a57.283,57.283,0,0,0,19.012,1.831,69.918,69.918,0,0,0,11.431-1.15c8.684-1.779,16.767-6.176,25.583-7.168a33.727,33.727,0,0,1,14.41,1.574,34.8,34.8,0,0,1,7.847,3.766,33.139,33.139,0,0,1,7.168,6.2h.34c-1.7-20.089-3.923-36.831-6.383-50.72-.523-2.983-1.046-5.813-1.595-8.528-8.816-44.1-19.7-55.428-19.7-55.428h-33.221C983.234,1870.765,978.107,1936.237,977.009,1956.353Z" fill="#005014"/><path d="M1047.163,2068.726l9.7,4.029a1.352,1.352,0,0,1-.68,2.616h-24.536a2.616,2.616,0,0,1-2.615-2.616h0v-5.989l10.462-1.622Z" fill="#2d2d3d"/><path d="M982.814,2072.755l9.7-4.028,7.664-3.792,10.464,1.621v5.991a2.616,2.616,0,0,1-2.616,2.615H983.495a1.332,1.332,0,0,1-.681-2.406Z" fill="#2d2d3d"/><path d="M1015.8,2013.743c-1.6,16.977-3.479,35.025-5.232,53.415H998.352l-.287-10.464-3.008-43.029Z" fill="#2d2d3d"/><path d="M1044.364,2013.744l-2.851,43.029-.288,10.463h-12.212c-1.518-18.311-2.983-36.621-4.212-53.415Z" fill="#2d2d3d"/><path d="M1026.525,1791.558l-8.4,12.451-9.626-11.457,8.868-1.695Z" fill="#ffcec8"/><path d="M1065.237,1840a.682.682,0,0,0,.606-.341.733.733,0,0,0-.235-.994l-12.817-8.056a.7.7,0,0,0-.98.188l-.014.021a.758.758,0,0,0,.235,1.021l12.818,8.057A.686.686,0,0,0,1065.237,1840Z" fill="#ff897a"/><path d="M1025.531,1788.706a11.067,11.067,0,0,1-6.933-3.633,8.4,8.4,0,0,0,6.487,6.7Z" fill="#ffaba1"/><path d="M1027.885,1792.553c-1.648,8.057-9.548,29.742-9.548,29.742s-8.188-22.052-10.463-29.318l10.149,6.435Z" fill="#fff"/><path d="M1010.987,1802.049l7.145-2.381,7.168,2.381,3.687-10.415-3.687-.994-2.119,2.564-5.049,6.2-7.145-8.763-3.008,2.328Z" fill="#fff"/><path d="M1009.6,1805.92l.627-7.847,6.723,1.2h2.616l6.853-1.2.314,8.135-4.055-2.328c1.544,2.144,3.741,5.231,3.741,5.467a66.767,66.767,0,0,1-5.964,4.054l-1.91-11.222h-.575l-1.91,11.222a66.293,66.293,0,0,1-5.933-4.054c0-.209,2.432-3.662,3.95-5.781Z" fill="#005014"/><rect width="19.042" height="9.626" rx="0.484" transform="translate(1030.034 1818.041) rotate(-61.56)" fill="#2d2d3d"/><path d="M1047.4,1819.442a4.5,4.5,0,0,0,0-4.107l-1.91-5.362-1.36,2.485s-3.087-5.754-6.853-6.566-4.787,6.383-2.041,9.522l3.4,5.468,4.212,3.113Z" fill="#ffcec8"/><path d="M1047.4,1819.443l12.816,13.628-11.457,5.885-6.331-15.511C1044,1819.051,1047.4,1819.443,1047.4,1819.443Z" fill="#ffcec8"/><path d="M1048.839,1820.018s13.235,13.628,18.965,19.7,3.792,13.655.363,14.832l-.916.289a10.149,10.149,0,0,1-11.9-4.239c-2.851-4.6-13.915-24.745-13.915-24.745Z" fill="#d7b38d"/><path d="M1018.469,1831.79a1.648,1.648,0,1,1,1.648-1.648h0A1.648,1.648,0,0,1,1018.469,1831.79Z" fill="#966642"/><path d="M1018.468,1838.72a1.648,1.648,0,1,1-1.622,1.675v-.027A1.649,1.649,0,0,1,1018.468,1838.72Z" fill="#966642"/></g><circle cx="55.855" cy="55.855" r="55.855" transform="translate(1094.502 1734.34)" fill="#fff"/><g clip-path="url(#c)"><path d="M1168.234,1855.766H1093.1l5.087-42.143h64.96Z" fill="#6a71b7"/><path d="M1152.3,1795.09c-3.237-3.493-2.969-8.15-2.329-11.639,1.316-6.88-1.887-18.719-7.986-25.495-5.6-6.228-16.52-5.3-18.626-.767-9.034,2.259-8.149,17.823-8.952,20.846-.9,3.493-3.562,6.427-2.259,12.1a7.462,7.462,0,0,1-2.386,7.312c-3.213,2.537-5.716,9.011-.687,11.51,4.261,2.131,17.241,1.432,21.117,1.164v.106s15.274-1.361,21.368-1.361C1157.769,1804.391,1155.522,1798.6,1152.3,1795.09Z" fill="#2d2d3d"/><path d="M1120.981,1781.11l-.221-.071c-.78,0-2.174-2.247-2.48-4.656s1.525-3.027,1.791-2.713a3.632,3.632,0,0,1,.663,1.933Z" fill="#ffcec8"/><path d="M1140.958,1781.11l.209-.071c.792,0,2.189-2.247,2.492-4.656s-1.525-3.027-1.791-2.713a3.632,3.632,0,0,0-.663,1.933Z" fill="#ffcec8"/><path d="M1137.931,1783.344h-13.76v15.786l13.76-.023Z" fill="#ff9b8f"/><path d="M1124.171,1789.63l6.367,5.1-6.367,4.374Z" fill="#ff9b8f"/><path d="M1137.931,1789.63v9.477a63.936,63.936,0,0,1-13.76,0Z" fill="#ffcec8"/><path d="M1131.04,1755.674c-6.322,0-11.455,4.784-11.455,10.675a9.819,9.819,0,0,0,.116,1.56l1.095,15.053a7.367,7.367,0,0,0,2.829,5.261l5.028,3.947a3.822,3.822,0,0,0,2.4.826h0a3.822,3.822,0,0,0,2.4-.826l5.006-3.924a7.47,7.47,0,0,0,2.813-5.32l1.084-15.018a9.947,9.947,0,0,0,.128-1.561h0C1142.506,1760.458,1137.373,1755.674,1131.04,1755.674Z" fill="#ffcec8"/><path d="M1119.957,1773.554s.733-6.753,5.425-10.57c9.069,3.155,15.475,4.784,16.52,10.629,3.836-11.382-1.362-18.3-11.06-18.3S1117.257,1763.682,1119.957,1773.554Z" fill="#2d2d3d"/><path d="M1151.249,1803.379l-13.318-4.272h-13.76l-13.353,4.272a5.372,5.372,0,0,0-3.691,5.914c.454,3.062,1.1,7.418,1.8,12.258a40.838,40.838,0,0,0,44.169.5c.732-5.052,1.406-9.591,1.875-12.805a5.372,5.372,0,0,0-3.726-5.868Z" fill="#ffcec8"/><path d="M1155.114,1803.64l-12.613-3.555-4.563-5.7v4.732c3.916,7.341,5.826,9.657-6.98,21.409-9.069-9.942-11.382-11.281-6.8-21.409v-4.54c-2.06,2.642-4.574,6.018-4.574,6.018l-11.374,3.2c-4.307,1.163-8.66,2.653-10.023,9.826a41.362,41.362,0,0,0,33,16.3,40.3,40.3,0,0,0,31.717-15.681l.256-.616a11.337,11.337,0,0,0-8.033-9.988Z" fill="#6a71b7"/><path d="M1130.969,1820.4l-1.524-1.538v9.976h2.48v-9.195Z" fill="#fff"/><path d="M1137.943,1794.381s4.75,11.211,1.63,16.6c2.666-3.854,4.04-4.273,8.149.558a57.934,57.934,0,0,0-2.942-10.827Z" fill="#fff"/><path d="M1115.638,1811.029c3.4-2.864,4.261-2.166,13.173,7.147-3.249-3.609-4.913-5.192-6.683-9.1C1119.642,1805.582,1116.5,1807.129,1115.638,1811.029Z" fill="#51588c"/><path d="M1124.171,1794.578s-3.493,11.735-1.934,14.715c-1.535-1.8-4.284-1.875-6.6,1.734a38.916,38.916,0,0,1,1.978-9.872Z" fill="#fff"/><path d="M1130.969,1820.507c6.651-5.4,9.628-8.674,10.743-9.5s2.5-2.585,6.019.511c-1.734-4.9-4.435-5.949-8.149-.558a55.191,55.191,0,0,1-8.615,9.545Z" fill="#51588c"/><path d="M1131.18,1823.462a.652.652,0,1,0-.652.652.652.652,0,0,0,.652-.652Z" fill="#6a71b7"/></g><g transform="translate(666.559 -37.805)"><line x2="6.736" y2="7.414" transform="translate(393.5 1784.5)" fill="none" stroke="#fff" stroke-linecap="round" stroke-linejoin="round" stroke-width="3"/><line y1="5.882" x2="7.257" transform="translate(415.94 1783.262) rotate(130)" fill="none" stroke="#fff" stroke-linecap="round" stroke-linejoin="round" stroke-width="3"/><line x1="6.736" y2="7.414" transform="translate(423.5 1784.5)" fill="none" stroke="#fff" stroke-linecap="round" stroke-linejoin="round" stroke-width="3"/></g><g transform="translate(1060.059 1823.676)"><line y1="7.414" x2="6.736" transform="translate(0 0)" fill="none" stroke="#fff" stroke-linecap="round" stroke-linejoin="round" stroke-width="3"/><line x2="7.257" y2="5.883" transform="translate(17.934 12.434) rotate(-130)" fill="none" stroke="#fff" stroke-linecap="round" stroke-linejoin="round" stroke-width="3"/><line x1="6.736" y1="7.414" transform="translate(30 0)" fill="none" stroke="#fff" stroke-linecap="round" stroke-linejoin="round" stroke-width="3"/></g></g><circle cx="85" cy="85" r="85" transform="translate(991.059 1705.196)" fill="none"/></g></svg>