<svg xmlns="http://www.w3.org/2000/svg" width="170" height="170" viewBox="0 0 170 170"><g transform="translate(-77)"><circle cx="85" cy="85" r="85" transform="translate(77)" fill="#ff5a1f"/><g transform="translate(100.726 30.718)"><g transform="translate(0 0.02)"><path d="M41.01,21.02,58.726,1.56,76.431,21.02" transform="translate(2.081 0.058)" fill="none" stroke="#ccc" stroke-linecap="round" stroke-linejoin="round" stroke-width="3.12"/><circle cx="3.793" cy="3.793" r="3.793" transform="translate(57.014)" fill="#4c4c4c"/><rect width="121.603" height="77.419" transform="translate(0 16.266)" fill="#e6e6e6"/><rect width="66.418" height="110.602" transform="translate(116.108 21.772) rotate(90)" fill="#fff"/><rect width="6.672" height="25.806" transform="matrix(0.472, 0.882, -0.882, 0.472, 125.167, 37.256)" fill="#f2f2f2"/><rect width="6.672" height="8.217" transform="matrix(0.472, 0.882, -0.882, 0.472, 132.405, 33.386)" fill="#191919"/><path d="M95.894,54.142,92.5,51.893l5.222-4.833,3.142,5.884Z" transform="translate(4.694 2.367)" fill="#191919"/><rect width="5.012" height="19.397" transform="translate(104.269 85.673) rotate(89.92)" fill="#f2f2f2"/><rect width="5.012" height="6.178" transform="translate(110.434 85.671) rotate(89.92)" fill="#f75252"/><path d="M77.29,85.625l-1.45-2.7,5.17-1.345.01,5.012Z" transform="translate(3.849 4.119)" fill="#f75252"/><rect width="5.012" height="19.397" transform="translate(72.092 85.673) rotate(89.92)" fill="#f2f2f2"/><rect width="5.012" height="6.178" transform="translate(78.267 85.661) rotate(89.92)" fill="#4e66ed"/><path d="M46.681,85.625l-1.461-2.7L50.4,81.58v5.012Z" transform="translate(2.295 4.119)" fill="#4e66ed"/><path d="M26.824,39.972c-.588,2.669-1.608,5.359-1.25,8.143a7.135,7.135,0,0,0,3.751,5.537A5.159,5.159,0,0,0,35.482,52.3c1.839-2.1,2-4.823,1.954-7.481H33.969A62.236,62.236,0,0,1,32.4,62.342c-.147.63-.3,1.271-.483,1.891s-.3.483.336.82c.925.483.315.231.6-.2a7.009,7.009,0,0,1,2.175-2.375,20.132,20.132,0,0,1,7.944-2.753A1.776,1.776,0,0,0,44.7,58a1.723,1.723,0,0,0-1.723-1.713c-3.888.515-8.112,1.692-11.159,4.3a6.683,6.683,0,0,0-2.459,4.35c-.168,1.86,1.051,3.667,3.152,3.278s2.532-2.28,2.974-3.982a62.894,62.894,0,0,0,1.261-6.3,66.4,66.4,0,0,0,.662-13.155c-.105-2.2-3.467-2.228-3.436,0,0,1.629.158,3.6-.893,4.981a1.818,1.818,0,0,1-2.806.4c-2.679-2.28-.736-6.546-.126-9.31.483-2.165-2.837-3.079-3.32-.914Z" transform="translate(1.294 1.943)" fill="#191919"/><path d="M51.853,52.606a54.164,54.164,0,0,0,7.03.4,1.723,1.723,0,1,0,0-3.446,54.166,54.166,0,0,1-7.03-.4,1.713,1.713,0,0,0-1.219.5,1.755,1.755,0,0,0-.5,1.219,1.776,1.776,0,0,0,.5,1.261,2.1,2.1,0,0,0,1.219.5Z" transform="translate(2.544 2.474)" fill="#191919"/><path d="M51.571,60.419a25.218,25.218,0,0,0,6.231.189,1.839,1.839,0,0,0,1.219-.462A1.713,1.713,0,0,0,57.8,57.215a24.6,24.6,0,0,1-5.558-.095l.462.063h-.221a1.86,1.86,0,0,0-1.324.168,1.7,1.7,0,0,0-.62,2.354,1.618,1.618,0,0,0,1.051.788Z" transform="translate(2.553 2.878)" fill="#191919"/><path d="M76.959,60.706l.715.252c.263.095-.2-.095,0,0l.378.179.284.168c.263.158,0,0,.095.074s.252.242.137.116.126.21.137.221h0c-.126-.063.084-.263,0,0s0-.158,0,.063c0,0-.105.326,0,.147s-.095.158-.126.189c.095-.137.105-.095,0,0s.105,0-.063.053.389-.105-.074,0a1.734,1.734,0,0,0-.757,2.879,9.119,9.119,0,0,1,.9.893c.116.158.221.326.315.483l.168.336v.105a2.028,2.028,0,0,1,.168,1.051A1.524,1.524,0,0,1,79,68.64a1.629,1.629,0,0,1-.5.557s-.473.252-.2.137c-.084,0-.683.147-.389.126a1.513,1.513,0,0,1-1.524-.683,1.723,1.723,0,0,0-2.438,0,1.765,1.765,0,0,0,0,2.427A4.876,4.876,0,0,0,77.9,72.9a5.065,5.065,0,0,0,3.909-2.249c1.86-2.648.567-6.094-1.7-8.007l-.767,2.879a3.993,3.993,0,0,0,2.721-4.707c-.525-1.975-2.406-2.869-4.2-3.446a1.723,1.723,0,1,0-.925,3.31Z" transform="translate(3.728 2.885)" fill="#191919"/><path d="M70.74,51.356l15.7.462c2.207.074,2.207-3.373,0-3.436l-15.7-.462C68.523,47.847,68.523,51.293,70.74,51.356Z" transform="translate(3.506 2.411)" fill="#191919"/><path d="M74.852,32.9c.378-.21-.21.074,0,0s-.284,0,0,0c-.441-.074,0,0,.084,0s.084.063,0,0,.4.284.116,0l.273.242.242.273c-.158-.179,0,0,0,.063a14.164,14.164,0,0,1,.788,1.324,2.859,2.859,0,0,1,.168.368c-.126-.326,0,.158,0,.179a.641.641,0,0,0,.074.315c.095.42,0-.3,0,.126a2.1,2.1,0,0,0,0,.368c0,.231.084-.357,0,.053a5.1,5.1,0,0,1-.2.715c.084-.221,0-.063,0,.074l-.179.326s-.252.357-.126.189-.126.137-.147.168a6.213,6.213,0,0,1-.546.5c.273-.231-.084.053-.126.084l-.315.2-.336.168s-.41.189-.2.105-.168,0-.21.074l-.431.126a1.723,1.723,0,0,0,.914,3.32,7.818,7.818,0,0,0,3.877-2.375A6.084,6.084,0,0,0,80,35.034a8.8,8.8,0,0,0-2.1-4.2,3.888,3.888,0,0,0-4.791-1.051,1.723,1.723,0,0,0,1.734,2.974Z" transform="translate(3.671 1.469)" fill="#191919"/><path d="M85.848,30.01a6.189,6.189,0,0,0-7.691,5,7.418,7.418,0,0,0,.946,5.254,6.241,6.241,0,0,0,5.075,2.616A1.723,1.723,0,0,0,85.9,41.158a1.755,1.755,0,0,0-1.723-1.713c-.105,0-.483-.063-.168,0l-.473-.084-.452-.116a.981.981,0,1,0-.179-.053l-.41-.221c-.315-.168.084.137-.126-.105s-.21-.2-.3-.315c.231.284,0-.063-.063-.137a3.522,3.522,0,0,1-.21-.389c-.189-.347,0,.21,0-.137a3.073,3.073,0,0,0-.231-.851c-.074-.294,0,.242,0-.126V35.831c.074-.273.158-.557.231-.841v.074l.095-.2c.063-.126.137-.252.21-.378s.315-.41.158-.231.147-.147.179-.179l.3-.273c.095-.084.063-.063-.084,0l.168-.105a2.449,2.449,0,0,1,.357-.21l.179-.095h-.105l.778-.221h.557c.147.053.3.074.452.126a1.723,1.723,0,1,0,.809-3.289Z" transform="translate(3.96 1.492)" fill="#191919"/></g></g></g></svg>