<svg xmlns="http://www.w3.org/2000/svg" width="170" height="170" viewBox="0 0 170 170"><g transform="translate(5497 16898)"><circle cx="85" cy="85" r="85" transform="translate(-5497 -16898)" fill="#ff5a1f"/><g transform="translate(2.36 -2.07)"><g transform="translate(-5473.36 -16861.93)"><path d="M72.358,8.07H14.842A4.627,4.627,0,0,0,10.215,12.7V41.455L1.64,47.56l8.588,6.17v3.32a4.627,4.627,0,0,0,4.627,4.627H72.371a4.627,4.627,0,0,0,4.614-4.627V12.7A4.627,4.627,0,0,0,72.358,8.07Z" transform="translate(-1.64 -8.07)" fill="#005014"/><path d="M47.486,50.431A35.883,35.883,0,0,0,43.708,46.4,13.542,13.542,0,0,1,36.4,48.274a14.013,14.013,0,0,1-10.34-3.922,17.255,17.255,0,0,1-4.5-12.457c0-10.013,5.921-16.575,14.954-16.575S51.263,21.712,51.263,31.7a20.549,20.549,0,0,1-1.307,7.359,14.562,14.562,0,0,1-2.98,4.693l1.111,1.072A32.6,32.6,0,0,0,50.7,47.045ZM40.139,36.9a36.992,36.992,0,0,0,3.1,3.229c1.752-2.157,2.431-4.536,2.431-8.51s-1.111-7.2-3.176-9.268a8.4,8.4,0,0,0-6.118-2.418,8.575,8.575,0,0,0-6.17,2.418c-2.065,2.065-3.176,5.372-3.176,9.464.026,7.2,3.725,11.843,9.49,11.843a7.843,7.843,0,0,0,3.582-.784,32.076,32.076,0,0,0-3.189-2.784Z" transform="translate(4.474 -5.843)" fill="#fff"/></g><g transform="translate(-5430.099 -16815.098)"><path d="M121.392,98.662l-8.588-6.17V63.734a4.614,4.614,0,0,0-4.614-4.614H50.674a4.614,4.614,0,0,0-4.614,4.614v44.418a4.614,4.614,0,0,0,4.614,4.627H108.19a4.614,4.614,0,0,0,4.614-4.627v-3.32Z" transform="translate(-46.06 -59.12)" fill="#fff"/><path d="M84.418,99.933a27.712,27.712,0,0,0-1.163-4.366l-1.66-4.549H68.3l-1.712,4.549a20.535,20.535,0,0,0-1.242,4.366H58.51a46.1,46.1,0,0,0,2.209-4.915l9.15-24.039a24.067,24.067,0,0,0,1.307-4.209h7.255a28.485,28.485,0,0,0,1.451,4.222l9.255,24.039a44.028,44.028,0,0,0,2.118,4.915ZM75.634,73.894c-.17-.458-.288-.954-.745-2.327-.68,1.948-.68,1.948-.8,2.327l-4.34,12.34H80.065Z" transform="translate(-42.236 -56.77)" fill="#ff5a1f"/></g></g></g></svg>