<svg xmlns="http://www.w3.org/2000/svg" xmlns:xlink="http://www.w3.org/1999/xlink" width="170" height="170" viewBox="0 0 170 170"><defs><clipPath id="a"><circle cx="85" cy="85" r="85" fill="none"/></clipPath></defs><g transform="translate(-7.83 -7.83)"><g transform="translate(7.83 7.83)"><g clip-path="url(#a)"><rect width="85" height="89.157" transform="translate(84.992 0)" fill="#005014"/><rect width="85" height="89.157" transform="translate(0 0)" fill="#ff5a1f"/><path d="M166.694,69.392c-4.214-3.769-48.1-3.769-52.318,0-5.775,5.168-6.785,33.345-6.785,33.345h65.9S172.476,74.56,166.694,69.392Z" transform="translate(-20.576 -12.73)" fill="#00a79d"/><path d="M164.843,74.174c-.21-4.23-1.5-8.031-4.853-9.325L149.824,60.91H136.56L126.4,64.849c-3.356,1.294-4.642,5.111-4.853,9.349a29.439,29.439,0,0,0,43.285,0Z" transform="translate(-23.246 -11.649)" fill="#fb9b67"/><path d="M168.126,68.447a12.884,12.884,0,0,0-3.712-2.135c-4.472-1.618-9.495-3.47-10.8-3.842a12.528,12.528,0,0,1-11.484,7.077,12.358,12.358,0,0,1-11.387-7.077c-1.31.372-6.333,2.192-10.8,3.842a12.884,12.884,0,0,0-3.712,2.135,29.463,29.463,0,0,0,51.906,0Z" transform="translate(-22.227 -11.947)" fill="#00a79d"/><path d="M145.431,70.221c-7.044,0-10.878-3.906-12.131-7.57l1.383-.461c1.076,3.178,4.464,6.575,10.732,6.575Z" transform="translate(-25.493 -11.894)" fill="#fff"/><path d="M148.19,70.221c7.044,0,10.983-3.906,12.22-7.57l-1.383-.461c-1.076,3.178-4.561,6.575-10.837,6.575Z" transform="translate(-28.341 -11.894)" fill="#fff"/><path d="M138.808,44.827l-.154-.04A2.782,2.782,0,0,1,136.7,42.36l-.3-2.329c-.057-.421.235-.809.582-.7h.105a1.706,1.706,0,0,1,1.205,1.5Z" transform="translate(-26.084 -7.519)" fill="#fb9b67"/><path d="M157.6,44.846h.154A2.766,2.766,0,0,0,159.7,42.42l.3-2.329c.049-.421-.243-.809-.59-.7h-.105a1.715,1.715,0,0,0-1.205,1.512Z" transform="translate(-30.14 -7.53)" fill="#fb9b67"/><rect width="14.064" height="10.344" transform="translate(113.128 39.419)" fill="#fb9b67"/><path d="M147.71,66.647l14.056-4.9V56.57H147.71Z" transform="translate(-34.582 -17.151)" fill="#e07f57"/><path d="M147.71,59.821l5.152,5.03,5.2-1.812,3.7-3.583V56.57H147.71Z" transform="translate(-34.582 -17.151)" fill="#e07f57"/><path d="M146.469,24.44a8.775,8.775,0,0,0-8.8,8.6l.938,10.457a5.176,5.176,0,0,0,2.054,4.125l2.717,2.588a4.141,4.141,0,0,0,2.491.809h1.205a4.141,4.141,0,0,0,2.491-.809l2.717-2.588a5.176,5.176,0,0,0,2.054-4.125l.938-10.433A8.783,8.783,0,0,0,146.469,24.44Z" transform="translate(-26.329 -4.674)" fill="#fb9b67"/><path d="M146.432,24.16h-.049c-6.51,0-9.406,4.489-9.05,8.67.251,3,.979,8.168.979,8.168h0c.129-9.988,1.763-10.845,2.345-10.748l2.507.437a19.41,19.41,0,0,0,6.47,0l2.507-.437c.582-.1,2.07-.146,2.345,10.748h0s.809-5.16.979-8.168C155.757,28.374,152.934,24.184,146.432,24.16Z" transform="translate(-26.259 -4.621)" fill="#a3472e"/><path d="M154.563,27.627a6.866,6.866,0,0,0-1.213-5.807c-.073.938-.655,1.666-3.728.995s-10.4-1.4-11.056,4.173c-1.124.453-1.359,2.135-1.2,3.7l1.569,2.135A4.894,4.894,0,0,1,140.475,30c1.909.865,8,1.618,11.5.485a3.979,3.979,0,0,0,.655-.275,5.742,5.742,0,0,1,1.262,2.62l1.569-2.038C155.534,29.244,155.226,28.209,154.563,27.627Z" transform="translate(-26.263 -4.173)" fill="#a3472e"/><path d="M89.807,112.2H37.61L41.144,82.92H86.273Z" transform="translate(-13.525 -22.191)" fill="#6a71b7"/><path d="M73.06,52.343c-2.248-2.426-2.062-5.661-1.618-8.088.914-4.78-1.31-13-5.548-17.712-3.89-4.327-11.476-3.68-12.94-.534-6.276,1.569-5.661,12.382-6.219,14.485-.623,2.426-2.475,4.464-1.569,8.4a5.184,5.184,0,0,1-1.658,5.079c-2.232,1.763-3.971,6.26-.477,8,2.96,1.48,11.978.995,14.671.809v.073s10.611-.946,14.849-.946C76.861,58.805,75.3,54.786,73.06,52.343Z" transform="translate(-7.85 -4.489)" fill="#2d2d3d"/><path d="M53.281,45.925l-.154-.049c-.542,0-1.512-1.561-1.723-3.235s1.059-2.1,1.245-1.884a2.523,2.523,0,0,1,.461,1.343Z" transform="translate(-9.826 -7.785)" fill="#ffcec8"/><path d="M70.89,45.925l.146-.049c.55,0,1.52-1.561,1.731-3.235s-1.059-2.1-1.245-1.884A2.523,2.523,0,0,0,71.06,42.1Z" transform="translate(-13.557 -7.785)" fill="#ffcec8"/><path d="M73.859,56.91H64.3V67.877l9.559-.016Z" transform="translate(-18.63 -17.216)" fill="#ff9b8f"/><path d="M64.3,62.31l4.424,3.542L64.3,68.893Z" transform="translate(-18.63 -18.249)" fill="#ff9b8f"/><path d="M66.029,54.48v6.583a44.424,44.424,0,0,1-9.559,0Z" transform="translate(-10.8 -10.419)" fill="#ffcec8"/><path d="M60.488,25.31a7.706,7.706,0,0,0-7.958,7.416,6.834,6.834,0,0,0,.081,1.084l.76,10.457a5.119,5.119,0,0,0,1.965,3.656l3.494,2.742a2.653,2.653,0,0,0,1.666.574h0a2.653,2.653,0,0,0,1.666-.574l3.478-2.725a5.192,5.192,0,0,0,1.957-3.7l.752-10.433a6.835,6.835,0,0,0,.089-1.084h0A7.684,7.684,0,0,0,60.488,25.31Z" transform="translate(-10.046 -4.84)" fill="#ffcec8"/><path d="M52.712,37.673s.51-4.691,3.769-7.343c6.3,2.192,10.748,3.324,11.476,7.384C70.626,29.8,67.011,25,60.274,25S50.836,30.815,52.712,37.673Z" transform="translate(-9.97 -4.781)" fill="#2d2d3d"/><path d="M72.472,65.588,63.22,62.62H53.66l-9.276,2.968A3.728,3.728,0,0,0,41.82,69.7c.315,2.127.76,5.152,1.254,8.516a28.371,28.371,0,0,0,30.684.348c.51-3.51.979-6.664,1.3-8.9a3.728,3.728,0,0,0-2.588-4.076Z" transform="translate(-7.99 -11.976)" fill="#ffcec8"/><path d="M73.7,64.99l-8.759-2.467-3.17-3.963v3.292c2.717,5.1,4.044,6.7-4.853,14.873-6.3-6.907-7.91-7.837-4.723-14.873V58.7c-1.431,1.836-3.178,4.181-3.178,4.181l-7.9,2.224c-2.992.809-6.017,1.844-6.963,6.826A28.735,28.735,0,0,0,57.07,83.251,28,28,0,0,0,79.1,72.357l.178-.429A7.877,7.877,0,0,0,73.7,64.99Z" transform="translate(-6.531 -11.199)" fill="#6a71b7"/><path d="M62.059,80.658,61,79.59v6.931h1.723V80.132Z" transform="translate(-11.666 -15.221)" fill="#fff"/><path d="M68.3,58.56s3.3,7.788,1.132,11.533c1.852-2.677,2.806-2.968,5.661.388a40.219,40.219,0,0,0-2.046-7.521Z" transform="translate(-13.062 -11.199)" fill="#fff"/><path d="M49.14,72.219c2.362-1.99,2.96-1.5,9.147,4.966-2.256-2.507-3.413-3.607-4.642-6.324C51.922,68.434,49.738,69.51,49.14,72.219Z" transform="translate(-9.398 -13.293)" fill="#51588c"/><path d="M55.068,58.73s-2.426,8.152-1.343,10.223c-1.068-1.254-2.976-1.3-4.586,1.205A27.02,27.02,0,0,1,50.515,63.3Z" transform="translate(-9.398 -11.232)" fill="#fff"/><path d="M62.31,78.84c4.618-3.753,6.688-6.025,7.465-6.6s1.739-1.8,4.181.356c-1.205-3.4-3.081-4.133-5.661-.388A38.327,38.327,0,0,1,62.31,78.84Z" transform="translate(-11.917 -13.331)" fill="#51588c"/><path d="M62.276,83.433a.453.453,0,1,0-.453.453A.453.453,0,0,0,62.276,83.433Z" transform="translate(-11.737 -15.87)" fill="#6a71b7"/><rect width="85" height="79.986" transform="translate(84.992 90.006)" fill="#ff5a1f"/><rect width="85" height="79.986" transform="translate(0 90.006)" fill="#005014"/><path d="M81.814,166.93c-4.319-3.437-49.334-3.437-53.628,0-5.92,4.715-6.955,36.9-6.955,36.9H88.777S87.734,171.645,81.814,166.93Z" transform="translate(-4.06 -31.432)" fill="#edbaba"/><path d="M78.565,171.135c-.477-3.575-1.868-6.616-4.8-7.707L63.547,159.61l-6.616.081h0l-6.616.081s-2.119.809-10.118,4.044c-2.9,1.165-4.222,4.214-4.618,7.788a29.447,29.447,0,0,0,43.01-.485Z" transform="translate(-6.805 -30.525)" fill="#fb9b67"/><path d="M79.528,164.04,63.28,158.88l-3.364,9.745a26.146,26.146,0,0,0-3.235-2.75c0-.162-.065-.251-.105-.251a1,1,0,0,0-.259.057,1.011,1.011,0,0,0-.372-.105c-.04,0-.081.121-.113.34a34.166,34.166,0,0,0-3.712,2.766l-3.591-9.624L32.4,164.638a9.883,9.883,0,0,0-2.192,1.084,29.439,29.439,0,0,0,25.953,14.849c11.088-.137,21.327-6.122,26.236-15.245a20.131,20.131,0,0,0-2.871-1.286Z" transform="translate(-5.778 -30.385)" fill="#edbaba"/><rect width="14.064" height="10.344" transform="matrix(1, -0.012, 0.012, 1, 43.035, 119.322)" fill="#fb9b67"/><path d="M61.161,165.4l14.008-5.071L75.1,155.15l-14.064.17Z" transform="translate(-18.006 -36.004)" fill="#e07f57"/><path d="M61.08,158.571l5.216,4.966,5.176-1.876,3.664-3.623L75.1,155.15l-14.064.17Z" transform="translate(-18.006 -36.004)" fill="#e07f57"/><path d="M59.542,123.13a8.775,8.775,0,0,0-8.7,8.7L51.9,142.249a5.168,5.168,0,0,0,2.111,4.1l2.742,2.556a4.1,4.1,0,0,0,2.507.809h1.205a4.206,4.206,0,0,0,2.483-.865l2.677-2.62a5.152,5.152,0,0,0,2.006-4.149l.809-10.441A8.775,8.775,0,0,0,59.542,123.13Z" transform="translate(-9.723 -23.548)" fill="#fb9b67"/><path d="M52.1,143.617h-.162a2.782,2.782,0,0,1-1.981-2.426l-.332-2.362c-.057-.429.226-.809.574-.7h.105a1.706,1.706,0,0,1,1.237,1.512Z" transform="translate(-9.49 -26.413)" fill="#fb9b67"/><path d="M70.9,143.417h.154a2.79,2.79,0,0,0,1.925-2.475l.267-2.337c.049-.421-.251-.768-.6-.687h-.105a1.706,1.706,0,0,0-1.181,1.529Z" transform="translate(-13.559 -26.374)" fill="#fb9b67"/><path d="M62.008,181.746a.574.574,0,1,0-.566.582A.582.582,0,0,0,62.008,181.746Z" transform="translate(-11.639 -34.65)" fill="#ffd4d4"/><path d="M62.008,194.454a.574.574,0,1,0-.566.566.566.566,0,0,0,.566-.566Z" transform="translate(-11.639 -37.079)" fill="#ffd4d4"/><path d="M61.867,170.274a.578.578,0,1,0-.582.574.566.566,0,0,0,.582-.574Z" transform="translate(-11.611 -32.455)" fill="#ffd4d4"/><path d="M67.269,124.624c-.534-2.426-3.518-4.691-7.8-4.634-5.047.057-7.764,2.313-8.16,4.731a6.2,6.2,0,0,0-1.294,4.545,40.1,40.1,0,0,0,1.4,9.964h0c0-9.988,1.618-10.87,2.208-10.773l2.313.364c-1.221.4-2.046.687-2.046.687a16.984,16.984,0,0,0,7.667.809c1.7-.332,3.195-.679,4.238-1.8.671.574,1.512,2.758,1.8,10.514,0,0,1.173-6.082,1.375-9.09A6.47,6.47,0,0,0,67.269,124.624Z" transform="translate(-9.557 -22.947)" fill="#a3472e"/><path d="M57.72,165.434l-5.888-6.324-1.682.744,5.775,11.1,1.925-3.316a2.3,2.3,0,0,1,1.884-1.059h.105v-1.618Z" transform="translate(-9.591 -30.429)" fill="#dba7a7"/><path d="M70.047,158.87l-5.734,6.47-2.143-.4v1.618a1.963,1.963,0,0,1,.485,0l.186,31.347h.315l-.186-31.242a2.378,2.378,0,0,1,1.245.89l2,3.235,5.524-11.217Z" transform="translate(-11.89 -30.383)" fill="#dba7a7"/><path d="M66.933,155.88l-7,8.443-7.1-8.274-2.078,3.033,5.176,10.069,1.965-3.009A2.523,2.523,0,0,1,59.978,165h0a2.548,2.548,0,0,1,2.143,1.108l2.03,2.944,4.925-10.19Z" transform="translate(-9.706 -29.811)" fill="#ffd4d4"/><path d="M176.994,212.021l-54.364.671,4.367-32h45.476Z" transform="translate(-29.785 -40.889)" fill="#005014"/><path d="M139.025,124.3c1.189-2.353,4.125-4.853,9.511-3.486,5.912,1.456,9.212,8.088,7.044,15.423-4.044,13.6-14.719,8.363-18.237.655C133.429,128.307,136.583,124.458,139.025,124.3Z" transform="translate(-25.913 -23.032)" fill="#2d2d3d"/><path d="M158.65,164.373,149.042,161h-9.665l-9.6,3.348a3.486,3.486,0,0,0-2.637,3.906c.315,2.167.809,5.241,1.391,8.67a29.115,29.115,0,0,0,31.323.04c.574-3.437,1.076-6.535,1.4-8.71a3.494,3.494,0,0,0-2.6-3.882Z" transform="translate(-24.308 -30.791)" fill="#ffcec8"/><path d="M138.981,143.925l-.146-.049c-.55,0-1.52-1.561-1.731-3.235s1.068-2.1,1.245-1.884a2.426,2.426,0,0,1,.461,1.343Z" transform="translate(-26.216 -26.527)" fill="#ffcec8"/><path d="M157,143.844l.154-.049c.558,0,1.237-1.326,1.286-2.548l.283-2.337c0-.429-.1-.76-.429-.655h-.105a1.7,1.7,0,0,0-1.051,1.618Z" transform="translate(-30.026 -26.437)" fill="#f28c63"/><path d="M159.888,154.96H150.07v11.258l9.818-.016Z" transform="translate(-35.033 -35.968)" fill="#ff9b8f"/><path d="M150.07,160.5l4.545,3.639-4.545,3.122Z" transform="translate(-35.033 -37.028)" fill="#ff9b8f"/><path d="M152.058,152.67v6.737a46.261,46.261,0,0,1-9.818,0Z" transform="translate(-27.203 -29.198)" fill="#ffcec8"/><path d="M146.368,122.74a7.907,7.907,0,0,0-8.168,7.61,7.069,7.069,0,0,0,.089,1.108l.809,10.732a5.233,5.233,0,0,0,1.99,3.753l3.583,2.814a2.75,2.75,0,0,0,1.706.59h.049a2.718,2.718,0,0,0,1.706-.59l3.567-2.8a5.3,5.3,0,0,0,2.014-3.785l.809-10.716a7.074,7.074,0,0,0,.081-1.108h0A8.029,8.029,0,0,0,146.368,122.74Z" transform="translate(-26.43 -23.474)" fill="#ffcec8"/><path d="M160.539,164.789l-.809-.162a57.238,57.238,0,0,1-5.831-1.415l-2.9-.922c-.631,2.119-4.206,4.165-8.088,4.173s-7.441-2.054-8.088-4.173l-3.631,1.148a43.969,43.969,0,0,1-4.367,1.035l-1.545.315a6.543,6.543,0,0,0-5.079,5.7l-.049.356a29.115,29.115,0,0,0,45.476,0l-.04-.356A6.559,6.559,0,0,0,160.539,164.789Z" transform="translate(-22.978 -31.037)" fill="#005014"/><path d="M155.3,162.63l-1.084-.34c-1.116,2.556-4.262,3.963-8.088,3.963s-6.955-1.407-8.088-3.963l-1.092.34c1.043,3.8,6.333,4.772,9.155,4.772h0C148.968,167.4,154.257,166.431,155.3,162.63Z" transform="translate(-26.191 -31.037)" fill="#fff"/><path d="M146.7,121.415c4.044.235,6.138,1.618,7.489,3.688.251-.259.332.259.663.137,3.955,6.171,3.34,13.749.121,18-1.059,1.4-2.944,3.47-3.324,4.788,0,0-.469-.493.906-3.235a11.1,11.1,0,0,0,.914-6.882c-2.054-5.944-8.435-3.284-13.118-9.042a29.552,29.552,0,0,0-1.844,8.088C138.5,136.983,134.533,120.695,146.7,121.415Z" transform="translate(-26.37 -23.216)" fill="#2d2d3d"/><line x2="182.657" transform="translate(-6.333 90.006)" fill="none" stroke="#fff" stroke-miterlimit="10" stroke-width="2.42"/><line y2="182.657" transform="translate(84.992 -6.333)" fill="none" stroke="#fff" stroke-miterlimit="10" stroke-width="2.42"/><path d="M57.653,92.55v10.514H56.7v-.518H48.684v.518H47.73V92.55Zm-.987,9.058V93.464H48.684v8.144Zm-.615-1.787v.809H49.283v-.809h2.871V97.766H49.922v-.809h2.232V95.243H49.42v-.809h6.535v.809H53.124v1.715h2.265v.809H53.124v2.095ZM54.58,97.912a6.89,6.89,0,0,1,.954,1.383l-.809.356a6.389,6.389,0,0,0-.809-1.367Z" transform="translate(-9.128 -17.7)" fill="#fff"/><path d="M67.927,94.76H63.39v-.809h4.537ZM67.49,102.4h-2.8v.526h-.882V98.885H67.45Zm-.089-6H63.883V95.65h3.478Zm-3.518.865h3.478v.752H63.883Zm3.34-4.165H63.988V92.35h3.235Zm-2.531,6.624v1.844h1.86V99.726ZM74.4,96.919v.809H67.846v-.809H69.3c.154-.485.307-1.068.477-1.682H68.615v-.809h1.407l.283-1.173H68.283V92.35h5.766V93.2H71.308l-.291,1.173h2.426v2.548Zm-5.936,1.812h5.411v4.278h-.962v-.429H69.448v.4h-.962Zm.962.873v2.143h3.461V99.6Zm.93-2.685H72.5V95.213H70.8C70.645,95.828,70.475,96.41,70.353,96.919Z" transform="translate(-12.123 -17.662)" fill="#fff"/><path d="M139.826,94.99h-2.119v-.809h2.426V91.86h.938V94.2h2.362v.809h-2.3c.671.429,1.391.938,1.812,1.262l-.518.7a17.632,17.632,0,0,0-1.351-1.189v1.4h-.938V95.791a10.215,10.215,0,0,1-1.957,1.666l-.566-.7A8.936,8.936,0,0,0,139.826,94.99Zm2.507,7.279a11.451,11.451,0,0,0-1.27-.736,6.826,6.826,0,0,1-2.774,1.343l-.582-.728a6.349,6.349,0,0,0,2.467-1.035c-.372-.17-.744-.324-1.148-.477l-.121.218-.873-.315c.259-.453.6-1.116.922-1.8h-1.245v-.809h1.618l.364-.809.995.113-.323.728h3.178v.809h-.97a5.2,5.2,0,0,1-.865,2.119,12.675,12.675,0,0,1,1.334.736Zm-3.6-8.2a5.346,5.346,0,0,0-.655-1.537l.679-.34a5.749,5.749,0,0,1,.809,1.561Zm.639,5.863c.518.178.979.372,1.44.566a4.141,4.141,0,0,0,.744-1.739h-1.617Zm2.806-5.855-.671-.332a11.784,11.784,0,0,0,.865-1.617l.809.348a12.268,12.268,0,0,1-.979,1.6Zm6.7,8.088-.7.809a7.109,7.109,0,0,1-2.281-2.224,9.931,9.931,0,0,1-2.426,2.208l-.72-.7a9.188,9.188,0,0,0,2.612-2.426,14.145,14.145,0,0,1-1.148-3.478,11.178,11.178,0,0,1-.7,1.189l-.712-.615a11.557,11.557,0,0,0,1.82-5.014l.93.146a16.869,16.869,0,0,1-.4,1.884h3.55v.9h-.865a11.039,11.039,0,0,1-1.391,5.063,6.252,6.252,0,0,0,2.451,2.24Zm-2.936-3.235a10.158,10.158,0,0,0,.93-4.044h-1.99v.04a14,14,0,0,0,1.124,3.939Z" transform="translate(-26.317 -17.568)" fill="#fff"/><path d="M157.74,92.94v9.212h-1.1V92.94Z" transform="translate(-29.957 -17.774)" fill="#fff"/><path d="M54.388,184.075v-3.882h-2.07v5.661h7.732v.97H52.317v.639H51.266v-7.279H49.43v-.962h1.836v-2.653h1.051v2.653h2.111V176.44H55.4v2.782h2.176v-2.774h1.019v2.774h1.876v.962H58.593v3.882Zm.971-3.882v2.944h2.216v-2.944Z" transform="translate(-9.453 -33.744)" fill="#fff"/><path d="M72.677,184.146c0,1.771-1.181,2.556-3.154,2.556H66.83V177.49h2.507c1.545,0,3,.453,3,2.216a2.03,2.03,0,0,1-1.537,2.1,2.095,2.095,0,0,1,1.876,2.337Zm-4.772-2.677h1.933a1.488,1.488,0,0,0,1.423-1.618c0-1-.7-1.464-2.062-1.464H67.906Zm3.647,2.58c0-1.221-.809-1.739-2.078-1.739H67.906v3.445h1.488C70.51,185.755,71.553,185.545,71.553,184.049Z" transform="translate(-12.781 -33.944)" fill="#fff"/><path d="M144.568,186.59l-.607.89a6.883,6.883,0,0,1-4.933-3.025c-.631,1.205-2.119,2.232-4.925,3.025l-.623-.809c2.984-.768,4.335-1.739,4.78-2.92h-4.772v-.873h1.618v-2.9h3.308v-1.076h.995v1.076h3.47v2.9H144.5v.873h-4.853C140.637,185.45,142.376,186.275,144.568,186.59Zm-8.088-8.2h-2.912v-.865h2.912V176.4h.987v1.084h3.057V176.4h1.011v1.084h2.976v.865H141.5v1.116h-1.011v-1.116h-3.057v1.092h-.987Zm1.981,4.5v-2.062h-2.337v2.062Zm.995-2.062v2.062h2.426v-2.062Z" transform="translate(-25.528 -33.736)" fill="#fff"/><path d="M154.3,179.3h-4.5V178.5h4.5Zm-.429,7.643H151.11v.55h-.89v-4.044h3.647Zm-.1-5.993h-3.453v-.736h3.453Zm-3.453.882h3.453v.76h-3.453Zm3.332-4.157h-3.186v-.76h3.186Zm-2.539,6.583v1.844h1.86v-1.844Zm9.705-2.839v.865h-6.551v-.865h1.448c.162-.477.315-1.059.485-1.674h-1.189v-.809h1.423l.291-1.173h-2.03v-.857h5.783v.882h-2.75l-.283,1.173h2.426v2.515Zm-5.936,1.812h5.411v4.286H159.3v-.4h-3.47v.4h-.954Zm.954.882v2.143h3.47v-2.143Zm.89-2.693h2.135v-1.674h-1.618c-.178.631-.348,1.213-.493,1.69Z" transform="translate(-28.649 -33.833)" fill="#fff"/></g></g></g></svg>