<svg xmlns="http://www.w3.org/2000/svg" xmlns:xlink="http://www.w3.org/1999/xlink" viewBox="0 0 375.12 515.23"><defs><style>.cls-1{fill:#fff;}.cls-2{fill:#005014;}.cls-3{fill:#2d2d3d;}.cls-4{fill:#ffcec8;}.cls-5{fill:#d7b38d;}.cls-6{fill:#ffbdb5;}.cls-7{fill:#966642;}.cls-8{fill:#ff5a1f;}.cls-9{fill:#e34934;}.cls-10{fill:#ff897a;}.cls-11{fill:#00320f;}.cls-12{fill:#ffaba1;}.cls-13{fill:#ffb4ab;}.cls-14{fill:#5c403a;}.cls-15{fill:#fff6ec;}.cls-16{fill:url(#名称未設定グラデーション_122);}.cls-17{fill:url(#名称未設定グラデーション_974);}.cls-18{fill:#222228;}.cls-19{fill:url(#名称未設定グラデーション_122-2);}.cls-20{fill:url(#名称未設定グラデーション_974-2);}.cls-21{fill:#a3472e;}.cls-22{fill:#ff8c67;}.cls-23{fill:#ff9b8f;}.cls-24,.cls-25,.cls-26,.cls-27,.cls-28,.cls-29,.cls-30,.cls-31,.cls-32{fill:none;stroke-miterlimit:10;stroke-width:0.84px;}.cls-24{stroke:url(#名称未設定グラデーション_19);}.cls-25{stroke:#ff5a1f;}.cls-26{stroke:url(#名称未設定グラデーション_22);}.cls-27{stroke:url(#名称未設定グラデーション_28);}.cls-28{stroke:url(#名称未設定グラデーション_12);}.cls-29{stroke:url(#名称未設定グラデーション_31);}.cls-30{stroke:url(#名称未設定グラデーション_14);}.cls-31{stroke:url(#名称未設定グラデーション_24);}.cls-32{stroke:url(#名称未設定グラデーション_33);}</style><linearGradient id="名称未設定グラデーション_122" x1="-1064.94" y1="-893.04" x2="-1065.66" y2="-897.13" gradientTransform="translate(-53.18 1449.51) rotate(54.82)" gradientUnits="userSpaceOnUse"><stop offset="0" stop-color="#008111"/><stop offset="0.05" stop-color="#007712"/><stop offset="0.17" stop-color="#006613"/><stop offset="0.32" stop-color="#005913"/><stop offset="0.53" stop-color="#005214"/><stop offset="1" stop-color="#005014"/></linearGradient><linearGradient id="名称未設定グラデーション_974" x1="-1060.37" y1="-899.94" x2="-1064.24" y2="-894.42" gradientTransform="translate(-53.18 1449.51) rotate(54.82)" gradientUnits="userSpaceOnUse"><stop offset="0" stop-color="#ff7200"/><stop offset="0.28" stop-color="#ff6116"/><stop offset="0.47" stop-color="#ff5a1f"/></linearGradient><linearGradient id="名称未設定グラデーション_122-2" x1="289.46" y1="1189.84" x2="288.74" y2="1185.75" gradientTransform="matrix(0.82, -0.58, 0.58, 0.82, -635.5, -619.07)" xlink:href="#名称未設定グラデーション_122"/><linearGradient id="名称未設定グラデーション_974-2" x1="294.07" y1="1182.98" x2="290.2" y2="1188.5" gradientTransform="matrix(0.82, -0.58, 0.58, 0.82, -635.5, -619.07)" xlink:href="#名称未設定グラデーション_974"/><linearGradient id="名称未設定グラデーション_19" x1="146.28" y1="299.59" x2="266.21" y2="299.59" gradientUnits="userSpaceOnUse"><stop offset="0" stop-color="#ff5a1f"/><stop offset="0.09" stop-color="#f35a1e"/><stop offset="0.25" stop-color="#d2581d"/><stop offset="0.46" stop-color="#9e561b"/><stop offset="0.72" stop-color="#555318"/><stop offset="1" stop-color="#005014"/></linearGradient><linearGradient id="名称未設定グラデーション_22" x1="156.99" y1="48.72" x2="254.47" y2="316.55" gradientUnits="userSpaceOnUse"><stop offset="0.2" stop-color="#ff5a1f"/><stop offset="0.32" stop-color="#d1581d"/><stop offset="0.59" stop-color="#5f5418"/><stop offset="0.8" stop-color="#005014"/></linearGradient><linearGradient id="名称未設定グラデーション_28" x1="-93.03" y1="166.69" x2="352.24" y2="166.69" gradientUnits="userSpaceOnUse"><stop offset="0.2" stop-color="#ff5a1f"/><stop offset="0.8" stop-color="#005014"/></linearGradient><linearGradient id="名称未設定グラデーション_12" x1="-269.12" y1="243.92" x2="141.17" y2="243.92" gradientUnits="userSpaceOnUse"><stop offset="0" stop-color="#005014"/><stop offset="0.19" stop-color="#405317"/><stop offset="0.41" stop-color="#83551a"/><stop offset="0.61" stop-color="#b9571c"/><stop offset="0.78" stop-color="#df591e"/><stop offset="0.91" stop-color="#f65a1f"/><stop offset="1" stop-color="#ff5a1f"/></linearGradient><linearGradient id="名称未設定グラデーション_31" x1="223.56" y1="121.74" x2="609.68" y2="121.74" gradientUnits="userSpaceOnUse"><stop offset="0.2" stop-color="#005014"/><stop offset="0.8" stop-color="#ff5a1f"/></linearGradient><linearGradient id="名称未設定グラデーション_14" x1="22.91" y1="265.31" x2="171.98" y2="265.31" gradientUnits="userSpaceOnUse"><stop offset="0" stop-color="#005014"/><stop offset="0.28" stop-color="#555318"/><stop offset="0.54" stop-color="#9e561b"/><stop offset="0.75" stop-color="#d2581d"/><stop offset="0.91" stop-color="#f35a1e"/><stop offset="1" stop-color="#ff5a1f"/></linearGradient><linearGradient id="名称未設定グラデーション_24" x1="129.66" y1="115.48" x2="319.24" y2="115.48" gradientUnits="userSpaceOnUse"><stop offset="0.2" stop-color="#ff5a1f"/><stop offset="0.47" stop-color="#8e561a"/><stop offset="0.8" stop-color="#005014"/></linearGradient><linearGradient id="名称未設定グラデーション_33" x1="360.69" y1="186.03" x2="561.87" y2="186.03" gradientUnits="userSpaceOnUse"><stop offset="0.2" stop-color="#ff5a1f"/><stop offset="0.25" stop-color="#e2591e"/><stop offset="0.41" stop-color="#92561a"/><stop offset="0.55" stop-color="#545318"/><stop offset="0.66" stop-color="#265216"/><stop offset="0.75" stop-color="#0a5014"/><stop offset="0.8" stop-color="#005014"/></linearGradient></defs><g id="レイヤー_1" data-name="レイヤー 1"><rect class="cls-1" x="0.12" width="375" height="515.23"/><path class="cls-2" d="M84,412.56a13.36,13.36,0,0,1-4.7-4,9.23,9.23,0,0,1,.13,1v.71c0,2.59-1.28,3.62-3.8,3.62l-.86-1.59c.28,0,.55,0,.84,0,1.7-.09,1.75-1,1.82-2.43a19,19,0,0,1-4.79,2.43,14.34,14.34,0,0,1-2.21.65l-1.12-1.42c2.7-.59,5.89-1.75,7.92-3.69a3.28,3.28,0,0,0-.27-1,17.68,17.68,0,0,1-6.23,3.17l-1.13-1.31c1.85-.43,5-1.77,6.25-3.19a3.1,3.1,0,0,0-.56-.47,16.9,16.9,0,0,1-4.56,2.06l-1.11-1.32a13.14,13.14,0,0,0,5.27-2.38H72.78v-1.56H82v1.56H78l-1.22.83A7,7,0,0,1,78.47,406a25.69,25.69,0,0,0,4-2.07,14.57,14.57,0,0,1,1.42,2c0,.11-.11.16-.2.16a.62.62,0,0,1-.32-.11c-1.07.24-2.07.63-3.12.92A10.93,10.93,0,0,0,85.49,411Zm-1.36-9.31v-2.38H72.17v2.58h-2v-4.11H76.2v-2l2.2.11c.18,0,.34,0,.34.23s-.18.22-.29.27v1.44h6.29v3.91Z"/><path class="cls-2" d="M91.81,400.75c0,1.35,0,2.68,0,4,0,2.65-.25,6.63-1.87,8.81l-1.82-1c1.71-1.83,1.7-5.2,1.7-7.56,0-1.94-.06-3.87-.15-5.81h6.21v-1.88l2.18.16c.13,0,.29.06.29.22s-.16.25-.29.29v1.21h6.25v1.51Zm12.6,12.66h-2.48c-2.53,0-4.87-.31-6.85-2a9.11,9.11,0,0,1-2.68,2.34l-1.28-1.24a7,7,0,0,0,2.77-2.29,14.85,14.85,0,0,1-1.42-2.32l1.35-1.05a14,14,0,0,0,1,2,8,8,0,0,0,.55-2.17H92.56V406l2.31-2.93H92.36v-1.36h4.72v1.15L95,405.5H97.3A11.08,11.08,0,0,1,96,410.07c1.56,1.66,4.28,1.81,6.41,1.81.86,0,1.71,0,2.57-.09Zm-2.67-6.67V409h2.45v1.46H97.6v-1.4h2.25v-2.36H97.42v-1.33h2.43v-1.79a20.25,20.25,0,0,1-2.09.22l-.61-1.33a16.34,16.34,0,0,0,5.69-1.3L104,402.4a.32.32,0,0,1,.14.24.26.26,0,0,1-.29.25.66.66,0,0,1-.25-.07,18.38,18.38,0,0,1-1.84.48v2h2.7v1.42Z"/><path class="cls-2" d="M117.31,399.43a23.33,23.33,0,0,1-2.19,3.39h1.17v1.46H114c-.27.28-.52.57-.81.86h2.49v1.24a19.22,19.22,0,0,1-2,1.77v.45c1-.15,2-.29,3-.49l-.16,1.66c-.9.21-1.82.34-2.72.5v1.06c0,1.72-1,2.47-2.54,2.81L110,412.83c1.55-.38,1.87-.63,1.87-2.27l-2.45.47c0,.11-.12.3-.25.3s-.16-.07-.2-.16l-.83-1.83c1.23-.13,2.45-.31,3.66-.51,0-.57,0-1.17,0-1.74l1.1.05a4.21,4.21,0,0,0,.69-.81h-1.66a14.19,14.19,0,0,1-3.19,2.07l-1.24-1.22a14.45,14.45,0,0,0,4.21-2.92h-3.76v-1.5h3v-1.54h-2.33v-1.66h2.31v-2.23l2.14.16c.11,0,.22.05.22.18s-.15.27-.27.32v1.59h1.36v1a20.3,20.3,0,0,0,1.19-2.7l2,1a.33.33,0,0,1,.21.29C117.69,399.43,117.44,399.45,117.31,399.43Zm-4.39,1.75v1.6a16.88,16.88,0,0,0,1.12-1.6Zm10.48,12.57a14.13,14.13,0,0,1-3.12-3,13.44,13.44,0,0,1-4.44,3.21l-1.32-1.41a8.92,8.92,0,0,0,4.56-3.35,16,16,0,0,1-1.41-3.58,7.56,7.56,0,0,1-.72,1l-1.24-1.15a18.32,18.32,0,0,0,2.85-8.12l2.28.61a.35.35,0,0,1,.24.31c0,.16-.27.3-.4.34-.25.84-.52,1.71-.83,2.54h4.52v1.6h-1a15.56,15.56,0,0,1-1.85,6.5,11.78,11.78,0,0,0,3.44,3Zm-4.21-11-.18.39a17.15,17.15,0,0,0,1.24,4.27,16.12,16.12,0,0,0,1-4.66Z"/><path class="cls-2" d="M127.93,412.78V400.19h1.55a31.08,31.08,0,0,0,1.1-3l2.18.59c.16,0,.34.17.34.34s-.31.26-.45.28c-.42.59-.79,1.18-1.23,1.76h2.42v5.28h-4.09v1.31h4.18v6Zm4-11.19h-2.23v2.52H132Zm.15,6.63h-2.38v3.11h2.38Zm7.74-7.83v2.09h3.31v5.81c0,1.8-.11,3.06-2,3.82l-1.35-1.28V414h-1.94V404h-1.23v7.76h-1.89v-9.27h3.06v-2.09h-3.53v-1.62h9.47v1.62Zm1.4,3.6h-1.42v6.8a2.07,2.07,0,0,0,1.42-2.34Z"/><path class="cls-2" d="M156,412.94c-2.58,0-6.68-.34-6.68-3.78,0-2.51,2.16-3.78,4.19-4.65a24,24,0,0,1-.72-6.37l1.64.11a7.38,7.38,0,0,1,.81.07c.09,0,.2.05.2.16s-.07.14-.13.2a10.17,10.17,0,0,0-.11,1.65c0,.67,0,2.76.35,3.23a.25.25,0,0,0,.16.05,22.22,22.22,0,0,0,4.54-1.6c.27.77.45,1.58.66,2.37-2.25.45-9.4,1.61-9.4,4.58,0,1.67,2.67,2,3.91,2a17.92,17.92,0,0,0,5.78-.81c.11.75.2,1.53.25,2.3A30.26,30.26,0,0,1,156,412.94Z"/><path class="cls-2" d="M181.5,413.75a15.94,15.94,0,0,1-6.82-2.49,16.26,16.26,0,0,1-6.68,2.51L166.77,412a15.72,15.72,0,0,0,6.29-1.91,20.11,20.11,0,0,1-2.9-2.86l1.3-.83h-1.55v-1.57h9.34v1.44a11.33,11.33,0,0,1-2.95,3.85,16.59,16.59,0,0,0,6.36,1.73Zm-1.69-7.6v-2.41h-10.5v2.61h-2v-4.2h3c-.31-.7-.62-1.38-.94-2.07l-1.78.06-.72-1.68c2.19,0,4.41,0,6.6-.18a24.46,24.46,0,0,0,6.25-1,15,15,0,0,1,1.61,1.91.25.25,0,0,1-.27.23.78.78,0,0,1-.4-.12c-.6.07-1.17.09-1.77.14.35.14.69.27,1,.43.11.06.2.11.2.25s-.23.22-.36.24c-.38.59-.72,1.19-1.12,1.76h3.3v4Zm-4.54-6.34c.11.61.29,1.19.38,1.8L174,402c-.26-.71-.47-1.41-.72-2.09-.6.05-1.21.07-1.82.09.14.57.34,1.13.49,1.71l-1.23.41h6.05a26.14,26.14,0,0,0,.83-2.5C176.8,399.69,176.05,399.78,175.27,399.81Zm-3.15,6.63a10.55,10.55,0,0,0,2.51,2.61,8.06,8.06,0,0,0,2.14-2.61Z"/><path class="cls-2" d="M187.69,411.33c-.07-.68-.12-1.36-.21-2.05a12.86,12.86,0,0,1-1,3.06l-1.4-.77a14.6,14.6,0,0,0,.9-4.18c.25.09,1.85.49,1.85.7s-.1.17-.18.2v.09c.25-.09.48-.18.73-.25.15.94.26,1.89.35,2.83Zm14-7.61a9,9,0,0,1-1.62-1.06v.39h-1.85v1.23h3.17v4.62h-2.81a7.75,7.75,0,0,0,4.1,3.5L201.39,414a8.41,8.41,0,0,1-1.83-1.18,8.31,8.31,0,0,1-2.24-2.63,7.43,7.43,0,0,1-4.32,3.72l-1.19-1.26a4.43,4.43,0,0,1-1.83,1l-1.15-1.26c1.31-.37,2.1-.86,2.25-2.32l-.72.22c-.11-.87-.24-1.73-.38-2.6l.9-.27.25,1.82c0-.47,0-.92,0-1.38v-.9l-4.76,0v-9H193v1.48H191v1.15h1.53v1.37H191V403h1.38l-.48-.44a10.48,10.48,0,0,0,4.16-5.38l2.08.32c.08,0,.2.08.2.17a.27.27,0,0,1-.16.21,10.21,10.21,0,0,0,4.7,4.34Zm-13.5-4.38v1.19h1.08l0-1.19Zm1.1,2.56h-1.1V403h1.1Zm0,2.45h-1.1v1.3h1.1Zm-.18,6.39c-.08-.9-.24-1.8-.38-2.7l.95-.29q.22,1.35.36,2.7Zm7.14-7.69h-1.8v-.32a8.38,8.38,0,0,1-1.33,1l-.61-.56v1.21H191v1.28l2,0c0,.43,0,.85,0,1.28,0,.72,0,1.42,0,2.14-.05,1.22-.09,2.59-1,3.51a6.15,6.15,0,0,0,4-3.64h-2.54v-4.62h2.91Zm-1.2,2.56v2h1.13a5.79,5.79,0,0,0,.06-.83v-1.15Zm2.05-6a12.31,12.31,0,0,1-1.58,2.07h3.31A11.12,11.12,0,0,1,197.09,399.61Zm2.38,6h-1.32c0,.67,0,1.31,0,2h1.34Z"/><path class="cls-2" d="M205.67,413.28v-1.64h6.76v-3.29h-4.49v-1.71h4.49v-3.1h-3.61a16,16,0,0,1-2.17,3.62l-1.73-.92c1.62-1.78,2.61-4.95,3-7.31l2.28.54a.31.31,0,0,1,.24.31c0,.21-.24.32-.42.37-.18.58-.38,1.14-.59,1.7h2.93V398l2.18.1c.13,0,.29.07.29.22s-.18.27-.31.31v3.24h5.69v1.69h-5.69v3.1h4.83v1.71h-4.83v3.29H221v1.64Z"/><path class="cls-2" d="M233.83,412.56a3,3,0,0,1-2,.56,4.72,4.72,0,0,1-1.76-.38c-.07-.68-.13-1.35-.22-2a4.23,4.23,0,0,0,2,.51c1.46,0,1.44-4,1.44-5.08,0-.74,0-2.05-1-2.05a5.81,5.81,0,0,0-1.08.14c-.71,2.61-2.25,6.79-3.85,8.95-.7-.32-1.35-.68-2-1a23.55,23.55,0,0,0,3.64-7.67c-.83.14-1.66.32-2.47.52-.06-.2-.52-1.93-.52-1.93s.12-.1.18-.1.3,0,.47,0a16.69,16.69,0,0,0,2.79-.32,26,26,0,0,0,.64-4.29c.54.11,1.07.26,1.59.4.23.07.5.13.74.22.09,0,.23.09.23.21s-.12.16-.21.2c-.22,1-.46,2-.74,3,.36,0,.72-.09,1.08-.09A2.1,2.1,0,0,1,235,404a8.71,8.71,0,0,1,.36,2.74C235.39,408.33,235.12,411.43,233.83,412.56Zm2.63-11.34a19,19,0,0,0-1.37-2.56l1.46-.6a20.82,20.82,0,0,1,1.27,2.49Zm1.83,7.94c-.39-.53-.83-1-1.26-1.5.52-.09,1.84-.36,1.84-1,0-1.15-1.77-3.24-2.59-4,.68-.3,1.36-.61,2-1,1.08,1.17,2.87,3.75,2.87,5.37C241.16,408.35,239.34,408.85,238.29,409.16Zm.58-8.57a16.87,16.87,0,0,0-1.35-2.56l1.39-.65a15.06,15.06,0,0,1,1.35,2.54Z"/><path class="cls-2" d="M254.53,411.91a19.3,19.3,0,0,1-3.35.67c-.56-.58-1.08-1.19-1.68-1.71a30.41,30.41,0,0,0,4.31-.85c2.07-.63,4-1.78,4-4.21s-1.46-3.17-3.64-3.17c-3,0-5.83,1.82-8.78,2.45-.09-.26-.9-2.27-.9-2.36s.27-.11.39-.11a18.43,18.43,0,0,0,4.49-.94,19.48,19.48,0,0,1,5.45-1c3,0,5.42,1.82,5.42,4.94C260.27,409.37,257.82,411,254.53,411.91Z"/><path class="cls-2" d="M272.94,401.77c-.88.22-1.75.4-2.63.54a34.21,34.21,0,0,1-3.92,8.45c-.67-.29-1.34-.63-2-1a27.34,27.34,0,0,0,3.6-7.26,21.67,21.67,0,0,1-2.68.2c-.09-.63-.2-1.26-.29-1.91a8,8,0,0,0,1,0,19.06,19.06,0,0,0,2.5-.15,17.21,17.21,0,0,0,.49-3.11c.84.1,1.67.19,2.5.36-.22.83-.43,1.67-.72,2.5.74-.14,1.44-.4,2.16-.61C273,400.48,272.94,401.13,272.94,401.77Zm5,10.66a15.45,15.45,0,0,0-2.47-1.85c0,.2,0,.4,0,.59,0,1.86-1.38,2.36-3,2.36a6.13,6.13,0,0,1-1.71-.23,3,3,0,0,1-2.24-2.56c0-1.82,1.48-2.74,3.17-2.74a10.53,10.53,0,0,1,1.48.11c-.06-.84-.13-1.69-.13-2.54a3.21,3.21,0,0,1,.22-1.22h1.62c.11,0,.63-.07.63.14,0,0,0,.06,0,.07a2,2,0,0,0-.32,1.1c0,1,.07,1.89.16,2.85a14.32,14.32,0,0,1,3.91,2.14A21.58,21.58,0,0,1,277.91,412.43Zm-4.59-2.59a3.51,3.51,0,0,0-1.3-.2c-.68,0-1.53.18-1.53,1s1.05,1.21,1.75,1.21,1.15-.13,1.15-.9C273.39,410.6,273.35,410.22,273.32,409.84Zm4.77-5.49a11.74,11.74,0,0,0-4.37-2.07l1-1.8a11.69,11.69,0,0,1,4.48,2.07Z"/><path class="cls-2" d="M292.15,412.56a3,3,0,0,1-2,.56,4.72,4.72,0,0,1-1.76-.38c-.07-.68-.13-1.35-.22-2a4.2,4.2,0,0,0,2,.51c1.46,0,1.44-4,1.44-5.08,0-.74,0-2.05-1-2.05a5.71,5.71,0,0,0-1.08.14c-.72,2.61-2.25,6.79-3.85,8.95-.7-.32-1.35-.68-2.05-1a23.55,23.55,0,0,0,3.64-7.67c-.83.14-1.66.32-2.47.52-.05-.2-.52-1.93-.52-1.93s.12-.1.18-.1.3,0,.46,0a16.68,16.68,0,0,0,2.8-.32,26,26,0,0,0,.64-4.29c.54.11,1.07.26,1.59.4.23.07.5.13.74.22.09,0,.23.09.23.21s-.13.16-.22.2c-.21,1-.45,2-.73,3,.36,0,.72-.09,1.08-.09a2.1,2.1,0,0,1,2.37,1.53,8.71,8.71,0,0,1,.36,2.74C293.71,408.33,293.44,411.43,292.15,412.56Zm2.63-11.34a19,19,0,0,0-1.37-2.56l1.46-.6a20.82,20.82,0,0,1,1.27,2.49Zm1.83,7.94c-.39-.53-.83-1-1.26-1.5.52-.09,1.84-.36,1.84-1,0-1.15-1.77-3.24-2.59-4,.68-.3,1.36-.61,2-1,1.08,1.17,2.87,3.75,2.87,5.37C299.48,408.35,297.66,408.85,296.61,409.16Zm.58-8.57a16.87,16.87,0,0,0-1.35-2.56l1.38-.65a14.42,14.42,0,0,1,1.36,2.54Z"/><path class="cls-2" d="M311.17,413.14c-1.49,0-3.9-.53-3.9-2.42,0-1.33,1.44-2,2.59-2a2.62,2.62,0,0,1,2.48,1.62,3.33,3.33,0,0,1,.18,1,2.84,2.84,0,0,0,2.31-2.66c0-1.86-1.42-2.76-3.15-2.76-2.72,0-4.29,2.14-6,3.93L304,408.42a39.45,39.45,0,0,0,6.83-7.6c-1.44.29-2.88.52-4.32.77l-.4-2.12a5.62,5.62,0,0,0,.58,0,21,21,0,0,0,2.39-.18,33.28,33.28,0,0,0,3.3-.51c.38-.07.75-.19,1.13-.3.42.48.83.95,1.24,1.44-.18.12-.37.25-.54.39a14.83,14.83,0,0,0-1.17,1.21c-.86,1-1.67,2-2.5,3a7.08,7.08,0,0,1,1.66-.16c2.5,0,4.79,1.3,4.79,4C317,411.75,314.14,413.14,311.17,413.14Zm-1.53-2.94c-.34,0-.56.13-.56.49,0,.66,1,.75,1.5.75C310.49,410.92,310.31,410.2,309.64,410.2Z"/><path class="cls-2" d="M128.85,434.55c.07,2.31.22,4.61.22,6.93,0,1.61-.6,2.24-2.14,2.6a13.42,13.42,0,0,1-1.39.23c-.4-.63-.83-1.22-1.23-1.85,1.9-.13,2.4-.06,2.4-2.06,0-1.37,0-2.75-.09-4.14a13.18,13.18,0,0,1-1.44,2,18.28,18.28,0,0,1-5.26,4.05c-.56-.51-1.13-1-1.73-1.44a15.27,15.27,0,0,0,3.66-2.25,13.18,13.18,0,0,0,3.24-4.11h-5.91v-1.91h7.3c0-1.11-.11-2.21-.17-3.33l2.42.22c.12,0,.32.07.32.25a.42.42,0,0,1-.29.34c0,.85,0,1.68,0,2.52H133v1.91Z"/><path class="cls-2" d="M143.29,442.6a17.34,17.34,0,0,1-3.17,1c-.11-.21-1.24-2.25-1.24-2.25s.09-.07.14-.07a4,4,0,0,0,.77-.09,20,20,0,0,0,5.75-2.13,30.65,30.65,0,0,0,6.71-4.77c.15.89.33,1.77.49,2.65A31.4,31.4,0,0,1,143.29,442.6Zm-.42-7.27a20.8,20.8,0,0,0-3.6-3.35c.7-.51,1.37-1.05,2-1.57a18.74,18.74,0,0,1,3.48,3.3A14.39,14.39,0,0,1,142.87,435.33Z"/><path class="cls-2" d="M170.79,435.51a14.1,14.1,0,0,1-1,2.77,10.8,10.8,0,0,1-6.48,5.76,17,17,0,0,1-2.07.63c-.54-.59-1-1.21-1.62-1.75,3.82-.72,7.15-2.53,8.28-6.5l.06-.21c-3.25,0-6.47.14-9.71.3,0-.73,0-1.45,0-2.19,2.21.12,4.48.07,6.7.07a45.07,45.07,0,0,0,4.93-.22,7.51,7.51,0,0,1,1.26,1.1C171.1,435.42,170.9,435.49,170.79,435.51Zm-1.06-3.26c-.61,0-1.21,0-1.82,0-2.16,0-4.32,0-6.48.07-.56,0-1.12,0-1.67,0v-.42c0-.57,0-1.13,0-1.71a15.93,15.93,0,0,0,1.69.08c2.77,0,5.57,0,8.34-.15v.36C169.75,431.08,169.73,431.65,169.73,432.25Z"/><path class="cls-2" d="M189.42,431a22.5,22.5,0,0,1-3.36,3.4v9.85h-2.38l0-8.32c-.75.52-1.56,1-2.37,1.44a27,27,0,0,1-2.78,1.3l-1.49-1.77a20.29,20.29,0,0,0,3.76-1.63,21.26,21.26,0,0,0,3.41-2.34,16.82,16.82,0,0,0,3.15-3.59l2.27,1.23a.2.2,0,0,1,.12.19C189.8,430.93,189.55,431,189.42,431Z"/><path class="cls-2" d="M201.61,442.6a17.34,17.34,0,0,1-3.17,1c-.11-.21-1.25-2.25-1.25-2.25s.09-.07.15-.07a4,4,0,0,0,.77-.09,20,20,0,0,0,5.75-2.13,30.65,30.65,0,0,0,6.71-4.77c.15.89.33,1.77.49,2.65A31.4,31.4,0,0,1,201.61,442.6Zm-.42-7.27a20.8,20.8,0,0,0-3.6-3.35c.7-.51,1.37-1.05,2-1.57a18.74,18.74,0,0,1,3.48,3.3A14.39,14.39,0,0,1,201.19,435.33Z"/><path class="cls-2" d="M218.8,433.06c0,.47,0,.92,0,1.38,0,3.41-.16,7.84-2.77,10.36-.56-.42-1.17-.78-1.75-1.16,2.13-1.94,2.36-5.09,2.36-7.79,0-1.53-.07-3.06-.12-4.59h5.81v-2.74l2.38.14a.31.31,0,0,1,.32.27c0,.17-.25.29-.37.35v2h6v1.8Zm10.12,12c-.35-.69-.67-1.37-1-2-3,.58-6,1-9,1.48l-.7-1.71a5.31,5.31,0,0,0,1.06-.15c.42-.16.45-.25.7-.61a10.75,10.75,0,0,0,1.1-2.23,48.71,48.71,0,0,0,2.11-6.09l2.3,1a.34.34,0,0,1,.26.3c0,.24-.35.36-.53.4a58,58,0,0,1-3.4,6.95c1.78-.18,3.55-.43,5.29-.77a17.2,17.2,0,0,0-1.85-2.7l1.84-1a29.34,29.34,0,0,1,3.72,6.3Z"/><path class="cls-2" d="M239.73,439.47c-1.44.68-2.88,1.4-4.36,2,0,.13-.09.36-.25.36s-.21-.14-.25-.23l-.76-1.77c.76-.28,1.53-.54,2.31-.81v-4.71h-2v-1.59h1.94v-4l2.07.18c.13,0,.27,0,.27.19s-.21.24-.34.29v3.35h1.46v1.59h-1.48v4.1c.51-.22,1-.4,1.51-.59Zm4.43-2.2a6.71,6.71,0,0,1-.49.81h6.49c0,1,0,2-.13,3a7.3,7.3,0,0,1-.31,1.82c-.5,1.42-1.78,1.86-3.15,2l-.95-1.48c1.24-.1,2.14-.12,2.47-1.54a11.87,11.87,0,0,0,.17-2.38v-.16a10.28,10.28,0,0,1-5.74,5.65l-1.37-1.1a9.09,9.09,0,0,0,5.3-4.62h-.87a11.48,11.48,0,0,1-5.9,4.68l-1.28-1a10.79,10.79,0,0,0,5.27-3.67h-1a10.68,10.68,0,0,1-3.36,2.52l-1.23-1a7.86,7.86,0,0,0,4-3.6h-2.62v-1.42h11.36v1.44Zm-3.46-2.14V429H249v6.14Zm6.27-4.65h-4.36v1H247Zm0,2.36h-4.38v1H247Z"/><path class="cls-2" d="M257.41,444.87a2.73,2.73,0,1,1,2.73-2.72A2.77,2.77,0,0,1,257.41,444.87Zm0-4.41a1.68,1.68,0,0,0-1.69,1.69,1.69,1.69,0,0,0,3.38,0A1.69,1.69,0,0,0,257.39,440.46Z"/><path class="cls-2" d="M46.44,468.59a4.13,4.13,0,0,0-1.73,3.22c0,1.79,2.81,2,4.11,2,.41,0,.84,0,1.27-.05-.19.68-.43,1.35-.63,2h-.37c-2.54,0-6.5-.37-6.5-3.74a6.15,6.15,0,0,1,1.54-3.75,42.48,42.48,0,0,0-6.08,1.91c-.22-.66-.49-1.31-.74-2a17.25,17.25,0,0,0,3.22-1c1-.54,3-3.17,3.73-4.17a34.14,34.14,0,0,1-3.75.52,16.63,16.63,0,0,0-.34-1.87,26.88,26.88,0,0,0,5.66-.69,6,6,0,0,0,1.35-.59c.45.52.9,1.06,1.31,1.6a46.72,46.72,0,0,0-4.75,4.79c2.61-.58,5.24-1.06,7.87-1.5.07.72.18,1.44.23,2.17C50.26,467.47,47.75,467.64,46.44,468.59Z"/><path class="cls-2" d="M68.94,474.14c-1.62,0-2.34-1.05-2.34-2.58s.29-3.19.41-4.79c0-.23,0-.49,0-.72s0-.67-.48-.67c-1,0-3.55,2.08-4.15,2.94,0,2.29,0,4.63.15,6.91l-2.22.22c0-1.89,0-3.82,0-5.73-.79,1.16-1.64,2.25-2.45,3.37-.56-.5-1-1.08-1.58-1.62a28.87,28.87,0,0,0,3.92-5.19v-.86c-1,.16-2,.4-3,.54-.13-.61-.24-1.22-.4-1.82a20.7,20.7,0,0,0,3.33-.47c0-1.24,0-2.48-.11-3.71a16.62,16.62,0,0,1,2.29.22c.12,0,.23.09.23.25a.2.2,0,0,1-.14.2c-.06.88-.11,1.75-.13,2.61.33-.07.63-.2,1-.29.12.47.23.94.36,1.39a14.09,14.09,0,0,0-.92,1.1l0,.05c1.37-1.1,2.78-2.12,4.61-2.12a1.91,1.91,0,0,1,1.88,2.1,19.42,19.42,0,0,1-.22,2.72,25.35,25.35,0,0,0-.31,2.88v.06c0,.39,0,1,.56,1,1.12,0,1.86-1.55,2.31-2.41.27.83.54,1.65.79,2.48A4,4,0,0,1,68.94,474.14Z"/><path class="cls-2" d="M84.36,474.73a3,3,0,0,1-2,.56,4.68,4.68,0,0,1-1.76-.38c-.08-.68-.13-1.35-.22-2a4.2,4.2,0,0,0,2,.51c1.46,0,1.44-4.05,1.44-5.08,0-.74,0-2.05-1-2.05a5.71,5.71,0,0,0-1.08.14c-.72,2.61-2.25,6.79-3.85,8.95-.7-.32-1.35-.68-2-1a23.32,23.32,0,0,0,3.63-7.67c-.82.14-1.65.32-2.46.52-.06-.2-.52-1.93-.52-1.93s.12-.1.17-.1.31,0,.47,0a16.45,16.45,0,0,0,2.79-.32,26,26,0,0,0,.65-4.29c.54.11,1.06.26,1.59.4.23.07.5.13.74.22.09,0,.23.08.23.21s-.13.16-.22.2c-.21,1-.45,2-.74,3,.36,0,.73-.09,1.08-.09a2.11,2.11,0,0,1,2.38,1.53,8.71,8.71,0,0,1,.36,2.74C85.93,470.5,85.66,473.6,84.36,474.73ZM87,463.39a17.87,17.87,0,0,0-1.36-2.56l1.45-.6a20.88,20.88,0,0,1,1.28,2.49Zm1.84,7.94c-.4-.53-.83-1-1.26-1.5.52-.09,1.84-.36,1.84-1,0-1.15-1.77-3.24-2.6-4,.69-.3,1.37-.61,2-1,1.08,1.17,2.86,3.75,2.86,5.37C91.69,470.52,89.87,471,88.83,471.33Zm.58-8.57a16.87,16.87,0,0,0-1.35-2.56l1.38-.65a15.06,15.06,0,0,1,1.35,2.54Z"/><path class="cls-2" d="M99,476.24A30.72,30.72,0,0,0,95.47,473l1.6-1.5a31.77,31.77,0,0,1,3.57,3.28Z"/><path class="cls-2" d="M115.79,474.82c-4.62,0-6.84-2.77-6.84-6.68s2.34-6.75,6.82-6.75,6.85,3,6.85,6.75S120.44,474.82,115.79,474.82Zm4.22-6.66c0-2.63-1.26-4.92-4.22-4.92s-4.25,2.29-4.25,4.92,1.25,4.79,4.23,4.79,4.22-2.13,4.22-4.79Z"/><path class="cls-2" d="M130.71,474.93a9.79,9.79,0,0,1-4.57-1.14v-2.48a7.87,7.87,0,0,0,4.72,1.73c1.42,0,2.68-.33,2.68-1.8,0-1.07-1.1-1.61-2.27-2.06-2.52-1-5.27-1.6-5.27-4.19s2.7-3.71,5.13-3.71a11.59,11.59,0,0,1,4.28.81l-.21,2.3a9.28,9.28,0,0,0-4.11-1.13c-1.15,0-2.57.32-2.57,1.51s1.2,1.59,2.27,2c.86.33,1.71.6,2.53,1,1.55.68,2.81,1.76,2.81,3.44C136.13,474.33,133.59,474.93,130.71,474.93Z"/><path class="cls-2" d="M149.6,474.84v-6h-7.19v6h-2.48V461.31h2.48v5.5h7.19v-5.5h2.46v13.53Z"/><path class="cls-2" d="M156.65,474.86V461.31h2.48v13.55Z"/><path class="cls-2" d="M163.72,474.71V461.46h9.55v2h-7.08v3.44h6.65v1.94h-6.65v3.91h7.08v2Z"/><path class="cls-2" d="M183.38,463.49v11.33h-2.52V463.49H176v-2h12.15v2Z"/><path class="cls-2" d="M191.61,474.71V461.46h9.54v2h-7.08v3.44h6.65v1.94h-6.65v3.91h7.08v2Z"/><path class="cls-2" d="M217.6,474.69c-4.41,0-7.11-2.68-7.11-6.59,0-4.08,3.06-6.68,7.54-6.68a23.52,23.52,0,0,1,4.13.44l-.08,2.46a9.88,9.88,0,0,0-4.12-.88,4.73,4.73,0,0,0-4.9,4.77c0,2.72,1.95,4.47,4.79,4.47a8.09,8.09,0,0,0,4.5-1.3v2.48A11.89,11.89,0,0,1,217.6,474.69Z"/><path class="cls-2" d="M232.74,474.84a6,6,0,0,1-.24-1.14,5.38,5.38,0,0,1-3.62,1.17c-1.87,0-3.42-1.1-3.42-2.84a3.14,3.14,0,0,1,1.28-2.56,7,7,0,0,1,4.47-1.17c.3,0,.59,0,.9,0-.06-1.46-.61-2.13-2.2-2.13a7.45,7.45,0,0,0-3.26,1.16v-2.22a10.76,10.76,0,0,1,3.39-.65c1.8,0,3.53.49,4.17,2.2a6.59,6.59,0,0,1,.31,2.27c0,1.94-.11,4,.67,5.89Zm-.6-4.86a5.86,5.86,0,0,0-1.19-.11c-1.44,0-3.18.45-3.18,2,0,.9.66,1.28,1.53,1.28a2.92,2.92,0,0,0,2-.8,2.19,2.19,0,0,0,.82-1.47Z"/><path class="cls-2" d="M241.43,466.86v4.54c0,1.1.11,1.73,1.22,1.73a3.5,3.5,0,0,0,1.43-.4l-.31,1.89a4.65,4.65,0,0,1-1.49.25c-2.51,0-3.26-1-3.26-3.33v-4.68h-1.69l.3-1.73h1.44v-2.88l2.45-.59v3.47h2.56v1.73Z"/><path class="cls-2" d="M248.7,470.64a2.64,2.64,0,0,0,3,2.49,4.9,4.9,0,0,0,2.52-.8,5.12,5.12,0,0,0,1.41-1.22l-.11,2.66a3.76,3.76,0,0,1-1.26.65,8.47,8.47,0,0,1-2.52.38c-3.69,0-5.58-1.73-5.58-5a5.08,5.08,0,0,1,5.22-5.23c2.68,0,4.43,1.77,4.37,4.16A22.8,22.8,0,0,1,248.7,470.64Zm2.65-4.43a2.88,2.88,0,0,0-2.68,2.87,22.75,22.75,0,0,0,4.48-1.17A1.69,1.69,0,0,0,251.35,466.21Z"/><path class="cls-2" d="M265.57,474.87c-1.42-1.76-2.72-3.49-4-5.22v5.21h-2.44v-14h2.44v7.6c1.37-1.26,2.71-2.54,4.11-3.95.9.24,1.62.44,2.63.74-1.64,1.35-3.08,2.54-4.57,3.69,1.51,1.93,3,3.84,4.71,6Z"/><path class="cls-2" d="M274.62,478.29h-2.73a26.36,26.36,0,0,0,1.44-2.73,4.07,4.07,0,0,0,.37-1.23,5.48,5.48,0,0,0-.37-1.29c-1.08-2.74-2.15-5.48-3.3-8.39h2.77l2.49,7.14,2.81-7.14h2.64Z"/><path class="cls-2" d="M288.21,475a5,5,0,0,1-5.33-5.28,5.1,5.1,0,0,1,5.35-5.33c3.69,0,5.31,2.29,5.31,5.33A5,5,0,0,1,288.21,475Zm0-8.9c-2,0-2.82,1.87-2.82,3.62s.75,3.62,2.8,3.62,2.8-1.89,2.8-3.71S290.23,466.14,288.21,466.14Z"/><path class="cls-2" d="M311.06,463c-.09,0-.16,0-.25,0a8.48,8.48,0,0,0-2.58.45,6.29,6.29,0,0,0-4.12,5.8c0,3.72,3.49,4.15,6.43,4.15-.13.71-.29,1.43-.47,2.13h-.42a12.83,12.83,0,0,1-4-.65,5.27,5.27,0,0,1-3.75-5.09,9.16,9.16,0,0,1,1.95-5.68c-2.18.35-4.32.74-6.46,1.21-.11-.72-.27-1.42-.38-2.14,2-.24,3.9-.49,5.85-.78a51.94,51.94,0,0,0,7.81-1.67c.11.31.65,1.93.65,2.12S311.18,463,311.06,463Zm-1.44,4.74c-.4-.88-.83-1.77-1.3-2.59l1.39-.6a18,18,0,0,1,1.2,2.56Zm2.25-.72a16.08,16.08,0,0,0-1.32-2.74l1.37-.63c.47.88.9,1.77,1.3,2.67Z"/><path class="cls-2" d="M331.38,464.66c-.74,0-1.48-.05-2.2-.05-1.08,0-2.16,0-3.22,0,0,.66,0,1.33,0,2a5.12,5.12,0,0,1,.66,2.84c0,3-1.44,5.69-4.43,6.63-.64-.47-1.33-.89-2-1.37a5.28,5.28,0,0,0,3.91-3.1,3.27,3.27,0,0,1-1.5.29c-1.53,0-2.43-1.64-2.43-3,0-1.72,1-3.44,2.92-3.44a2.94,2.94,0,0,1,.72.08c0-.29,0-.58,0-.87-1.22,0-2.44.13-3.65.22s-2.32.23-3.48.39c-.07-.68,0-1.38-.07-2.07,2.4-.09,4.77-.14,7.17-.27-.06-.88-.09-1.76-.11-2.66.52,0,1.08.11,1.6.18a4.71,4.71,0,0,1,.67.09c.12,0,.27.05.27.21a.49.49,0,0,1-.24.38c0,.58,0,1.16,0,1.73,1.83-.05,3.69-.12,5.53-.21Zm-8,2.56c-.83,0-1.19.79-1.19,1.53s.22,1.46,1,1.46.93-1,.93-1.62S324.05,467.22,323.35,467.22Z"/><path class="cls-2" d="M338.83,476a2.73,2.73,0,1,1,2.74-2.72A2.77,2.77,0,0,1,338.83,476Zm0-4.41a1.69,1.69,0,1,0,1.69,1.69A1.69,1.69,0,0,0,338.81,471.54Z"/><polygon class="cls-1" points="133.4 294.67 132.52 294.54 127.42 294.6 126.49 294.77 126.48 305.92 133.3 305.87 133.4 294.67"/><path class="cls-3" d="M128,289.15l1-2a10.47,10.47,0,0,1,4.38,2.11s.51-2.42-1.12-3.32-5.35,0-5.57,2.21a6.15,6.15,0,0,0,1.35,4.08Z"/><path class="cls-4" d="M122,313.77l1.24,1.78-.3,3.92s-1.4-1.28-1.12-2.55l-1.79-1.42A8.8,8.8,0,0,1,122,313.77Z"/><polygon class="cls-4" points="128.04 294.13 127.42 294.6 129.97 296.3 132.84 294.79 131.99 294.12 128.04 294.13"/><polygon class="cls-4" points="137.95 357.79 137.74 355.92 140.34 355.51 140.62 356.95 140.62 357.79 139.68 358.35 138.84 358.35 137.95 357.79"/><path class="cls-3" d="M138,357.79V359l6.78,0v-.1a.57.57,0,0,0-.38-.55L140.62,357l-.57.69A2.17,2.17,0,0,1,138,357.79Z"/><polygon class="cls-3" points="144.73 358.94 144.73 359.36 137.95 359.37 137.95 358.95 144.73 358.94"/><polygon class="cls-4" points="124.45 357.79 124.45 356.37 121.78 356.37 121.78 357.79 122.72 358.35 123.56 358.35 124.45 357.79"/><polygon class="cls-3" points="121.78 357.31 121.78 357.79 122.72 358.35 123.56 358.35 124.45 357.79 124.45 357.31 121.78 357.31"/><path class="cls-3" d="M122.25,357.45H124a1.17,1.17,0,0,1,1.17,1.17v.74a0,0,0,0,1,0,0h-4.07a0,0,0,0,1,0,0v-.74A1.17,1.17,0,0,1,122.25,357.45Z"/><rect class="cls-3" x="121.08" y="358.95" width="4.07" height="0.42"/><polygon class="cls-2" points="123.42 311.94 121.2 356.63 125.79 356.63 129.71 320.02 130.89 319.91 136.79 357.2 141.28 356.25 137.23 311.94 123.42 311.94"/><polygon class="cls-4" points="132.04 291 132.06 294.63 129.95 295.99 127.82 294.34 127.79 291.26 132.04 291"/><polygon class="cls-2" points="130.63 297.13 130.28 297.74 129.95 297.74 129.93 297.74 129.61 297.74 129.25 297.13 129.92 296.06 130.63 297.13"/><polygon class="cls-2" points="131.15 305.78 130.29 297.74 129.95 297.74 129.61 297.74 128.83 305.79 130.04 306.94 131.15 305.78"/><polygon class="cls-1" points="127.42 294.6 128.5 298.33 129.92 296.06 127.42 294.6"/><polygon class="cls-1" points="132.52 294.54 131.44 298.33 129.92 296.06 132.52 294.54"/><path class="cls-4" d="M145.35,294.8l-.88-4-1.07,0-.12.12,0-.06a.28.28,0,0,0-.51-.09h0l-.65,1.06a.62.62,0,0,0,0,.7l.36.46.5.62-.14,1.28A1.79,1.79,0,0,0,145.35,294.8Z"/><path class="cls-5" d="M143.64,304.56A2.55,2.55,0,0,0,146,302.1l-.44-7.58-3,0,.14,9.89A2,2,0,0,0,143.64,304.56Z"/><rect class="cls-3" x="142.15" y="289.36" width="2.23" height="4.19" rx="0.49" transform="translate(33.57 -14.22) rotate(6.44)"/><path class="cls-4" d="M143.15,291.24h0a.2.2,0,0,1,.16-.25l.92-.18a.24.24,0,0,1,.28.19l.05.18-1.16.23A.21.21,0,0,1,143.15,291.24Z"/><path class="cls-4" d="M143.43,292.51h0a.22.22,0,0,1,.16-.25l1.16-.23.09.42-1.15.23A.22.22,0,0,1,143.43,292.51Z"/><path class="cls-4" d="M142.91,291.73h0a.2.2,0,0,1,.16-.25l1.49-.3.09.43-1.49.29A.21.21,0,0,1,142.91,291.73Z"/><path class="cls-4" d="M142.79,292.2h0a.22.22,0,0,1,.16-.26l1.7-.33.1.42-1.7.34A.23.23,0,0,1,142.79,292.2Z"/><path class="cls-6" d="M143.62,292.27h0s0,0,0,0l.95-.19h0s0,0,0,0l-.94.18Z"/><path class="cls-6" d="M143.24,291.91a0,0,0,0,1,0,0s0,0,0,0l1.3-.26h0v0s0,0,0,0l-1.3.26Z"/><path class="cls-6" d="M143.48,291.42a0,0,0,0,1,0,0l0,0,.92-.19,0,0a0,0,0,0,1,0,0l-.93.19Z"/><path class="cls-6" d="M132.06,293.31l-2.64-1s.46,1.16,2.64,1.5Z"/><path class="cls-4" d="M133.43,289.3s-.18,3.84-1.37,4c0,0-1.91.32-4.27-2.05a1.16,1.16,0,0,1-.89-1.47s0-1,1.12-.64l.5-2.67,4.38.7Z"/><path class="cls-3" d="M128,289.15l.2.82.12-.92.71-1.86a11.54,11.54,0,0,0,4.38,2.11,3.61,3.61,0,0,0-.4-3c-.53-.92-3.6-2-4.76-.46,0,0-1.31.08-1.53,2.31Z"/><path class="cls-5" d="M133.4,294.67l-.88-.14-2.6,10.21-2.5-10.14-.93.17-2.72.53a6.57,6.57,0,0,0-4,2.31l-4.36,6.13a4.79,4.79,0,0,0-.35,6.12l5.17,6.42L122.7,314l-3.15-5c-.87-1-1.07-2,.17-3.45l2.54-3.14.2,10.9,16,2.57L138,302.44l4.69,1.93c.81-1.51.58-3.62-.08-5.94Z"/><path class="cls-7" d="M129.92,307.63a.62.62,0,0,0,0-1.24.62.62,0,0,0,0,1.24Z"/><path class="cls-7" d="M129.92,310.23a.62.62,0,0,0,0,1.24.62.62,0,0,0,0-1.24Z"/><path class="cls-3" d="M324.53,42.23a2.27,2.27,0,0,0,1.93-1.69,1.76,1.76,0,0,0-.18-1.35c-.31-.53-.65-1-.91-1.6a3.18,3.18,0,0,0-2.59-1.84c-.8-.09-2.42,0-3,.74a1.76,1.76,0,0,1,.82-.33C320.88,36.12,320.68,42.25,324.53,42.23Z"/><polygon class="cls-4" points="328.28 101.27 328.75 108.25 331.46 108.25 331.46 101 328.28 101.27"/><path class="cls-3" d="M328.76,108.25v1.63h6.05a.64.64,0,0,0-.35-.87c-.63-.23-2.53-.56-3-1.22a.8.8,0,0,1-.89.36C330,108,329.45,107.4,328.76,108.25Z"/><polygon class="cls-4" points="321.03 101.27 320.6 108.25 317.9 108.25 317.72 101 321.03 101.27"/><path class="cls-3" d="M320.6,108.25v1.63h-6.06a.64.64,0,0,1,.36-.87c.62-.23,2.52-.56,3-1.22a.8.8,0,0,0,.89.36C319.4,108,319.9,107.4,320.6,108.25Z"/><polygon class="cls-2" points="321.97 101.33 316.58 100.94 316.58 99.35 321.97 99.62 321.97 101.33"/><polygon class="cls-2" points="327.36 101.33 332.22 100.94 332.22 99.35 327.36 99.62 327.36 101.33"/><polygon class="cls-2" points="322.5 88.09 323.97 72.76 325.19 72.87 326.58 88.09 332.08 88.09 331.65 65.09 317.97 65.09 317.37 88.09 322.5 88.09"/><polygon class="cls-2" points="326.58 88.09 327.92 99.59 331.81 99.56 332.08 87.96 326.58 88.09"/><polygon class="cls-2" points="317.37 87.72 316.94 99.37 321.44 99.62 322.5 87.72 317.37 87.72"/><path class="cls-4" d="M310.71,69.23l-.24.56L309.72,71l-.67.18a.41.41,0,0,0-.21.14l-.6.77a.15.15,0,0,0,0,.22.15.15,0,0,0,.2,0l.21-.19-.42.81a.11.11,0,0,0,0,.12.09.09,0,0,0,.11,0l-.16.34a.14.14,0,0,0,.06.17.17.17,0,0,0,.17,0l.8-.92.52-.2-.52.49-.63.82a.13.13,0,0,0,0,.12.12.12,0,0,0,.14,0l2-1.34.65-.48.09.1-.13.5a1.1,1.1,0,0,0,0,.51.44.44,0,0,0,.46.32l0-.71.23-.83s.32-1.26.32-1.26l.35-.81Z"/><path class="cls-1" d="M316.76,51.38c0,4.61.14,11.58.57,14.89,0,0,14.29.8,15.19-.91a63.07,63.07,0,0,1-1.08-9.5,22.78,22.78,0,0,0-1.8-7.9,3,3,0,0,0-2.09-1.77l-2.13-.47h0a1,1,0,0,1-.92.84,10.8,10.8,0,0,1-3.38-.76l-.29.07A5.58,5.58,0,0,0,316.76,51.38Z"/><path class="cls-8" d="M313.4,59.66l4,3.19C316,65.46,313,71.36,313,71.36l-3.08-1.65Z"/><path class="cls-8" d="M323.21,75.8l-2.09-30-1.13.28a4.44,4.44,0,0,0-3.05,2.85l-3.64,11,2.57,2.62.26,14.42,5.61.44A1.41,1.41,0,0,0,323.21,75.8Z"/><path class="cls-8" d="M325.42,45.72l3.88,30.16a1.34,1.34,0,0,0,2,.9l4.46-2.6-3.91-16.64L329,46.18A20.29,20.29,0,0,0,325.42,45.72Z"/><path class="cls-9" d="M316.62,63.15h0a.19.19,0,0,1-.19-.2l.31-10.55a.2.2,0,0,1,.2-.19.19.19,0,0,1,.19.2L316.81,63A.19.19,0,0,1,316.62,63.15Z"/><path class="cls-4" d="M321.38,44.42l.28,1.28,3.36.1-.15-.62-.67-3s1.09-1.12.6-2.08c0,0-.26-.92-1-.24l-.54-2.45-4.36,1.06.38,2.85S319.6,44.76,321.38,44.42Z"/><path class="cls-10" d="M321.38,44.42a2.6,2.6,0,0,0,1.41-.9A2.17,2.17,0,0,1,321.51,45Z"/><rect class="cls-3" x="319.91" y="54.02" width="2.19" height="4.33" rx="0.24" transform="translate(-4.81 49.31) rotate(-8.72)"/><path class="cls-4" d="M323.59,56.37a1,1,0,0,0-.59-.73l-1.08-.71.1.64a3.24,3.24,0,0,0-2.14-.25c-.79.37,0,1.81.93,2l1.37.52,2.49.31Z"/><path class="cls-8" d="M323.09,55.32l8,1.4a47.77,47.77,0,0,1-2.65-9.52c-.06-.33.49-.69.5-1l.57.08a3.34,3.34,0,0,1,2.51,1.83l4.52,9.18a2.8,2.8,0,0,1-1,3,3.36,3.36,0,0,1-2.68.55l-10.43-2.21Z"/><path class="cls-9" d="M331.7,57.21h0l-4.73-.92a.2.2,0,0,1-.15-.23.18.18,0,0,1,.23-.15l4.38.85-3.06-7.9a.21.21,0,0,1,.12-.25.19.19,0,0,1,.25.11l3.18,8.23a.21.21,0,0,1,0,.2A.21.21,0,0,1,331.7,57.21Z"/><path class="cls-9" d="M332.08,60.86h0l-4.43-.94a.19.19,0,0,1-.15-.23.2.2,0,0,1,.23-.15l4.43.94a.2.2,0,0,1,0,.39Z"/><polygon class="cls-1" points="321.12 45.8 321.47 45.72 321.37 45.12 325.19 44.26 325.42 45.72 325.42 45.72 325.6 48.39 323.21 48.66 321.63 48.2 321.24 47.61 321.12 45.8"/><path class="cls-3" d="M320,40.28a.79.79,0,0,0,.21-.44c.17-.68,0-.86.63-1.39a2.31,2.31,0,0,0,.58-.8l0,.09a2.43,2.43,0,0,0,.48.58c.39.42.25,1,.61,1.41.15.19.35.3.5.48s.24.44.47.57a.72.72,0,0,0,.89-.21h0c.11-.13.24-.28.36-.45l0,0a1.82,1.82,0,0,0,.39-1,1.5,1.5,0,0,0-.49-1,4.66,4.66,0,0,0-.64-1c-.57-.72-1.73-1.38-2.61-.81a1.35,1.35,0,0,0-.91-.15,1.76,1.76,0,0,0-.82.33,4.76,4.76,0,0,0-.71.71,8.6,8.6,0,0,0-.63.86,11,11,0,0,1-.62,1.12c-.31.37-.49.58-.23,1.09a1,1,0,0,0,1,.64.94.94,0,0,0,.42-.16c.12-.06.23-.13.35-.18A2,2,0,0,0,320,40.28Z"/><path class="cls-5" d="M356.77,277.59l5.94-1.48,4,9.4-2.75.67a2,2,0,0,1-.41-.35C361.3,283.2,358.84,280.13,356.77,277.59Z"/><path class="cls-4" d="M343.77,297l-.2.52-.65,1.11-.58.2a.45.45,0,0,0-.19.14l-.52.73a.13.13,0,1,0,.18.18l.19-.18-.37.75a.08.08,0,0,0,0,.1.08.08,0,0,0,.1,0l-.14.32a.13.13,0,0,0,.06.15.12.12,0,0,0,.14,0c.24-.29.47-.59.7-.88L343,300l-.45.47-.55.79a.09.09,0,0,0,0,.1.11.11,0,0,0,.13,0l1.71-1.33.57-.48.08.08-.11.47a1,1,0,0,0,0,.46.35.35,0,0,0,.41.25l0-.64s.18-.74.19-.76.27-1.16.27-1.16l.3-.76Z"/><path class="cls-5" d="M351.07,277.22a3,3,0,0,0-.33-.21,1.88,1.88,0,0,0-1.5-.18,2.42,2.42,0,0,0-1.06,1,7.86,7.86,0,0,0-.65,2c-.33,1.24-.65,2.48-1,3.72-.2.78-.41,1.55-.61,2.33v0l-2.63,11.52,2.25.67s2.9-7.05,3.8-9a6.72,6.72,0,0,0,.39-1.09c.35-1.24.69-2.49,1-3.73s.73-2.63,1.09-3.95a3.5,3.5,0,0,0,.09-2A2.35,2.35,0,0,0,351.07,277.22Z"/><path class="cls-3" d="M356.54,271.38l3.4-2.4s-.23,4,2.26,5.38l-.61.65a8.47,8.47,0,0,0-1.33,1,16.26,16.26,0,0,1-3.12,0c-.09,0-1.43-.76-1.43-.76l.23-2.33Z"/><path class="cls-4" d="M359.71,268.51s.45,4.73-2.8,4.88l-.2,1.34-1.37,1.33s-1.23-1.3-1.66-1.7l.52-3.27s-1.21-.56-.65-1.5,1.4,0,1.4,0l.78-1.71Z"/><path class="cls-3" d="M349.35,272.64l-.09-.11a3.63,3.63,0,0,1-.47-.84,5.83,5.83,0,0,0-.17-.58c2.76.54,3.86-1.77,4.44-3.11s1.83-2.24,4.19-2l.29,0a2.92,2.92,0,0,1,2.33,3.52l-.17.77a1.69,1.69,0,0,1-.95-1.4,3.67,3.67,0,0,1-3.84.68c-1.26-.48-1.4.32-1.4.32a1.11,1.11,0,0,0,.89,1.22c-.16.78-.32,1.56-.49,2.34-.05.26-.09,1-.33,1a2.72,2.72,0,0,1-.66-.15l-.72-.13a6.3,6.3,0,0,1-1.35-.38l-.1,0A3.9,3.9,0,0,1,349.35,272.64Z"/><path class="cls-5" d="M346.19,284.94s3.41-2,4.67-1.9l1.51,3h7.15l1-3.95s1.71,1.15,4.07-1.64l-1.42-4.22L363,276a3.77,3.77,0,0,0-3-1.77l-.4,0-4.42-.3-2.88.63-1.07.24a3.77,3.77,0,0,0-1.87,1C347.63,277.47,346.19,284.94,346.19,284.94Z"/><path class="cls-11" d="M365.4,310.76s-13,3.38-18.92-1.28C346.48,309.48,361.15,302,365.4,310.76Z"/><path class="cls-4" d="M349.49,308.87l6-1.43c.37,6.43-.86,15.95-1.76,25.9H351.1L351,331.1Z"/><path class="cls-4" d="M361.92,307.6l-1.55,23.5-.07,2.24h-2.62c-.85-10.16-1.61-19.9-1.55-25.74Z"/><path class="cls-2" d="M346.48,309.48c.18.08.35.14.53.2a12.22,12.22,0,0,0,4.09.39,15.67,15.67,0,0,0,2.47-.25c1.87-.38,3.6-1.33,5.5-1.54a7.24,7.24,0,0,1,3.1.34,7.51,7.51,0,0,1,1.69.81,7,7,0,0,1,1.54,1.33h.07c-.36-4.32-.84-7.92-1.37-10.92-.11-.64-.23-1.25-.34-1.83-1.9-9.49-4.24-11.93-4.24-11.93h-7.15C347.82,291.06,346.72,305.16,346.48,309.48Z"/><path class="cls-3" d="M361.59,333.68l2.08.86a.29.29,0,0,1-.14.54h-5.29a.59.59,0,0,1-.57-.58v-1.29l2.27-.35Z"/><path class="cls-3" d="M347.73,334.54l2.09-.86,1.65-.82,2.28.35,0,1.29a.59.59,0,0,1-.57.58h-5.28A.29.29,0,0,1,347.73,334.54Z"/><path class="cls-3" d="M354.83,321.84c-.34,3.66-.75,7.54-1.1,11.5H351.1L351,331.1l-.65-9.26Z"/><path class="cls-3" d="M361,321.84l-.61,9.26-.07,2.24h-2.62c-.33-4-.65-7.87-.91-11.5Z"/><polygon class="cls-4" points="357.14 274.01 355.33 276.69 353.26 274.23 355.17 273.86 357.14 274.01"/><path class="cls-10" d="M365.47,284.44a.19.19,0,0,0,.14-.07.17.17,0,0,0-.05-.22l-2.76-1.74a.16.16,0,1,0-.17.27l2.76,1.74Z"/><path class="cls-12" d="M356.91,273.39a2.36,2.36,0,0,1-1.5-.78,1.81,1.81,0,0,0,1.4,1.44Z"/><path class="cls-1" d="M357.43,274.23c-.35,1.73-2.05,6.4-2.05,6.4s-1.77-4.75-2.23-6.32l2.19,1.39Z"/><polygon class="cls-1" points="353.8 276.27 355.33 275.76 356.88 276.27 357.67 274.02 356.88 273.81 356.42 274.37 355.33 275.7 353.8 273.81 353.15 274.31 353.8 276.27"/><path class="cls-2" d="M353.5,277.1l.13-1.68,1.45.26h.55l1.48-.26.06,1.75-.87-.5c.33.46.81,1.13.81,1.17a14,14,0,0,1-1.28.88l-.42-2.42h-.12l-.41,2.42a14,14,0,0,1-1.28-.88s.52-.78.85-1.24Z"/><rect class="cls-3" x="358.76" y="276.34" width="2.07" height="4.1" rx="0.22" transform="translate(543.58 694.54) rotate(-151.56)"/><path class="cls-4" d="M361.63,280a1,1,0,0,0,0-.88L361.2,278l-.29.54s-.67-1.24-1.48-1.41-1,1.37-.44,2l.73,1.17.91.67Z"/><path class="cls-4" d="M361.63,280l2.76,2.93-2.46,1.27-1.37-3.33C360.9,279.93,361.63,280,361.63,280Z"/><path class="cls-5" d="M361.94,280.13s2.86,2.94,4.09,4.24.81,2.95.08,3.2l-.2.06a2.19,2.19,0,0,1-2.56-.91c-.62-1-3-5.33-3-5.33Z"/><path class="cls-7" d="M355.41,282.67a.36.36,0,1,1,.35-.35A.36.36,0,0,1,355.41,282.67Z"/><path class="cls-7" d="M355.41,284.16a.36.36,0,1,1-.36.36A.36.36,0,0,1,355.41,284.16Z"/><path class="cls-3" d="M116.82,72.71c1-.17,2.6,0,3.22-2.59a1.94,1.94,0,0,0,2-1.31,3.25,3.25,0,0,0-.55-3.42,15.77,15.77,0,0,0-4-3.46c-3-1.81-4.14-3.44-4.24-4.63,0,0-.47-3-2.36-3.85a3.76,3.76,0,0,0-2.13-.22c-2.2.38-2.79,1.68-2.91,2.66a3.73,3.73,0,0,0,.15,1.48,5.1,5.1,0,0,1-.12,3.45,1.42,1.42,0,0,0-.29,1.77c.29.53,1.73,3.29,3,6,1.17,2.54,2,5.15,5.82,3.46A4.59,4.59,0,0,0,116.82,72.71Z"/><path class="cls-5" d="M109,64.8l-5.94-1.49-4,9.41,2.75.67a2,2,0,0,0,.41-.35C104.51,70.41,107,67.33,109,64.8Z"/><path class="cls-4" d="M122,84.25l.2.52.65,1.1.58.21a.38.38,0,0,1,.19.14l.52.73a.14.14,0,0,1,0,.2.14.14,0,0,1-.18,0l-.19-.19.37.75a.09.09,0,0,1,0,.11.12.12,0,0,1-.1,0l.14.31a.13.13,0,0,1-.06.15.12.12,0,0,1-.14,0l-.7-.89-.46-.21.45.48.55.78a.09.09,0,0,1,0,.1.1.1,0,0,1-.13,0L122,87.23l-.57-.48-.08.09.11.46a1,1,0,0,1,0,.46A.36.36,0,0,1,121,88l0-.64s-.18-.74-.19-.77-.27-1.16-.27-1.16l-.3-.75Z"/><path class="cls-5" d="M114.74,64.42a2.9,2.9,0,0,1,.33-.2,1.81,1.81,0,0,1,1.5-.18,2.37,2.37,0,0,1,1.06,1,7.74,7.74,0,0,1,.65,2c.33,1.24.65,2.48,1,3.72.2.77.41,1.55.61,2.33v0l2.63,11.52-2.25.67s-2.9-7-3.8-9a7.08,7.08,0,0,1-.39-1.09c-.35-1.25-.69-2.49-1-3.74s-.73-2.63-1.09-3.94a3.54,3.54,0,0,1-.09-2A2.35,2.35,0,0,1,114.74,64.42Z"/><path class="cls-4" d="M106.1,55.72s-.45,4.72,2.81,4.88l.19,1.33,1.37,1.33s1.23-1.29,1.66-1.7l-.52-3.26s1.21-.56.65-1.5-1.4,0-1.4,0L110.08,55Z"/><path class="cls-3" d="M110.77,53.38a5.45,5.45,0,0,0-2.21-.18l-.29,0a2.91,2.91,0,0,0-2.33,3.51l.17.78a1.7,1.7,0,0,0,1-1.41,3.68,3.68,0,0,0,3.84.69C111.19,55.48,111.77,53.71,110.77,53.38Z"/><path class="cls-5" d="M119.62,72.14s-3.41-2-4.67-1.9l-1.51,3h-7.15l-.78-3.12s-1.91.33-4.27-2.47l1.42-4.22.2-.31a3.77,3.77,0,0,1,3-1.77l.4,0,4.42-.3,2.88.63,1.07.23a3.84,3.84,0,0,1,1.87,1C118.18,64.67,119.62,72.14,119.62,72.14Z"/><path class="cls-11" d="M100.41,98s13,3.37,18.92-1.28C119.33,96.69,104.66,89.18,100.41,98Z"/><path class="cls-4" d="M116.32,96.08l-6-1.44c-.37,6.44.86,16,1.76,25.9h2.63l.06-2.23Z"/><path class="cls-4" d="M103.89,94.81l1.55,23.5.07,2.23h2.62c.85-10.15,1.61-19.89,1.55-25.73Z"/><path class="cls-2" d="M119.33,96.69a5.62,5.62,0,0,1-.53.19,12.49,12.49,0,0,1-4.09.4,15.42,15.42,0,0,1-2.46-.25c-1.88-.38-3.61-1.33-5.51-1.55a7.4,7.4,0,0,0-3.1.34,8,8,0,0,0-1.69.81A7,7,0,0,0,100.41,98h-.07c.36-4.33.84-7.93,1.37-10.92.11-.64.23-1.25.34-1.84,1.9-9.49,4.24-11.93,4.24-11.93h7.15C118,78.27,119.09,92.36,119.33,96.69Z"/><path class="cls-3" d="M104.22,120.88l-2.08.87a.29.29,0,0,0,.14.53h5.29a.59.59,0,0,0,.57-.58v-1.29l-2.27-.35Z"/><path class="cls-3" d="M118.08,121.75l-2.09-.87-1.65-.82-2.28.35,0,1.29a.58.58,0,0,0,.57.58h5.28A.29.29,0,0,0,118.08,121.75Z"/><path class="cls-3" d="M111,109c.34,3.66.75,7.54,1.1,11.5h2.63l.06-2.23.65-9.27Z"/><path class="cls-3" d="M104.83,109l.61,9.27.07,2.23h2.62c.33-4,.65-7.86.91-11.5Z"/><polygon class="cls-4" points="108.67 61.21 110.47 63.9 112.55 61.43 110.64 61.06 108.67 61.21"/><rect class="cls-3" x="106.63" y="64.92" width="2.07" height="4.1" rx="0.22" transform="translate(-13.76 30.47) rotate(-15.15)"/><path class="cls-4" d="M105.5,68.12a.93.93,0,0,1,.23-.85l.66-1,.16.59s.94-1.06,1.76-1,.69,1.57,0,2.1l-1,1-1,.45Z"/><path class="cls-4" d="M105.5,68.12l-3.36,2.22,2.11,1.8,2.09-2.93C106.23,68.21,105.5,68.12,105.5,68.12Z"/><path class="cls-10" d="M100.34,71.65a.17.17,0,0,1-.14-.08.16.16,0,0,1,0-.21L103,69.62a.17.17,0,0,1,.22,0,.17.17,0,0,1,0,.22l-2.76,1.73A.13.13,0,0,1,100.34,71.65Z"/><path class="cls-12" d="M108.91,60.6a2.35,2.35,0,0,0,1.49-.78,1.81,1.81,0,0,1-1.4,1.44Z"/><path class="cls-1" d="M108.38,61.43c.35,1.73,2.05,6.4,2.05,6.4s1.77-4.75,2.23-6.31l-2.19,1.38Z"/><polygon class="cls-1" points="112.02 63.47 110.47 62.96 108.93 63.47 108.14 61.23 108.93 61.02 109.39 61.57 110.47 62.9 112.02 61.02 112.66 61.52 112.02 63.47"/><path class="cls-2" d="M112.31,64.31l-.13-1.69-1.45.26h-.55l-1.48-.26-.06,1.75.87-.5c-.33.46-.81,1.13-.81,1.18a13.8,13.8,0,0,0,1.28.87l.42-2.41h.12l.41,2.41a13.8,13.8,0,0,0,1.28-.87s-.52-.79-.85-1.25Z"/><path class="cls-5" d="M105.17,68.17s-3.45,2.2-5,3.19-1.47,2.67-.81,3.09l.18.11a2.18,2.18,0,0,0,2.7-.31c.83-.82,4.15-4.49,4.15-4.49Z"/><path class="cls-7" d="M110.4,69.88a.36.36,0,1,0,0-.71.36.36,0,0,0,0,.71Z"/><path class="cls-7" d="M110.4,71.37a.35.35,0,0,0-.35.35.36.36,0,0,0,.71,0A.36.36,0,0,0,110.4,71.37Z"/><polygon class="cls-8" points="269.72 308.32 268.65 309.44 269.76 308.86 269.72 308.32"/><polygon class="cls-4" points="266.26 366.96 266.26 370 263.46 370 263.46 366.83 266.26 366.96"/><path class="cls-2" d="M266.26,370v1.59H260a.62.62,0,0,1,.37-.86c.65-.22,2.62-.54,3.12-1.19a.82.82,0,0,0,.92.35C265,369.74,265.54,369.17,266.26,370Z"/><polygon class="cls-4" points="274.72 366.96 274.72 370 277.53 370 277.53 366.83 274.72 366.96"/><path class="cls-2" d="M274.72,370v1.59H281a.62.62,0,0,0-.37-.86c-.65-.22-2.62-.54-3.11-1.19a.84.84,0,0,1-.93.35C276,369.74,275.45,369.17,274.72,370Z"/><polygon class="cls-3" points="272.75 350.29 271.23 335.31 269.96 335.42 268.52 350.29 262.81 350.29 263.25 327.82 277.45 327.82 278.08 350.29 272.75 350.29"/><polygon class="cls-3" points="268.52 350.29 266.63 369.44 262.64 368.86 262.81 350.16 268.52 350.29"/><polygon class="cls-3" points="278.08 349.94 278.08 369.07 274.23 369.44 272.75 349.94 278.08 349.94"/><path class="cls-4" d="M268.4,304.4s.16,3.58,1.28,3.74l.07,1.14s-.23,2.25,2.2,1.63,2.32-2.52,2.32-2.52l-.62-2.17a1.07,1.07,0,0,0,.83-1.36s0-.92-1-.6l-.48-2.49-4.08.66Z"/><path class="cls-3" d="M274.76,302.71a.52.52,0,0,0-.47,0,2.3,2.3,0,0,0,.16-1.62.31.31,0,0,0-.1-.15c-.15-.13-.38,0-.51.14l0-.36a1,1,0,0,0-.08-.37.35.35,0,0,0-.3-.2c-.16,0-.27.17-.35.31a1.29,1.29,0,0,0-.23-.93.32.32,0,0,0-.13-.1.3.3,0,0,0-.29.09.67.67,0,0,0-.14.28,1.4,1.4,0,0,0-.09-.51.44.44,0,0,0-.41-.27.46.46,0,0,0-.24.12.75.75,0,0,0-.26.63,1.41,1.41,0,0,0-.31-.49c-.14-.15-.39-.25-.54-.11s-.09.24-.17.34a.52.52,0,0,0-.62-.39.7.7,0,0,0-.46.5,4.24,4.24,0,0,0-.11.7c-.07-.13-.19-.28-.33-.24a.31.31,0,0,0-.16.18,1.33,1.33,0,0,0,0,1c-.16,0-.28-.2-.43-.17s-.18.19-.19.31a1.71,1.71,0,0,0,.08.71.24.24,0,0,0-.36.09.58.58,0,0,0,0,.41c0,.18.1.48.1.48a4.19,4.19,0,0,0,.65,1.26,1.83,1.83,0,0,0,.18-.74c0-.45.54-.44.81-.25a.35.35,0,0,0,.58-.15.4.4,0,0,1,.66-.15c.26.23.28.24.7,0s.77-.17,1,.65a.79.79,0,0,0,1.08.49c.62-.14.86.13.86.13A1.94,1.94,0,0,0,275,303,.53.53,0,0,0,274.76,302.71Z"/><path class="cls-6" d="M269.68,308.14a3,3,0,0,0,2.46-.94s-.4,1.09-2.43,1.41Z"/><path class="cls-4" d="M254.54,310.38l-1.95,1.44-1.77-5.07a.26.26,0,0,1,.1-.24.2.2,0,0,1,.26,0c-.09-.24-.17-.47-.25-.71a.26.26,0,0,1,.1-.23.24.24,0,0,1,.31,0l-.11-.26a.39.39,0,0,1,.21-.33.23.23,0,0,1,.3,0l.15.38.33.81-.07-.9a.28.28,0,0,1,.18-.31.2.2,0,0,1,.28.14c.17.66.43,1.27.61,1.92l.05-.44a.62.62,0,0,1,.09-.29.7.7,0,0,1,.34-.26l0,.95,0,.94c0,.2.07.22-.06.4Z"/><path class="cls-2" d="M274.19,309a11.91,11.91,0,0,1-3.51.75,1.05,1.05,0,0,1-1-.83h0l-4.8,1.57a27.49,27.49,0,0,0-1.44,8.34,60,60,0,0,1-1.12,9.29c.93,1.67,15.75.89,15.75.89.71-5.08.59-18.93.59-18.93Z"/><path class="cls-8" d="M257.72,316.57l-3.18-7.66-3.29.73s1.64,6.9,2.47,10.34a3.61,3.61,0,0,0,1.75,2.36h0a3.15,3.15,0,0,0,3.4-.34l4.89-3.81s.47-5.66,1.35-7.84C265.13,310.36,263.19,311.06,257.72,316.57Z"/><path class="cls-8" d="M278.7,310,274.19,309l-2.53,22.76a1.41,1.41,0,0,0,1.52,1.53l5.82-.43Z"/><path class="cls-8" d="M269.72,308.88l-5.78,22.92a1.42,1.42,0,0,1-2.06.89l-4.62-2.54,6.22-11.36a13.68,13.68,0,0,1,1.44-8.34Z"/><polygon class="cls-8" points="275.46 309.33 274.13 307.9 274.16 309.05 275.46 309.33"/><path class="cls-9" d="M263.48,319h-.07a.16.16,0,0,1-.07-.21l.85-1.79a.17.17,0,0,1,.21-.08.16.16,0,0,1,.07.21l-.85,1.79A.15.15,0,0,1,263.48,319Z"/><path class="cls-1" d="M273.66,316.16a.35.35,0,0,0,.69-.1.35.35,0,1,0-.69.1Z"/><path class="cls-1" d="M273.33,320.61a.35.35,0,0,0,.4.29.34.34,0,0,0,.29-.39.34.34,0,0,0-.39-.3A.36.36,0,0,0,273.33,320.61Z"/><path class="cls-1" d="M272.92,325a.35.35,0,0,0,.4.29.34.34,0,0,0,.29-.39.34.34,0,0,0-.39-.3A.37.37,0,0,0,272.92,325Z"/><polygon class="cls-8" points="279.82 310.94 278.7 310.04 278.68 313.27 279.82 310.94"/><path class="cls-8" d="M282.55,317.83l-1.65-5.45a4.27,4.27,0,0,0-3.26-2.63l-1.95-.17L277.53,322c.25-.29,1.44-3.42,2.87-3.7S282.55,317.83,282.55,317.83Z"/><path class="cls-3" d="M267.21,319.33h2.05l-.63-3.4a.23.23,0,0,0-.19-.2l-1.67-.37a.25.25,0,0,0-.3.29Z"/><path class="cls-4" d="M266.6,317l.15-.3s1.68.71,2.34,1.06l-.32-.37a.61.61,0,0,1-.17-.29.74.74,0,0,1,0-.47l.79.68.77.68c.17.15.23.11.28.35l2.24.8-.26,2.63L267,319.37l-.49-1.42A1.31,1.31,0,0,1,266.6,317Z"/><path class="cls-8" d="M271.26,318.38l6.78,2.1-.82-2.72c1.76,0,3.52,0,5.28,0a11,11,0,0,1,.52,1.93,11.72,11.72,0,0,1,.31,2,4.08,4.08,0,0,1-1.11,3.38,2.57,2.57,0,0,1-2.65.35l-9.26-4.25Z"/><path class="cls-9" d="M278.68,320.77h0l-6.05-1.8a.18.18,0,0,1-.11-.2.16.16,0,0,1,.2-.1l5.77,1.72-1.73-6.09a.16.16,0,0,1,.11-.19.17.17,0,0,1,.2.11l1.8,6.36a.16.16,0,0,1,0,.16A.15.15,0,0,1,278.68,320.77Z"/><path class="cls-9" d="M279.57,325.63h-.07l-6.65-3.05.14-.28,6.65,3a.16.16,0,0,1,.07.21A.14.14,0,0,1,279.57,325.63Z"/><path class="cls-4" d="M176,259l-.89-1.61.09-1a.86.86,0,0,0-.11-.52l-.59-1,.13,3-.85.06-.44-3.1-.1.05a1.16,1.16,0,0,0-.67,1.19l.08.76a1.1,1.1,0,0,0,.23.57l.84,1.58.79,1.81Z"/><path class="cls-3" d="M174.85,257.84l-.36-3.95a.4.4,0,0,0-.37-.4l-.47,0a.4.4,0,0,0-.43.46l.57,3.94Z"/><path class="cls-1" d="M174.67,257.63l-.3-3.41a.3.3,0,0,0-.26-.29l-.35,0a.3.3,0,0,0-.32.34l.49,3.39Z"/><path class="cls-5" d="M184.57,266.15l-2,2.06a3.12,3.12,0,0,1-1.61.85h0a3,3,0,0,1-2.72-.85l-.11-.1a3.24,3.24,0,0,1-.62-.89l-4.25-8,2.46-1.05,4.75,6.23,2.87-3.48A32.77,32.77,0,0,1,184.57,266.15Z"/><path class="cls-4" d="M181.77,252.82a1.56,1.56,0,0,0,.39-1.09l-.06-.31a2.3,2.3,0,0,1-.39-1.63l.44-1.22,5.22-1c.34.31.91,3.94.91,3.94l1.22,4.68-4,.76-.2-2.23-1.54.46c-.87.26-1.18-1.76-1.2-1.83h0C181.7,253.48,181.77,252.82,181.77,252.82Z"/><path class="cls-4" d="M186.33,252.71c.58.16,1.11.11,1.3-.59s0-1.78-.6-1.94a1.33,1.33,0,0,0-.7,2.53Z"/><path class="cls-3" d="M184.26,250.41a1.88,1.88,0,0,1-.47-1.47,2.8,2.8,0,0,1-1.36.88,1.28,1.28,0,0,1-1.69-1,1.74,1.74,0,0,1,.54-1.64,3,3,0,0,1,1.62-.75,6.15,6.15,0,0,0,1.22-.26c.46-.19.67-.59,1-.91a2.26,2.26,0,0,1,3,.13,3,3,0,0,1,.65,3.07,2.61,2.61,0,0,0-.14.55.56.56,0,0,0,.21.51c.25.17.66,0,.84.28a.52.52,0,0,1-.17.64,2.81,2.81,0,0,0-.56.46.66.66,0,0,0,.08.8.65.65,0,0,0,.8.07,1.26,1.26,0,1,1-2.41.76,6,6,0,0,1-.1-1,1,1,0,0,0-.54-.82c-.46-.15-.78.29-1.21.32A1.83,1.83,0,0,1,184.26,250.41Z"/><path class="cls-4" d="M182.8,253.08v0a1.16,1.16,0,0,1,.07.45l.16.1.19-.18Z"/><polygon class="cls-4" points="205.48 313.5 203.35 310.1 200.65 311.98 203.22 315.61 205.48 313.5"/><polygon class="cls-4" points="204.13 311.35 205.48 313.5 203.22 315.61 201.73 313.51 204.13 311.35"/><path class="cls-3" d="M200.66,318.8a.37.37,0,0,0,.39,0l4.66-3.46,0,0a.8.8,0,0,0,.3-.55.91.91,0,0,0-.14-.58l-.37-.53-.48-.75s-.23,1.55-1,1.08-1.47.77-1.47.77l-2.13,3.62A.39.39,0,0,0,200.66,318.8Z"/><path class="cls-1" d="M202.73,316a.05.05,0,0,0,.06,0,.07.07,0,0,0,0-.08l-.85-.27a.06.06,0,0,0,0,.12l.85.27Z"/><path class="cls-1" d="M202.9,315.62a.07.07,0,0,0,.06-.05.06.06,0,0,0,0-.07l-.85-.28a.06.06,0,1,0,0,.12l.85.27Z"/><path class="cls-11" d="M182.94,276.41s6.55,1,9.15-.11l1.1-.09,2.54,20-5.52,3Z"/><polygon class="cls-11" points="195.47 295.86 204.72 312.2 201.13 314.88 190.21 299.27 195.47 295.86"/><path class="cls-4" d="M181.14,313.62l3.29.06.57,3.25h0l0,.56h-.12a1.48,1.48,0,0,1-1.74.75l-1.21-.37Z"/><path class="cls-3" d="M178,319a.36.36,0,0,0,.34.2l6.09-.09h.05a1.48,1.48,0,0,0,.79-.28,9.23,9.23,0,0,0-.22-2.06s-1.1,1.12-1.45.28-1.65-.23-1.65-.23l-3.84,1.69A.38.38,0,0,0,178,319Z"/><path class="cls-1" d="M181.32,317.9h0a.08.08,0,0,0,0-.09l-.53-.72a.06.06,0,0,0-.09,0,.06.06,0,0,0,0,.08l.53.72A.05.05,0,0,0,181.32,317.9Z"/><path class="cls-1" d="M181.66,317.71l0,0a.05.05,0,0,0,0-.08l-.53-.72a.05.05,0,0,0-.08,0,.06.06,0,0,0,0,.08l.53.72S181.64,317.71,181.66,317.71Z"/><path class="cls-2" d="M193.19,276.21l-5.3,15.57-1.88,6.3-6.24-1.79,3.51-23.52C185.31,274,190.23,275.43,193.19,276.21Z"/><polygon class="cls-2" points="185.81 315.75 181.28 315.99 179.77 296.29 186.01 298.08 185.81 315.75"/><path class="cls-5" d="M183.76,258a26.32,26.32,0,0,0,1.79-2.3h0a2.11,2.11,0,0,1,.23-.19h3.78a4.93,4.93,0,0,1,4,3.29c.5,1.49.32,3.46.4,5.91.19,5.91,1.81,16.72,1.81,16.72s-5.51,1.66-9.52-.79C184.58,279.6,183.76,258,183.76,258Z"/><path class="cls-5" d="M182.44,276.82c.89,1.17,2.61,3.26,3.82,3.81,1.78-6.38-2.48-17.24-.57-25-2.78,2.58-2.95,6.53-3.25,9.57Z"/><path class="cls-5" d="M189.42,254.58l.5,1.09s-4.36,6.69-4.36,12.32v-9.53l.12-1.69Z"/><path class="cls-1" d="M185.69,255.67c-2.78,2.58-2.95,6.53-3.25,9.57,0,0,2.33-2.24,3.79-7.43A2.6,2.6,0,0,0,185.69,255.67Z"/><path class="cls-4" d="M189.71,255.32a14.41,14.41,0,0,1-4.48,1.5c.09,0-.38-.24-.38-.24a6.45,6.45,0,0,1,1-1.29l1.91-.71Z"/><path class="cls-5" d="M195.57,264.62l-1.75-5.77c-.56-1.31-2-2.75-3.46-2.79l-1.65.86,1.15,10a8.22,8.22,0,0,1,3.43-1.8C194.75,264.81,195.57,264.62,195.57,264.62Z"/><polygon class="cls-1" points="186.6 258.18 185.23 256.82 189.42 254.58 189.86 255.56 186.6 258.18"/><path class="cls-2" d="M184.32,257.31a18,18,0,0,0-3.92,7.53,2.55,2.55,0,0,1-1.43,1.75,1.75,1.75,0,0,1-1.72-.11l-1.31.68,1,1.08s4.19.71,4.78-2.54,2.09-6.89,3.44-7.89Z"/><polygon class="cls-2" points="185.33 256.76 184.85 256.58 184 257.71 184.84 258.14 185.2 257.81 185.33 256.76"/><path class="cls-4" d="M187.82,265.35l-1.11,2.59L182,263.83a.26.26,0,0,1,0-.29.19.19,0,0,1,.26-.13l-.67-.58a.34.34,0,0,1,0-.29.27.27,0,0,1,.3-.19l-.26-.21a.48.48,0,0,1,0-.45.29.29,0,0,1,.33-.14l.38.3.81.64-.61-.88a.33.33,0,0,1,0-.42.23.23,0,0,1,.36,0c.56.56,1.18,1,1.75,1.59l-.22-.47a.83.83,0,0,1-.07-.36.71.71,0,0,1,.19-.46l.58.95.58.94c.11.2.19.19.17.44Z"/><path class="cls-5" d="M184.32,266.27l1.87-2.59,4.31,2.81-.58-1.93h5.64a14.32,14.32,0,0,1,.66,5.53,1.26,1.26,0,0,1-.2.56h0a4.07,4.07,0,0,1-6.07.69Z"/><polygon class="cls-1" points="184.36 266.2 183.76 265.67 185.75 263.37 186.19 263.68 184.36 266.2"/><path class="cls-7" d="M192.66,272.59a3.67,3.67,0,0,0,1.54-.32.15.15,0,0,0,.07-.21.17.17,0,0,0-.21-.07,3.61,3.61,0,0,1-3.21-.19,30.68,30.68,0,0,1-4.77-4.15.15.15,0,0,0-.22,0,.17.17,0,0,0,0,.22,31,31,0,0,0,4.85,4.21A4,4,0,0,0,192.66,272.59Z"/><path class="cls-7" d="M190.78,266.74a.16.16,0,0,0,.09,0,.16.16,0,0,0,0-.17l-1.58-5.43a.16.16,0,0,0-.19-.11.15.15,0,0,0-.1.19l1.47,5.05-3.82-2.41a.16.16,0,0,0-.21.05.14.14,0,0,0,0,.21l4.15,2.62A.16.16,0,0,0,190.78,266.74Z"/><polygon class="cls-1" points="175.67 258.18 175.39 257.85 173.21 258.69 173.48 259.12 175.67 258.18"/><path class="cls-3" d="M63.59,54.68,61.76,55l.83-3.75a.59.59,0,0,1,.49-.46l1-.16a.3.3,0,0,1,.34.36Z"/><path class="cls-4" d="M60.48,41.48a2.54,2.54,0,0,0,.78-1.21L61,38.85l-4.6-1.94A10,10,0,0,0,53.84,39c-.71,1,.94,1.35.94,1.35l-2.05,4.06,3.53,1.49.63-2,1.32.73a.7.7,0,0,0,1-.47,1.89,1.89,0,0,1,.21-.54c.17-.16,0,0,.18-.28,0-.06.11-.23.15-.29.37,0,.93,0,.89-.32A8.8,8.8,0,0,1,60.48,41.48Z"/><path class="cls-4" d="M59.82,43h0a1.12,1.12,0,0,0-.16.42l-.17.06-.14-.21Z"/><path class="cls-13" d="M58.61,43.14a2.9,2.9,0,0,0,1,.27s.15.18-.1.23-.2,0-.2,0,.28,0,.22.18-.29.1-.39,0A7.72,7.72,0,0,0,58.61,43.14Z"/><path class="cls-14" d="M54.17,41.56s1.69-2.57,2.72-1.7-.13,1.75-.77,2h0a3.61,3.61,0,0,0,1,3.4l.53.51a1.16,1.16,0,0,0,1.56.06h0a1.17,1.17,0,0,0,.41-1l-.09-1.21H60a.72.72,0,0,0-.66-.7l-.68-.07a2.26,2.26,0,0,1-.48-3.09s1.28-.84,3.07.52a1.64,1.64,0,0,0,.88-1c.31-.84-.81-2.1-1.91-2.34,0,0,.56.3.43.69,0,0-2.8-2.54-5-.74,0,0-1,.57-1.3,0C54.32,36.88,52.52,40.18,54.17,41.56Z"/><path class="cls-4" d="M56.34,41.82c-.57,0-1-.11-1.08-.79s.37-1.64.94-1.67a1.25,1.25,0,0,1,.14,2.46Z"/><path class="cls-8" d="M55.2,54l1.65,3.9c0,.08.06.13.08.16L65,68.87l2.72-1.59L60.16,51.55Z"/><rect class="cls-3" x="60.75" y="52.81" width="11.91" height="21.39" rx="1.01" transform="translate(80.14 -27.61) rotate(54.79)"/><rect class="cls-15" x="61.74" y="53.87" width="9.92" height="19.27" rx="0.55" transform="translate(80.1 -27.61) rotate(54.77)"/><polygon class="cls-16" points="64.3 65.63 63.34 64.27 65.1 60.57 66.06 61.93 64.3 65.63"/><polygon class="cls-17" points="71.5 64.16 69.08 63.07 69.13 63.65 65.5 64.02 64.76 65.58 69.28 65.12 69.34 65.71 71.5 64.16"/><polygon class="cls-4" points="43.25 105.8 44.11 101.86 47.31 102.71 46.11 107.03 43.25 105.8"/><polygon class="cls-1" points="43.8 103.31 43.25 105.8 46.11 107.03 46.8 104.53 43.8 103.31"/><path class="cls-8" d="M49.63,109.17a.4.4,0,0,1-.39.1l-5.58-1.68h0a.88.88,0,0,1-.48-.43.86.86,0,0,1-.06-.59l.16-.63.2-.87s.75,1.38,1.32.67,1.66.23,1.66.23l3.25,2.7A.38.38,0,0,1,49.63,109.17Z"/><path class="cls-18" d="M58.63,65.47s-8.38,1.64-11,.46l-.74,7.18-1,13.67,6.13,1.67Z"/><polygon class="cls-18" points="45.93 86.65 42.68 103.95 47.42 105.75 52.33 87.52 45.93 86.65"/><polygon class="cls-4" points="58.74 106.58 59.11 102.56 62.38 103.01 61.73 107.44 58.74 106.58"/><path class="cls-1" d="M58.79,106l.2-2.16,3.2.48-.46,3.1-1.25.18A1.49,1.49,0,0,1,58.79,106Z"/><path class="cls-8" d="M65.49,109.13a.38.38,0,0,1-.37.14l-5.76-1h0a.83.83,0,0,1-.53-.36.85.85,0,0,1-.13-.58l.08-.64.09-.89s.91,1.28,1.39.5,1.67,0,1.67,0l3.57,2.28A.39.39,0,0,1,65.49,109.13Z"/><path class="cls-3" d="M46.7,65.59,57.23,83.73l3.36,4.85,5.56-2.09L57.81,64.06C56.07,65.7,49.45,64.2,46.7,65.59Z"/><polygon class="cls-3" points="60.43 88.31 60.39 88.49 59.27 96.02 58.21 104.72 62.56 105.33 66.15 86.49 60.53 87.31 60.43 88.31"/><path class="cls-8" d="M52.24,45a5.73,5.73,0,0,0-4.53,3.68c-.54,1.61-.35,3.74-.44,6.38-.2,6.38-.71,11.21-.71,11.21s8.73,1.86,13.15,1.18l.51-7.12.41-6a13.48,13.48,0,0,0-3.74-8.62Z"/><path class="cls-8" d="M47.35,56l.29-6.39c.23-1.5,1.37-3.37,2.83-3.78l2.08-.72,1.27,11.73a8.9,8.9,0,0,0-4-1Z"/><polygon class="cls-8" points="51.87 45.06 52.67 43.35 56.8 44.99 56.89 45.71 51.87 45.06"/><path class="cls-4" d="M64.38,52.33l-.23-.2s-1.47.95-2.09,1.41l.27-.43a.6.6,0,0,0,.12-.32.72.72,0,0,0-.12-.47l-.68.82L61,54c-.14.17-.21.15-.22.4l-2.14,1.21.71,2.62,5.13-3.33.17-.68A4.49,4.49,0,0,0,64.38,52.33Z"/><path class="cls-8" d="M60.14,54.23,53,57.83l.4-3.17c-1.95.34-3.91.66-5.85,1a12.13,12.13,0,0,0-.22,2.24,13.72,13.72,0,0,0,0,2.31,4.56,4.56,0,0,0,1.86,3.53,2.87,2.87,0,0,0,3-.11l9.48-6.45Z"/><path class="cls-9" d="M51.6,57.78a.14.14,0,0,1-.09,0,.11.11,0,0,1,0-.12L53,50.43a.13.13,0,0,1,.15-.1.12.12,0,0,1,.1.15l-1.44,7L58.23,55a.13.13,0,0,1,.16.08.13.13,0,0,1-.07.16l-6.68,2.5Z"/><path class="cls-9" d="M50.57,63.83a2.46,2.46,0,0,1-.55,0,.12.12,0,0,1-.11-.14.12.12,0,0,1,.14-.11,3,3,0,0,0,1.6-.38l8.93-5.41a.13.13,0,0,1,.18,0,.14.14,0,0,1,0,.18l-8.93,5.41A3,3,0,0,1,50.57,63.83Z"/><path class="cls-4" d="M68.34,70.33a.51.51,0,0,0,.42-.07.3.3,0,0,0,.09-.31l-.74-.71c-.19-.18-.57-.26-.71-.09a.5.5,0,0,0-.14.28.34.34,0,0,0-.31.07.28.28,0,0,0,0,.42l.62.62s.33.36.61.12A.36.36,0,0,0,68.34,70.33Z"/><path class="cls-4" d="M67.59,70.54l-.71-.71a.24.24,0,0,0-.29,0h0a.24.24,0,0,0-.09.15.23.23,0,0,0,0,.19l.54.73a.35.35,0,0,0,.37,0A.29.29,0,0,0,67.59,70.54Z"/><path class="cls-4" d="M69.6,69.6s-.32-.36-.67-.7-.58-.17-.58-.17a.41.41,0,0,0-.08.67l.78.74a.41.41,0,0,0,.47-.09A.37.37,0,0,0,69.6,69.6Z"/><path class="cls-4" d="M364.26,152.17l-2.35,4.9-6.36-4.83-1.41.43,6.22,7.85a2.5,2.5,0,0,0,2.28.85h0a2.53,2.53,0,0,0,1.77-1.2l2.12-3.59-.43-1.5Z"/><path class="cls-8" d="M353,151.59l1.8.16-.16-3.29a.38.38,0,0,0-.34-.37l-1.09-.11a.39.39,0,0,0-.43.4Z"/><path class="cls-1" d="M353.18,151.44l1.42.11-.12-2.87a.3.3,0,0,0-.28-.31l-.89-.1a.32.32,0,0,0-.35.35Z"/><path class="cls-4" d="M356,152.6l-.62-.69-.17-1.35-.85-1h0a.73.73,0,0,0,.06.66l.16.26.12,1.24-1.7-.15-.22-2-.31,0,.07,1.78,1.56,1.3.79,1Z"/><path class="cls-4" d="M364.31,184.94c1.56,5.68-.61,12.29-1.66,18.26l-3.35-.37s-.61-20.13-.42-20.74c1.84.67,3.73.52,5.63,1C364.5,183.05,364.32,184.94,364.31,184.94Z"/><path class="cls-4" d="M374.94,202.3l1.93,4.92,2.13-.57-1-5.28S376.28,201.92,374.94,202.3Z"/><path class="cls-3" d="M379,206.27l.5,1.22a.61.61,0,0,1-.29.78l-4.73,2.14a.3.3,0,0,1-.34-.45l2.35-2.56Z"/><path class="cls-4" d="M359.3,202.71l.16,5.29,2.18.23,1.05-5.25Z"/><polygon class="cls-4" points="362.39 204.51 361.64 208.23 359.46 208 359.36 204.7 362.39 204.51"/><path class="cls-3" d="M361.74,207.87l.06,1.32a.58.58,0,0,1-.53.62l-5.16.32a.3.3,0,0,1-.17-.54L359,208Z"/><path class="cls-4" d="M361.74,207.87l-.75.52a3,3,0,0,1-3.06.19l1.57-.94Z"/><path class="cls-4" d="M364.42,167.82l-1.35,1.63,5.5,17.71,3.55-1.09,2.53-.77c-.92-7.21-1.12-12.08-2-16.32a6.52,6.52,0,0,0-3.85-4.7l-1.3-.53Z"/><path class="cls-4" d="M368.57,187.16l6.37,15.14,3-.93c-1.25-5.26-2.21-9.91-3.76-16.18h-3Z"/><path class="cls-8" d="M359.17,177.29a23.12,23.12,0,0,0-.88,4.65,11,11,0,0,0,.55,5.06c1.38-1.12,7.21-2.42,8.72-1.7a10.64,10.64,0,0,0,6.06,1,8.57,8.57,0,0,0,6.34-3.59,9.67,9.67,0,0,0,1.78-5.47,2.07,2.07,0,0,1-1.53.14c-1-.4-1.7-1.49-2.58-2.14a10.19,10.19,0,0,1-3.1-4.73,18.86,18.86,0,0,0-2.47-5.13,2.38,2.38,0,0,0-.87-.74,3.11,3.11,0,0,0-2.12-.39c-1.65.58-3.16-1.19-4.31.28a12.78,12.78,0,0,0-1.49,2.65c-.43.93-1,1.83-1.36,2.77-.91,2.26-1.87,4.51-2.58,6.84C359.27,176.93,359.22,177.11,359.17,177.29Z"/><path class="cls-4" d="M361.16,147c.53-.37.52-1.39.52-1.39a2.91,2.91,0,0,1-.16-1.87l4.32-1.41,1,3.22,2.07,4.61-3.93.66-.46-2-.06,0h0l-1.15.5h0l-.24.12a.56.56,0,0,1-.36,0h0c-.31-.06-.93-1.72-.93-1.72l-.11-.28C361.14,147.42,361.16,147,361.16,147Z"/><polygon class="cls-10" points="364.55 148.79 366.04 147.98 364.65 149.2 364.55 148.79"/><path class="cls-14" d="M364.72,145.26a2.92,2.92,0,0,1-1.58-.69,2,2,0,0,1-.67-1s-.92.4-.83,1.93a2.61,2.61,0,0,1-.1-2.63c.58-1,4.61-2.9,6.62.25,1.23,1.92-.81,4-.46,4.46,0,0-1.72.21-1.75-1.36Z"/><path class="cls-14" d="M362.47,143.58s.35,2.58,2.59,2.85a1.46,1.46,0,0,1,.53-1.54Z"/><path class="cls-4" d="M365.07,146.92c.52.18,1,.16,1.21-.46s.09-1.62-.43-1.8a1.22,1.22,0,0,0-.78,2.26Z"/><path class="cls-14" d="M366.88,146.78a2.09,2.09,0,1,0,1.34-2.64A2.09,2.09,0,0,0,366.88,146.78Z"/><path class="cls-1" d="M367.1,145.13h-.05A.12.12,0,0,1,367,145a1.9,1.9,0,0,1,1.45-1c.06,0,.12,0,.12.11a.11.11,0,0,1-.11.13,1.62,1.62,0,0,0-1.25.87A.11.11,0,0,1,367.1,145.13Z"/><path class="cls-3" d="M369.55,151.14l1.39,13.64-6.18-.29c.06-1.23-1.44-6.37-1.44-6.37l-1.14-1.32a2.67,2.67,0,0,1-.28-1,2.25,2.25,0,0,1,1-2,10.73,10.73,0,0,0,2.18-3.45h0c3.4-.12,3.65-.86,3.65-.86A5,5,0,0,0,369.55,151.14Z"/><rect class="cls-1" x="365.27" y="169.67" width="8.47" height="6.56" transform="translate(763.94 277.17) rotate(169.72)"/><rect class="cls-3" x="366.16" y="168.94" width="11.31" height="7.19" rx="0.38" transform="translate(768.45 275.93) rotate(169.72)"/><path class="cls-4" d="M367.31,150.82l.36-.18a1.94,1.94,0,0,1,1.6,0,2.51,2.51,0,0,1,1,1.2,8.81,8.81,0,0,1,.48,2.15l.63,4,.4,2.5v0L373,173l-1.87.21s-2.56-7.58-3.29-9.76a7.85,7.85,0,0,1-.3-1.18l-.69-4-.72-4.25a3.69,3.69,0,0,1,.11-2.11A2.45,2.45,0,0,1,367.31,150.82Z"/><path class="cls-3" d="M366.46,157.26c-.18-1.08-.37-2.17-.55-3.25a4.16,4.16,0,0,1,.12-2.32,2.73,2.73,0,0,1,1.15-1.16l.4-.2a2.14,2.14,0,0,1,1.75,0,2.74,2.74,0,0,1,1.1,1.32A9.58,9.58,0,0,1,371,154l.51,3.27Z"/><path class="cls-4" d="M372.83,172.36l.17.56.9,1.4a5.41,5.41,0,0,1,.35,1,.66.66,0,0,1-.19.64l-.57.29a.66.66,0,0,1-.44,0l-.71-.17.62-.23-.41-.37-.56-.55-.09.08.07.5a.87.87,0,0,1-.05.48.36.36,0,0,1-.44.24l0-.68s-.13-.79-.14-.81-.19-1.24-.19-1.24l-.21-.89Z"/><path class="cls-18" d="M366.4,157a.15.15,0,0,1-.15-.12,27.12,27.12,0,0,1-.61-4.46.16.16,0,1,1,.31,0,27.92,27.92,0,0,0,.6,4.34.15.15,0,0,1-.12.19Z"/><path class="cls-4" d="M367.82,150.07a14.71,14.71,0,0,1-1.76,1.64c-.4.31-1.36,1.07-2,.93l-.16,0c.25-.56.89-1.54,1.12-2.19Z"/><path class="cls-4" d="M209.1,124.23l-1.44.29s.43,3.38,2.94,3.43,2.58-1.3,2.58-1.3l-.78-1.73a.9.9,0,0,0-.76-.52Z"/><path class="cls-4" d="M202.43,179.43l-.13,2.69-2.24-.16-.1-3A3.16,3.16,0,0,0,202.43,179.43Z"/><path class="cls-2" d="M200,181.59l-.28,1.26a.59.59,0,0,0,.43.69l5.14,1.19a.29.29,0,0,0,.26-.49l-2.82-2Z"/><path class="cls-4" d="M200,181.59l.67.64a3.15,3.15,0,0,0,3.05.7l-1.43-1.17Z"/><path class="cls-4" d="M216.09,179.76l.51,2.64-2.21.38-.8-2.87A3.15,3.15,0,0,0,216.09,179.76Z"/><path class="cls-2" d="M214.26,182.43l0,1.29a.58.58,0,0,0,.58.57l5.28-.06a.29.29,0,0,0,.14-.53l-3.23-1.3Z"/><path class="cls-4" d="M214.26,182.43l.8.46a3.16,3.16,0,0,0,3.13,0l-1.66-.8Z"/><path class="cls-4" d="M199.86,154.57l1.91,6.84s-4,9.21-1.68,18.75l.21,1,1.7,1.44.36-2s5.16-22,5.81-25.16S199.86,154.57,199.86,154.57Z"/><path class="cls-4" d="M209,155.26a23.36,23.36,0,0,0,2.2,6.65s-1.68,12.27,2.87,19.56l-.37-1.3,2.87,1.88-.6-27.28S210.65,153.08,209,155.26Z"/><path class="cls-8" d="M197.12,154.7c1.43-.09,2.89-.43,4.23.06a7,7,0,0,1,1.35.72,8.09,8.09,0,0,0,2.62,1.2,6.57,6.57,0,0,0,2.34,0c1.8-.28,3.54-.88,5.35-1.13a7.66,7.66,0,0,1,4.87.68l0,0s-5.24-12.08-5.76-16.69c0,0-2,2.24-7.71.17,0,0-2.51-.21-4.35,8.67,0,0-.64,4.09-3,5.77C196.91,154.22,197,154.45,197.12,154.7Z"/><path class="cls-4" d="M212.12,129.42l2.51,4.71,6-5,1.4.37-5.77,7.95a2.47,2.47,0,0,1-2.21.92h0a2.47,2.47,0,0,1-1.78-1.11l-2.22-3.43.36-1.48Z"/><path class="cls-2" d="M210.44,132.35l1.68-2.93,2.51,4.71,2.34-1.94,1,3.29-1.62,2.22a2.43,2.43,0,0,1-2.2.92s-1.63-.56-1.86-1.36l-2.22-3.43Z"/><path class="cls-2" d="M212,124.51l.18,0c.3.52,1,2,1.61,3.35a3.58,3.58,0,0,1,.1,3.62L212,135.31l.32,4.65s-1.35,3.11-8.49-.79l.92-10.39,1.38-3.71a2.37,2.37,0,0,1,2.24-.42,1.77,1.77,0,0,1,.88.87,1.87,1.87,0,0,0,1.94,1.26,1,1,0,0,0,1.05-1A3.89,3.89,0,0,0,212,124.51Z"/><path class="cls-4" d="M209.37,126.77s.55-1.47-1.29-2.17c-1.24-.47-2.54.92-3.25,1.86a4.87,4.87,0,0,0-.77,1.46l-2.55,7.54a3.11,3.11,0,0,0,0,1.93l3.48,8.69,1.09-.5-1-8.9Z"/><path class="cls-2" d="M202.07,140.55l-.57-3.16a3.11,3.11,0,0,1,0-1.93l2.55-7.54a4.87,4.87,0,0,1,.77-1.46c.71-.94,2-2.33,3.25-1.86,1.84.7,1.29,2.17,1.29,2.17l-4,9.84.31,2.87Z"/><path class="cls-4" d="M205.87,144.48l.31.73,1.31.64h0a.36.36,0,0,1-.38.22l-.47,0,.73,2.05a.14.14,0,0,1-.12.19h0a.14.14,0,0,1-.15-.09l-.4-1.06.23,1.3a.15.15,0,0,1-.13.18h0a.15.15,0,0,1-.15-.11l-.36-1.31v1.21a.12.12,0,0,1-.12.13h0a.12.12,0,0,1-.14-.12l-.13-1.18-.11.87a.14.14,0,0,1-.14.12h0a.14.14,0,0,1-.13-.13l-.54-2-.31-.8Z"/><path class="cls-11" d="M212.15,137.19A.17.17,0,0,1,212,137l-.12-1.72a.12.12,0,0,1,0-.08l1.37-2.78a.16.16,0,0,1,.21-.07.17.17,0,0,1,.08.21l-1.36,2.74.11,1.68a.16.16,0,0,1-.14.17Z"/><path class="cls-11" d="M205.63,139.36a.15.15,0,0,1-.15-.13l-.47-2.7a.28.28,0,0,1,0-.09l1-2.34,2.73-6.49a.14.14,0,0,1,.2-.08.16.16,0,0,1,.09.2l-3.71,8.79.46,2.66a.17.17,0,0,1-.13.18Z"/><path class="cls-4" d="M211.82,123.88a1.61,1.61,0,0,0,2.09-1.15,23.36,23.36,0,0,0,.8-2.72l-1.3-3.17-3.1,1.27a8.38,8.38,0,0,0-1.74,2.16c-.39.93,1,.91,1,.91l-.88,3.09a11,11,0,0,1,.71,1.18,1.32,1.32,0,0,0,2.53-.22v0a2.77,2.77,0,0,0,0-.79Z"/><path class="cls-6" d="M211.82,123.88a4.58,4.58,0,0,1-1.62-1.11,2.18,2.18,0,0,0,1.66,1.65Z"/><path class="cls-8" d="M213.87,122.79c-.15.37,0,.36.42.49a2.33,2.33,0,0,0,1.07.14,1,1,0,0,0,.82-.63,1.5,1.5,0,0,0-.07-.86,2.35,2.35,0,0,0,1.64-.69,2.25,2.25,0,0,0,.34-1,2.09,2.09,0,0,0-.09-1.38.45.45,0,0,1-.07-.18.31.31,0,0,1,.07-.21,1,1,0,0,0,.13-.5.48.48,0,0,0-.28-.4s-.1,0-.14-.06a.25.25,0,0,1-.05-.13,5.09,5.09,0,0,0-.39-1.33,1.63,1.63,0,0,0-1-.9c-1.06-.27-2.13.89-3.16.53-.56-.19-.88-.77-1.34-1.12a1.81,1.81,0,0,0-1.69-.28,1.52,1.52,0,0,0-1,1.36c0,.18,0,.4-.13.5a.36.36,0,0,1-.23.06c-.38,0-.7-.31-1.07-.41a1.29,1.29,0,0,0-1,.14,1.58,1.58,0,0,0-.17,2.64c.21.15.47.28.53.53a.63.63,0,0,1-.18.57c-.1.14-.23.25-.34.39a1.15,1.15,0,0,0-.17.41,2,2,0,0,0,0,1,1.52,1.52,0,0,0,1.12,1.08,2.17,2.17,0,0,0,1.71-.18l.34-1.19a1,1,0,0,1-.71-.39.6.6,0,0,1,.22-.94.67.67,0,0,1,.8.21s.74.12.78-.8.41-1.26,1.06-.85c0,0,.09.8,1,.45l.6-.3s.49-.09.47.66a1,1,0,0,0,.73,1A7.63,7.63,0,0,1,213.87,122.79Z"/><path class="cls-3" d="M223.19,128.36l-1.78.26,0-3.23a.36.36,0,0,1,.32-.37l1.06-.16a.39.39,0,0,1,.44.38Z"/><path class="cls-1" d="M223,128.24l-1.29.14v-2.76a.27.27,0,0,1,.23-.28l.76-.12a.29.29,0,0,1,.32.3Z"/><path class="cls-4" d="M220.2,129.51l.58-.7.11-1.34.79-1h0a.76.76,0,0,1,0,.66l-.15.26-.07,1.21,1.66-.21.14-1.93.3,0v1.74l-1.47,1.34-.73,1Z"/><path class="cls-4" d="M126.14,206.13l1.4-1.58.15-1.14a.94.94,0,0,1,.26-.56l.91-1-.9,3.3.94.27,1.27-3.35.1.08a1.35,1.35,0,0,1,.46,1.5l-.28.83a1.41,1.41,0,0,1-.4.59l-1.34,1.56-1.35,1.82Z"/><path class="cls-2" d="M127.72,205.16l1.39-4.33a.48.48,0,0,1,.51-.36l.54.07a.47.47,0,0,1,.37.63l-1.63,4.26Z"/><path class="cls-1" d="M127.91,205l1.26-3.92a.39.39,0,0,1,.42-.29l.44.06a.37.37,0,0,1,.3.51l-1.54,3.83Z"/><polygon class="cls-4" points="113.42 259.77 113.06 255.81 116.31 255.67 116.47 260.08 113.42 259.77"/><polygon class="cls-4" points="113.19 257.26 113.42 259.77 116.47 260.08 116.38 257.52 113.19 257.26"/><path class="cls-3" d="M120.4,261.05a.39.39,0,0,1-.34.2l-5.74.08h0a.84.84,0,0,1-.57-.26.88.88,0,0,1-.23-.54l0-.64-.08-.87s1.12,1.08,1.44.24,1.63-.27,1.63-.27l3.85,1.57A.38.38,0,0,1,120.4,261.05Z"/><path class="cls-11" d="M117.23,218.81s-6,2.69-8.77,2.34L107.2,228l3.11,13.14,6.24-.25Z"/><polygon class="cls-11" points="110.28 241 112.95 259.95 117.33 259.09 116.54 239.92 110.28 241"/><polygon class="cls-11" points="110.28 241 112.95 259.95 117.33 259.09 116.54 239.92 110.28 241"/><polygon class="cls-4" points="94.16 254.86 96.12 251.4 98.88 253.13 96.49 256.85 94.16 254.86"/><path class="cls-4" d="M94.44,254.38l1-1.86,2.68,1.73-1.67,2.6-1.19-.35A1.45,1.45,0,0,1,94.44,254.38Z"/><path class="cls-3" d="M99.18,259.88a.37.37,0,0,1-.39,0L94,256.66l0,0a.82.82,0,0,1-.32-.54.88.88,0,0,1,.11-.57l.34-.55.44-.76s.3,1.52,1,1,1.49.7,1.49.7l2.28,3.48A.38.38,0,0,1,99.18,259.88Z"/><path class="cls-2" d="M105.62,217.16l-1.55,16.21-.88,6.46,6.37.92L116,218.08C113.63,218.38,108.61,217.66,105.62,217.16Z"/><polygon class="cls-2" points="102.49 239.94 102.39 240.09 98.91 245.6 93.53 254.69 97.38 256.19 103.95 247.93 109.56 240.75 103.57 238.29 102.49 239.94"/><path class="cls-5" d="M114.74,212l1.78,2.82a3.55,3.55,0,0,0,1.59,1.36h0a3.47,3.47,0,0,0,3.26-.27l.15-.09a3.87,3.87,0,0,0,.92-.84l6.41-8.55-1.51-1.66-7.52,6.32-2.34-4.62A37.35,37.35,0,0,0,114.74,212Z"/><path class="cls-5" d="M110.28,198.9a5.27,5.27,0,0,0-4.16,3.37c-.49,1.48-.32,3.43-.4,5.85-.18,5.86-.65,10.29-.65,10.29s8,1.71,12.07,1.08l.45-6.53.38-5.49a13.94,13.94,0,0,0-3.59-8.46Z"/><path class="cls-4" d="M106.63,223.34l-3-1v7a.33.33,0,0,0,.23.24.23.23,0,0,0,.31-.13c0,.34,0,.66,0,1a.44.44,0,0,0,.23.24.32.32,0,0,0,.38-.11l0,.36a.53.53,0,0,0,.4.32.3.3,0,0,0,.36-.17c0-.18,0-.36,0-.54l.06-1.15.29,1.15a.38.38,0,0,0,.36.32.27.27,0,0,0,.29-.3c-.07-.89,0-1.76-.08-2.65l.25.53a.87.87,0,0,0,.78.51l-.38-1.2-.37-1.18c-.08-.24,0-.3-.25-.47Z"/><path class="cls-5" d="M104.05,208l-.91,4.07a.8.8,0,0,0,0,.16l.29,13.29,3.09.28,2-14.26,1.07-3.56Z"/><path class="cls-5" d="M104,208.07l1.71-5.62c.54-1.28,2-2.68,3.36-2.72l2-.17-1.52,10.72a8,8,0,0,0-3.34-1.76Z"/><path class="cls-7" d="M107.56,218.28h0a.21.21,0,0,1-.17-.22l.91-6.53,2.11-6.2a.19.19,0,0,1,.24-.12.2.2,0,0,1,.13.25l-2.1,6.16-.9,6.49A.19.19,0,0,1,107.56,218.28Z"/><path class="cls-7" d="M117.42,215.59h0a.19.19,0,0,1-.18-.21l.45-6.84a.19.19,0,0,1,.21-.18.19.19,0,0,1,.18.2l-.45,6.84A.2.2,0,0,1,117.42,215.59Z"/><path class="cls-4" d="M115.13,198.51l2.62-6-5-1.48s-2.4,7.66-2.4,7.66l3.73,1.83.44-2.22Z"/><path class="cls-4" d="M117.57,192.4s.73.67.07,2.64l.27,1.42a.5.5,0,0,1-.76.3s-.33,2-1.31,2a1.87,1.87,0,0,1-1.28-.61l2.26-5.81Z"/><path class="cls-3" d="M111.12,196.22s.58-.44,1.6-1.36,2-.8,1.88.2l-.09.62s.3-1.34,1.08-1.63.47-1,1-1.41,1.22.31,1.22.31.52-2.2-3.37-2.59a2.84,2.84,0,0,0-3.43,2.31,4.08,4.08,0,0,0,0,1.84A3,3,0,0,1,111.12,196.22Z"/><path class="cls-4" d="M113.7,196.07c-.6.1-1.12,0-1.24-.72s.2-1.79.8-1.89a1.23,1.23,0,0,1,1.31,1.12A1.22,1.22,0,0,1,113.7,196.07Z"/><path class="cls-7" d="M114.23,211.24a.62.62,0,0,0,.62-.62.62.62,0,0,0-1.24,0A.62.62,0,0,0,114.23,211.24Z"/><path class="cls-7" d="M114.23,213.85a.61.61,0,0,0-.62.61.62.62,0,0,0,1.24,0A.61.61,0,0,0,114.23,213.85Z"/><path class="cls-1" d="M114.52,199.64l-.71.67-2.21-1.18s1.41,7.75,2.77,8.71C115,206.48,114.52,199.64,114.52,199.64Z"/><polygon class="cls-2" points="114.25 200.79 114.18 201.89 113.84 201.89 113.82 201.89 113.49 201.89 113.14 201.27 113.81 200.2 114.25 200.79"/><path class="cls-2" d="M113.15,205.46a5.48,5.48,0,0,0,1.22,2.38,4.67,4.67,0,0,0,.28-1.53l-.47-4.42h-.69Z"/><polygon class="cls-1" points="110.48 198.26 110.1 198.91 112.39 202.47 113.81 200.2 110.48 198.26"/><polygon class="cls-1" points="114.42 198.91 114.6 199.25 114.94 201.72 113.81 200.2 114.42 198.91"/><path class="cls-11" d="M278.42,211s13,3.38,18.93-1.28C297.35,209.71,282.67,202.2,278.42,211Z"/><path class="cls-4" d="M294.34,209.1l-6-1.44c-.37,6.44.86,16,1.76,25.91h2.63l.06-2.23Z"/><path class="cls-4" d="M281.9,207.82l1.56,23.52.06,2.23h2.63c.84-10.15,1.6-19.9,1.54-25.75Z"/><path class="cls-2" d="M297.35,209.71a5.62,5.62,0,0,1-.53.19,12.52,12.52,0,0,1-4.09.4,15.67,15.67,0,0,1-2.47-.25c-1.87-.38-3.61-1.33-5.51-1.55a7.4,7.4,0,0,0-3.1.34,8.2,8.2,0,0,0-1.69.81,7.27,7.27,0,0,0-1.54,1.34h-.07c.36-4.33.84-7.93,1.37-10.93.11-.64.23-1.25.34-1.83,1.9-9.5,4.25-11.94,4.25-11.94h7.15C296,191.28,297.11,205.38,297.35,209.71Z"/><path class="cls-3" d="M282.24,233.91l-2.09.87a.29.29,0,0,0,.14.54h5.29a.57.57,0,0,0,.57-.57l0-1.3-2.28-.35Z"/><path class="cls-3" d="M296.1,234.78l-2.09-.87-1.65-.82-2.28.35v1.3a.58.58,0,0,0,.58.57H296A.29.29,0,0,0,296.1,234.78Z"/><path class="cls-3" d="M295.82,185.62c2.1-1.09,2.25-2.48,2.25-2.48a1.93,1.93,0,0,0,2-1.23,3.25,3.25,0,0,0-.41-3.44,15.62,15.62,0,0,0-3.82-3.62c-3-1.93-4-3.61-4-4.8,0,0,0-4.63-4.11-4.63a3.43,3.43,0,0,0-3.14,4.4,5.21,5.21,0,0,1-.26,3.45,22.45,22.45,0,0,0-.74,3c-.23,2.22-.45,4.72.14,6a5.49,5.49,0,0,0,4.47,3.35,2.87,2.87,0,0,0,2.91-1.49S293.71,186.7,295.82,185.62Z"/><rect class="cls-4" x="286.35" y="172.99" width="3.06" height="2.92"/><polygon class="cls-5" points="284.59 178.41 280.63 177.98 280.24 185.28 283.1 185.62 284.59 178.41"/><polygon class="cls-5" points="290.92 178.41 295.17 178.27 295.34 184.63 292.41 185.62 290.92 178.41"/><path class="cls-5" d="M295.13,182.65a6.43,6.43,0,0,1-2.4.67l-1.27,3H284.3l-.78-3.12a6.34,6.34,0,0,1-3.12-.92s0-3.66.21-5.46c.15-1.5,1.07-2.24,3.71-2.43l1.47-.1,2.08,1.65,2.17-1.56,1.58.34c1.74.35,3.56.05,3.55,3.05C295.17,179.81,295.13,182.65,295.13,182.65Z"/><path class="cls-7" d="M287.85,182.65a.35.35,0,1,0,0-.7.35.35,0,0,0,0,.7Z"/><path class="cls-7" d="M287.85,184.13a.35.35,0,1,0,0,.7.35.35,0,0,0,0-.7Z"/><path class="cls-1" d="M285.79,174.26c.35,1.72,2,6.78,2,6.78s1.75-5.14,2.21-6.69l-2.17,1.37Z"/><path class="cls-12" d="M289.4,173.16s-.71,1-1.53,1-1.52-1-1.52-1c0-.53.59-1.12,1.52-1.12S289.4,172.63,289.4,173.16Z"/><path class="cls-4" d="M290.83,170.05c0,1.81-1,3.59-3,3.59s-2.95-1.78-2.95-3.59a3,3,0,0,1,5.91,0Z"/><path class="cls-4" d="M290,171.49s1.51.08,1.52-.82c0-1.3-.89-.89-1.27-.87Z"/><path class="cls-4" d="M285.81,171.49s-1.51.08-1.52-.82c0-1.3.89-.89,1.26-.87Z"/><path class="cls-3" d="M284.94,169.72A4.21,4.21,0,0,0,286.4,168a3.87,3.87,0,0,0,4.41,1.72l.19-.34c-.49-1.35-1.25-3.31-3.77-2.87C285,166.9,284.94,169.72,284.94,169.72Z"/><path class="cls-3" d="M289,222.07c.34,3.66.75,7.54,1.11,11.5h2.63l.06-2.23.65-9.27Z"/><path class="cls-3" d="M282.84,222.07l.62,9.27.06,2.23h2.63c.33-4,.64-7.87.9-11.5Z"/><polygon class="cls-1" points="289.4 176.29 287.87 175.78 286.35 176.29 285.79 174.26 286.35 173.85 287.87 175.72 289.4 173.85 290.05 174.35 289.4 176.29"/><path class="cls-2" d="M289.7,177.12l-.13-1.68-1.44.26h-.55l-1.46-.26-.07,1.74.86-.49c-.32.45-.79,1.12-.79,1.16a13.68,13.68,0,0,0,1.27.87l.41-2.4h.12l.41,2.4a13.68,13.68,0,0,0,1.27-.87s-.52-.78-.85-1.23Z"/><rect class="cls-3" x="279.24" y="172.91" width="11.91" height="21.39" rx="1.01" transform="translate(-53.68 198.01) rotate(-35.21)"/><rect class="cls-15" x="280.24" y="173.97" width="9.92" height="19.27" rx="0.55" transform="translate(-53.68 198.01) rotate(-35.21)"/><polygon class="cls-19" points="287.32 186 285.96 186.97 282.26 185.2 283.63 184.25 287.32 186"/><polygon class="cls-20" points="285.85 178.81 284.76 181.23 285.35 181.17 285.71 184.8 287.27 185.54 286.82 181.02 287.4 180.96 285.85 178.81"/><path class="cls-4" d="M282.29,178.27s-3.35,3.15-4.48,4.33-.76,2.67-.09,2.9l.18.07a2,2,0,0,0,2.34-.82c.56-.9,3.06-5.55,3.06-5.55C283,178.23,282.29,178.27,282.29,178.27Z"/><path class="cls-5" d="M281.56,178.77s-2.62,2.65-3.75,3.83-.76,2.67-.09,2.9l.18.07a2,2,0,0,0,2.34-.82c.56-.9,2.77-4.82,2.77-4.82Z"/><path class="cls-4" d="M282.18,178.43a1.47,1.47,0,0,1,0-.88c.17-.44.32-1.06.75-1.09.11,0,.16,0,.18.06v0a1.75,1.75,0,0,1,1.15-.92c.81-.16,1.11,1.44.62,2.14s-.57.81-.84,1-.91.66-.91.66Z"/><path class="cls-4" d="M291.05,188l-.7,2.08-.2,0a.81.81,0,0,0-.53.22l-.69.64-.7.66a.49.49,0,0,0,.37.12.54.54,0,0,0,.27-.11l.35-.26c-.4.6-.73,1.23-1.13,1.82a.25.25,0,0,0,0,.34c.11.08.22,0,.32-.06l.64-.66-.45.83c-.07.12-.13.25-.21.38a.27.27,0,0,0,.13.29.32.32,0,0,0,.35,0l.14-.26a.24.24,0,0,0,.17.25.23.23,0,0,0,.22-.06l.4-.69a.19.19,0,0,0,.12.23.18.18,0,0,0,.22-.07c1-1.62,1.92-3.35,2.88-5C292.39,188.44,291.72,188.27,291.05,188Z"/><path class="cls-5" d="M290.44,189.68l2.33-7.69a11.17,11.17,0,0,1,1.78,1.11l.14.13a2,2,0,0,1,.39,2.45c-.52.92-2.94,4.72-2.94,4.72Z"/><path class="cls-4" d="M32.35,310.41l-3,3.9-5.79-5.48-.67.94,4.78,7.93a2.77,2.77,0,0,0,3.32,1l2.64-2.17s-1.54-3.53-1.32-3.92Z"/><path class="cls-3" d="M23.32,306.39l-.78-.36a.38.38,0,0,0-.53.42l.62,3.38,1.21.55a.38.38,0,0,0,.53-.43l-.61-3A.75.75,0,0,0,23.32,306.39Z"/><path class="cls-4" d="M22.26,307.76l.35-.05.27,0c.08,0,.2-.06.28,0a.1.1,0,0,1,.06.13c0,.06-.12.09-.17.12l-.31.16a1.12,1.12,0,0,0-.29.14.39.39,0,0,1-.11.06l.51-.1.41-.07a2.41,2.41,0,0,1,.37-.07.16.16,0,0,1,.12,0,.14.14,0,0,1,0,.16c0,.09-.12.11-.19.14l-.32.12-.85.32,1.38-.23a.18.18,0,0,1,.16,0,.13.13,0,0,1,0,.12c0,.07-.11.09-.18.11l-.27.11-.85.33a1.11,1.11,0,0,1-.16.07l1.08-.16a.13.13,0,0,1,.1.23l-.07.05-.48.15-.32.11,0,.23,1.16.52-.11.33-1.75-.9a.87.87,0,0,1-.26-.28,1.66,1.66,0,0,1,0-1.55A.56.56,0,0,1,22.26,307.76Z"/><path class="cls-21" d="M42.24,304.34a2.27,2.27,0,0,0,1.92-1.69A1.76,1.76,0,0,0,44,301.3c-.31-.54-.64-1.05-.9-1.61a3.19,3.19,0,0,0-2.59-1.83c-.8-.1-2.43,0-3,.74a1.73,1.73,0,0,1,.82-.34C38.58,298.23,38.39,304.36,42.24,304.34Z"/><path class="cls-22" d="M42.3,301.42l0,0h0Z"/><path class="cls-4" d="M38.89,305.88l0,1-.63.05s0,2.15,1.39,2.07c1.24-.08,2.82-1.64,3.14-2.18,0-.08-.52-.24-.49-.31l-.17-2.69s1.41-.72.95-1.55c-.66-1.2-1.29-.32-1.61-.12l-.29-2.38H37.77L36,301l.55,3.25a2,2,0,0,0,2.3,1.59h0Z"/><path class="cls-23" d="M38.89,305.88s1.53-.19,1.87-1.12a2.36,2.36,0,0,1-1.85,1.55Z"/><path class="cls-21" d="M37.73,302.39a.87.87,0,0,0,.22-.45c.17-.67,0-.85.63-1.38a2.34,2.34,0,0,0,.58-.81l0,.09a2.07,2.07,0,0,0,.48.58c.38.43.25,1,.6,1.42.15.18.36.29.51.47s.24.45.46.57a.69.69,0,0,0,.89-.21h0a5.7,5.7,0,0,0,.37-.44l0-.05a1.86,1.86,0,0,0,.39-1,1.54,1.54,0,0,0-.49-1,5.43,5.43,0,0,0-.64-1c-.58-.72-1.73-1.38-2.61-.81a1.42,1.42,0,0,0-.91-.15,1.73,1.73,0,0,0-.82.34,4,4,0,0,0-.71.71,7.56,7.56,0,0,0-.64.85,8.27,8.27,0,0,1-.62,1.13c-.3.36-.48.57-.23,1.09a1.06,1.06,0,0,0,1,.64,1.26,1.26,0,0,0,.42-.16,1.86,1.86,0,0,1,.34-.18C37.26,302.58,37.55,302.57,37.73,302.39Z"/><path class="cls-4" d="M51.49,361.45l1.24,2.29,1.89-1.08-1-2.24A3.76,3.76,0,0,1,51.49,361.45Z"/><path class="cls-8" d="M54.5,362.32l.76,1a.55.55,0,0,1-.08.78l-4,3.18a.27.27,0,0,1-.43-.31L52.38,364Z"/><path class="cls-4" d="M54.5,362.32l-.32.83a3.06,3.06,0,0,1-2.36,1.9l.75-1.62Z"/><path class="cls-4" d="M33,361.81l-.47,2.6,2.17.34.61-2.43A3.79,3.79,0,0,1,33,361.81Z"/><path class="cls-8" d="M34.85,364.41v1.26a.58.58,0,0,1-.56.57H29.11a.28.28,0,0,1-.14-.53l3.14-1.3Z"/><path class="cls-4" d="M34.85,364.41l-.77.45a3.07,3.07,0,0,1-3.07,0l1.61-.8Z"/><path class="cls-4" d="M48.07,356.44l3.53,5.23a2.16,2.16,0,0,0,2.09-.95A16,16,0,0,0,53,356Z"/><path class="cls-4" d="M38.75,346a95.83,95.83,0,0,1-1.88,12.1,22.31,22.31,0,0,1-1.72,4.73l-.17.92-2.36.3.16-6.26Z"/><path class="cls-8" d="M34.93,320l-1.74,16.92-.41,20.92,4.09.31s4.29-18.73,3.37-27.29c0,0-.54,12.61,1.93,16.88L49,357.8,53,356s-2.48-6.82-6.88-9.71c0,0,5.9-14.78-2.33-26.23Z"/><path class="cls-9" d="M40.25,337a.17.17,0,0,1-.16-.12c0-.06-1.62-5.84-1.35-10.12l-1.4-1.31a.16.16,0,0,1,.21-.23L39,326.62a.15.15,0,0,1,0,.13c-.28,4.23,1.33,10,1.35,10.09a.16.16,0,0,1-.11.19Z"/><path class="cls-4" d="M48.62,325.86c.49,1.41.83,2.41.86,2.5a4.11,4.11,0,0,1,.08.6c0,.32-.06.65,0,1a4,4,0,0,0,.69,1.62c.08.11.22,0,.25-.07a2.56,2.56,0,0,0,0-.47c0-.07,0-.15,0-.25v-.28a4.1,4.1,0,0,1,.1-.48h0l.06.24a4.13,4.13,0,0,1-.05,1.4,1.21,1.21,0,0,0,0,.82.22.22,0,0,0,.39,0,3.28,3.28,0,0,0,.36-2.54,12.86,12.86,0,0,1-.84-1.71c-.19-.93-.39-1.95-.6-3l-.53.24Z"/><polygon class="cls-22" points="41.82 306.31 41.82 306.29 41.82 306.31 41.82 306.31"/><path class="cls-3" d="M38.2,315.73c.33,1.7,1.32,5.75,1.5,6.14.27-.34,3.45-5.77,3.52-6,.27-.93,1.4-6.49,1.7-7.63a9.8,9.8,0,0,1-.05-1.24,12.09,12.09,0,0,0-2.47-.51l-.13-1.12a17.74,17.74,0,0,1-3.38.71l0,.76a13.57,13.57,0,0,0-1.94.16C37,307.08,37.88,314,38.2,315.73Z"/><path class="cls-2" d="M40.74,337.78c2.27-.1,8.28-.22,8.23-1.3s-.9-8.94-.9-8.94.36-.14.9-.39l.73-.34.47-.22c.56-.25,1.21-.58,1.36-1.14a124.36,124.36,0,0,0-2.06-14.17A7.3,7.3,0,0,0,47.28,308a8.62,8.62,0,0,0-3.06-1.15c-.27,1-1,5.43-1.78,7.23-.38.83-.85,1.62-1.3,2.41l-.75,1.29a8.73,8.73,0,0,1-.63,1.15,7.43,7.43,0,0,1-.31-1.15c-.12-.46-.22-.93-.32-1.4l-.54-2.72c-.37-1.83-1.13-6.71-1.13-6.71a6.73,6.73,0,0,0-3,1A17.3,17.3,0,0,0,32,310.41a46.08,46.08,0,0,0-2.57,3.9l-3.56-3.37a43.71,43.71,0,0,0,0,9.84c.2,1,3,6.4,4.85,6.21a5.3,5.3,0,0,0,2.45-.63s-.79,10.23-.39,10.29S38.48,337.89,40.74,337.78Z"/><path class="cls-24" d="M146.44,291.82c33.7-13.82,87.95-8,119.47,22.74"/><path class="cls-25" d="M291.66,179.4c31.51-16.39,84.71-15.52,118,11.57"/><path class="cls-26" d="M266.35,312.06c1.86-69.43,1.51-263.4-155.42-246.14"/><path class="cls-27" d="M-92.66,238.82C-23.4,109.88,180.27,39.84,352,148"/><path class="cls-28" d="M-268.82,251.91C-214.93,194.68,27,154,140.85,289.56"/><path class="cls-29" d="M223.87,124.76c53.89-57.23,271.65-91.26,385.49,44.32"/><path class="cls-30" d="M171.66,253.77c-36.09-41.49-117-45.62-148.35,51.18"/><path class="cls-31" d="M130.07,199.56C163.22,51.09,266.6-2,318.94,52.9"/><path class="cls-32" d="M361.1,275.36C396.57,116.49,505.56,61.13,561.56,119.93"/></g></svg>