<svg xmlns="http://www.w3.org/2000/svg" xmlns:xlink="http://www.w3.org/1999/xlink" viewBox="0 0 232.87 232.87"><defs><style>.cls-1,.cls-11,.cls-12,.cls-5{fill:none;}.cls-2{clip-path:url(#clip-path);}.cls-3{fill:#ff5a1f;}.cls-4{fill:#2d2d3d;}.cls-5{stroke:#2a292f;stroke-width:1.95px;}.cls-11,.cls-12,.cls-5{stroke-miterlimit:10;}.cls-6{fill:#005014;}.cls-7{fill:#00320f;}.cls-8{fill:#bbbdbf;}.cls-9{fill:#929497;}.cls-10{fill:#d0d2d3;}.cls-11,.cls-12{stroke:#fff;stroke-linecap:round;stroke-width:0.66px;}.cls-11{opacity:0.64;}.cls-12{opacity:0.47;}.cls-13{fill:#ffc865;}.cls-14{fill:#ee8d1b;}.cls-15{fill:#ffcec8;}.cls-16{fill:#fff;}.cls-17{fill:#ff9b8f;}</style><clipPath id="clip-path"><circle class="cls-1" cx="116.43" cy="116.43" r="105.1"/></clipPath></defs><g id="レイヤー_1" data-name="レイヤー 1"><g class="cls-2"><circle class="cls-3" cx="116.43" cy="116.43" r="105.1"/><path class="cls-4" d="M213.23,206.16h-.12A1.15,1.15,0,0,1,212,205l.77-64.44a1.13,1.13,0,0,1,1.15-1.13,1.14,1.14,0,0,1,1.13,1.15L214.26,205A1.12,1.12,0,0,1,213.23,206.16Z"/><path class="cls-4" d="M185.93,217a.85.85,0,0,1-.23,0,1.13,1.13,0,0,1-.89-1.34l16-78.27a1.15,1.15,0,0,1,1.35-.89,1.13,1.13,0,0,1,.89,1.34l-16,78.27A1.14,1.14,0,0,1,185.93,217Z"/><path class="cls-4" d="M249.7,217a1.14,1.14,0,0,1-1.11-.92l-16-78.27a1.14,1.14,0,0,1,2.23-.45l16,78.27a1.13,1.13,0,0,1-.89,1.34A.91.91,0,0,1,249.7,217Z"/><ellipse class="cls-4" cx="216.39" cy="133.79" rx="25.02" ry="9.1"/><ellipse class="cls-5" cx="217.86" cy="170.82" rx="22.69" ry="5.91"/><path class="cls-6" d="M225.75,73.3a.49.49,0,0,0-.23-.35.84.84,0,0,0-.26-.15,3.21,3.21,0,0,0-.68-.11h-.07a6.15,6.15,0,0,0-3.54,1,15,15,0,0,0-5.09,5.16c-.15-1.3-.32-2.6-.52-3.9s-.46-2.87-.73-4.3c0-.23-.08-.45-.13-.67q-.25-1.32-.54-2.64l.86-.68a13.59,13.59,0,0,0,4.59-5.8,13.53,13.53,0,0,0,.43-1.41c.33-1.4.33-3-1.47-2.87-2,.12-3.52,2.29-4.53,3.86l-.07.1c-.34.55-.68,1.15-1,1.77-.47-1.75-1-3.48-1.52-5.22-.41-1.36-.87-2.73-1.34-4.07a4.34,4.34,0,0,0-.16-.47.54.54,0,0,1,.12-.09c.53-.46,1.16-.79,1.66-1.29a6.37,6.37,0,0,0,1.09-1.39,6.23,6.23,0,0,0,.44-.8,15.7,15.7,0,0,0,1.22-4.6,10.48,10.48,0,0,0,0-3c-.18-1.07-.74-1.93-1.87-1.8-2.19.26-3.05,3.58-3.63,5.33a32,32,0,0,0-.81,3.34,64.33,64.33,0,0,0-6.32-11.32c1.91-1.14,2.8-4.28,2.47-6.53a8.08,8.08,0,0,0-.81-2.67,12.8,12.8,0,0,0-1.63-2.39,16.48,16.48,0,0,0-2.24-2,16.25,16.25,0,0,0-2.55-1.53.54.54,0,0,0-.82.56,84.49,84.49,0,0,0,2,10,44.37,44.37,0,0,0-4.75-4.65,15.29,15.29,0,0,0-5-6.74,10.63,10.63,0,0,0-8.58-1.77.54.54,0,0,0-.33.73,8,8,0,0,0,2.22,2.91,8.25,8.25,0,0,0,.89.79c1.24.92,2.59,1.79,3.83,2.54a15.31,15.31,0,0,0,2.23,1.18c.74.39,1.55.69,2.34,1.06s1.46.66,2.18,1a9,9,0,0,1,2,1.42,44,44,0,0,1,3.36,3.73,10.86,10.86,0,0,0-2.84-1.23,8.42,8.42,0,0,0-3-.39,6.94,6.94,0,0,0-5.12,2.53c-.25.3-.2.63.05.77a27.58,27.58,0,0,0,6,1.93c2.4.42,4.92.56,6.93-.88l.12.15a.36.36,0,0,0,.09.08,64.49,64.49,0,0,1,6.67,12.17A14.64,14.64,0,0,0,205,47.78a14.83,14.83,0,0,0-4-2,11.64,11.64,0,0,0-4.41-.54A.61.61,0,0,0,196,46a5,5,0,0,0,1.88,3.19,4.12,4.12,0,0,0,.47.38,14.29,14.29,0,0,0,3,1.62,8.32,8.32,0,0,0,1.42.42c1.93.45,4.11.55,5.64,1.86,2.43,2.15,1.9,6.54,3.27,9.33,0,.06.06.1.08.16l-.1-.18a16.75,16.75,0,0,0-7.74-7.24,8.4,8.4,0,0,0-2.54-.67.64.64,0,0,0-.68.44c-.37,2.85,1.22,5.17,3.47,7.16.25.21.5.42.77.62a26.72,26.72,0,0,0,2.67,1.89l1,.65c1.07.64,2.12,1.21,3.08,1.71a1.4,1.4,0,0,0,.17.09c.18.09.38.18.55.28a.47.47,0,0,0,.17,0h.17l.09,0c.21,1,.4,1.94.58,2.91,0,.07,0,.13,0,.19.29,1.55.56,3.09.77,4.65.15.94.28,1.88.38,2.83,0,.11,0,.24.05.35l-.2-.3L214,77.7a12.63,12.63,0,0,0-.82-1,13.7,13.7,0,0,0-2.66-2.34A9.05,9.05,0,0,0,207.62,73h0a6.26,6.26,0,0,0-2.19-.21.53.53,0,0,0-.46.48.37.37,0,0,0,0,.29c.36.57.75,1.16,1.17,1.76a19.28,19.28,0,0,0,5.89,5.9,6.4,6.4,0,0,0,1,.49.19.19,0,0,0,.1.05,5.7,5.7,0,0,0,.72.29h0a5,5,0,0,0,.51.16c.22.07.45.12.67.17a5.72,5.72,0,0,1,.25,2.09h0c0,.66.06,1.38.07,2,0,1,0,1.87.05,2.08v.17c0,.11,0,.22,0,.33s0,.35,0,.52,0,.21,0,.31c0,.81,0,1.61,0,2.42,0,.46,0,.93,0,1.39s0,1,0,1.53,0,.92,0,1.36c0,.13,0,.24,0,.36,0,.86-.06,1.72-.12,2.56a44.42,44.42,0,0,1-.74,6.09h0c-.08.37-.16.75-.26,1.13,0,.1-.05.21-.07.32-.07.28-.15.57-.2.86l.44,0h.25c.39,0,.79,0,1.19,0v0c.09-2.8.33-5.61.5-8.43,0-.33.05-.66.06-1,0-.53.06-1.05.08-1.58s0-1.08.06-1.62c0-.14,0-.27,0-.41v-.11c0-.3,0-1.37-.07-2.79,0-.38,0-.76,0-1.17v-.23q0-.91-.06-1.86c0-.14,0-.28,0-.42,0-.85-.05-1.71-.09-2.49s-.06-1.61-.08-2.25c0-1.07-.09-1.77-.11-1.77.27-.06.55-.11.81-.19a11.4,11.4,0,0,0,2.67-1.1,13.52,13.52,0,0,0,1.43-.89c.18-.12.37-.27.55-.41a8.46,8.46,0,0,0,1-.94,4.21,4.21,0,0,0,.39-.44,28.73,28.73,0,0,0,2.61-4.08A.55.55,0,0,0,225.75,73.3Z"/><path class="cls-7" d="M269.87,52.9c-1.68-2.2-5.27-2.73-8.37-2.8a18.86,18.86,0,0,0-5.23.77c-1.59.4-3,1-4.63,1.31a43.94,43.94,0,0,0-4.83,1.12c3.31-2.15,7-4.7,6.67-7.89,0-.28-.45-.42-.82-.31a18.66,18.66,0,0,0-6.78,3.73c-2,1.75-3,3.86-2.28,5.53l-.17.08c-.05,0-.07.05-.1.06a30.11,30.11,0,0,0-6.05,3.3,33.3,33.3,0,0,0-5.16,4.54c.47-1,.85-2,1.15-2.7a47.34,47.34,0,0,0,3.06-8.13c.08-.35-.26-.47-.67-.33a8.63,8.63,0,0,0-4.16,3,11.37,11.37,0,0,0-2,4.15c-.53,2.33.45,4.46-.17,6.73a12.57,12.57,0,0,1-2.48,4.16,20.37,20.37,0,0,0-2.31,3.45,6,6,0,0,0-.32.75c.09-.25.17-.49.25-.75a38.08,38.08,0,0,0,1.35-5.86,18.66,18.66,0,0,0,.12-6,.37.37,0,0,0-.6-.2,10.78,10.78,0,0,0-4.47,7.89,18.37,18.37,0,0,0,.06,5.14,24.31,24.31,0,0,0,.65,3.1.43.43,0,0,0,0,.16c0,.17.1.34.13.5a.5.5,0,0,0,.18.22s0,0,0,.08c-.32.65-.63,1.3-.91,2s-.7,1.55-1,2.33c-.75,1.78-1.44,3.58-2,5.42a2.09,2.09,0,0,0-.08.23c0-.06,0-.12,0-.17a25.88,25.88,0,0,0-.27-2.89,16.11,16.11,0,0,0-.32-1.71c-.06-.22-.11-.44-.17-.64s-.11-.39-.17-.58a7.32,7.32,0,0,0-1.06-2.19,4,4,0,0,0-1.1-1.1.2.2,0,0,0-.17,0,.53.53,0,0,0-.15,0,.7.7,0,0,0-.35.52c-.1.66-.18,1.35-.23,2,0,.37-.05.73-.06,1.1,0,.58,0,1.17,0,1.74,0,0,0,0,0,.06a15.81,15.81,0,0,0,.25,2.11,10.69,10.69,0,0,0,.93,3,2.09,2.09,0,0,0,.16.29c0,.07.07.14.1.2l.14.22a5.88,5.88,0,0,0,1,1.16l.08.07a3.15,3.15,0,0,0,.3.24c-.09.3-.18.62-.26.93s-.22.79-.31,1.18c-.17.62-.32,1.25-.47,1.89s-.23,1-.34,1.54c0,.12-.05.24-.07.37-.18.85-.35,1.71-.49,2.58s-.34,2-.48,3.09-.23,1.82-.32,2.75-.15,1.69-.2,2.54h.16l.44,0h.25a80.3,80.3,0,0,1,1-8.44c.15-.8.3-1.58.46-2.38,0-.06,0-.13,0-.2.11-.54.23-1.08.37-1.63,0-.08,0-.15,0-.23.33-1.41.7-2.8,1.11-4.2a7.72,7.72,0,0,0,2.58,0,14.25,14.25,0,0,0,2-.48,9.19,9.19,0,0,0,1.15-.46c1.22-.6,2.27-1.46,3.51-2.2a.54.54,0,0,0,.1-.84,4.25,4.25,0,0,0-4-1,8.16,8.16,0,0,0-1.33.35,8.7,8.7,0,0,0-1.36.61,9,9,0,0,0-1.82,1.24c.2-.64.43-1.27.66-1.89.49-1.4,1-2.78,1.62-4.14s1.11-2.55,1.72-3.8l.2-.42.19,0a19.87,19.87,0,0,0,4.68-.82,11.7,11.7,0,0,0,1.73-.76,6.37,6.37,0,0,0,2.16-1.62,1.08,1.08,0,0,0-.16-1.47c-1-1.15-3.09-.76-4.58-.3-.36.12-.75.24-1.14.4-.19.08-.39.16-.58.26.11-.21.24-.4.35-.61a64.81,64.81,0,0,1,5-7.45c.58.1,1.08.41,1.65.52a7.33,7.33,0,0,0,2.1.08,32.21,32.21,0,0,0,3.58-.6A13.48,13.48,0,0,0,240,65c.68-.27,1.15-.69.93-1.52a2.55,2.55,0,0,0-1.84-1.56,8.44,8.44,0,0,0-2.68-.24,12,12,0,0,0-2.89.51,30.57,30.57,0,0,1,4.71-3.94,29.94,29.94,0,0,1,5.41-2.89,4.12,4.12,0,0,0,1.83,2,10.41,10.41,0,0,0,2.61,1.15c2.66.7,5.58,0,8.32-.87a.41.41,0,0,0,.15-.74,16.18,16.18,0,0,0-7.7-3.2A51.52,51.52,0,0,1,255,52.56c4.76,1.4,9.58,2.7,14.68.93A.38.38,0,0,0,269.87,52.9Z"/><path class="cls-6" d="M219.72,77.42c-1.42-.27-2.74.63-3.79,2a11.28,11.28,0,0,0-1.51,2.76,11.39,11.39,0,0,0-.52,1.63h0l0,.16c-.23-.75-.46-1.51-.7-2.26,0-.1-.05-.19-.09-.3-.76-2.4-1.6-4.78-2.52-7.12-.14-.39-.28-.77-.44-1.15.16-.23.31-.47.49-.7h0a11,11,0,0,0,2-4.78,6.54,6.54,0,0,0,.08-.81,2.66,2.66,0,0,0,0-.3c.07-1.09,0-3.26-1-3.84l0,0a1,1,0,0,0-.55-.15l-.35,0c-1.17.25-1.74,1.63-2.1,3-.11.4-.2.77-.28,1.13s-.13.61-.19,1-.1.59-.15.91a53.29,53.29,0,0,0-3.1-5.53c-.68-1-1.37-2-2.13-3,.23-.54.64-1,.86-1.54a5.75,5.75,0,0,0,.32-2.2,7.59,7.59,0,0,0-.07-.81,14.68,14.68,0,0,0-1-3.44c-.05-.14-.11-.3-.19-.49a9.43,9.43,0,0,0-1.22-2.14c-.69-.87-1.57-1.48-2.42-1.1a1.43,1.43,0,0,0-.79,1.2,4.71,4.71,0,0,0,0,1.13,22.34,22.34,0,0,0,.62,3c.24.93.51,2,.84,3a30.64,30.64,0,0,0-10.49-7.06,3.26,3.26,0,0,0-.16-2.74A7.15,7.15,0,0,0,187,44.18a10.47,10.47,0,0,0-5.26-1.94,17,17,0,0,0-5.66.43c-.48.12-.56.54-.23.73,2.56,1.58,5.24,3.27,8,4.66a33.86,33.86,0,0,0-6.52-.31,20.41,20.41,0,0,0-7.76-1.21A15.18,15.18,0,0,0,162,48.91a.37.37,0,0,0-.07.61c2.25,1.72,5.94,1.33,9,1A38.66,38.66,0,0,0,176,49.4a15.63,15.63,0,0,1,4.69-.79,30.23,30.23,0,0,1,4.85.64A9.76,9.76,0,0,0,180.29,51a4.74,4.74,0,0,0-2.11,4,.46.46,0,0,0,.58.41,38.86,38.86,0,0,0,5.49-1.78c1.87-.79,3.76-1.71,4.41-3.42l.17.06.12,0a29.91,29.91,0,0,1,11,7.65,13.54,13.54,0,0,0-2.62-1,9.3,9.3,0,0,0-7.36.31.44.44,0,0,0-.1.68,5.71,5.71,0,0,0,2.7,1.82,15.49,15.49,0,0,0,3.39.75c1.95.26,4.15-.52,6.18.61a8.42,8.42,0,0,1,3,3.74,32.86,32.86,0,0,0,2.3,4.44,15.48,15.48,0,0,0-4.89-4.42,8.51,8.51,0,0,0-5.24-1.3.39.39,0,0,0-.35.49c.62,2.39,2.39,4,4.6,5.55A52.45,52.45,0,0,0,207.61,73h0l.8.37a.26.26,0,0,0,.15.07l.46.22a.46.46,0,0,0,.28,0l.08,0c1,2.47,1.87,5,2.68,7.51.31.93.6,1.86.89,2.8a16.41,16.41,0,0,0-1.51-1.73,8.3,8.3,0,0,0-.91-.87c-.17-.16-.34-.3-.51-.44a8.78,8.78,0,0,0-3.51-1.82,4,4,0,0,0-.83-.09,2.74,2.74,0,0,0-.91.07c-.27,0-.35.52-.15.77s.24.32.36.48a36.67,36.67,0,0,0,2.93,3.52s0,0,0,0a17.73,17.73,0,0,0,2.33,2A7.75,7.75,0,0,0,214,87.55c.13.51.27,1,.41,1.55.05.18.1.36.14.55.26,1,.51,2,.74,3,.09.37.17.72.25,1.08s.2.89.29,1.35c.14.62.28,1.25.39,1.87a.65.65,0,0,1,0,.2c.1.45.19.91.27,1.37s.14.66.18,1c.46,2.42.83,4.86,1.14,7.3.06.39.12.78.16,1.18h.86c0-.36-.08-.7-.14-1-.07-.57-.14-1.14-.23-1.71-.26-1.92-.57-3.84-.92-5.73-.15-.86-.31-1.72-.49-2.57-.12-.63-.24-1.23-.38-1.85,0-.07,0-.12,0-.18-.13-.58-.25-1.15-.38-1.72s-.23-1-.34-1.44l-.45-1.83a5.26,5.26,0,0,0-.15-.53.87.87,0,0,0-.05-.22,1.77,1.77,0,0,0-.08-.31c-.16-.66-.34-1.32-.53-2a5.54,5.54,0,0,0,.73-.37,5.7,5.7,0,0,0,1-.67,8.6,8.6,0,0,0,1.28-1.28,6.94,6.94,0,0,0,.59-.75,7.75,7.75,0,0,0,.92-1.73c.19-.5.35-1,.5-1.55.19-.72.36-1.47.56-2.24A.73.73,0,0,0,219.72,77.42Z"/><path class="cls-7" d="M216.77,88.71a.94.94,0,0,0-.28.06,3.5,3.5,0,0,0-1,.34.75.75,0,0,0-.18.08l0,0a7.56,7.56,0,0,0-.71.44,4.51,4.51,0,0,0-.59.44,6.17,6.17,0,0,0-.84.78,11.7,11.7,0,0,0-2.27,3.18,59.33,59.33,0,0,0-2.61-5.53c.51-.55,1-1.1,1.41-1.65a10.46,10.46,0,0,0,.64-.89,7.44,7.44,0,0,0,1-2.34,4.18,4.18,0,0,0,.14-.72,2.23,2.23,0,0,0,0-.63c0-.56-.24-1-.91-.87l-.11,0-.3.11a5.12,5.12,0,0,0-2.2,2.33v0c-.2.34-.36.67-.5,1s-.37.84-.54,1.29c-.94-1.53-1.91-3-3-4.46.32-.43.75-.82,1.07-1.26l0-.06a5.43,5.43,0,0,0,.7-1.32,1.25,1.25,0,0,0,.1-.27,9.3,9.3,0,0,0,.4-3c0-.14,0-.32,0-.53-.07-.86-.36-2.1-1.22-2a1.37,1.37,0,0,0-.53.16c-1.38.79-1.57,3.07-1.8,4.21-.11.7-.21,1.44-.26,2.15a20.79,20.79,0,0,0-5-4.55,5,5,0,0,0,.18-4.89c-1.13-2.15-3.8-2.81-5.82-2.5-.29,0-.41.41-.29.67a42.26,42.26,0,0,0,3.2,5.41,21.79,21.79,0,0,0-3.36-1c-2.13-2.41-5.21-3.94-8.07-2.21a.52.52,0,0,0-.12.57c.87,2.24,2.81,2.8,4.39,3.13a8.54,8.54,0,0,0,2.76-.09,6.22,6.22,0,0,1,2.57-.15,17.83,17.83,0,0,1,2.42.87A5.38,5.38,0,0,0,192,76.52a6.76,6.76,0,0,0-1.93,3.65c-.06.29,0,.49.18.46a9.73,9.73,0,0,0,3-1.41,10.78,10.78,0,0,0,3.47-3.31l.09,0h.06a20.7,20.7,0,0,1,5.21,4.82,7.7,7.7,0,0,0-1.73-.34,7.21,7.21,0,0,0-5.3,1.37.66.66,0,0,0-.3.56c.19,1.18,1.71,1.13,3.45,1,1.46-.15,3.45-1.11,4.87-.75,1.87.5,1.9,3.1,3.17,4.17a8.38,8.38,0,0,0-7.74-1.41c-.19.06-.41.27-.41.43,0,1.64,1.22,2.35,2.92,2.76a29.66,29.66,0,0,0,5.66.53h.54a.61.61,0,0,0,.24-.06h.07A52.84,52.84,0,0,1,210,94.25a7.93,7.93,0,0,0-7.18-.76c-.24.1-.35.39-.2.48a11.56,11.56,0,0,0,8.09,2.09c.16.43.31.86.44,1.29.29.81.54,1.62.77,2.44a54.23,54.23,0,0,1,1.74,8.17h.43l.44,0c0-.4-.1-.8-.17-1.2s-.15-.92-.23-1.36c-.15-.88-.33-1.76-.53-2.63-.23-1-.51-2.06-.8-3.09-.23-.82-.49-1.64-.77-2.45-.19-.57-.39-1.15-.6-1.73a9.91,9.91,0,0,0,1.79-1,10.19,10.19,0,0,0,.83-.64c.33-.28.65-.57,1-.88a3.92,3.92,0,0,0,.28-.31,3.56,3.56,0,0,0,.26-.31c.15-.19.28-.39.41-.59a10.37,10.37,0,0,0,.53-1l.08-.16c.22-.48.42-1,.64-1.47C217.32,88.86,217.09,88.68,216.77,88.71Z"/><path class="cls-7" d="M263.94,69c-1.5-2-4.15-2.09-6.36-1.83A10.65,10.65,0,0,0,254,68.41,18.89,18.89,0,0,1,250.89,70c-1.11.35-2.23.72-3.33,1.14,2.11-2,4.28-4.75,3.49-7.86a.44.44,0,0,0-.64-.25,12.39,12.39,0,0,0-4.24,3.77,5.34,5.34,0,0,0-.83,5.25l-.13,0-.07,0a37.05,37.05,0,0,0-8.31,5.12,16.15,16.15,0,0,0,.85-2,19.91,19.91,0,0,0,1.77-6.72.41.41,0,0,0-.55-.4A4.79,4.79,0,0,0,236,70a7.31,7.31,0,0,0-1.4,3.16c-.41,1.83.49,3.93,0,5.66a6.17,6.17,0,0,1-2.17,2.73A8.93,8.93,0,0,0,230,84.24a19.45,19.45,0,0,0,1.62-9.57,1.41,1.41,0,0,0,0-.35.4.4,0,0,0-.51-.32,5.53,5.53,0,0,0-1.6.83,6.37,6.37,0,0,0-1.16,1.27,6.13,6.13,0,0,0-.57,1,8.38,8.38,0,0,0-.72,2.34A12.29,12.29,0,0,0,227,83a16.41,16.41,0,0,0,.65,3.21.35.35,0,0,0,.05.13l.12.43a.41.41,0,0,0,.16.2.1.1,0,0,0,0,.08,68,68,0,0,0-4,6.55,15.3,15.3,0,0,0-.38-3.63,5.53,5.53,0,0,0-.17-.64,7.62,7.62,0,0,0-1.54-3,4.51,4.51,0,0,0-.55-.52.42.42,0,0,0-.64.25c-.07.28-.12.58-.17.88a14.31,14.31,0,0,0-.11,4c0,.15,0,.28,0,.42a7.5,7.5,0,0,0,2.32,4.55c-.21.42-.42.84-.62,1.26-.41.83-.81,1.68-1.19,2.53-.86,1.85-1.67,3.73-2.45,5.62-.21.52-.43,1.06-.65,1.58s-.31.79-.47,1.18h.93l.42-1c1-2.44,2-4.87,3.13-7.27.39-.84.79-1.68,1.2-2.51.19-.41.4-.82.6-1.23a12.24,12.24,0,0,0,4.41.8,17.53,17.53,0,0,0,4.47-.84c.31-.07.33-.36.13-.6-1.65-1.95-5.57-2.22-8-1.19a66,66,0,0,1,4.13-6.74,16.8,16.8,0,0,0,6,.46c.94-.19,2.87-.39,1.71-1.84-.92-1.2-2.72-1.48-4.06-1.51a8.92,8.92,0,0,0-1.54.07c.72-.9,1.5-1.77,2.26-2.63s1.58-1.7,2.45-2.44c.51.25.94.64,1.43.9a7.66,7.66,0,0,0,1.77.63,20.52,20.52,0,0,0,3,.41c.86,0,2.91.41,2.41-1.2s-2.55-2.28-3.81-2.55a8.76,8.76,0,0,0-2.36-.23,39.22,39.22,0,0,1,3.6-2.51,40,40,0,0,1,3.89-2,6.67,6.67,0,0,0,3.81,3.2c2.13.74,4.17,0,6-1.13.24-.13.21-.54,0-.73a13.22,13.22,0,0,0-6.13-2.78c1.42-.49,2.84-.93,4.29-1.3,3.66,1,7.23,1.74,10.51-.56A.48.48,0,0,0,263.94,69Z"/><path class="cls-7" d="M223.23,34.91c3.66-3.25,7.08-6.52,8.41-11.45a.4.4,0,0,0-.36-.51c-2.72,0-5.22,2.71-6.84,5.29a17.28,17.28,0,0,0-2,4.75,36.77,36.77,0,0,1-1.28,4.49c-.6,1.47-1.18,3-1.72,4.45a18.87,18.87,0,0,0-.4-5.65,5.28,5.28,0,0,0-2.67-3.84c-.26-.13-.58.13-.67.5a18.13,18.13,0,0,0-.42,7.16c.35,2.38,1.38,4.37,3.11,4.9l-.06.17a.41.41,0,0,0,0,.11,103.53,103.53,0,0,0-3.12,12.78c-.15-1-.44-2.07-.6-2.74a23.1,23.1,0,0,0-2-5.59,12.81,12.81,0,0,0-1.13-1.81c-.19-.25-.53-.13-.7.17a7.62,7.62,0,0,0-.92,4.32c0,.19,0,.38,0,.56a12.09,12.09,0,0,0,.91,3.25,5.8,5.8,0,0,0,.43.82c.75,1.21,1.83,2.18,2.51,3.45a4.67,4.67,0,0,1,.49,1.17c.75,2.74-1,6.28-.75,9.19,0,.08,0,.16,0,.24a3,3,0,0,0-.06-.43,27.07,27.07,0,0,0-.76-3.77,22.63,22.63,0,0,0-1.6-4.31,11.25,11.25,0,0,0-1.94-2.83.37.37,0,0,0-.6.11,8.65,8.65,0,0,0-1,5.07,13,13,0,0,0,.58,2.73c.06.18.11.36.18.54a19.47,19.47,0,0,0,2.22,4.28h0a26.23,26.23,0,0,0,1.91,2.56l.11.13c.11.12.22.26.34.37a.32.32,0,0,0,.23.13.46.46,0,0,0,.07.07c0,.3,0,.62-.05.93-.07,1.59-.11,3.19-.14,4.78,0,.08,0,.17,0,.25,0,1.48,0,3,0,4.42a21.82,21.82,0,0,0-1.6-3.21,13.07,13.07,0,0,0-1-1.47,7.64,7.64,0,0,0-3.55-2.52.39.39,0,0,0-.36.23.77.77,0,0,0-.07.47,26.93,26.93,0,0,0,1.48,4.26s0,0,0,0a15.25,15.25,0,0,0,1.69,2.94,7.25,7.25,0,0,0,3.43,2.74c0,.42,0,.84,0,1.26,0,1.21.05,2.42.1,3.63,0,.88.06,1.75.1,2.62s.07,1.7.12,2.55c0,1,.1,2.08.16,3.13l.3,5.17h.19l.44,0h.23c-.05-.78-.09-1.56-.14-2.33h0c-.07-1-.12-2-.17-3s-.11-2.06-.16-3.07c0-.86-.08-1.7-.11-2.55,0-1.07-.09-2.13-.13-3.2,0-1.26-.07-2.51-.09-3.77,0-.31,0-.6,0-.91l.47-.08a5.38,5.38,0,0,0,.69-.18l.13,0,.25-.1a7.93,7.93,0,0,0,1-.43,11.31,11.31,0,0,0,1.46-.88.33.33,0,0,0,.1-.06l.14-.1a7.46,7.46,0,0,0,1.17-1.06,37.48,37.48,0,0,0,2.34-3.07.57.57,0,0,0-.19-.86,2.66,2.66,0,0,0-.53-.21,2.88,2.88,0,0,0-.88-.12,3.54,3.54,0,0,0-.91.11,6.51,6.51,0,0,0-1.83.77,9,9,0,0,0-1,.74,9.69,9.69,0,0,0-.95.87h0A8.62,8.62,0,0,0,214.15,86a2.55,2.55,0,0,0-.27.4v-2.5h0s0,0,0-.06c0-.57,0-1.15,0-1.73,0-.37,0-.73,0-1.11,0-1.08,0-2.17.09-3.25,0-.7.06-1.41.09-2.11l.17-.09,1.08-.6a11.9,11.9,0,0,0,4.1-3.43c.74-1,2.2-3,.46-3.68-1.43-.55-3.13.7-4.24,1.74a9.68,9.68,0,0,0-1.05,1.07c-.08.07-.14.15-.21.22,0-.3.05-.6.08-.89.08-1.11.19-2.22.32-3.32.18-1.73.41-3.44.67-5.15.56-.2,1.14-.18,1.69-.37a6.57,6.57,0,0,0,1.85-1,8.83,8.83,0,0,0,.81-.68,24.86,24.86,0,0,0,1.88-1.95,9.57,9.57,0,0,0,1.43-1.88c.4-.73.53-1.48-.17-2-1.34-1-3.55.58-4.7,1.56a16.18,16.18,0,0,0-2.07,2.07,107.22,107.22,0,0,1,2.9-11.62c1.58.63,3.88-.49,5.2-1.61,2.2-1.86,3.29-4.82,3.91-7.59a.41.41,0,0,0-.55-.5,17.85,17.85,0,0,0-6.82,4.68c.36-1,.76-1.89,1.14-2.84Z"/><path class="cls-8" d="M228.79,134.79a47.72,47.72,0,0,1-25,0c-1.49-10.9-3-21.8-4.68-32.68h34.35C231.81,113,230.28,123.89,228.79,134.79Z"/><polygon class="cls-9" points="233.47 102.11 199.12 102.11 200.66 112.18 231.93 112.18 233.47 102.11"/><polygon class="cls-10" points="235.13 102.11 197.46 102.11 198.66 109.94 233.94 109.94 235.13 102.11"/><line class="cls-11" x1="233.23" y1="103.3" x2="232.57" y2="108.07"/><line class="cls-12" x1="229.71" y1="113.52" x2="227.7" y2="130.61"/><path class="cls-4" d="M157.44,126.08l-13.6.22a1.11,1.11,0,0,1-1.09-1.41l7.09-25.5a1.11,1.11,0,0,1,1-.81l13.6-.22a1.11,1.11,0,0,1,1.08,1.41l-7.08,25.5A1.11,1.11,0,0,1,157.44,126.08Z"/><path class="cls-13" d="M220,223a32.06,32.06,0,0,1-10.32,13.27c-15.2,11.54-39.94,10.47-57.62,9.81-34.85-1.32-70.24-4.94-103.17-17.1-17.15-6.34-30.89-19.36-35.5-37.39-3.69-14.44-2-29.75,1.3-44.28,3-13.14,7.36-26.09,14.41-37.58C38.22,95,56.72,75.31,75.91,80.07c8,2,14.45,7.91,19.57,14.36a85.78,85.78,0,0,1,14,25.64c3.07,9.07,4.7,18.83,10,26.83,6.24,9.5,16.86,15,27.77,17.2,11.94,2.41,23.86-.76,35.9,1.48,12.84,2.38,25,9.4,32.42,20.15S225.15,211,220,223Z"/><path class="cls-14" d="M163.14,243.66c-9.42-1.25-18.77-3.09-28.11-4.81-9.65-1.77-19.28-3.65-28.82-5.92-15.6-3.71-31.08-8.45-45.48-15.57-12.31-6.08-23.9-14-33.1-24.25A79.24,79.24,0,0,1,11.73,166a76.78,76.78,0,0,0,1.7,25.61c4.61,18,18.35,31,35.5,37.39,32.93,12.16,68.32,15.78,103.17,17.1,9.19.34,20.28.78,31-.48C176.4,245.16,169.75,244.55,163.14,243.66Z"/><path class="cls-14" d="M85.88,164.22A99.06,99.06,0,0,1,68,120.35c-.61-4.15-1-8.49-3.1-12.12-3.73-6.42-12.44-6.7-11.48,1.88.77,7,3.53,14.26,6.44,20.63a92,92,0,0,0,11.29,18.52C75.4,154.7,81.93,158.8,85.88,164.22Z"/><path class="cls-7" d="M216.32,179.84c9.68,5.69,11.64,2.9,20.65,9.58,1.69,1.26,8.2,5.57,10.23,6.2,1.19.36,4.31,4.17,5.25,4.72a41.51,41.51,0,0,1,7.08,6.49c.19,1.09-6.15,7.84-9.15,9.54-5.61,3.17-9.68,7.1-15.94,9-.84.26-10.85-14.06-20.58-21.32-6.89-5.14-13.9-10.47-22.05-13.35-6.7-2.38-12.57-6.11-19.87-6.7-4.9-.39-9.9-.86-14.85-1.16-2-.12-14.42-1.58-15.42,0l10.92-17.38c3.12-5,4-7.64,10-6.56a148.76,148.76,0,0,1,35,11.17A201.78,201.78,0,0,1,216.32,179.84Z"/><path class="cls-4" d="M63.87,54c-.83,3.22-1.55,6.21-3.36,9.08-2.4,3.8-4.94,7.74-8.79,10.06-2.46,1.48-5.29,2.19-7.89,3.42-3.73,1.76-7.06,4.79-8.25,8.75s.27,8.81,3.93,10.73c1.41.74,3,1,4.45,1.71s2.75,2,2.64,3.63c-.15,2.35-2.62,3.62-2.28,6.17.48,3.62,4.43,4.41,7,5.89,3.7,2.11,7.06,6.58,11.21,7.67,15.54,4.08,11.72-15.52,19.1-21.33,2.79-2.2,6.7-2.09,10.07-3.21,7.4-2.44,11.36-10.3,14.28-17.52,3.25-8,6.24-16.79,4.35-25.26a23.31,23.31,0,0,0-9.55-14.05C86.92,30.31,68,38,63.87,54Z"/><path class="cls-15" d="M126.78,115.86c-2,5.89-15.72,36.84-19.89,40.85l9,10.5c4.48-2.93,13.67-36.06,15.1-47.42Z"/><path class="cls-15" d="M134.52,108.42a14.34,14.34,0,0,1,5.57-1.35,12.63,12.63,0,0,1,2.3.13c.37.06,1.9.32,1.65.71a.91.91,0,0,1-.53.35l-3.1,1.1-2.47.92c-.28.1.63.66.67.69a3.13,3.13,0,0,1,.85,1.21,4.14,4.14,0,0,1,0,2.88,7,7,0,0,1-3.11,3.42,12.82,12.82,0,0,1-7,1.84,3.61,3.61,0,0,1-2.77-2.56,4.35,4.35,0,0,1,.78-3.25,17.57,17.57,0,0,1,5.94-5.46A11.79,11.79,0,0,1,134.52,108.42Z"/><path class="cls-16" d="M133.87,164.05c-3.34,2.83-4.91,7.15-6.76,11.13s-4.43,8.06-8.59,9.41c-3,1-6.38.3-9.42-.69-12.68-4.11-23.37-13.25-30.8-24.3s-11.82-23.93-14.36-37c-1.78-9.21-2.29-21.11,6.8-26.85,4.8-3,11.07-2.14,16.44-.28A50.44,50.44,0,0,1,106.3,107c5,5,12,10.92,12.27,18.56q0,.38,0,.75c-.12,4.22-2.41,8-2.59,12.15a31.18,31.18,0,0,0,1.85,10.73,24.52,24.52,0,0,0,6.43,9.62C125.33,159.77,132.37,165.33,133.87,164.05Z"/><path class="cls-15" d="M75.9,93.69C82.17,97.39,86,110.87,109.39,110c-6.47-6.1-13.71-16.1-15.93-21.24-1.55-3.6-3.14-7.41-2.74-11.31s2.47-6.42,7.12-7.2c-3.37-2-8-2.3-11.76-3.66a7.53,7.53,0,0,0-3.47-.2S82.8,83.78,75.9,93.69Z"/><path class="cls-17" d="M93.12,88c-1.43-3.36-2.77-6.89-2.4-10.51.4-3.91,2.47-6.42,7.12-7.2-3.37-2-8-2.3-11.76-3.66a7.53,7.53,0,0,0-3.47-.2A72.78,72.78,0,0,1,81.74,77C83.1,83.08,88.15,85.5,93.12,88Z"/><path class="cls-6" d="M132.07,190.37c4.85-.16,9.72-.72,14.64-1.3l33.55-3.94c9.59-1.13,18.73-2.67,28.29-1.58,15.31,1.74,25.21,5.9,38.3,13.28,2.06,1.16,8.42,5.82,8.42,5.82a18.08,18.08,0,0,0,4.74-5.1c.67-1.35-15.2-13.55-22.27-19.44A125.4,125.4,0,0,0,142.54,151c-10,1.32-22.66,3.73-30.77,10.16-4,3.17-16.6,12.34-12.12,18.79,3.74,5.37,10.15,7.59,16.24,9.06A59.44,59.44,0,0,0,132.07,190.37Z"/><path class="cls-13" d="M173.88,204.76c-19.27,1.21-38.77,2.42-57.77-1a96,96,0,0,1-27.34-9.15c-5.6-2.92-20.91-11.14-21.57-18.11,13.09-3.84,30.5-1.44,43.72.9a148,148,0,0,1,41.78,14A141.57,141.57,0,0,1,173.88,204.76Z"/><path class="cls-15" d="M104.75,73.64c-1.47,3.51-3.5,6.55-6.17,8-6.72,3.65-13.39-2.06-17.4-7.14a25.6,25.6,0,0,1-5.69-17.38c.26-3.59,1.25-8.49,4.2-10.79a19.18,19.18,0,0,1,11-3.59c4.33-.1,10.07,1.21,13,4.52s4,7.84,4,11.76A41.55,41.55,0,0,1,104.75,73.64Z"/><path class="cls-4" d="M86.85,57.6c-3.79,5.57-4.24,10.58-4.82,18-6.42-3.69-11-9.14-12.34-16.42S71,43.81,76.93,39.38c6.4-4.77,15.85-4.6,22.45-.11s10.54,11.18,8.49,24c.49-1.62-12.14-5.91-16.31-15.7A28.28,28.28,0,0,1,86.85,57.6Z"/><path class="cls-15" d="M72.26,111.88c-1.35,3.74-.46,7.88.73,11.67,6.3,20.11,38,47.33,46.75,47.35,9.6,0,24-36.08,28.45-41.74,2-2.61,4.38-5,5.89-8,1.81-3.56,2.37-7.45,2.71-11.41a.35.35,0,0,0-.61-.27c-2.65,3.19-9.07,7.85-11.8,9.5l2.17-7.3a14.33,14.33,0,0,0-6.38,8.23c-.92,3.19-.68,6.6-1.26,9.87-1,5.47-19.41,22-19.41,22S90.82,113.09,88.94,110.6C84.71,105,75,104.28,72.26,111.88Z"/><path class="cls-4" d="M69.16,119.91c3-1.76,4.89-5.07,5.81-8.46s1-6.93,1.45-10.42c.74-6.3,2.43-12.44,4-18.58,1-3.93,1.73-8.77-1.29-11.49-10.16,7.51-17,18.84-21,30.82C56.4,107,56,112,58.49,117,60.44,121,65.23,122.2,69.16,119.91Z"/></g></g></svg>