<svg xmlns="http://www.w3.org/2000/svg" xmlns:xlink="http://www.w3.org/1999/xlink" viewBox="0 0 232.87 232.87"><defs><style>.cls-1,.cls-21{fill:none;}.cls-2{clip-path:url(#clip-path);}.cls-3{fill:#6a71b7;}.cls-4{fill:#d1d5ba;}.cls-5{clip-path:url(#clip-path-2);}.cls-6{fill:#005014;}.cls-7{fill:#ff5a1f;}.cls-8{fill:#00a79d;}.cls-9{fill:#fb9b67;}.cls-10{fill:#fff;}.cls-11{fill:#e07f57;}.cls-12{fill:#a3472e;}.cls-13{fill:#2d2d3d;}.cls-14{fill:#ffcec8;}.cls-15{fill:#ff9b8f;}.cls-16{fill:#51588c;}.cls-17{fill:#edbaba;}.cls-18{fill:#ffd4d4;}.cls-19{fill:#dba7a7;}.cls-20{fill:#f28c63;}.cls-21{stroke:#fff;stroke-miterlimit:10;stroke-width:2.42px;}</style><clipPath id="clip-path"><circle class="cls-1" cx="-162.98" cy="116.43" r="105.1"/></clipPath><clipPath id="clip-path-2"><circle class="cls-1" cx="116.43" cy="116.43" r="105.1"/></clipPath></defs><g id="レイヤー_1" data-name="レイヤー 1"><g class="cls-2"><polygon class="cls-3" points="2.72 122.48 -43.81 102.31 -90.34 122.48 -90.34 127.5 2.72 127.5 2.72 122.48"/><rect class="cls-4" x="-4.95" y="136.34" width="7.68" height="57.44"/><rect class="cls-4" x="-94.53" y="127.49" width="101.45" height="8.84"/><path class="cls-4" d="M-1.11,115.71h0a3.83,3.83,0,0,0-3.84,3.83v7.95H2.72v-7.95A3.82,3.82,0,0,0-1.11,115.71Z"/></g><g class="cls-5"><rect class="cls-6" x="116.43" y="11.34" width="105.1" height="110.24"/><rect class="cls-7" x="11.34" y="11.34" width="105.1" height="110.24"/><path class="cls-8" d="M192,81.4c-5.21-4.67-59.48-4.67-64.69,0-7.14,6.39-8.4,41.23-8.4,41.23h81.49S199.16,87.79,192,81.4Z"/><path class="cls-9" d="M186.42,88.65c-.26-5.23-1.86-9.93-6-11.54l-12.57-4.87h-16.4l-12.57,4.87c-4.14,1.61-5.73,6.32-6,11.57a36.42,36.42,0,0,0,53.52,0Z"/><path class="cls-8" d="M191.74,81.2a15.93,15.93,0,0,0-4.59-2.64c-5.53-2-11.74-4.29-13.36-4.75a15.49,15.49,0,0,1-14.21,8.75,15.28,15.28,0,0,1-14.07-8.75c-1.63.46-7.83,2.71-13.36,4.75a15.93,15.93,0,0,0-4.59,2.64,36.43,36.43,0,0,0,64.18,0Z"/><path class="cls-10" d="M159.64,83.46c-8.71,0-13.45-4.83-15-9.36l1.71-.58c1.33,3.94,5.51,8.14,13.27,8.14Z"/><path class="cls-10" d="M159.53,83.46c8.71,0,13.58-4.83,15.11-9.36l-1.71-.58c-1.33,3.94-5.65,8.14-13.4,8.14Z"/><path class="cls-9" d="M150.72,57.47l-.19,0a3.42,3.42,0,0,1-2.42-3l-.37-2.88c-.07-.52.29-1,.72-.86l.13,0a2.12,2.12,0,0,1,1.49,1.86Z"/><path class="cls-9" d="M168.94,57.48l.19,0a3.42,3.42,0,0,0,2.41-3l.37-2.88c.06-.53-.3-1-.73-.86l-.13,0a2.12,2.12,0,0,0-1.49,1.87Z"/><rect class="cls-9" x="151.22" y="60.08" width="17.39" height="12.79"/><polygon class="cls-11" points="151.22 72.54 168.6 66.48 168.6 60.08 151.22 60.08 151.22 72.54"/><polygon class="cls-11" points="151.22 64.1 157.59 70.32 164.02 68.08 168.6 63.65 168.6 60.08 151.22 60.08 151.22 64.1"/><path class="cls-9" d="M159.89,35.78A10.86,10.86,0,0,0,149,46.41l1.17,12.9a6.4,6.4,0,0,0,2.54,5.1l3.35,3.2a5.15,5.15,0,0,0,3.09,1h1.49a5.12,5.12,0,0,0,3.08-1l3.35-3.2a6.38,6.38,0,0,0,2.55-5.1l1.16-12.9A10.86,10.86,0,0,0,159.89,35.78Z"/><path class="cls-12" d="M159.93,35.49h-.06c-8.05,0-11.63,5.56-11.2,10.72.32,3.72,1.22,10.11,1.22,10.11h0c.16-12.35,2.18-13.41,2.9-13.29l3.1.53a23.42,23.42,0,0,0,8,0L167,43c.72-.12,2.56-.18,2.89,13.29h0s1-6.38,1.22-10.11C171.46,40.7,168,35.53,159.93,35.49Z"/><path class="cls-12" d="M170,40.35a8.52,8.52,0,0,0-1.5-7.18c-.09,1.16-.81,2.06-4.61,1.23S151,32.67,150.2,39.56c-1.39.56-1.68,2.64-1.48,4.57l1.94,2.65c.17-1,.93-2.91,1.9-3.5,2.36,1.06,9.89,2,14.22.6a4.48,4.48,0,0,0,.8-.34,7,7,0,0,1,1.57,3.24l1.94-2.52C171.17,42.35,170.79,41.06,170,40.35Z"/><polygon class="cls-3" points="105.66 122.63 41.12 122.63 45.49 86.42 101.29 86.42 105.66 122.63"/><path class="cls-13" d="M92,70.5c-2.78-3-2.55-7-2-10,1.13-5.91-1.61-16.08-6.85-21.91-4.81-5.34-14.19-4.54-16-.65-7.76,1.94-7,15.31-7.69,17.91-.77,3-3.06,5.52-1.95,10.39a6.39,6.39,0,0,1-2,6.28c-2.76,2.18-4.92,7.73-.59,9.89,3.66,1.83,14.81,1.23,18.14,1v.08s13-1.16,18.33-1.16C96.66,78.49,94.74,73.53,92,70.5Z"/><path class="cls-14" d="M65.07,58.5l-.19-.06c-.67,0-1.87-1.94-2.14-4s1.32-2.61,1.55-2.33a3.09,3.09,0,0,1,.56,1.66Z"/><path class="cls-14" d="M82.23,58.5l.18-.06c.68,0,1.88-1.94,2.14-4S83.23,51.79,83,52.07a3.09,3.09,0,0,0-.57,1.66Z"/><polygon class="cls-15" points="79.63 60.41 67.81 60.41 67.81 73.98 79.63 73.96 79.63 60.41"/><polygon class="cls-15" points="67.81 65.81 73.28 70.2 67.81 73.96 67.81 65.81"/><path class="cls-14" d="M79.63,65.82V74a55,55,0,0,1-11.82,0Z"/><path class="cls-14" d="M73.71,36.65c-5.44,0-9.84,4.11-9.84,9.17a8.33,8.33,0,0,0,.1,1.33l.94,12.94a6.33,6.33,0,0,0,2.4,4.52L71.63,68a3.27,3.27,0,0,0,2.05.71h.06A3.28,3.28,0,0,0,75.8,68l4.29-3.38a6.36,6.36,0,0,0,2.43-4.56l.93-12.91a8.23,8.23,0,0,0,.11-1.33h0C83.56,40.76,79.15,36.65,73.71,36.65Z"/><path class="cls-13" d="M64.19,52s.63-5.79,4.66-9.07C76.63,45.63,82.14,47,83,52.06c3.27-9.78-1.18-15.74-9.5-15.74S61.86,43.53,64.19,52Z"/><path class="cls-14" d="M91.07,77.63,79.63,74H67.81l-11.5,3.67a4.62,4.62,0,0,0-3.18,5.08c.39,2.63.95,6.37,1.56,10.53a35,35,0,0,0,37.94.42c.63-4.33,1.21-8.23,1.61-11A4.6,4.6,0,0,0,91.07,77.63Z"/><path class="cls-3" d="M94.39,77.84l-10.83-3-3.93-4.91V74c3.37,6.3,5,8.28-6,18.39-7.79-8.54-9.78-9.69-5.84-18.39V70.06c-1.78,2.26-3.94,5.18-3.94,5.18L54.1,78c-3.7,1-7.44,2.28-8.61,8.43a35.5,35.5,0,0,0,28.34,14A34.61,34.61,0,0,0,101.07,87l.22-.53A9.77,9.77,0,0,0,94.39,77.84Z"/><path class="cls-10" d="M73.65,92.24l-1.31-1.31V99.5c.5,0,1,0,1.49,0h.64V91.6Z"/><path class="cls-10" d="M79.63,69.89S83.72,79.53,81,84.16c2.29-3.31,3.47-3.67,7,.48a49.73,49.73,0,0,0-2.54-9.29Z"/><path class="cls-16" d="M60.48,84.2c2.92-2.46,3.66-1.82,11.31,6.13-2.79-3.1-4.22-4.46-5.74-7.82C63.91,79.52,61.22,80.85,60.48,84.2Z"/><path class="cls-10" d="M67.81,70.06s-3,10.09-1.66,12.65c-1.33-1.55-3.69-1.61-5.67,1.49a33.53,33.53,0,0,1,1.7-8.49Z"/><path class="cls-16" d="M73.65,92.36c5.71-4.64,8.27-7.46,9.22-8.16S85,82,88.05,84.64c-1.49-4.21-3.82-5.11-7-.48A47.39,47.39,0,0,1,73.65,92.36Z"/><path class="cls-3" d="M73.83,94.88a.56.56,0,1,0-.56.56A.56.56,0,0,0,73.83,94.88Z"/><rect class="cls-7" x="116.43" y="122.63" width="105.1" height="98.9"/><rect class="cls-6" x="11.34" y="122.63" width="105.1" height="98.9"/><path class="cls-17" d="M107.48,178.88c-5.35-4.25-61-4.25-66.31,0-7.32,5.83-8.6,45.62-8.6,45.62h83.51S114.8,184.71,107.48,178.88Z"/><path class="cls-9" d="M100.07,185.2c-.59-4.42-2.31-8.18-5.94-9.54L81.5,171l-8.18.1h0l-8.18.09-12.51,5c-3.59,1.45-5.22,5.22-5.71,9.64a36.41,36.41,0,0,0,53.18-.6Z"/><path class="cls-17" d="M102.53,176.6l-20.1-6.38-4.15,12a32.56,32.56,0,0,0-4-3.39c0-.2-.08-.31-.13-.31a.88.88,0,0,0-.32.07,1.08,1.08,0,0,0-.46-.13c-.06,0-.1.14-.14.42a40,40,0,0,0-4.59,3.46L64.2,170.44,44.26,177.3a12.22,12.22,0,0,0-2.71,1.34A36.41,36.41,0,0,0,73.64,197c13.71-.17,26.37-7.57,32.44-18.85A24.89,24.89,0,0,0,102.53,176.6Z"/><rect class="cls-9" x="64.63" y="158.77" width="17.39" height="12.79" transform="translate(-1.98 0.89) rotate(-0.69)"/><polygon class="cls-11" points="64.7 171.33 82.02 165.06 81.94 158.66 64.55 158.87 64.7 171.33"/><polygon class="cls-11" points="64.6 162.89 71.05 169.03 77.45 166.71 81.98 162.23 81.94 158.66 64.55 158.87 64.6 162.89"/><path class="cls-9" d="M72.93,134.47a10.85,10.85,0,0,0-10.76,10.76l1.32,12.88a6.37,6.37,0,0,0,2.61,5.07l3.39,3.16a5.13,5.13,0,0,0,3.09,1h1.49a5.07,5.07,0,0,0,3.07-1.06L80.46,163a6.37,6.37,0,0,0,2.48-5.13L84,145A10.86,10.86,0,0,0,72.93,134.47Z"/><path class="cls-9" d="M64,156.26l-.2,0a3.44,3.44,0,0,1-2.45-3L61,150.36c-.08-.53.28-1,.71-.88l.13,0a2.12,2.12,0,0,1,1.52,1.85Z"/><path class="cls-9" d="M82.24,156.06l.19,0A3.44,3.44,0,0,0,84.8,153l.34-2.89c.06-.52-.31-.95-.74-.85l-.13,0a2.11,2.11,0,0,0-1.46,1.89Z"/><path class="cls-18" d="M73.62,193.22a.72.72,0,0,0-.72-.7.71.71,0,1,0,0,1.42A.72.72,0,0,0,73.62,193.22Z"/><path class="cls-18" d="M73.62,205.92a.71.71,0,1,0-1.42,0,.71.71,0,0,0,1.42,0Z"/><path class="cls-18" d="M73.48,181.74a.71.71,0,1,0-.7.72A.71.71,0,0,0,73.48,181.74Z"/><path class="cls-12" d="M82.7,137.06c-.66-3-4.36-5.8-9.66-5.73-6.23.07-9.59,2.86-10.08,5.85a7.64,7.64,0,0,0-1.6,5.62c.36,8.29,1.72,12.32,1.72,12.32h0c0-12.35,2-13.44,2.74-13.33l2.86.46c-1.51.49-2.53.85-2.53.85a21,21,0,0,0,9.48,1c2.09-.41,4-.84,5.24-2.23.83.71,1.87,3.41,2.23,13,0,0,1.45-7.52,1.7-11.24A8,8,0,0,0,82.7,137.06Z"/><path class="cls-19" d="M70.85,178.27l-7.28-7.82-2.08.92,7.14,13.72L71,181a2.88,2.88,0,0,1,2.38-1.31h.13l0-2Z"/><path class="cls-19" d="M83.25,170.21l-7.09,8-2.65-.49,0,2a2.43,2.43,0,0,1,.6,0l.23,38.74h.39l-.23-38.63a2.87,2.87,0,0,1,1.54,1.09L78.54,185l6.81-13.89Z"/><path class="cls-18" d="M82.09,167.22l-8.66,10.44-8.78-10.23-2.56,3.75,6.39,12.45,2.44-3.72a3.11,3.11,0,0,1,2.58-1.41h0a3.2,3.2,0,0,1,2.65,1.38l2.5,3.64,6.1-12.6Z"/><polygon class="cls-6" points="193.36 222.94 126.14 223.78 131.54 184.2 187.77 184.2 193.36 222.94"/><path class="cls-13" d="M151.2,136.56c1.46-2.91,5.1-5.95,11.76-4.31,7.31,1.79,11.39,10,8.71,19.07-5,16.81-18.2,10.34-22.55.81C144.28,141.51,148.18,136.75,151.2,136.56Z"/><path class="cls-14" d="M177.45,176.51l-11.88-4.14h-5.95v0h-6l-11.88,4.14a4.3,4.3,0,0,0-3.25,4.83c.39,2.68,1,6.48,1.72,10.72a36,36,0,0,0,38.73.05c.71-4.26,1.33-8.08,1.73-10.77A4.32,4.32,0,0,0,177.45,176.51Z"/><path class="cls-14" d="M150.77,156.5l-.18-.06c-.68,0-1.88-1.93-2.14-4s1.32-2.6,1.54-2.33a3.12,3.12,0,0,1,.57,1.66Z"/><path class="cls-20" d="M168.38,156.51l.19-.06c.69,0,1.53-1.64,1.59-3.15l.35-2.89c0-.53-.12-.94-.54-.81l-.12,0a2.1,2.1,0,0,0-1.3,2Z"/><polygon class="cls-15" points="165.72 158.47 153.58 158.47 153.58 172.39 165.72 172.37 165.72 158.47"/><polygon class="cls-15" points="153.58 164.01 159.2 168.51 153.58 172.37 153.58 164.01"/><path class="cls-14" d="M165.72,164v8.36a57.2,57.2,0,0,1-12.14,0Z"/><path class="cls-14" d="M159.64,134.08c-5.58,0-10.1,4.21-10.1,9.41a8.83,8.83,0,0,0,.11,1.37l1,13.27a6.47,6.47,0,0,0,2.46,4.64l4.43,3.48a3.4,3.4,0,0,0,2.11.73h.06a3.4,3.4,0,0,0,2.11-.73l4.41-3.46a6.59,6.59,0,0,0,2.49-4.68l1-13.25a8.84,8.84,0,0,0,.1-1.37h0C169.74,138.29,165.22,134.08,159.64,134.08Z"/><path class="cls-6" d="M181.43,176.72l-1-.2a73.56,73.56,0,0,1-7.21-1.76l-3.59-1.13c-.79,2.61-5.2,5.15-10,5.15s-9.2-2.54-10-5.15l-4.48,1.42a55,55,0,0,1-5.4,1.28l-1.91.39a8.09,8.09,0,0,0-6.28,7l-.06.44a36,36,0,0,0,56.23,0l-.06-.44A8.09,8.09,0,0,0,181.43,176.72Z"/><path class="cls-10" d="M171,174.05l-1.34-.42c-1.39,3.16-5.28,4.9-10,4.9s-8.6-1.74-10-4.9l-1.34.42c1.29,4.69,7.83,5.9,11.32,5.9h0C163.15,180,169.69,178.74,171,174.05Z"/><path class="cls-13" d="M160.12,132.76c5,.29,7.59,2,9.26,4.56.3-.32.4.32.81.17,4.9,7.63,4.14,17,.16,22.25-1.31,1.74-3.64,4.3-4.11,5.93,0,0-.58-.62,1.12-4a13.72,13.72,0,0,0,1.13-8.51c-2.54-7.35-10.43-4.07-16.22-11.19,0,0-2.22,5.8-2.29,10C150,152,145.08,131.86,160.12,132.76Z"/><line class="cls-21" x1="3.51" y1="122.63" x2="229.36" y2="122.63"/><line class="cls-21" x1="116.43" y1="3.51" x2="116.43" y2="229.36"/><path class="cls-10" d="M71.38,103.89v13H70.16v-.64H60.25v.64H59.06v-13Zm-1.22,11.2V105H60.25v10.07Zm-.76-2.21v1H61v-1h3.55v-2.59H61.78v-1h2.76v-2.08H61.16v-1h8.08v1h-3.5v2.08h2.8v1h-2.8v2.59Zm-1.87-2.36a8,8,0,0,1,1.19,1.71l-1,.44a8.32,8.32,0,0,0-1-1.69Z"/><path class="cls-10" d="M80.29,106.67H74.73v-1h5.56Zm-.54,9.44H76.34v.66h-1.1v-5h4.51Zm-.12-7.41H75.36v-.94h4.27Zm-4.27,1.07h4.27v.93H75.36Zm4.13-5.15H75.54v-.93h3.95Zm-3.15,8.19v2.28h2.3v-2.28Zm12-3.5v1.06h-8.1v-1.06h1.8c.19-.6.38-1.32.59-2.08H81.19v-1h1.74l.35-1.45h-2.5v-1h7.13v1h-3.4l-.35,1.45h3v3.12ZM81,111.55h6.69v5.29H86.5v-.49H82.22v.49H81Zm1.19,1.08v2.65H86.5v-2.65Zm1.09-3.32H86v-2.08H83.89C83.7,108,83.49,108.71,83.31,109.31Z"/><path class="cls-10" d="M151.69,107.07h-2.62v-1h3V103.2h1.15v2.89h2.93v1h-2.85c.83.53,1.72,1.15,2.24,1.55l-.64.86a20.49,20.49,0,0,0-1.68-1.46v1.73H152v-1.69a12.63,12.63,0,0,1-2.42,2.06l-.7-.87A11.23,11.23,0,0,0,151.69,107.07Zm3.1,9a16,16,0,0,0-1.57-.9,8.44,8.44,0,0,1-3.43,1.66l-.72-.9a8.16,8.16,0,0,0,3.05-1.28c-.46-.21-.92-.4-1.42-.59l-.15.26-1.08-.38c.32-.57.74-1.38,1.14-2.23h-1.54v-1h2l.45-1,1.23.14-.4.9h3.93v1h-1.2a6.56,6.56,0,0,1-1.07,2.63,17.76,17.76,0,0,1,1.65.9Zm-4.42-10.16a6.68,6.68,0,0,0-.81-1.89l.84-.42a6.77,6.77,0,0,1,1,1.93Zm.79,7.26c.64.22,1.21.46,1.78.69a5.06,5.06,0,0,0,.92-2.15h-2Zm3.47-7.24-.83-.42a12.81,12.81,0,0,0,1.06-1.94l1,.43A14,14,0,0,1,154.63,105.94Zm8.29,10-.86,1a8.79,8.79,0,0,1-2.82-2.75,12.9,12.9,0,0,1-3,2.73l-.89-.87a11.36,11.36,0,0,0,3.23-3,17.22,17.22,0,0,1-1.42-4.3,12.41,12.41,0,0,1-.88,1.47l-.87-.76a14.33,14.33,0,0,0,2.25-6.2l1.14.18a18.83,18.83,0,0,1-.48,2.33h4.39v1.11h-1.07a13.78,13.78,0,0,1-1.72,6.26A7.73,7.73,0,0,0,162.92,115.91Zm-3.64-4a12.39,12.39,0,0,0,1.16-5H158s0,0,0,0A17.64,17.64,0,0,0,159.28,111.86Z"/><path class="cls-10" d="M169.34,104.28v11.39H168V104.28Z"/><path class="cls-10" d="M66.9,197.22v-4.8H64.29v7h9.56v1.2H64.29v.79H63v-9H60.77v-1.19H63V188h1.25v3.28H66.9v-3.44h1.2v3.44h2.74V187.8H72.1v3.43h2.32v1.19H72.1v4.8Zm1.2-4.8v3.64h2.74v-3.64Z"/><path class="cls-10" d="M85.4,197.06c0,2.19-1.46,3.16-3.9,3.16H78.17V188.83h3.1c1.91,0,3.7.56,3.7,2.74a2.51,2.51,0,0,1-1.89,2.6A2.59,2.59,0,0,1,85.4,197.06Zm-5.9-3.31h2.39a1.84,1.84,0,0,0,1.76-2c0-1.24-.87-1.81-2.55-1.81H79.5ZM84,196.94c0-1.51-1-2.15-2.57-2.15H79.5V199h1.85C82.72,199,84,198.79,84,196.94Z"/><path class="cls-10" d="M158.53,200.29l-.75,1.1a8.51,8.51,0,0,1-6.1-3.74c-.79,1.48-2.62,2.76-6.1,3.74l-.77-1c3.7-.94,5.37-2.15,5.92-3.6h-5.9v-1.08h2v-3.58h4.09V190.8h1.23v1.33h4.29v3.58h2v1.08h-6C153.67,198.93,155.82,200,158.53,200.29Zm-10-10.14h-3.6v-1.07h3.6v-1.34h1.22v1.34h3.78v-1.34h1.25v1.34h3.67v1.07h-3.67v1.37h-1.25v-1.37h-3.78v1.35h-1.22Zm2.45,5.56v-2.55h-2.89v2.55Zm1.23-2.55v2.55h3v-2.55Z"/><path class="cls-10" d="M166.7,191.21h-5.56v-1h5.56Zm-.53,9.45h-3.41v.65h-1.1v-5h4.51Zm-.12-7.41h-4.27v-.94h4.27Zm-4.27,1.06h4.27v.94h-4.27Zm4.12-5.14H162v-.94h3.94Zm-3.14,8.18v2.29h2.3v-2.29Zm12-3.5v1.07h-8.1v-1.07h1.79c.2-.59.39-1.32.6-2.07h-1.47v-1h1.73l.36-1.45h-2.51v-1.06h7.14v1.06h-3.4l-.36,1.45h3v3.11Zm-7.35,2.24h6.69v5.3h-1.21v-.49h-4.29v.49h-1.19Zm1.19,1.09v2.65h4.29v-2.65Zm1.1-3.33h2.65v-2.07h-2.07C170.11,192.53,169.91,193.26,169.73,193.85Z"/></g></g></svg>