<svg xmlns="http://www.w3.org/2000/svg" xmlns:xlink="http://www.w3.org/1999/xlink" viewBox="0 0 232.87 232.87"><defs><style>.cls-1{fill:none;}.cls-2{clip-path:url(#clip-path);}.cls-3{fill:#f6bd96;}.cls-4{fill:#ff5a1f;}.cls-5{fill:#005014;}.cls-6{fill:#fff;}.cls-7{fill:#2d2d3d;}.cls-8{fill:#ffcec8;}.cls-9{fill:#00320f;}.cls-10{fill:#7bb6dc;}.cls-11{fill:#d7b38d;}.cls-12{fill:#ff9b8f;}.cls-13{fill:#f6bfa9;}</style><clipPath id="clip-path"><circle class="cls-1" cx="-170.9" cy="116.43" r="105.1"/></clipPath></defs><g id="レイヤー_1" data-name="レイヤー 1"><g class="cls-2"><path class="cls-3" d="M1.92,239.29c-.35,1.22-2.17,1.05-3.13,1-1.39-.09-2.81,0-4.17-.18-2.31-.29-4.54.26-6.84.39a23.27,23.27,0,0,1-6.75-.63,17.33,17.33,0,0,0-8.7.09c-2.37.53-6.4.77-7.89-1.69-1-1.66-.18-3.78-.2-5.72,0-3.07-2.2-5.69-4.5-7.71-3.64-3.21-7.49-6-7.69-11.33-.14-3.84,5.19-7.42,8.75-6.35,2.79.83,4.14,3.9,5.4,6.52a39.5,39.5,0,0,0,6.47,9.6c2.68,2.93,7,4.68,10.47,6.48,0,.33,3.35,1.74,3.77,2l4.16,2.16,4,2.06a11.18,11.18,0,0,0,4,1.09,5.08,5.08,0,0,1,2,.53A1.64,1.64,0,0,1,1.92,239.29Z"/></g><circle class="cls-4" cx="116.43" cy="116.43" r="105.1"/><path class="cls-5" d="M44.05,162.31,110,31.4a12.68,12.68,0,0,1,17-5.72l56.07,27.84a12.71,12.71,0,0,1,5.73,17L122.86,201.45a12.68,12.68,0,0,1-17,5.72L49.78,179.33A12.7,12.7,0,0,1,44.05,162.31Z"/><rect class="cls-5" x="100.21" y="43.29" width="6.49" height="2.73" rx="1.14" transform="translate(17.44 117.44) rotate(-63.59)"/><rect class="cls-5" x="89.53" y="58.08" width="13.14" height="2.73" rx="1.14" transform="translate(0.12 119.07) rotate(-63.59)"/><rect class="cls-5" x="82.11" y="73.03" width="13.14" height="2.73" rx="1.14" transform="translate(-17.4 120.72) rotate(-63.59)"/><rect class="cls-5" x="160.3" y="104.72" width="21.65" height="2.73" rx="1.14" transform="translate(-0.01 212.16) rotate(-63.59)"/><path class="cls-6" d="M48.45,163.59l65.47-130a8.36,8.36,0,0,1,11.2-3.76l56.09,27.85A8.36,8.36,0,0,1,185,68.84l-65.47,130a8.36,8.36,0,0,1-11.2,3.77L52.21,174.78A8.35,8.35,0,0,1,48.45,163.59Z"/><polygon class="cls-6" points="3.39 107.53 16.33 116.78 21.95 96.22 9.11 86.97 3.39 107.53"/><polygon class="cls-6" points="6.12 107.44 16.33 116.78 21.95 96.22 11.84 86.87 6.12 107.44"/><polygon class="cls-6" points="21.81 96.22 37.65 94.84 32.02 115.4 16.26 116.83 21.81 96.22"/><path class="cls-7" d="M32,118.39l-14.58.55a.4.4,0,0,1-.4-.5l5.9-21.21a.41.41,0,0,1,.37-.3l14.58-.55a.4.4,0,0,1,.4.51l-5.9,21.21A.42.42,0,0,1,32,118.39Z"/><path class="cls-7" d="M1.9,110l12.2,8a.39.39,0,0,0,.6-.22l5.9-21.21a.41.41,0,0,0-.16-.45l-12.2-8a.41.41,0,0,0-.61.23L1.74,109.58A.39.39,0,0,0,1.9,110Z"/><rect class="cls-7" x="17.08" y="95.79" width="3.46" height="23.47" rx="0.4" transform="translate(29.5 -1.11) rotate(15.54)"/><path class="cls-8" d="M43,104.12a18.08,18.08,0,0,1,4-1.07,2.36,2.36,0,0,1,2.44,1.42,1.67,1.67,0,0,1-.63,2.32s-8.74,6.1-9.19,6.13.08-.81.08-.81-1.25.78-1.71.68.43-1.1.43-1.1-1.38,1-1.88.72,1.1-1.48,1.1-1.48-1.53,1-1.75.63c-.38-.71,4.42-4.81,5-5.13.53-.88-3,1.79-3,1.26C37.93,106.52,41.21,104.89,43,104.12Z"/><path class="cls-9" d="M145.4,82.67s3.55-6.28,9.31-5.87,5.09,8.53,3.84,12.52.95,12.82-2.15,21.2-10.76,12.15-13.79,18.56-3.79,12.36-16.84,14.88-19.93,6.45-19.93,6.45l0-19.4Z"/><path class="cls-7" d="M187.29,161c-1.35-.54-2.77-6.27-6.93-6.62a2.68,2.68,0,0,1-.76-5.3,16,16,0,0,0,2.6-.69c1.45-.52,4-1.55,4.35.78s1.23,8.6,1.23,8.6S188.65,161.51,187.29,161Z"/><path class="cls-7" d="M199.48,101.37c-1.36.55-6.35-2.59-9.59.06a2.68,2.68,0,0,1-4.23-3.28,16.1,16.1,0,0,0,1.39-2.31c.68-1.38,1.8-3.9,3.66-2.46l6.86,5.32S200.84,100.82,199.48,101.37Z"/><path class="cls-8" d="M116.56,112.07a8.61,8.61,0,0,1-1.62-.78c-4.32-2.61-4.63-7.6-2-11.92s7.15-6.31,11.46-3.7l.47.3h0a273.47,273.47,0,0,1,35.33,24.89h0l.32.18a5.44,5.44,0,0,1-5.23,9.52h0Z"/><path class="cls-10" d="M111.85,98.76a9.13,9.13,0,0,1,12.53-3.09l.47.3h0c6,3.59,11.56,7.2,16.34,10.5l-7.81,13.64-16.82-8a8.61,8.61,0,0,1-1.62-.78A9.12,9.12,0,0,1,111.85,98.76Z"/><path class="cls-8" d="M101.15,123.09A9.59,9.59,0,0,1,99.7,122c-3.75-3.37-3.13-8.34.24-12.09s8.2-4.87,12-1.51l.4.39h0a273.4,273.4,0,0,1,30.09,31h0a3.22,3.22,0,0,1,.28.24,5.44,5.44,0,0,1-6.91,8.38h0Z"/><path class="cls-10" d="M99,109.14a9.13,9.13,0,0,1,12.89-.71l.4.39h0c5.27,4.66,10,9.22,14.11,13.36l-10.21,12-15-11A9.59,9.59,0,0,1,99.7,122,9.13,9.13,0,0,1,99,109.14Z"/><path class="cls-10" d="M93.49,101.19s-.61,7.7,2.17,14.35,5.79,10.31,12.71,4.72L127.29,105c2.09-1.69,3.89-5.82-4.88-10.71a39.59,39.59,0,0,0-16.78-5,12.18,12.18,0,0,0-8.19,2.88C93.16,95.41,93.49,101.19,93.49,101.19Z"/><path class="cls-5" d="M88.73,97a92.69,92.69,0,0,0,14.66-10.44c4.49,2,14.25-.29,21.92-5.75s21.16-6.21,29.4-4c-4.45,1.23-5.77,7.32-4.93,12.1s3.57,13,1.32,20-5.83,5.75-9.45,11.9S140,132,134.08,137.44s-12.77,2.65-17.62,5.45-9.51,9.48-16.71,8.48-11.86-3.54-18.15-2a39.1,39.1,0,0,1-8.48.91s-1.26,1.56.34-10.09,8.69-20.4,13.55-28.57S88.73,97,88.73,97Z"/><path class="cls-7" d="M85.58,41.84s3.56,1,3.71,5.88c.12,3.71,3.17,6.68,7.67,5.67s8.6,1.54,9,4.74-1.09,5.13-.68,7-3.55,9.07-18.16,11.68c-20.68,3.7-25.06-1.3-25.34-6.65s-4.74-6.7-4.27-11.66S63.3,54,66.05,52.71,70.11,48,70.11,48s1.1-5,3.73-6.77C78.89,37.88,83.56,39.11,85.58,41.84Z"/><path class="cls-8" d="M140.52,65.79a18.17,18.17,0,0,0-3.55,2,2.31,2.31,0,0,0-.72,2.68,1.63,1.63,0,0,0,2.05,1.18s10.34-1.8,10.68-2.09-.62-.51-.62-.51,1.4-.32,1.65-.71-1-.47-1-.47,1.63-.29,1.81-.8-1.79-.27-1.79-.27,1.78-.34,1.65-.77c-.23-.76-6.42-.3-7-.14-1-.24,3.31-.8,2.94-1.17C145.73,63.94,142.31,65.08,140.52,65.79Z"/><path class="cls-11" d="M81.75,61.66c2-1,4.87-2,6.9-1.77,2.56.28,6.89-.75,8.74.81,2.68,2.23,5.07,11.14,7.29,16,1.56,3.4,1.32,4.77,5,9.53A41.45,41.45,0,0,1,99.15,96.42c-6.34,4-11.31,3.5-11.31,3.5s-3.37-6.67-6.14-9a15.31,15.31,0,0,1-5.43-7.85,41.53,41.53,0,0,1-1.54-5.28c-.55-2.71-1.77-4.07-1.39-6.71S78.7,64,80.76,62.3A8,8,0,0,1,81.75,61.66Z"/><path class="cls-8" d="M81.36,50.47,79,60.08l1.13,2.39-1.27,1.18s1.82,3.94,4.67,2.53c2.49-1.23,7.22-6.34,5.85-6.59a6.39,6.39,0,0,1-2.56-.84l-2.69-5.41Z"/><path class="cls-12" d="M78.9,59.79s2.46-2.8,3.74-4a7.92,7.92,0,0,1-3.14,5.29Z"/><path class="cls-8" d="M83.52,55.34s3.54.18,3.57-1.93c0-3-2.1-2.08-3-2Z"/><path class="cls-8" d="M79.47,59.85c1.68-.55,3.82-4.78,4.49-6.19h0l.79-5.31-7.43-2.08-6,1.7a28.26,28.26,0,0,0,.46,6.19c.61,3,1.69,5.62,4.07,6A7.56,7.56,0,0,0,79.47,59.85Z"/><path class="cls-13" d="M95.12,59.89s1,8.8,5.77,12.42c4.54-1.85,3.77-9.12,3.77-9.12S101,61.45,98.93,60.5A6.83,6.83,0,0,0,95.12,59.89Z"/><path class="cls-11" d="M74.29,69s.35,9.62,9.4,5.45,9-14.58,9-14.58a23.64,23.64,0,0,1-4.38-.43l-5,6.67-3.19-3.61S75.74,66.42,74.29,69Z"/><path class="cls-11" d="M93.88,60.64l.83-.79a19.14,19.14,0,0,1,7,1c4.28,1.31,12.55,5.43,19.35,5.64s17.81-.35,17.81-.35l.66,5.79s-13,2.11-18.73,2.1-20.13-1.18-20.13-1.18-7.61-1.36-8.38-4.94S93.88,60.64,93.88,60.64Z"/><path class="cls-11" d="M58.93,92.06s9.66-14.18,10.32-16,2.43-3.83,5-7.13c1.26,2.46,4.43,15,4.43,15s-10.06,8.61-14.46,13.5-17,10.8-17,10.8l-2.49-5.12Z"/><path class="cls-7" d="M73.75,47.86s3.07,5.88,10.53,3.5l2.24-4.89L75.59,43.86l-3.87.61s-1.52,11.11.1,8.77A13.07,13.07,0,0,0,73.75,47.86Z"/><polygon class="cls-6" points="80.02 62.18 83.41 66.06 81.75 69.82 78.36 64.04 80.02 62.18"/><polygon class="cls-6" points="86.85 58.75 83.35 66.07 86.37 68.7 89.41 59.59 86.85 58.75"/><path class="cls-6" d="M79.53,66S83,77.11,85.72,81.83l2.2-19.46-4.57,3.7Z"/><path class="cls-5" d="M88.72,68.8l-1.1-4.29L84,65.82l-1.43.25-3.93,0,.61,4.56,2-1.68c-.64,1.34-1.57,3.28-1.55,3.39a36.61,36.61,0,0,0,3.7,1.7V67.59l.32-.06,2.14,6.07a36.9,36.9,0,0,0,2.92-2.84c0-.12-1.71-1.79-2.76-2.84Z"/><path class="cls-8" d="M161.38,129.81a5.43,5.43,0,0,1-7.36-8h0a64.37,64.37,0,0,1,20.35-16.95,132.24,132.24,0,0,0,12.07-7.17c1.12-1,3.81-.27,4.77.85s1.14,1.37,0,2.33c-12.74,10.94-27.93,26.94-29.4,28.5l-.09.09,0,0h0A3.26,3.26,0,0,1,161.38,129.81Z"/><path class="cls-7" d="M191.21,98.55c-1-1.12-3.65-1.81-4.77-.85a132.24,132.24,0,0,1-12.07,7.17c-1.4.77-2.73,1.56-4,2.37l6.79,6.64c4.5-4.38,9.45-9,14.08-13C192.35,99.92,192.18,99.67,191.21,98.55Z"/><path class="cls-8" d="M138.14,149.51a5.44,5.44,0,0,1,1.53-10.76h0a64.28,64.28,0,0,1,26,5,155.52,155.52,0,0,0,14.69,5.26c1.46.26,1.3,2,1,3.5s-.52,2-2,1.77c-16.53-2.95-38.53-4.58-40.67-4.74h-.17Z"/><path class="cls-7" d="M180.36,149.05a155.52,155.52,0,0,1-14.69-5.26c-1.61-.66-3.17-1.22-4.73-1.73l-1.87,9.42c6.62.74,13.9,1.69,20.36,2.84,1.45.26,1.72-.31,2-1.77S181.82,149.31,180.36,149.05Z"/><polygon class="cls-6" points="37.44 156.16 53.32 155.49 45.11 135.82 29.29 136.43 37.44 156.16"/><polygon class="cls-6" points="39.53 154.4 53.32 155.49 45.11 135.82 31.39 134.67 39.53 154.4"/><polygon class="cls-6" points="44.99 135.91 56.63 125.08 64.84 144.75 53.3 155.57 44.99 135.91"/><path class="cls-7" d="M66.66,147.12l-11.15,9.41a.41.41,0,0,1-.63-.16L46.48,136a.4.4,0,0,1,.11-.46l11.15-9.41a.4.4,0,0,1,.63.15l8.4,20.35A.42.42,0,0,1,66.66,147.12Z"/><path class="cls-7" d="M37.79,159l14.54-1.2a.4.4,0,0,0,.34-.55l-8.4-20.35a.41.41,0,0,0-.4-.25l-14.54,1.2a.4.4,0,0,0-.34.55l8.4,20.35A.41.41,0,0,0,37.79,159Z"/><rect class="cls-7" x="47.85" y="134.93" width="3.46" height="23.47" rx="0.4" transform="translate(-52.2 30.01) rotate(-22.43)"/><path class="cls-7" d="M168.54,56.3,165,57.63a1.7,1.7,0,0,1-2.24-2l3.64-14.15a1.17,1.17,0,0,1,.73-.81l5-1.84a1.7,1.7,0,0,1,2.23,2L170.63,54A3.39,3.39,0,0,1,168.54,56.3Z"/></g></svg>