<svg xmlns="http://www.w3.org/2000/svg" xmlns:xlink="http://www.w3.org/1999/xlink" viewBox="0 0 232.87 232.87"><defs><style>.cls-1{fill:none;}.cls-2{clip-path:url(#clip-path);}.cls-3{fill:#ff5a1f;}.cls-4{fill:#fff6ec;}.cls-5{fill:#d1d5ba;}.cls-6{fill:#6a71b7;}.cls-7{fill:#e9ebde;}.cls-8{fill:#797883;}.cls-9{fill:#fff;}.cls-10{fill:#d0d0d8;}.cls-11{fill:#a3472e;}.cls-12{fill:#ffcec8;}.cls-13{fill:#ff9b8f;}.cls-14{fill:#2d2d3d;}.cls-15{fill:#005014;}</style><clipPath id="clip-path"><circle class="cls-1" cx="116.43" cy="116.43" r="105.1"/></clipPath></defs><g id="レイヤー_1" data-name="レイヤー 1"><g class="cls-2"><circle class="cls-3" cx="116.43" cy="116.43" r="105.1"/><path class="cls-4" d="M41.15,62.36l2.31-2.76,8.64,3-4.65-7.78L49.82,52l.42.36-.57.69a1,1,0,0,0-.31.58.58.58,0,0,0,.27.43l6.57,5.51a.46.46,0,0,0,.43.1,1.19,1.19,0,0,0,.55-.43l.53-.64.42.36-3.19,3.8-.42-.35.6-.72a.89.89,0,0,0,.26-.54.47.47,0,0,0-.17-.4l-7.05-5.9,5.58,9.35-.32.37L43.1,61l6,5.05a2.48,2.48,0,0,0,.92.54,1.24,1.24,0,0,0,.74,0,2.71,2.71,0,0,0,.87-.68l.42.35-2.63,3.14L49,69a2.12,2.12,0,0,0,.55-1.32,1.83,1.83,0,0,0-.77-1.1l-5.73-4.8a.47.47,0,0,0-.42-.13,1.11,1.11,0,0,0-.5.4l-.59.71Z"/><path class="cls-4" d="M53.91,53.74l2.43-2.22.33.36-.22.21a1.12,1.12,0,0,0-.36.48.38.38,0,0,0,.1.35.57.57,0,0,0,.16.11l4.2,1.75-1.26-3.49a1.89,1.89,0,0,0-.38-.63.47.47,0,0,0-.44-.16,1.82,1.82,0,0,0-.76.43l-.33-.37,2.1-1.93.34.37a1.22,1.22,0,0,0-.32,1.29l2.12,6.07a5.75,5.75,0,0,1,.44,2.4,2.1,2.1,0,0,1-.65,1.38,1.29,1.29,0,0,1-.85.38,1,1,0,0,1-.75-.32.78.78,0,0,1-.22-.54.68.68,0,0,1,.24-.5A.66.66,0,0,1,60.3,59a.62.62,0,0,1,.44.2l.12.18.09.14c.08.09.18.08.29,0a1,1,0,0,0,.28-.49,1.89,1.89,0,0,0,0-.8,19.11,19.11,0,0,0-.49-1.89l-5.69-2.36a1,1,0,0,0-.55-.08,1.29,1.29,0,0,0-.58.27Z"/><path class="cls-4" d="M61.8,41.75l7.34-4.88,2.2,3-.42.28a5,5,0,0,0-2.18-1.58,2.71,2.71,0,0,0-2,.54l-1.45,1a.48.48,0,0,0-.24.3.5.5,0,0,0,.1.37L67.29,44l.77-.51a1.58,1.58,0,0,0,.75-1.11,2.46,2.46,0,0,0-.46-1.6l.44-.29,2.7,4.07-.44.29a2.89,2.89,0,0,0-1.37-1.17,1.57,1.57,0,0,0-1.32.25l-.77.52,2.28,3.44a.67.67,0,0,0,.43.33.92.92,0,0,0,.59-.21l.94-.62.31.45L67.8,50.77l-.3-.46.92-.62a.67.67,0,0,0,.33-.38.6.6,0,0,0-.13-.44l-4.77-7.18a.48.48,0,0,0-.35-.26.92.92,0,0,0-.51.18l-.88.59Z"/><path class="cls-4" d="M81.81,41.6l.42.25a1.61,1.61,0,0,1-.8,1,1.3,1.3,0,0,1-.87.14,2.1,2.1,0,0,1-1-.57A4.3,4.3,0,0,1,79,43.88a2.91,2.91,0,0,1-1,.8,2.43,2.43,0,0,1-1.63.34,1.43,1.43,0,0,1-1-.78,2.05,2.05,0,0,1,.3-2.16,8.86,8.86,0,0,1,2.53-2.37l-.48-.92a1.19,1.19,0,0,0-.83-.64,1.59,1.59,0,0,0-1.19.17,2.13,2.13,0,0,0-.85.73c-.14.22-.18.39-.12.5a.76.76,0,0,0,.32.23.91.91,0,0,1,.42.36.75.75,0,0,1,.06.58.77.77,0,0,1-.4.44.82.82,0,0,1-.65.06.86.86,0,0,1-.51-.46A1.64,1.64,0,0,1,74,39.21a3.57,3.57,0,0,1,1.63-1.52,2.94,2.94,0,0,1,1.9-.39,1.67,1.67,0,0,1,1.17.86l1.72,3.33a1.32,1.32,0,0,0,.48.58.49.49,0,0,0,.48,0A1.05,1.05,0,0,0,81.81,41.6Zm-3.47-1.46a5.89,5.89,0,0,0-2,2,1.45,1.45,0,0,0,.06,1.37,1.21,1.21,0,0,0,.67.65A1,1,0,0,0,78,44a2,2,0,0,0,1-1.27A2.3,2.3,0,0,0,78.8,41Z"/><path class="cls-4" d="M80.12,35.65l3.13-1.25.19.47a2.16,2.16,0,0,0-.76.43.33.33,0,0,0-.06.35.7.7,0,0,0,.19.27L86,39l.08-4.26a.52.52,0,0,0,0-.21c-.13-.33-.54-.4-1.22-.22l-.19-.47,2.64-1.05.19.46a1.32,1.32,0,0,0-.55.48,1.16,1.16,0,0,0-.18.62l-.18,6.34-.37.14-4.72-4.55A1,1,0,0,0,81,36a1.28,1.28,0,0,0-.66.12Z"/><path class="cls-4" d="M91.32,31.37a3.09,3.09,0,0,1,2.52.3,3.72,3.72,0,0,1,1.64,2.26,4.12,4.12,0,0,1,.14,2,3.06,3.06,0,0,1-.8,1.54,3.23,3.23,0,0,1-1.48.92A3,3,0,0,1,90.89,38a4.17,4.17,0,0,1-1.48-5A3,3,0,0,1,91.32,31.37Zm.15.5A1.58,1.58,0,0,0,90.39,33a4.13,4.13,0,0,0,.15,2.41,4.3,4.3,0,0,0,1.18,2.14,1.58,1.58,0,0,0,1.51.34,1.62,1.62,0,0,0,1.12-1.12,4.38,4.38,0,0,0-.19-2.51A3.9,3.9,0,0,0,93,32.16,1.65,1.65,0,0,0,91.47,31.87Z"/><path class="cls-4" d="M95.72,30.36l2.4-.62.55,2.72a6.14,6.14,0,0,1,.52-2.22,1.71,1.71,0,0,1,1.21-1,1.2,1.2,0,0,1,.94.16,1.27,1.27,0,0,1,.51.83,1,1,0,0,1-.08.74.71.71,0,0,1-.49.37.74.74,0,0,1-.57-.11.86.86,0,0,1-.31-.54.83.83,0,0,1,0-.47.6.6,0,0,0,.06-.25c0-.07-.07-.09-.16-.08a1.11,1.11,0,0,0-.59.49,3.11,3.11,0,0,0-.53,1.48,7.11,7.11,0,0,0,0,2.18l.29,1.44a.49.49,0,0,0,.25.34,1.06,1.06,0,0,0,.62,0l.85-.17.11.54-4.18.85L97,36.53l.67-.13a.83.83,0,0,0,.48-.24.38.38,0,0,0,.11-.35l-.88-4.29a1,1,0,0,0-.35-.67.76.76,0,0,0-.64-.1l-.59.12Z"/><path class="cls-4" d="M102.53,29l2.7-.44.79,5.85a.43.43,0,0,0,.16.33.6.6,0,0,0,.44.08l.77-.1.07.54-3.86.53-.08-.55.72-.1a.64.64,0,0,0,.45-.21.72.72,0,0,0,.09-.48l-.58-4.28a.76.76,0,0,0-.32-.58,1,1,0,0,0-.71-.12l-.56.08Zm1.35-4.31a.79.79,0,0,1,.6.17.8.8,0,0,1,.33.55.78.78,0,0,1-.17.6.79.79,0,0,1-.54.31.83.83,0,0,1-.93-.7.86.86,0,0,1,.71-.93Z"/><path class="cls-4" d="M109.2,25.45l.49,0,.2,2.79,2.22-.16,0,.67-2.22.16.32,4.39a1.25,1.25,0,0,0,.33.85.88.88,0,0,0,.71.26,1.06,1.06,0,0,0,.81-.52,2.87,2.87,0,0,0,.3-1.55l.49,0a3.16,3.16,0,0,1-.47,2.07,1.9,1.9,0,0,1-1.45.77,1.81,1.81,0,0,1-1.36-.37,1.63,1.63,0,0,1-.57-1.18L108.72,29l-1.19.08,0-.51a1.94,1.94,0,0,0,1.19-.77A3.83,3.83,0,0,0,109.2,25.45Z"/><path class="cls-4" d="M120.19,31.5l-4.91-.08a3.56,3.56,0,0,0,.55,2.22,2,2,0,0,0,1.59.75,2.59,2.59,0,0,0,2.34-1.59l.47.21a3.36,3.36,0,0,1-3.13,2,3.07,3.07,0,0,1-2.3-1,3.64,3.64,0,0,1-.9-2.57,3.89,3.89,0,0,1,1-2.68,2.93,2.93,0,0,1,2.3-1,2.86,2.86,0,0,1,1.71.54A3,3,0,0,1,120,29.8,4.9,4.9,0,0,1,120.19,31.5Zm-4.9-.6,3,.05a.51.51,0,0,0,.42-.17,1,1,0,0,0,.15-.61,2,2,0,0,0-.48-1.38,1.52,1.52,0,0,0-1.17-.58,1.57,1.57,0,0,0-1.3.66A3.31,3.31,0,0,0,115.29,30.9Z"/><path class="cls-4" d="M126.73,24.39l4.93.86-.09.54-1-.17a.88.88,0,0,0-.58,0,.49.49,0,0,0-.23.37l-1.05,6a4.87,4.87,0,0,0-.08,1.46,2.23,2.23,0,0,0,.7,1.3,3.12,3.12,0,0,0,1.63.72,3,3,0,0,0,2.35-.37,2.74,2.74,0,0,0,1.12-1.88l.85-4.9a4.49,4.49,0,0,0,.08-1,1.24,1.24,0,0,0-.17-.57,1,1,0,0,0-.38-.35,3,3,0,0,0-.85-.24l.09-.55,4,.71-.1.54-.29-.05a1.28,1.28,0,0,0-1.07.19,1.57,1.57,0,0,0-.52,1l-.91,5.25a3.45,3.45,0,0,1-1.44,2.46,4.18,4.18,0,0,1-3.11.53,5.79,5.79,0,0,1-2.42-.89,2.89,2.89,0,0,1-1.1-1.52,3.85,3.85,0,0,1,0-1.67l1.12-6.45a.46.46,0,0,0-.1-.41.73.73,0,0,0-.48-.23l-1-.18Z"/><path class="cls-4" d="M138.7,30.7l2.22.54a11.13,11.13,0,0,1-.25,1.5A3.39,3.39,0,0,1,142,32a2.8,2.8,0,0,1,1.46.06,2.36,2.36,0,0,1,1,.6,1.85,1.85,0,0,1,.45,1,2.73,2.73,0,0,1-.12,1.32l-1,3.19a.71.71,0,0,0,0,.56.81.81,0,0,0,.49.32l.47.14-.17.53-3.45-1.07.16-.53.33.1a1.09,1.09,0,0,0,.69.06.56.56,0,0,0,.32-.39l.86-2.8a2.68,2.68,0,0,0,.14-1.45,1.37,1.37,0,0,0-1-1,1.76,1.76,0,0,0-1.52.23,2.67,2.67,0,0,0-1,1.5l-.75,2.43a.68.68,0,0,0,0,.55.81.81,0,0,0,.49.32l.46.14-.16.53-3.47-1.08.16-.52.45.14a.87.87,0,0,0,.57,0,.43.43,0,0,0,.28-.29l1.31-4.24a.84.84,0,0,0,0-.7.88.88,0,0,0-.58-.42l-.34-.11Z"/><path class="cls-4" d="M147.61,33.6l2.57.94L148,40a.42.42,0,0,0,0,.36.67.67,0,0,0,.34.3L149,41l-.21.51L145.18,40l.21-.51.67.27a.63.63,0,0,0,.5,0,.65.65,0,0,0,.31-.37l1.61-4a.77.77,0,0,0,0-.66,1,1,0,0,0-.57-.45l-.52-.21Zm3.3-3.09a.78.78,0,0,1,.44.45.77.77,0,0,1,0,.63.75.75,0,0,1-.43.44.77.77,0,0,1-.63,0,.78.78,0,0,1-.45-.44.81.81,0,0,1,0-.63.86.86,0,0,1,1.07-.46Z"/><path class="cls-4" d="M152.17,35.39l3,1.5-.22.45a2.29,2.29,0,0,0-.82-.28.34.34,0,0,0-.31.19.88.88,0,0,0-.07.32L153.6,42l3.23-2.79a.61.61,0,0,0,.12-.16c.16-.32-.06-.68-.65-1.07l.22-.44,2.55,1.26-.22.44a1.35,1.35,0,0,0-.72-.09,1.25,1.25,0,0,0-.58.28l-4.84,4.11-.35-.18.23-6.56a1,1,0,0,0-.12-.56,1.26,1.26,0,0,0-.53-.41Z"/><path class="cls-4" d="M163.62,45.67l-4.18-2.57a3.52,3.52,0,0,0-.66,2.19,2,2,0,0,0,1,1.45,2.57,2.57,0,0,0,2.82-.18l.3.43a3.37,3.37,0,0,1-3.72.15,3,3,0,0,1-1.45-2.07,3.55,3.55,0,0,1,.53-2.66,3.88,3.88,0,0,1,2.21-1.81,2.93,2.93,0,0,1,2.48.32,2.89,2.89,0,0,1,1.19,1.34,3,3,0,0,1,.16,1.82A5.08,5.08,0,0,1,163.62,45.67Zm-3.91-3,2.53,1.56a.52.52,0,0,0,.45.06,1,1,0,0,0,.44-.44,2,2,0,0,0,.29-1.43,1.53,1.53,0,0,0-.71-1.1,1.59,1.59,0,0,0-1.46-.1A3.41,3.41,0,0,0,159.71,42.65Z"/><path class="cls-4" d="M166.54,43.46l2.06,1.37L167,47.06a5.93,5.93,0,0,1,2-1.1,1.68,1.68,0,0,1,1.53.25,1.17,1.17,0,0,1,.51.8,1.23,1.23,0,0,1-.27.93,1.06,1.06,0,0,1-.61.45.68.68,0,0,1-.6-.13.67.67,0,0,1-.3-.49.84.84,0,0,1,.19-.6.87.87,0,0,1,.37-.29.81.81,0,0,0,.22-.12c0-.06,0-.12-.05-.17a1,1,0,0,0-.75-.12,3.08,3.08,0,0,0-1.46.6,7.35,7.35,0,0,0-1.62,1.45l-.87,1.19a.45.45,0,0,0-.09.41,1.1,1.1,0,0,0,.41.46l.7.52-.33.44L162.5,49l.33-.44.55.4a.83.83,0,0,0,.5.2.36.36,0,0,0,.33-.16l2.6-3.52a1,1,0,0,0,.26-.71.75.75,0,0,0-.35-.54l-.49-.36Z"/><path class="cls-4" d="M170.05,51.49a4,4,0,0,0-.37,2,2.28,2.28,0,0,0,.78,1.32,1.88,1.88,0,0,0,1.16.54,1.13,1.13,0,0,0,.9-.38,1,1,0,0,0,.23-.51,1,1,0,0,0-.1-.55,10.18,10.18,0,0,0-.87-1.2,5.7,5.7,0,0,1-.87-1.37,1.72,1.72,0,0,1-.08-1,1.78,1.78,0,0,1,.42-.86,2.09,2.09,0,0,1,1.28-.7,2.22,2.22,0,0,1,1.89.61A2.67,2.67,0,0,1,175.3,51l.7-.07.23.2-1.46,2-.37-.32a3.09,3.09,0,0,0,.32-1.71A2,2,0,0,0,174,49.8a1.59,1.59,0,0,0-1.05-.46,1.06,1.06,0,0,0-.84.36.89.89,0,0,0-.2.79,3.22,3.22,0,0,0,.76,1.27,10.85,10.85,0,0,1,1,1.3,1.93,1.93,0,0,1,.26,1.12,1.88,1.88,0,0,1-.49,1.06,1.93,1.93,0,0,1-1.54.69,2.64,2.64,0,0,1-1.79-.71,3,3,0,0,1-1-1.76l-.81.12-.29-.26,1.68-2.15Z"/><path class="cls-4" d="M177.55,52.44l2,1.88-4.17,4.17a.4.4,0,0,0-.16.33.6.6,0,0,0,.19.4l.55.55-.39.39L172.8,57.4l.39-.39.51.51a.66.66,0,0,0,.45.23.69.69,0,0,0,.43-.22l3-3.06a.73.73,0,0,0,.27-.6,1,1,0,0,0-.34-.64l-.4-.4Zm4.24-1.55a.78.78,0,0,1,.23.59.84.84,0,0,1-.23.59.82.82,0,0,1-.58.23.82.82,0,0,1-.82-.82.82.82,0,0,1,.82-.82A.8.8,0,0,1,181.79,50.89Z"/><path class="cls-4" d="M184.44,55.57l.33.37-2.1,1.85,1.47,1.67-.5.44-1.47-1.66-3.3,2.91a1.28,1.28,0,0,0-.48.79.89.89,0,0,0,.23.71,1,1,0,0,0,.91.33,2.77,2.77,0,0,0,1.41-.7l.33.37a3.21,3.21,0,0,1-1.94.88,1.88,1.88,0,0,1-1.49-.69,1.8,1.8,0,0,1-.53-1.3,1.62,1.62,0,0,1,.6-1.17l3.45-3-.79-.89.38-.34a1.9,1.9,0,0,0,1.34.48A3.83,3.83,0,0,0,184.44,55.57Z"/><path class="cls-4" d="M185.15,60.6l2,2.63-.4.3-.18-.25a1.09,1.09,0,0,0-.45-.4.35.35,0,0,0-.35.07.32.32,0,0,0-.13.15l-2.16,4,3.59-.9a2,2,0,0,0,.67-.31.51.51,0,0,0,.21-.42,1.77,1.77,0,0,0-.35-.8l.4-.3,1.7,2.29-.39.3A1.25,1.25,0,0,0,188,66.5L181.76,68a5.78,5.78,0,0,1-2.43.2,2.15,2.15,0,0,1-1.3-.79,1.27,1.27,0,0,1-.29-.89,1,1,0,0,1,.39-.71.78.78,0,0,1,.56-.16.71.71,0,0,1,.48.28.67.67,0,0,1,.13.49.57.57,0,0,1-.24.41.79.79,0,0,1-.19.11l-.15.08c-.09.07-.09.16,0,.28a1.05,1.05,0,0,0,.46.33,1.65,1.65,0,0,0,.8.12,17.24,17.24,0,0,0,1.93-.29L184.82,62a1,1,0,0,0,.14-.54,1.27,1.27,0,0,0-.21-.61Z"/><rect class="cls-5" x="-5.18" y="144.64" width="242.59" height="93.35"/><polygon class="cls-6" points="43.8 122.48 -2.73 102.31 -49.27 122.48 -49.27 127.5 43.8 127.5 43.8 122.48"/><polygon class="cls-6" points="282.14 122.48 235.6 102.31 189.07 122.48 189.07 127.5 282.14 127.5 282.14 122.48"/><rect class="cls-7" x="36.12" y="98.63" width="160.62" height="95.15"/><rect class="cls-5" x="217.53" y="136.34" width="7.68" height="57.44"/><rect class="cls-5" x="189.07" y="136.34" width="7.68" height="57.44"/><rect class="cls-5" x="184.88" y="127.49" width="101.45" height="8.84"/><rect class="cls-7" x="196.75" y="136.34" width="20.79" height="57.44"/><rect class="cls-7" x="225.21" y="136.34" width="20.79" height="57.44"/><rect class="cls-5" x="36.12" y="136.34" width="7.68" height="57.44"/><rect class="cls-5" x="7.66" y="136.34" width="7.68" height="57.44"/><rect class="cls-5" x="-53.46" y="127.49" width="101.45" height="8.84"/><rect class="cls-7" x="-13.13" y="136.34" width="20.79" height="57.44"/><rect class="cls-7" x="15.34" y="136.34" width="20.79" height="57.44"/><rect class="cls-5" x="29.93" y="89.78" width="173.01" height="8.84"/><rect class="cls-5" x="94.53" y="141.38" width="43.8" height="8.84"/><rect class="cls-8" x="98.64" y="150.22" width="35.6" height="43.56"/><rect class="cls-9" x="58.34" y="108.18" width="6.36" height="6.36"/><rect class="cls-9" x="76.65" y="108.18" width="6.36" height="6.36"/><rect class="cls-9" x="94.95" y="108.18" width="6.36" height="6.36"/><rect class="cls-9" x="113.26" y="108.18" width="6.36" height="6.36"/><rect class="cls-9" x="131.56" y="108.18" width="6.36" height="6.36"/><rect class="cls-9" x="149.86" y="108.18" width="6.36" height="6.36"/><rect class="cls-9" x="168.17" y="108.18" width="6.36" height="6.36"/><rect class="cls-9" x="58.34" y="122.76" width="6.36" height="6.36"/><rect class="cls-9" x="76.65" y="122.76" width="6.36" height="6.36"/><rect class="cls-9" x="94.95" y="122.76" width="6.36" height="6.36"/><rect class="cls-9" x="113.26" y="122.76" width="6.36" height="6.36"/><rect class="cls-9" x="131.56" y="122.76" width="6.36" height="6.36"/><rect class="cls-9" x="149.86" y="122.76" width="6.36" height="6.36"/><rect class="cls-9" x="168.17" y="122.76" width="6.36" height="6.36"/><path class="cls-8" d="M81.43,162.86h-6.1v-9.59a3,3,0,0,1,3-3.05h0a3,3,0,0,1,3.05,3.05Z"/><path class="cls-8" d="M67.1,162.86H61v-9.59a3,3,0,0,1,3-3.05h0a3,3,0,0,1,3,3.05Z"/><path class="cls-8" d="M171.86,162.86h-6.09v-9.59a3,3,0,0,1,3-3.05h0a3,3,0,0,1,3,3.05Z"/><path class="cls-8" d="M157.54,162.86h-6.1v-9.59a3,3,0,0,1,3.05-3.05h0a3,3,0,0,1,3,3.05Z"/><polygon class="cls-6" points="189.07 81.43 116.51 51.18 45.08 81.43 45.08 89.78 189.07 89.78 189.07 81.43"/><circle class="cls-9" cx="116.43" cy="74.57" r="7.63"/><path class="cls-5" d="M11.5,115.71h0a3.84,3.84,0,0,1,3.84,3.84v8a0,0,0,0,1,0,0H7.66a0,0,0,0,1,0,0v-8A3.84,3.84,0,0,1,11.5,115.71Z"/><path class="cls-5" d="M40,115.71h0a3.83,3.83,0,0,0-3.84,3.83v7.95H43.8v-7.95A3.83,3.83,0,0,0,40,115.71Z"/><path class="cls-5" d="M192.91,115.71h0a3.83,3.83,0,0,0-3.84,3.83v7.95h7.68v-7.95A3.83,3.83,0,0,0,192.91,115.71Z"/><path class="cls-5" d="M221.37,115.71h0a3.84,3.84,0,0,1,3.84,3.84v8a0,0,0,0,1,0,0h-7.68a0,0,0,0,1,0,0v-8A3.84,3.84,0,0,1,221.37,115.71Z"/></g><ellipse class="cls-10" cx="186.24" cy="219.27" rx="17.61" ry="2.26"/><path class="cls-11" d="M179.66,115.93c-.27,1.18-1.52,1.69-1.6,2.94-.05.85.39,1.1.94,1.58s.67,1.65,1.82,1.75a1.4,1.4,0,0,0,.36,0c2.95-.69-1.12-2.37-1.29-3.59A19.9,19.9,0,0,1,179.66,115.93Z"/><path class="cls-12" d="M183.05,121.52l0,1.31-.85.07s0,2.87,1.86,2.76c1.65-.1,3.76-2.19,4.19-2.9.06-.11-.69-.33-.66-.42l-.22-3.6s1.89-.95,1.27-2.06c-.88-1.6-1.72-.42-2.15-.16l-.39-3.18h-4.6l-2.36,1.74.74,4.34a2.67,2.67,0,0,0,3.07,2.12h.05Z"/><path class="cls-13" d="M183.05,121.52s2-.24,2.48-1.49a3.12,3.12,0,0,1-2.46,2.07Z"/><path class="cls-12" d="M175.22,178l2.33,35.32.1,3.35h3.95c1.27-15.26,2.41-29.89,2.32-38.67Z"/><path class="cls-3" d="M181.63,216.45l0,2a.87.87,0,0,1-.86.86h-7.94a.44.44,0,0,1-.22-.81l4.83-2Z"/><path class="cls-12" d="M181.63,216.45l-1.19.71a4.76,4.76,0,0,1-4.71,0l2.48-1.23Z"/><path class="cls-12" d="M197.38,179.89l-9-2.16c-.55,9.68,1.3,24,2.65,38.92H195l.1-3.35Z"/><path class="cls-3" d="M191,216.45l0,2a.85.85,0,0,0,.86.86h7.94a.44.44,0,0,0,.21-.81l-4.82-2Z"/><path class="cls-12" d="M191,216.45l1.19.71a4.78,4.78,0,0,0,4.72,0l-2.49-1.23Z"/><path class="cls-14" d="M209.53,190.48c-.05-4.17,0-8.5-1-12.58-.51-2.06-1.54-5.19-3.39-6.89-.32-1.43-1.06-3.29-2.24-3.68v0l.11,0,0,0,.08.06a.09.09,0,0,1,0,.11l0,0a.11.11,0,0,1,0,.19h0c.13.08,0,.3-.12.21a1.13,1.13,0,0,0-.22-.11,1.92,1.92,0,0,1,.53.38.12.12,0,0,1-.15.19l-.11-.07h0a.1.1,0,0,1-.11,0l-.26-.06a1.37,1.37,0,0,1,.33.26,7.63,7.63,0,0,1,.71,1.23c.06.1.1.2.15.3a4.38,4.38,0,0,0-1-.31,9.62,9.62,0,0,0-1.51.13,5.79,5.79,0,0,1,.59-1.33c.25-.24.67-.53,1.07,0,.24.31-.27-1.41-.43-1.41a2.2,2.2,0,0,0-1.58.93,6.65,6.65,0,0,0-.6,1.61c-.06.22-.11.44-.16.66a6.18,6.18,0,0,0-2.31,2.94c.47,5.22.9,10,1.17,12.58.22,2.15,1.17,5.14-1.09,6.44a9,9,0,0,1-2,.84,1,1,0,0,0,.26.55,18.77,18.77,0,0,0,4,3.89,8.81,8.81,0,0,0,5.48.74c1.42-.14,3.07-.48,3.65-2a8,8,0,0,0,.24-2.81C209.55,192.57,209.55,191.53,209.53,190.48Z"/><path class="cls-12" d="M175.51,152.24c-.77-.26-2.23-.54-3-.81-.31-.11-.6-.21-.89-.33a53.15,53.15,0,0,0,3.34,11c.07-2.28.51-4.58.56-6.86C175.4,154.33,175.59,153.3,175.51,152.24Z"/><path class="cls-15" d="M199.08,185.93c-.27-2.54-.7-7.36-1.17-12.58-.06-.76-.13-1.52-.2-2.29q-3.17-.1-6.34-.15a.37.37,0,0,1-.37-.36c.17-4,.17-7.94.06-11.9l-2.88.23c-1.63.13-3.27.24-4.91.35a88.42,88.42,0,0,1-.36,11.39.4.4,0,0,1-.37.37,65.41,65.41,0,0,1-7.41.34.4.4,0,0,1-.2-.07c-.45,8.94-.91,18.4-1.21,23.21a1.07,1.07,0,0,0,.83,1.07l.15.05c.36.11.74.2,1.12.29a14.3,14.3,0,0,0,3.75.3,30,30,0,0,0,4.35-.76,2.1,2.1,0,0,0,1.54-2c.19-1.35.16-22.41.39-24.19.78,3.53.61,21,1.81,24.38a1.12,1.12,0,0,0,1,.81l1-.06a46.94,46.94,0,0,0,5.75-1l.48-.13a9,9,0,0,0,2-.84C200.25,191.07,199.3,188.08,199.08,185.93Z"/><path class="cls-14" d="M182.84,123.16l-.08,0h0Z"/><path class="cls-14" d="M188.27,126a9.26,9.26,0,0,1-3.39,1.27,5.46,5.46,0,0,1-2.57-.14,103.32,103.32,0,0,0-.1,20c.37,3.93.91,7.83,1.06,11.78v.32c1.64-.11,3.28-.22,4.91-.35l2.88-.23C190.74,147.72,189.54,136.82,188.27,126Z"/><path class="cls-14" d="M187.76,122.92l.2,0Z"/><path class="cls-11" d="M180,114.59a3.33,3.33,0,0,1,1.4-.89l.15,0c.78,1.11,3.34,1.93,3.4,2.65.09,1-.93,1.65-1.09,2.61a1.93,1.93,0,0,0,.75,1.93,1.78,1.78,0,0,0,.77.27l.26,0c.59.08.61.17,1,.55a1.84,1.84,0,0,0,.22.17,8.91,8.91,0,0,0,4.68-.94,3.08,3.08,0,0,0-.13-4.5c-.41-.39-.77-.46-.87-1a6.91,6.91,0,0,0-1.58-4.07,4,4,0,0,0-1.81-1.14,6.62,6.62,0,0,0-5.54.08c-1.42.72-3.59,2.8-2.9,4.62a.36.36,0,0,0,.24.25h0C179.48,115.21,179.65,115,180,114.59Z"/><path class="cls-12" d="M182.76,123.31c-.17,1.25-.32,2.51-.45,3.77a5.46,5.46,0,0,0,2.57.14,9.26,9.26,0,0,0,3.39-1.27l-.3-2.56a1.81,1.81,0,0,1,0-.42h0l-.2,0-.18,0c-.34-.07-.68-.14-1-.19a1.16,1.16,0,0,0-.65.08,18.82,18.82,0,0,0-2.91.36l-.15,0-.08,0A.56.56,0,0,1,182.76,123.31Z"/><polygon class="cls-12" points="203.62 166.21 200.74 166.39 196.56 151.1 202.45 149.31 203.62 166.21"/><path class="cls-12" d="M203.06,163.79l0,.8.76,2.16a8.53,8.53,0,0,1,.14,1.4.88.88,0,0,1-.46.79l-.85.21a.93.93,0,0,1-.59-.1l-.95-.52.88-.13c-.15-.21-.21-.33-.36-.54l-.56-.91L201,167l-.06.69a1.36,1.36,0,0,1-.22.62.5.5,0,0,1-.67.17l.26-.88s.08-1.1.08-1.14.14-1.71.14-1.71v-1.24Z"/><path class="cls-3" d="M188,123.39l.3,2.56c1.27,10.87,2.47,21.77,2.79,32.7.11,4,.11,7.93-.06,11.9a.37.37,0,0,0,.37.36q3.18,0,6.34.15h.56a.32.32,0,0,0,.31-.16.37.37,0,0,0,.14-.26,75.19,75.19,0,0,0-.81-18.23l.26,0a22.87,22.87,0,0,0,3.2-.61,7.74,7.74,0,0,0,.89-.3c1.21-.49,1.3-1.3,1.13-2.51a99.79,99.79,0,0,0-2.24-11.5c-.81-3.16-1.59-6.63-3.86-9.11a20.87,20.87,0,0,0-7.22-5.12,7.62,7.62,0,0,0-1.15-.45c-.13,0-.6-.24-.81-.11a.42.42,0,0,0-.15.3A1.81,1.81,0,0,0,188,123.39Z"/><path class="cls-3" d="M182.54,171a.4.4,0,0,0,.37-.37,88.42,88.42,0,0,0,.36-11.39v-.32c-.15-3.95-.69-7.85-1.06-11.78a103.32,103.32,0,0,1,.1-20c.13-1.26.28-2.52.45-3.77a.56.56,0,0,0,0-.13h0a.42.42,0,0,0-.45-.33.43.43,0,0,0-.19,0c-5,2.16-8,6.41-9.64,11.34-.92,2.72-.95,5.79-1.28,8.65-.19,1.57-.33,3.15-.44,4.72a8.21,8.21,0,0,0-.14,2.46.31.31,0,0,0,0,.45,3.12,3.12,0,0,0,1,.59c.29.12.58.22.89.33l2.3.8.38.13-.06,2.87c0,2.28-.1,4.57-.17,6.85-.09,2.92-.2,5.83-.34,8.75a.32.32,0,0,0,.22.34.26.26,0,0,0,.09.09.4.4,0,0,0,.2.07A65.41,65.41,0,0,0,182.54,171Z"/><polygon class="cls-14" points="201.68 169.05 202.03 168.4 201.49 167.71 200.84 168.52 201.68 169.05"/></g></svg>