<svg xmlns="http://www.w3.org/2000/svg" xmlns:xlink="http://www.w3.org/1999/xlink" viewBox="0 0 232.87 232.87"><defs><style>.cls-1,.cls-7{fill:none;}.cls-2{clip-path:url(#clip-path);}.cls-3{fill:#ff5a1f;}.cls-4{fill:#fb9b67;}.cls-5{fill:#e07f57;}.cls-6{fill:#2d2d3d;}.cls-7{stroke:#fff;stroke-miterlimit:10;stroke-width:1.43px;}.cls-8{fill:#fff;}</style><clipPath id="clip-path"><circle class="cls-1" cx="116.43" cy="116.43" r="105.1"/></clipPath></defs><g id="レイヤー_1" data-name="レイヤー 1"><g class="cls-2"><path class="cls-3" d="M199.58,169.41c-.33,2.86-1,8.82-1.7,13.37a104.6,104.6,0,0,0,23.65-66.35c0-1.48,0-3-.1-4.43a71.28,71.28,0,0,1-6.17,13.7C214.58,130.35,207.53,160.32,199.58,169.41Z"/><path class="cls-3" d="M197.56,70.1c.12,4.21.18,8.57.16,12,0,2.22-.06,3.65-.12,4.6,2.59,2.3,6.26,9,10.93,20.09,2,4.77,4.32,10.65,5.65,14.5,2.35-4.51,6.6-13.12,6.25-20a104.09,104.09,0,0,0-14.56-40,33.49,33.49,0,0,0-9.33-6.91C196.92,57.09,197.3,61.79,197.56,70.1Z"/><path class="cls-3" d="M196,89.39c-2.25.9-9.69,3.23-35.89,10.4.54,5.31-2,14.39-7.69,27.06-3.77,8.46-8.78,18-11.12,21.18l20.58,32.57c5.09-.93,28.13-5.49,35.13-12.91,7.59-8.06,14.88-39.45,15.23-42.46C211.62,122.36,201.1,94.8,196,89.39Z"/><path class="cls-3" d="M194.84,50.3A38.33,38.33,0,0,1,200,52.82c-12.32-16.14-32.51-31.28-48.7-35.52,3.58,2.3,6.5,4.43,7.37,5.07C169.68,26.55,192.09,47.58,194.84,50.3Z"/><path class="cls-3" d="M138.88,211.23c3.71,1.5,9.74,4,12.38,4.36A104.66,104.66,0,0,0,174.47,204,105.8,105.8,0,0,0,194,187.28c.36-1.16,1.28-7.87,2.13-14.89-9.82,6.72-29.64,10.52-34,11.28C159.27,189,144,205.78,138.88,211.23Z"/><path class="cls-3" d="M194.51,86.71c.4-4.7-.14-31.25-1.47-34.16-2.93-3.18-27.34-26.07-36.11-27.43-9.72-1.5-33,2.41-37.23,5.41.26,3.2-1.42,24.83-2,32.15,6.41,4.15,36.78,24.21,41.59,34.14C171.87,93.37,190.79,88.06,194.51,86.71Z"/><path class="cls-3" d="M87.12,209.13a4.53,4.53,0,0,0,1.5.75h0v0c8.51,2.82,42.21,1.41,46.75.54,2.91-3.07,21.7-23.67,24-28l-20.77-32.86c-5.66.87-21.94-.11-24-.25-10.21-.64-22.77-1.86-26.73-4.06C81.26,155.33,68.14,175,64.46,179,66.15,182.58,78.18,201.34,87.12,209.13Z"/><path class="cls-3" d="M156.72,98.64C153.94,91.06,127,72.41,116,65.22,101.38,72.77,77,92.25,76,95.68c-.23,4.61,9.56,43.64,13.15,46.82,3.85,3.39,45.12,5.19,49.39,4.05C141.42,143.26,160,107.51,156.72,98.64Z"/><path class="cls-3" d="M117.6,28.3c5-3.78,23.89-6.62,34.87-6.54-4.25-2.88-10.45-7-14.66-8.23a104.87,104.87,0,0,0-10.53-1.64,108.07,108.07,0,0,0-10.84-.55,105.68,105.68,0,0,0-22.51,2.43,49.44,49.44,0,0,0-8.6,4.94A167.09,167.09,0,0,1,102,22.77C111.1,25.45,115.48,27.16,117.6,28.3Z"/><path class="cls-3" d="M128.93,214.08c-2.91.17-8.85.48-16,.56-14.1.15-20.91-.69-24.33-1.58-1.82.44-5.44,1.28-8.91,1.83a105.07,105.07,0,0,0,66.51,2.34c-4-1.28-8.59-3.18-10.09-3.8A68.81,68.81,0,0,1,128.93,214.08Z"/><path class="cls-3" d="M73.83,93.41C75.77,90.5,81,85.79,89.3,79.35c7.33-5.66,17.71-13,25.32-16.91.87-10.89,2.12-28,2-31.2-3.61-2.36-30.66-10.37-35-9.75S46.51,44.05,43.76,46.61c-1.85,2.66-6.38,33.23-6.1,37.65,1.2.85,7.14,3.23,35,8.91Z"/><path class="cls-3" d="M41.83,44.36c4-3.83,31.32-22.26,38.9-25.52a16.29,16.29,0,0,1,1.84-1.9A105.4,105.4,0,0,0,38.2,46.34c1.52-.82,2.71-1.39,3.13-1.6C41.42,44.61,41.75,44.45,41.83,44.36Z"/><path class="cls-3" d="M18.61,119.1C17.39,129.35,29.89,160.8,31.5,164c3.16,2.07,27,12.57,30.81,12.91,2.46-2.54,15.35-21.68,23.44-34-5-8.8-12.07-40-12.75-46.53l-1-.2c-24.23-4.93-32.62-7.51-35.62-9.12C32.74,92,19.69,110,18.61,119.1Z"/><path class="cls-3" d="M61.5,179.85c-2.12-.39-6.45-1.82-16-5.92-.12-.05-9.84-4.25-14.29-6.61-.29,4-.63,9-.08,10.48a105.72,105.72,0,0,0,42.37,34.57c1.93.17,6.6-.6,10.89-1.52C75.86,203,63.49,184.55,61.5,179.85Z"/><path class="cls-3" d="M34.61,84.37C34.53,79.5,37.24,58.54,39.77,49A51.27,51.27,0,0,0,32,53.92,104.55,104.55,0,0,0,11.76,107c.53,3.42,2.48,7.08,4.16,9.7C18.57,105.72,32.17,87.56,34.61,84.37Z"/><path class="cls-3" d="M11.36,115c0,.47,0,.95,0,1.42A104.51,104.51,0,0,0,27.91,173c0-3.48.36-7.24.47-8.34h.05c-2.86-6.1-12.39-31.21-12.95-43.16A45,45,0,0,1,11.36,115Z"/><g class="cls-2"><path class="cls-4" d="M190.81,194.59c-1.06-13.65-5.62-25.64-16.53-29.87l-35-13.56H93.65l-35,13.56C47.73,169,43.18,181,42.12,194.66a101.36,101.36,0,0,0,148.69-.07Z"/><rect class="cls-4" x="92.77" y="117.41" width="48.4" height="35.6"/><polygon class="cls-5" points="92.77 152.09 141.17 135.21 141.17 117.41 92.77 117.41 92.77 152.09"/><polygon class="cls-5" points="92.77 128.59 110.51 145.91 128.4 139.67 141.17 127.34 141.17 117.41 92.77 117.41 92.77 128.59"/><path class="cls-4" d="M116.92,49.77c-16.34,0-30.31,13.24-30.31,29.59l3.23,35.9a17.76,17.76,0,0,0,7.09,14.19l9.33,8.91a14.31,14.31,0,0,0,8.58,2.87H119a14.26,14.26,0,0,0,8.58-2.87l9.34-8.91A17.76,17.76,0,0,0,144,115.26l3.23-35.9C147.23,63,133.26,49.77,116.92,49.77Z"/><path class="cls-4" d="M91.4,110.13l-.54-.12c-3.44-.76-6.18-4.19-6.73-8.41l-1-8c-.19-1.47.82-2.67,2-2.41l.37.08a5.92,5.92,0,0,1,4.15,5.2Z"/><path class="cls-4" d="M142.1,110.18l.54-.12c3.43-.77,6.16-4.21,6.7-8.43l1-8c.19-1.47-.82-2.67-2-2.4l-.36.09c-2.13.47-3.81,2.59-4.14,5.2Z"/><path class="cls-6" d="M143.93,63.52l-.17-.29C142.13,50,129.45,43.59,119.81,43.59S96.47,45.75,94.08,56.36c-10.77,2.7-10.66,12.37-8.22,31.41l0-.26c1.09,9.69,2.62,20.54,2.62,20.54h0c.44-34.38,6.06-37.34,8.06-37l8.64,1.49a65.8,65.8,0,0,0,22.31,0l8.64-1.49c2-.34,7.13-.49,8.06,37,0,0,2.64-17.08,3.35-27.52C148.44,72.51,148.3,65.22,143.93,63.52Z"/><path class="cls-6" d="M203,176.46a42.83,42.83,0,0,0-11.6-6.47c-15.06-5.56-32.85-12.32-37.28-13.55l-2.1-.56c-8.85,27.65-35.71,34.85-35.71,34.85s-28.32-9.45-35.5-34.85l-2,.53c-4.44,1.23-22.23,8-37.28,13.58a42.68,42.68,0,0,0-11.6,6.47c12.2,31.34,49.37,50.63,86.51,50.63S190.81,205.42,203,176.46Z"/><path class="cls-7" d="M151.54,161.24l39.41,14c7.2,2.57,13.67,8.23,13.67,8.23"/><path class="cls-7" d="M148.61,166.56l39.41,14c7.2,2.58,13.67,8.24,13.67,8.24"/><path class="cls-7" d="M81.5,161.24l-39.4,14c-7.2,2.57-13.67,8.23-13.67,8.23"/><path class="cls-7" d="M84.43,166.56,45,180.6c-7.2,2.58-13.67,8.24-13.67,8.24"/><path class="cls-8" d="M116.38,193.3l-.73-.29a71.62,71.62,0,0,1-24.12-15.45A47.88,47.88,0,0,1,78.8,156.41l4.14-1.12c3.73,13.9,16.25,26.35,33.56,33.43,26.32-9.29,33.16-32.46,33.44-33.45l4.13,1.17a53,53,0,0,1-9.28,17.21,58.4,58.4,0,0,1-27.66,19.4Z"/></g></g></g></svg>