<svg xmlns="http://www.w3.org/2000/svg" xmlns:xlink="http://www.w3.org/1999/xlink" viewBox="0 0 232.87 232.87"><defs><style>.cls-1{fill:none;}.cls-2{clip-path:url(#clip-path);}.cls-3{fill:#aee8ed;}.cls-4{clip-path:url(#clip-path-2);}.cls-5{opacity:0.83;}.cls-6{fill:#308521;}.cls-7{fill:#2d2d3d;}.cls-8{fill:#fb9b67;}.cls-9{fill:#e07f57;}.cls-10{fill:#ff5a1f;}.cls-11{fill:#fff;}</style><clipPath id="clip-path"><circle class="cls-1" cx="116.43" cy="116.43" r="105.1"/></clipPath><clipPath id="clip-path-2"><path class="cls-1" d="M221.53,116.43c-.08,56.81-47.05,105.1-105.1,105.1a105.1,105.1,0,1,1,105.1-105.1Z"/></clipPath></defs><g id="レイヤー_1" data-name="レイヤー 1"><g class="cls-2"><path class="cls-3" d="M221.48,114c-.87-37.35-22.28-72.42-55.21-90.1C129,3.87,82.45,8.51,49.69,35.29,10.5,67.32,0,125.24,25.49,169c24.07,41.38,74.23,61.52,120.18,48.31C191,204.29,222.48,161,221.48,114Z"/><g class="cls-4"><g class="cls-5"><path class="cls-6" d="M149,119.91h0l-.09,0Z"/><path class="cls-6" d="M238.88,88.06c-.12-.1.63.07.48,0a5.51,5.51,0,0,0-.87-.16,1.73,1.73,0,0,1-1.23-.74,6.24,6.24,0,0,0-1.64-1.43,14.87,14.87,0,0,1-1.31-1c-.44-.36-.81-.84-1.37-.92-.08,0-.19-.16-.29-.21s-.24-.2-.35-.22c-.58-.37-1.17-.73-1.75-1.11a3.47,3.47,0,0,0-.94-.44c-.82-.19-1.63-.4-2.45-.6l-1-.25c-.27-.06-.33,0-.37.28,0,.08,0,.17,0,.27l-.76-.37c-.56-.25-.62-.23-.84.18l-.34.67c-.43-.14-.83-.25-1.22-.41a3.66,3.66,0,0,0-1.4-.31l-1.28,0a.86.86,0,0,1-.78-.48,2.24,2.24,0,0,0,.05-.52,1.89,1.89,0,0,0-.53-1.19,3.29,3.29,0,0,0-1.11-.76,9.14,9.14,0,0,1-.87-.33,2.7,2.7,0,0,0-1.81-.25,2.85,2.85,0,0,1-.9.08l-.71-.87a1.26,1.26,0,0,0-.83-.42,1,1,0,0,1-.74-.7,5.19,5.19,0,0,0-.47-1.11,3.67,3.67,0,0,0-1.22-.44c-1.1-.12-.81,0-1.74-.72a1.82,1.82,0,0,0-.38-.24c-1-.31-2.08-.62-3.12-.91-.17,0-.26.07-.26.25s0,.26,0,.41c-.27,0-.54,0-.58.3a1.52,1.52,0,0,0,.1.83c.09.2.18.4.26.6s.12.32.17.47c-.54,0-1,0-1.52,0a1,1,0,0,1-.46-.17.8.8,0,0,0-1,0,1.35,1.35,0,0,0-.33.29.78.78,0,0,1-.59-.42c-.16-.23-.32-.47-.5-.7s-.43-.18-.48,0,0,.21,0,.32c0,.41-.06.82-.1,1.22s-.05.6-.37.73c-.5-.68-.89-1.43-1.3-2.11,0-.09,0-.12,0-.14a6.18,6.18,0,0,0,.12-.62,2.54,2.54,0,0,0,0-.73c-.27-1.37-.06-.91-1-2a3,3,0,0,0-1-.8,10.47,10.47,0,0,1-1.3-.73,3.63,3.63,0,0,0-2-.58c-.32,0-.41.1-.34.5s.21.88.31,1.32a.53.53,0,0,1-.61.09l-1.8-.74c0-.29-.07-.55-.11-.81s-.2-.47-.44-.49a3.76,3.76,0,0,1-1.53-.47.55.55,0,0,0-.57,0c-.24.13-.48.23-.76.37l-.5-.88a1.17,1.17,0,0,1-.16-.78,3.06,3.06,0,0,0,.05-.32.56.56,0,0,0-.4-.63c-.12-.06-.25-.08-.38-.15s-.26,0-.33-.29c.15-.23.3-.47.46-.7.57-.86.59-.85.27-2.13a6.28,6.28,0,0,0-1.43-2.87,3.39,3.39,0,0,0-1.65-1.11c-.5-.1-1-.22-1.49-.33a.88.88,0,0,1-.22-.1c-.05-.18-.09-.36-.14-.55-.54-.49-1.09-.27-1.65-.71.05-.37.51-.37.41-.94a18.84,18.84,0,0,0-1.82-1.61c-.09.08-.17.11-.21.19-.43.77-.85,1.56-1.28,2.34a1,1,0,0,0-.05.66,1.61,1.61,0,0,1,.06.89c-.11,0-.23,0-.35,0-.83-.06-.83-.06-.59,1a.8.8,0,0,1-.7.26c0-.16-.07-.31-.11-.45-.1-.32-.25-.44-.47-.35a4.71,4.71,0,0,0-.69.31,1.51,1.51,0,0,1-1.15.23.52.52,0,0,0-.68.37,1.87,1.87,0,0,1-1.2,1.15,3.62,3.62,0,0,0-1.3.69,7.06,7.06,0,0,0-.81,1.38,2.74,2.74,0,0,0,0,2.63.8.8,0,0,1,0,.29l-.34.1c-1.06.22-2.13.46-3.2.67-.33.07-.5.26-.34.75.21.67.4,1.35.57,2a1.52,1.52,0,0,0,.73,1.11,1.12,1.12,0,0,1,.53.93c-.31,0-.44-.33-.61-.52a2.57,2.57,0,0,0-1.72-1.1c-.18-.24-.32-.44-.48-.63s-.35-.19-.47,0-.29.5-.44.74c0,0-.09,0-.1-.07a4.47,4.47,0,0,1-.25-.6,2.94,2.94,0,0,0-.79-1.37c-.19-.18-.35-.49-.61-.36s-.17.38-.21.61a.79.79,0,0,0,.22.69,1.52,1.52,0,0,1,.38,1.21c0,.18,0,.36-.05.52-.21.18-.45.3-.57.53a4.13,4.13,0,0,0-.21.84,1.62,1.62,0,0,1-.23.36,4.25,4.25,0,0,1-.05-.59c.05-.38.13-.76.16-1.15s0-.67,0-1a1.1,1.1,0,0,0-.63-1.12,2,2,0,0,1-.32-.26,2.21,2.21,0,0,0-.4-1.61c-.07-.09-.2-.21-.27-.18a4.33,4.33,0,0,0-.87.36c-.21.12-.2.44-.24.7-.16,1.06-.34,2.12-.5,3.19a2.12,2.12,0,0,1-.61,1.33,1.77,1.77,0,0,0-.13,2.08,1.86,1.86,0,0,1,.24,1.25c-.06.38-.07.78-.11,1.18a5.25,5.25,0,0,1,.41.42,1.87,1.87,0,0,1,.43,1.54.49.49,0,0,0-.24-.46,7.8,7.8,0,0,0-.71-.46,8,8,0,0,1-2-1.37,1.54,1.54,0,0,0-.73-.37,2.07,2.07,0,0,1-.79-.44,3.56,3.56,0,0,1-.92-1c-.08-.13-.18-.25-.27-.37-.23-.28-.41-.29-.59,0l-.09.14c-.45.84-.5.88.25,1.58a4.23,4.23,0,0,1,1.21,1.81,1.59,1.59,0,0,1,0,.22l-.36.21c-.07-.06-.12-.08-.16-.12-.33-.38-.35-.39-.65-.18s-.47.34-.69.52a1,1,0,0,1-.79.27,2.66,2.66,0,0,0-.69,0,4.37,4.37,0,0,0-.66.2c0-.2-.05-.36-.05-.51,0-.77-.35-.84-.79-.5-1.09.83-2.21,1.64-3.32,2.47a2,2,0,0,0-.24.25V81.8c-.21.18-.35.45-.75.4a2.17,2.17,0,0,0-.7-1.13c.21-.49.73-.22.93-.62,0-.06,0-.13,0-.18-.24-.53-.49-1.07-.75-1.6a.46.46,0,0,0-.26-.2c-.54-.15-1.08-.3-1.61-.43a.24.24,0,0,0-.32.18,1,1,0,0,0,.07.44,1,1,0,0,0,.18.31,1.73,1.73,0,0,1,.36,1.32c0,.5,0,1,0,1.51l.38.42a.8.8,0,0,1,.14.7c0,.24-.22.38-.41.29s-.39-.2-.59-.29c-.45-.22-.45-.21-.82.31h-.06l.06,0c0-.06-.08-.13-.06-.17a5.17,5.17,0,0,0,0-1.88,1.81,1.81,0,0,0-.56-1.23c-.73-.72-1.43-1.48-2.13-2.23a3.55,3.55,0,0,0-1.38-.93l-1.13-.4a1.37,1.37,0,0,1-.2-.13l-.17-.71c-.49-.49-1-.74-1.5-.31-.11.08-.3,0-.4-.22.13-.2.28-.4.42-.61a.46.46,0,0,0-.1-.72c-.73-.57-1.47-1.12-2.21-1.68,0,0-.09,0-.19,0l-.38.58h-.63c0-.15,0-.27-.06-.39-.11-.49-.31-.58-.6-.26s-.49.6-.72.88c-.57-.29-.57-.3-.91.1a5.66,5.66,0,0,0-.43.54,1.89,1.89,0,0,1-1.76.91A.66.66,0,0,0,124,75a2.5,2.5,0,0,1-1.21,1.48c-.44.32-.84.7-1.27,1a1.23,1.23,0,0,0-.36.46,1.93,1.93,0,0,0,0,.63,2.5,2.5,0,0,0-1,1.14c-.06.15-.11.33,0,.44a.57.57,0,0,0,.36.09c.09,0,.18-.1.27-.17s.31-.23.48-.32a1,1,0,0,1,.34,0c-.16.4-.27.72-.41,1a22.93,22.93,0,0,0-1.3,3.57,3.15,3.15,0,0,1-.67,1.37,2.88,2.88,0,0,0-.38.72c-.23.53-.46,1.06-.67,1.57-.54,0-.54,0-.75.44a6.19,6.19,0,0,0-.28.58.9.9,0,0,1-.57.6,1,1,0,0,0-.52.41c-.33.45-.67.89-1,1.35a1,1,0,0,0-.25.48A5.36,5.36,0,0,0,115,95c-.24.79-.24.79.3,1.72a.61.61,0,0,1,0,.19.58.58,0,0,0,.18.74,4,4,0,0,0,1.28.74.65.65,0,0,0,.72-.22c.3-.32.61-.62.9-.94a.62.62,0,0,1,.79-.17c.15.64.31,1.31.48,2a3.67,3.67,0,0,0,.57,1.54c-.35.35-.35.35-.69.38,0-.25,0-.58-.11-.73-.26-.32-.17-.64-.15-1a3.75,3.75,0,0,0,0-.58.3.3,0,0,0-.42-.28c-.31.16-.61.37-.93.53a2,2,0,0,0-1,1.89V102a1.58,1.58,0,0,1,.6,1.23.84.84,0,0,0-.13.94l-.81-.14-.34.58-.87.08c-.18.21-.19.54-.48.63-.12,0-.22.27-.3.43a6.07,6.07,0,0,0-.38,1,1.6,1.6,0,0,1-1.35,1.17l-.22-.4.59-1a2.81,2.81,0,0,0-.73-1.14,1.87,1.87,0,0,1-.7-1.2,2.61,2.61,0,0,0-.29-.88,5.06,5.06,0,0,1-.66-1.41c-.18-.5-.42-.88-.92-.89a2.93,2.93,0,0,1,.44-1c.09-.19.22-.36.3-.56a.76.76,0,0,0-.52-1.1l-.52,0c.23-.34.4-.63.22-1-.08-.17.06-.28.13-.41a.38.38,0,0,0,0-.51,3.29,3.29,0,0,0-.59-.47c-.16-.1-.39.14-.35.36a4.45,4.45,0,0,0,.18.56,2.16,2.16,0,0,1-.4.06.82.82,0,0,0-1,.69s-.09,0-.14.07,0,.12,0,.18a.86.86,0,0,0,0-.16.54.54,0,0,0,0-.1c0-.22.07-.45-.15-.57s-.31,0-.43.14a2.18,2.18,0,0,0-.64,1.73l1,1.07c-.22.41-.05.87-.25,1.28s-.15.36.14.6c.09.08.19.12.09.28l-.7-.11a1.1,1.1,0,0,0-1.2.73c-.09.19-.18.39-.26.59-.68.26-.74.36-.75,1.21v.45l.4.68c-.06.37-.15.65-.45.78a.36.36,0,0,0-.13.49,2.45,2.45,0,0,0,.74,1.21c.86-.36,1.71-.7,2.51-1.13a5.44,5.44,0,0,0,.19-2.5c.21-.36.37-.64.54-1l.61-.09c.15.24.3.46.43.7a.34.34,0,0,1-.21.5c-.25,0-.54-.08-.75.18s-.11.56-.2.81,0,.51.19.73a2,2,0,0,1-.19.21,2.39,2.39,0,0,0-.26.21.47.47,0,0,0,0,.66,6.37,6.37,0,0,0,.66.4c-.28.39-.56.77-.83,1.17s-.22.56.15.83a1.64,1.64,0,0,0,.33.16.63.63,0,0,0,.18-.11c.19-.23.34-.48.68-.34.16.07.27-.13.37-.29s.35-.23.55-.07l.2.17c-.3.51-.06,1,0,1.43,0,0,0,.09-.09.17l-.45-.49a5.46,5.46,0,0,0-1.52.87c0,.19,0,.35,0,.51s0,.37.08.58c.42.17.82.34,1.23.49a1,1,0,0,1,.56.51,3.54,3.54,0,0,0,.26.47,1.8,1.8,0,0,1,.32,1.6,11.94,11.94,0,0,0-.18,1.22.58.58,0,0,1-.39.54l-.77-.29a1.4,1.4,0,0,1-1.45.22,17.05,17.05,0,0,0-1.71-.42c-.2.23-.34.51-.54.61a.92.92,0,0,0-.46,1.29,5.43,5.43,0,0,1,.09.56,4.11,4.11,0,0,1,0,1.71q-.12.66-.18,1.32a.85.85,0,0,0,.08.54,1.52,1.52,0,0,1,.22,1c0,.22,0,.45,0,.67s.24.51.51.44.61-.19.92-.28a2.56,2.56,0,0,1,.61.91c-.17.48-.35.94-.51,1.41a1.26,1.26,0,0,1-.58.74,1.72,1.72,0,0,0-.67.48A9.19,9.19,0,0,0,104.5,130a4.56,4.56,0,0,0,.19.77,1.29,1.29,0,0,1-.17,1.25c-.48.69-1,1.25-1.9,1a.92.92,0,0,1,0-.09l.09-.55a.46.46,0,0,0-.11-.43.28.28,0,0,0-.43.08,2.8,2.8,0,0,0-.53,1.47l.57.29c-.16.62-.15.64-.42.89a1.18,1.18,0,0,0-.4.67,5.16,5.16,0,0,1-.84,1.91c-.2.33-.41.66-.59,1a1.58,1.58,0,0,0-.16.61,1.88,1.88,0,0,0,.3,1.44.38.38,0,0,1,.09.25,2.52,2.52,0,0,0,.27,1.46.52.52,0,0,1,0,.28c0,.51-.06,1-.08,1.53a.9.9,0,0,1-.22.58c-.11.13-.21.27-.32.42a.54.54,0,0,0,0,.61,2.58,2.58,0,0,1,.28,1.37,5.86,5.86,0,0,0,.06.63.7.7,0,0,0,.09.09l.7.45c-.09.5.25.75.52,1.05s.57.59.83.92a1.8,1.8,0,0,1,.39.7,1.86,1.86,0,0,0,.63,1.07c.3.27.61.51.92.77l1.5,1.25c.59.47,1.18.67,1.81.15a1.32,1.32,0,0,1,.63-.3,2.91,2.91,0,0,1,2,.13.84.84,0,0,0,.9-.07c.37-.22.77-.36,1.14-.6a3.37,3.37,0,0,1,2.12-.4c.35,0,.58.23.71.63.06.18.11.36.18.53.15.38.39.58.75.52s.67-.09,1-.12a.68.68,0,0,1,.2.07c.06.3.12.56.18.86l.69-.07c-.06.37-.12.67-.17,1a2.14,2.14,0,0,0-.06.74,1.21,1.21,0,0,1-.15,1c-.1.19-.18.39-.27.59q.11.24.18.45a14.7,14.7,0,0,0,1.63,2.88,6,6,0,0,1,.52.93c.22.54.4,1.1.6,1.65a.76.76,0,0,1,0,.72.7.7,0,0,0,0,.63c.15.43.31.86.47,1.28a1.9,1.9,0,0,1-.57,1.33,1.15,1.15,0,0,0-.29.55c-.18.63-.37,1.26-.51,1.91a4.49,4.49,0,0,0,.15,2.69c.37.9.68,1.84,1,2.74a3.91,3.91,0,0,1,.28,1.46,7.05,7.05,0,0,0,.11,1c.11.62.25,1.23.34,1.86a4.48,4.48,0,0,0,.57,1.61,19.61,19.61,0,0,1,1.36,3.66c-.1.3-.31.44-.26.74a7.12,7.12,0,0,0,.34,1.57c.22.17.47,0,.63.26s.52.36.84.19a4,4,0,0,0,.54-.28A1.91,1.91,0,0,1,127,188a1.45,1.45,0,0,0,1.19-.16c.17-.11.37-.15.55-.25a4.34,4.34,0,0,0,1.77-1.74c.43-.81.9-1.59,1.35-2.39a1.82,1.82,0,0,1,.72-.84.88.88,0,0,0,.43-.75c.09-.79.2-1.57.31-2.42.23-.15.49-.36.77-.52a2.59,2.59,0,0,0,.73-.71,1.39,1.39,0,0,0,.3-.87,5.93,5.93,0,0,0-.13-1.58,8.82,8.82,0,0,1-.29-1.48c.5-.57,1-1.15,1.51-1.71a1.17,1.17,0,0,1,.47-.31,2.39,2.39,0,0,0,1.2-1,5.6,5.6,0,0,1,.48-.66,1.52,1.52,0,0,0,.36-1c0-1,0-2.09.06-3.14a1.67,1.67,0,0,0-.24-.94,1.85,1.85,0,0,1-.22-1.58,1.23,1.23,0,0,0-.18-1.21,2.64,2.64,0,0,1-.29-.49c.33-.73.66-1.47,1-2.21a1.88,1.88,0,0,1,.14-.24c.47-.63,1-1.24,1.41-1.89a5.77,5.77,0,0,1,1.26-1.34,13.26,13.26,0,0,0,2.42-2.43,9.42,9.42,0,0,0,1.62-2.89c.24-.72.54-1.41.83-2.11a6.32,6.32,0,0,0,.37-1.67c0-.28-.13-.49-.37-.45a2.48,2.48,0,0,0-.68.23,5.29,5.29,0,0,1-.8.44c-.93.24-1.87.43-2.8.64a.49.49,0,0,1-.48-.21c-.24-.27-.16-.56,0-.9a3.21,3.21,0,0,0,1.17-.5.49.49,0,0,1,.38-.08,1.58,1.58,0,0,0,1-.38,9.1,9.1,0,0,1,2.77-1.49c.46-.14.46-.18.73-.85l1.2-.43a1,1,0,0,0,.62-.42,1.75,1.75,0,0,1,.63-.58,4.54,4.54,0,0,0,.63-.73c.24-.28.64-.13.86-.58,0-.22,0-.5-.06-.76a.76.76,0,0,1,.09-.18c.17-.2.35-.4.52-.61a3,3,0,0,0,.42-.59c.46-1,.41-.83.05-1.61a1.21,1.21,0,0,0-.82-.76,1.83,1.83,0,0,1-.45-.15,2.13,2.13,0,0,1-.45-.34.3.3,0,0,1,0-.43,3.38,3.38,0,0,1,.45,0c.71.08,1.42.19,2.13.25a7.5,7.5,0,0,0,1.34,0,2.22,2.22,0,0,1,1.25,0,1.74,1.74,0,0,0,.71,0l.56-.07a2.6,2.6,0,0,0,1.42,1.92c0,.66,0,.66.3,1.06.17.22.36.42.53.65a.71.71,0,0,0,.68.32c.16,0,.32,0,.48,0a3.49,3.49,0,0,0,.43-.07,19.76,19.76,0,0,0,.51,3.86c.45,1.83,1,3.61,1.42,5.42a1.67,1.67,0,0,0,.6,1c.39.3.45.31.88-.11.24-.23.46-.44.76-.41a11.52,11.52,0,0,0,.3,2.47,2.68,2.68,0,0,0,1.51-.57c.07-.24.14-.45.2-.66a1.32,1.32,0,0,0-.11-1.12,5.48,5.48,0,0,0-1.05-1.6,4.49,4.49,0,0,1,.31-2,1.82,1.82,0,0,0,.13-1,5.35,5.35,0,0,1,0-.8c.4-.17.43-.21.73-.68a.59.59,0,0,1,.24-.23,1,1,0,0,0,.52-.58,1.25,1.25,0,0,1,.31-.44c.62-.59,1.23-1.21,1.89-1.73a3.33,3.33,0,0,0,1.18-1.43,2.65,2.65,0,0,1,.36-.51.68.68,0,0,0,.77.15c.28-.11.58-.15.86-.27s.52-.29.78-.44a4.88,4.88,0,0,0,.43,1.05,4.17,4.17,0,0,0,.85.71,3.55,3.55,0,0,0,.32,1.27,1.41,1.41,0,0,1,0,1.38,2,2,0,0,0-.11.26c-.11.34-.06.52.23.63s.67.24.95.33c.48-.22.69-.77,1.15-1a3.18,3.18,0,0,1,.11.33c.13.66.24,1.33.38,2a2.93,2.93,0,0,1,0,1.25c-.14.69-.28,1.39-.43,2.09a2.23,2.23,0,0,0,0,1,2,2,0,0,1,1.09,2,7.61,7.61,0,0,0,.1,1l.12.74-.89-1.12c-.87-1.08-.53-.92-2-1-.22,0-.49-.12-.65.21a1,1,0,0,0,.08.92.84.84,0,0,0,.33.32,2.41,2.41,0,0,1,1,1.74,2.66,2.66,0,0,0-.43.15.4.4,0,0,0-.17.47,4.47,4.47,0,0,0,.51.68s.2,0,.28,0a.44.44,0,0,0,.17-.3c0-.25,0-.5,0-.76.3,0,.3.25.31.43a2.89,2.89,0,0,0,.38,1.16h0v0h-.07c-.56,0-.7.23-.6.82a1,1,0,0,0,.1.3.32.32,0,0,0,.46.09.45.45,0,0,0,.24-.44v-.6h0s0,0,0,0c.27.12.32.46.44.72a5.94,5.94,0,0,0,.62,1.37,6.72,6.72,0,0,0,2,1.91c-.18.65-.18.66.26.84a7.4,7.4,0,0,0,2.56.67,22.87,22.87,0,0,0,3.52.21.4.4,0,0,1,.29.05c.34.27.79.13,1.22,0l.67-.16a1.73,1.73,0,0,0,.77.83c.31.2.61,0,.85-.24s.12-.48,0-.68c0,0,0,0,0-.07l1.9-.56c-.17.23-.29.4-.41.58a3,3,0,0,0-.3.48c-.09.17,0,.34.07.35a1.35,1.35,0,0,0,1.12-.22l2-1.56a.86.86,0,0,0,.14-.13c.13-.14.18-.44,0-.45-.35,0-.25-.52-.55-.63l-1,.66a3.29,3.29,0,0,0-1.79.25.73.73,0,0,1-.86.16.8.8,0,0,0-.81.06.72.72,0,0,1-.86.09,3.71,3.71,0,0,0-.47-.16.84.84,0,0,0-.57.07c-.63.22-1.05.32-1.53-.07-.29-.24-.56-.59-1.06-.44-.06,0-.14,0-.18-.1-.31-.39-.82-.33-1.26-.45a.45.45,0,0,0-.36.12.73.73,0,0,1-.87.22l-1.74-.64a4.46,4.46,0,0,1,.68-1.52,2.42,2.42,0,0,0,.28.22c.38.17.69,0,.92-.5.12-.27.1-.48-.13-.56s-.56-.12-.86-.19c-.1-.18-.21-.38-.34-.57s-.12-.08-.2-.13l-.29.15-.29.14a1.32,1.32,0,0,0-.59-.8,2.3,2.3,0,0,1,.12-.85.9.9,0,0,0,.09-.91,1.81,1.81,0,0,1-.16-1.09,2.27,2.27,0,0,0-.55-2.25c-.08-.1-.13-.23-.22-.33a1.52,1.52,0,0,0-.43-.41,1.05,1.05,0,0,1-.53-.76c-.09-.37-.13-.8-.48-1a.55.55,0,0,1-.08-.4,3.45,3.45,0,0,1,.2-.62c.18-.42.37-.85.56-1.31.2.1.34.35.63.32.12,0,.26.14.34.27a3.43,3.43,0,0,0,1.39,1.41s.06.09.12.2-.06.48-.08.75.15.4.34.31c.59-.31,1.27-.51,1.5-1.32a19.07,19.07,0,0,0,1.8-1.15,16.93,16.93,0,0,0,.25-2.53,2.23,2.23,0,0,0-.47-1.57,12.53,12.53,0,0,1-.88-1.24l-.57-.8a1.91,1.91,0,0,1,.87-1.42,1.6,1.6,0,0,1,1.34-.4.51.51,0,0,1-.16.59c-.23.23-.52.38-.65.73a1.2,1.2,0,0,0,.87,1.33,2.5,2.5,0,0,0,1.27-1.41,1.77,1.77,0,0,0,.16-.68c0-.16-.24-.25-.36-.38s0-.06,0-.15a1.08,1.08,0,0,1,.24-.14,6.73,6.73,0,0,1,1-.35c.37-.08.66-.51,1.06-.41a2.83,2.83,0,0,1,1.45-.55,1.25,1.25,0,0,0,.78-.46,5.66,5.66,0,0,1,.87-.89,2.37,2.37,0,0,0,.73-.87,14.93,14.93,0,0,1,1.22-2c.11-.13.22-.34.35-.37.41-.11.48-.45.56-.8a5,5,0,0,1,.22-.78c.15-.42.07-.69-.3-.82a1.36,1.36,0,0,0,0-1.68,2.63,2.63,0,0,1-.53-1.31,1.24,1.24,0,0,0-.6-1c-.06,0-.09-.12-.15-.21.18-.31.37-.61.54-.91a1,1,0,0,1,1.1-.57,1.94,1.94,0,0,0,.4,0,7,7,0,0,0,.24-.79.32.32,0,0,0-.23-.39c-.23,0-.48-.07-.71-.12a1.66,1.66,0,0,0-1.39.25.93.93,0,0,1-.32.09c-.19-.26-.37-.51-.53-.77a1.39,1.39,0,0,1-.09-.42l.75-.13c.23-.31.31-.7.62-.94.48-.36.46-.39.86-.5,0,.06,0,.13,0,.17-.33.43-.29,1-.48,1.49a.37.37,0,0,0,.08.3.33.33,0,0,0,.29.06,1.25,1.25,0,0,0,.35-.21c.32-.23.63-.47.94-.71a.72.72,0,0,1,1.09.11c-.1.26-.2.5-.28.75s-.11.52.2.74a7.67,7.67,0,0,0,.71.4c0,.28.08.56.11.84a1.68,1.68,0,0,1,.07.58,4,4,0,0,0,.05,1.3c0,.37.26.49.57.33.52-.27,1-.57,1.53-.87a.84.84,0,0,0,.32-.38,3.3,3.3,0,0,0-.11-2.53,13.43,13.43,0,0,0-.77-1.19c-.08-.11-.14-.23-.23-.37A4.32,4.32,0,0,1,201,121l.87-.64c.16-.12.33-.25.33-.47a1.56,1.56,0,0,1,.56-1c.26-.29.43-.67.81-.84a5.39,5.39,0,0,0,.54.38.49.49,0,0,0,.38.06,3.75,3.75,0,0,0,1.84-1.32c.89-1.47,1.82-2.91,2.74-4.32a3.23,3.23,0,0,0,.53-1.56c0-.29,0-.57,0-.86s0-.63,0-.94a1.06,1.06,0,0,1,.24-.69,1.91,1.91,0,0,1,.13.29,6.94,6.94,0,0,1,.08.77c0,.74,0,1.49.15,2.23a2.67,2.67,0,0,1,0,1.09,2.83,2.83,0,0,0,0,1.75c-.1.27-.39.45-.3.78a2.88,2.88,0,0,1-.17,1.53c-.53,0-.7.57-1.07.8a2.94,2.94,0,0,0,.39,1.82,5.61,5.61,0,0,1-1.54,3.28c-.33-.11-.65-.31-1,0l-.6,1.36-1.54.35a2,2,0,0,0-1,.55c-.39.37-.82.69-1.23,1l-.38.35a1,1,0,0,0-.29,1,1.7,1.7,0,0,0,.36.51c0,.22-.06.46-.08.69a.44.44,0,0,0,.23.49l.33.14c1-.5.91-.6,1.1-1.25a2.59,2.59,0,0,1,.17-.38c.56,0,.56,0,1-.61a.55.55,0,0,0,.76-.25c0-.07.12-.1.19-.15l.56.26c.46-.17.69-.61,1-1a7.09,7.09,0,0,0,1-.07c1.12-.21,1.63-.58,1.75-1.8,0-.34.08-.68.12-1a1.2,1.2,0,0,1,.27-.61,1.88,1.88,0,0,0,.53-1.4,8.84,8.84,0,0,0-.39-2.16,2.05,2.05,0,0,1,0-.57c.49,0,.73.43,1.2.45a4.55,4.55,0,0,0,.4-.45,1.2,1.2,0,0,1,.77-.57,2.71,2.71,0,0,0,.74-.33.35.35,0,0,0,.15-.5,1.2,1.2,0,0,1-.09-.25c.13-.1.25-.27.39-.29a1.53,1.53,0,0,0,.81-.5l.49-.45a2.28,2.28,0,0,1,.67-.41,3.43,3.43,0,0,0,.87-.68.36.36,0,0,0,0-.3c-.05-.07-.19-.16-.26-.13a2.61,2.61,0,0,0-.48.28c-.2.13-.39.35-.6.38a1.77,1.77,0,0,0-1.28.89c-.1.14-.21.26-.31.38-.43.15-.91,0-1.31.3-.17.13-.43,0-.58-.16-.31-.35-.61-.72-.9-1.1a.3.3,0,0,1,0-.39.29.29,0,0,1,.35-.11c.47.14.57,0,.57-.43a1.45,1.45,0,0,0-.2-.82,4,4,0,0,1-.37-.67,1.26,1.26,0,0,1-.09-.57,1.31,1.31,0,0,1,.21-.7c.19-.24.43,0,.65.08s.47-.09.41-.41-.17-.66-.27-1A29.47,29.47,0,0,1,211,105.9c0-.31-.11-.62-.17-1a2.51,2.51,0,0,0-.52-.14c-.26,0-.36.14-.36.42a2,2,0,0,1,0,.42c0,.09-.12.15-.2.25a5.54,5.54,0,0,1-.89-.85.88.88,0,0,0-1.1-.23c-.11,0-.2.13-.37.22-.05-.21-.13-.36-.09-.45s.21-.25.26-.39a1.91,1.91,0,0,0,0-.5l-.51-.1a.48.48,0,0,0-.6.37c-.08.27-.31.17-.51.08.43-.46.88-.89,1.29-1.36s.65-.84,1-1.25c.55-.73,1.11-1.45,1.65-2.18a1,1,0,0,1,.92-.44c.45,0,.9,0,1.34.07a.59.59,0,0,0,.38,0,1,1,0,0,1,1,0,1.22,1.22,0,0,0,.88.1c.07-.17.15-.36.23-.57.16,0,.29.08.41.13s.35.16.51.24a1.14,1.14,0,0,1,.07.19c.18.63.25.7.76.58a5.94,5.94,0,0,1,2.15-.25.43.43,0,0,0,.23,0A.34.34,0,0,0,219,99a.44.44,0,0,0-.1-.3,3.46,3.46,0,0,0-.51-.39.9.9,0,0,1,.23-.7,14.26,14.26,0,0,0,.85-1.33,1.41,1.41,0,0,1,1.18-.66,1.14,1.14,0,0,1,.44.12c.19.46.31.84.49,1.2.26.53.48.58.83.21s.42-.48.63-.71a3.89,3.89,0,0,1,.43-.39.25.25,0,0,1,.36,0c.1.35,0,.61-.3.67a2,2,0,0,0-1.27,1.15c-.32.57-.7,1.1-1,1.67a1.61,1.61,0,0,1-1.18,1,.37.37,0,0,0-.15,0c-.19.09-.23.21-.15.47l.15.35c-.08.1-.11.18-.17.21a1.15,1.15,0,0,0-.52,1,6.82,6.82,0,0,0,.19,3,3.77,3.77,0,0,1,.14.58c.21,1,.42,2,.62,2.94l-.7.68a.69.69,0,0,0-.19.67.54.54,0,0,0,.21.34.45.45,0,0,0,.35-.07,1.24,1.24,0,0,0,.5-.86c.17-.08.35-.1.45-.2a3,3,0,0,0,1.08-1.53c0-.16.11-.3.15-.46.09-.33.24-.56.64-.57s.33-.14.34-.43-.11-.67.07-1c.22,0,.45-.09.67-.15a2.28,2.28,0,0,0,.44-.15c.27-.13.31-.25.21-.59s-.2-.52-.28-.79a2.41,2.41,0,0,1-.07-.43,1.2,1.2,0,0,1,.26,0c.42.13.55.08.64-.27a1.63,1.63,0,0,0-.06-1l-.45-.38c.06-.11.09-.18.13-.24.36-.53.35-.58-.26-1l-.4-.26c.11-.1.17-.23.23-.22a1.55,1.55,0,0,0,1.31-.55c-.23-.75-.23-.75-.92-.74,0-.16,0-.3.05-.49.49.19.92.25,1.25-.09l.17.26q.36.42.57.06c.06-.11.09-.24.15-.35.34-.64,1.08-.69,1.71-.12a1.37,1.37,0,0,0,.67.46c.06-.09.2-.19.21-.32a1.05,1.05,0,0,1,.53-.83c.68-.5,1.35-1,2-1.52a3.74,3.74,0,0,1,1.29-.61,1.2,1.2,0,0,1,1.08.17c.2.14.33-.28.54-.29-.13-.79.08-1.21-.06-2a7.15,7.15,0,0,1-.89-1.06c.07-.18.16-.3.38-.26s.48-.86.86-.89l.28-.56.87.53.39-.16a.41.41,0,0,1,.52.27c.07.18.12.36.19.56.76.41,1.5.81,2.25,1.19.31.16.44.11.54-.15a2.35,2.35,0,0,0,.17-1.57c.37,0-1.12-.86-.92-1.1s0-.45.07-.85C238.8,88.65,239.51,88.63,238.88,88.06Zm-131,14.56s0,0,0-.05v.05Zm27.58-19.27c.63.25,1.25.49,1.87.77a.86.86,0,0,0,.89,0,6.71,6.71,0,0,1,.84-.44,1,1,0,0,1,.34,0l-1,1.22c.1.36.19.71.28,1.05-.14.14-.26,0-.38,0l-1.11-.53c-.43-.2-.51-.15-.73.34-.05.11-.09.23-.14.34a.72.72,0,0,0,.06.71l.42.68c-.09,0-.2,0-.26,0-.28-.23-.55-.5-.83-.76a8.93,8.93,0,0,1-.1-1.71,2.49,2.49,0,0,0-.43-1.63A1.8,1.8,0,0,1,135.47,83.35Zm1.65,4.47-.06,0a1.21,1.21,0,0,1-.2-.09,1,1,0,0,1,.18-.06S137.09,87.78,137.12,87.82ZM120.46,102.7a.66.66,0,0,1,.56-.3c.18,0,.36,0,.51-.06.3-.29.07-.85.44-1a5.67,5.67,0,0,1,.83-.24,2.8,2.8,0,0,0,.3-1.07c.14-.65.25-1.31.36-2a1.54,1.54,0,0,1,.53-1c.11-.09.21-.19.31-.29a.69.69,0,0,0,.24-.57.58.58,0,0,1,.07-.36c.47-.48.23-.91-.08-1.3a3.7,3.7,0,0,1-.7-2.44,3.3,3.3,0,0,1,.78-2.19c.31-.39.66-.72,1-1.07A8.75,8.75,0,0,0,126.87,87a1.14,1.14,0,0,0-.12-.34.64.64,0,0,1-.14-.59,3.05,3.05,0,0,0,0-.74c.12-.17.21-.32.32-.45a1,1,0,0,1,1.49,0,.86.86,0,0,1,.08,1.09c-.75,1.17-1.48,2.34-2.23,3.52-.09.15-.14.33-.22.5a1.58,1.58,0,0,0-.08,1.36,1,1,0,0,1,.06.18,2.74,2.74,0,0,1,0,2,2,2,0,0,0,0,.39,10.12,10.12,0,0,0,1.67,1.53c.69-.27,1.39-.56,2.09-.81a4.75,4.75,0,0,1,.92-.22c.25,0,.46.09.6.43a.94.94,0,0,1-1.08.62,3.13,3.13,0,0,0-1.18-.07,2.34,2.34,0,0,0-1.53.65c-.15.17-.77,1-.89,1.2a.75.75,0,0,0,.1,1c-.11.22-.23.42-.33.63a3.58,3.58,0,0,0-.41,2c0,.12,0,.25,0,.38a2,2,0,0,1-.52,1.53c-.18.18-.35.38-.5.56-.09-.06-.16-.07-.17-.11-.18-.73-.37-.73-.87-.49s-1.24.57-1.86.84c-.17.07-.35.11-.57.18l-.45-1-.6.14C120.45,102.8,120.43,102.73,120.46,102.7Zm7.73-4.49v.71s-.05.09-.1.16c-.24,0-.31-.28-.45-.43l-.41-.44C127.53,97.73,127.84,97.92,128.19,98.21Zm-7.72,17.29c0-.09.11-.17.18-.27.06.1.11.14.12.2.17.84.17.84.85.53a3,3,0,0,0,1.23,1.87l1.77,1.63a1.26,1.26,0,0,1,.14.18c0,.17,0,.39,0,.61s0,.35-.06.62a11.44,11.44,0,0,1-1.42-1.19c-.16-.15-.2-.48-.31-.78a2.79,2.79,0,0,0-.43-.06,1,1,0,0,1-.94-.75,3.52,3.52,0,0,0-.85-1.47A1.31,1.31,0,0,1,120.47,115.5Zm-.9-12v0h0Zm-9.11,5.74c.61-.69,1.32-.39,2-.62-.07.21-.08.36-.14.41a1.28,1.28,0,0,1-.43.23.91.91,0,0,0-.62.75c-.16-.17-.26-.31-.37-.42S110.66,109.43,110.46,109.28Zm23.46,20.45a1,1,0,0,0-1.14,0c-.05,0-.11,0-.15.07a1.81,1.81,0,0,1-1.55.17,7.06,7.06,0,0,0-1.09-.23,9.88,9.88,0,0,1-1.71-.73.37.37,0,0,1-.18-.17c-.17-.36-.48-.36-.75-.46a1.06,1.06,0,0,0-.93.1c-1.1.62-1,.24-1.2,1.81a2.92,2.92,0,0,1-.09.42,1.43,1.43,0,0,1-.38-.07c-.54-.25-1.08-.52-1.62-.8-.14-.08-.33-.17-.38-.32-.28-.82-.92-.86-1.49-1a3.53,3.53,0,0,0-.55-.1c-.8-.15-.8-.15-1.57-.88a1.16,1.16,0,0,1,.32-.62.88.88,0,0,0,.09-1c-.08-.16-.14-.34-.22-.55l.18-.29c.23-.39.19-.54-.14-.72s-.42-.24-.7-.41c-.14,0-.35.07-.55.14a2.51,2.51,0,0,1-1.73.08.83.83,0,0,0-.47,0,3.66,3.66,0,0,1-1.5.17,4.77,4.77,0,0,0-2.75.85c-.49.32-1,.62-1.49.93a2.63,2.63,0,0,0-.6-.23,2.11,2.11,0,0,0-.55.09c-.24,0-.49.09-.63-.26a.69.69,0,0,1,.68-.54h.08a2,2,0,0,0,2-1.05,5.74,5.74,0,0,1,.69-.79.73.73,0,0,0,.16-.92,1.89,1.89,0,0,1-.12-.38,3.36,3.36,0,0,1,1.4-2,7.58,7.58,0,0,0,.75-.58c0-.35,0-.67,0-1s.32-.68.67-.55a1.81,1.81,0,0,1,.44.22,1,1,0,0,0,1.35-.19c.28-.24.56-.49.83-.76a.73.73,0,0,1,1.21.29c.12.35.26.7.4,1,.06.14.14.33.24.36a1.62,1.62,0,0,1,.78.79.84.84,0,0,0,.51.42,1.58,1.58,0,0,1,.86.66,3.32,3.32,0,0,0,.58.65,1.61,1.61,0,0,1,.5,1,.36.36,0,0,1-.23.43,2.15,2.15,0,0,1-1.18.08.85.85,0,0,0-.92.13.48.48,0,0,0-.13.59,1.58,1.58,0,0,0,.81.87c.38.13.75.32,1.13.46s.48,0,.56-.34a3.83,3.83,0,0,1,1.31-2.1c0-.25,0-.5,0-.75.06,0,.12-.06.16,0,.64.24.51.19.79-.48,0,0,0,0,.11-.06.38.72.76,1.44,1.13,2.17a1,1,0,0,1,0,.36.6.6,0,0,0,0,.19c.28.45.56.9.86,1.34a.4.4,0,0,0,.28.14c.24,0,.47,0,.74,0,0-.32,0-.59,0-.89,0,0,.09-.15.16-.17a1.52,1.52,0,0,0,.93-.84c0-.4-.32-.55-.54-.77a1.75,1.75,0,0,1-.61-1.06c.38-.34.38-.34.5-.93a1.15,1.15,0,0,1,.28-.08c.74,0,.83.09.84,1,0,.57,0,1.14,0,1.74a3,3,0,0,0,.45.25c.23.07.29.29.3.51s-.09.46.09.61a2.14,2.14,0,0,0,.43.21c-.26.75-.26.75.29,1.14.08-.08.19-.16.28-.26s.15-.19.24-.31l.9.4.92-.74a3.32,3.32,0,0,1,.82.74c0,.08,0,.15-.07.17-.19.09-.45.09-.45.44s.43.79.71.75.74-.15,1.16-.24c.05-.17.13-.37.18-.57.11-.48.11-.48-.31-.8.23-.54.23-.54.87-.42a2.49,2.49,0,0,1,0,1.38,15.39,15.39,0,0,1-1.06,3.22A1.11,1.11,0,0,1,133.92,129.73Zm6.89,16c-.05-.05-.13-.08-.17-.14a4.46,4.46,0,0,0-1.21-1.27,1.24,1.24,0,0,1-.44-.62c-.15-.4-.3-.79-.46-1.18a1.59,1.59,0,0,0-.23-.49,2.54,2.54,0,0,1-.56-1.59c-.06-.53-.16-1.06-.22-1.59a1,1,0,0,0-.37-.78,1.33,1.33,0,0,1-.5-.9,7,7,0,0,0-.34-1c-.28-.7-.59-1.39-.9-2.12l.37-.28c.13.21.24.38.34.56.26.51.53,1,.78,1.53a7.23,7.23,0,0,0,1.17,1.86,1.22,1.22,0,0,1,.29.92c0,1.58-.18,1.17.8,2.22a6.44,6.44,0,0,1,1.36,2.34,15.24,15.24,0,0,1,.36,2.49S140.84,145.68,140.81,145.72Zm8.1-26c.06,0,.1.12.15.19h0a.32.32,0,0,1-.18.06.28.28,0,0,1-.18-.12s0-.15,0-.15A.3.3,0,0,1,148.91,119.72Zm-4-1.82a4.87,4.87,0,0,0-.49-1.92c.14-.29.27-.59.43-.93.6.1.91-.34,1.21-.85a1.48,1.48,0,0,1,1.79-.62,1.5,1.5,0,0,1,.64.54c.19.23.18.24.25.86-.21.2-.46.08-.68,0a1,1,0,0,0-1.11.51c-.1.18-.2.28-.39.27s-.31.1-.35.31-.09.57.09.71a6.9,6.9,0,0,1,1.12,1.59.62.62,0,0,1,.16.5,1.12,1.12,0,0,0,.09.54,2.23,2.23,0,0,1,.23,1.61.45.45,0,0,0,.35.61c.18,0,.27.17.33.36a3,3,0,0,1,.19,1c0,.36,0,.73,0,1.12a1,1,0,0,1-.27.1,2,2,0,0,1-2.1-.54,1.13,1.13,0,0,1-.43-1.28,2,2,0,0,1,.58-1.21.42.42,0,0,0,0-.7,7.27,7.27,0,0,1-1.55-2.37A.58.58,0,0,1,144.93,117.9Zm3,18.57c-.34.05-.48-.1-.46-.52a3.74,3.74,0,0,0,0-.66,1.28,1.28,0,0,0-.26-.64c-.1-.1-.33,0-.56,0l-1.4-2.53.47-.73a.93.93,0,0,1,.81.8,2.92,2.92,0,0,0,1.58,2.13,3.43,3.43,0,0,1,.33.24,1.53,1.53,0,0,0,1.44.38C149.18,136.05,148.78,136.36,147.89,136.47Zm6-20.34c-.17.66-.4.88-.95.84a1.86,1.86,0,0,1-.41-.12c0-.26-.08-.5-.09-.75,0-.49,0-.93.54-1.08.23-.06.42-.34.67-.55.14.21,0,.45.08.62s.22.35.35.56A4.69,4.69,0,0,0,153.91,116.13Zm3.37-37.41c.25,0,.26,0,.49.28Zm4.31.25-.48-.28h0C161.4,78.58,161.4,78.58,161.59,79Zm-.48-.28c0-.16,0-.33-.05-.62C161.28,78.39,161.23,78.54,161.11,78.69Zm-.41-4.62c.56.5.29,1,.12,1.41,0-.24-.07-.49-.09-.73S160.71,74.34,160.7,74.07Zm-.29,9.72c-.14-.18-.24-.32-.38-.49.21-.25.41-.46.59-.69s.4-.51.6-.77a1.71,1.71,0,0,0,.35-1.22,1,1,0,0,1,.12-.77A3.48,3.48,0,0,1,160.41,83.79ZM179.59,153l0,0h0A0,0,0,0,0,179.59,153Zm1.19-94.1s0,0,0,.08,0,0,0,.06l-.06-.12Zm1.72,10.21c-.14-.29,0-.44.13-.54s.56-.3.86-.46c.08.15.17.3.25.46A1.77,1.77,0,0,1,182.5,69.13ZM185.62,68a.18.18,0,0,1-.19,0,10.27,10.27,0,0,1-1.28-1l.16-.28c.33.22.65.4.95.62a1.76,1.76,0,0,1,.35.41A.29.29,0,0,1,185.62,68Zm20.43,36,0,0h0Zm20.24-20.68-1-.63c.42-.18.42-.18.66-.61.16.41.3.79.44,1.18C226.35,83.31,226.32,83.32,226.29,83.36Z"/><path class="cls-6" d="M227.85,162.18s-.1.07-.15.09c-.42.13-.62.51-.85.84-.14.18-.08.38.1.36s.64-.11.9-.15a1.29,1.29,0,0,0,.45-.68.48.48,0,0,1,.28-.33c.1-.32.21-.64.32-.95C228.54,161.6,228.08,161.64,227.85,162.18Z"/><path class="cls-6" d="M231.23,80.71a2.45,2.45,0,0,0,.38,0,2.63,2.63,0,0,1,.77.19,1,1,0,0,0,1.27-.07,3.21,3.21,0,0,1,.3-.21c.15-.14.16-.29,0-.52a6,6,0,0,0-.85-1c-.43-.12-.89-.28-1.18-.12s-.49,0-.77,0c-.14.18-.29.34-.42.53s0,.76.3,1.06A.44.44,0,0,0,231.23,80.71Z"/><path class="cls-6" d="M87.83,161a1.27,1.27,0,0,1-.94-.42c-.42-.41-.86-.78-1.29-1.18a1.35,1.35,0,0,0-.87-.4,6.63,6.63,0,0,1-1.15-.21c-.38-.09-.76-.21-1.15-.31a2.15,2.15,0,0,0-1.51-1.31c-.23-.07-.46-.13-.69-.21s-.29-.08-.36-.18c-.24-.4-.54-.37-.85-.36s-.35,0-.61,0a1.5,1.5,0,0,0,.17-1.58l-.43-.27c-.06-.29-.14-.56-.18-.84a1.16,1.16,0,0,0-.49-.85,12.45,12.45,0,0,1-1.1-.85,2.31,2.31,0,0,0-1.41-.59c-.42,0-.84-.09-1.25-.16a.86.86,0,0,1-.45-.19,2.7,2.7,0,0,1-.72-.79,2,2,0,0,0-.91-.93,8.53,8.53,0,0,0-1-.49s0-.05,0-.08a5.62,5.62,0,0,1-.06-.56c-.08-.84-.1-.87-.84-.91-.31,0-.63,0-.94,0a1.42,1.42,0,0,0-1.18.32,2.39,2.39,0,0,0-1.89-.29c-.19-.38-.55-.62-.43-1.08,0,0-.08-.17-.14-.23a.62.62,0,0,0-.67-.19c-.26.1-.53.17-.85.27-.5-.62-.93-.39-1.34,0-.06.06-.13.09-.19.15a1.33,1.33,0,0,1-.89.39,2,2,0,0,0-1,.22c0,.36,0,.72,0,1.07a2.29,2.29,0,0,1-.7.62c-.12-.11-.21-.17-.29-.26a1.45,1.45,0,0,0-1.76-.48,5.49,5.49,0,0,1-.57.2c-.66.22-.8.16-1.32-.51-.09-.12-.16-.26-.25-.38a1.31,1.31,0,0,1-.25-1c.07-.41.1-.83.17-1.23a3.08,3.08,0,0,0-.18-1.53,1,1,0,0,0-.3-.43,2.28,2.28,0,0,0-1.74-.57c-.65.16-1.28-.71-1.16-1.49s.25-1.69.37-2.54c0-.45-.09-.66-.48-.66a14.89,14.89,0,0,0-1.64.1c-.73.07-.9.29-.94,1.16,0,.7-.18.89-.8,1-.3.05-.6.13-.9.21a.86.86,0,0,1-.69-.1,2.22,2.22,0,0,1-.86-.73,3.52,3.52,0,0,1-.84-1.68.68.68,0,0,0-.11-.25,3.59,3.59,0,0,1-.23-2.2,4.49,4.49,0,0,0,0-2,2.17,2.17,0,0,1,0-.45c.64-.5,1.25-1,1.89-1.48a.87.87,0,0,1,.9-.15c.32.12.69,0,1,.39.06.09.25.08.38.09a3.06,3.06,0,0,1,1.11.17c.23.1.42-.09.4-.37a2.25,2.25,0,0,0-.06-.36c-.05-.4.08-.58.42-.51a2.06,2.06,0,0,0,.78.05c.21,0,.42,0,.66,0l.43.67,1-.24a1.92,1.92,0,0,1,.84,1.54,3.26,3.26,0,0,0,.59,1.72,7.37,7.37,0,0,1,.43.78,1.73,1.73,0,0,0-.22.39.43.43,0,0,0,.05.33.35.35,0,0,0,.28.14.72.72,0,0,0,.56-.4.69.69,0,0,1,.16-.28,1,1,0,0,0,.43-.79,6.58,6.58,0,0,1,.15-.67c.37.14.72.29,1.07.41a.47.47,0,0,1,.31.26,2,2,0,0,0,.37.5c.32.32.4.91.88,1.06,0,0,.1.17.08.23a.75.75,0,0,0,.25.74l1,1.11.29-.18c.19-.14.28,0,.35.24l-.69.71c-.07,0-.23,0-.32-.14a3.24,3.24,0,0,0-1.23-.73c-.85-.4-1.72-.76-2.57-1.19a3.51,3.51,0,0,0-1.64-.32,2.19,2.19,0,0,0-1.63,1,.38.38,0,0,0,.18.58c.35.08.74-.05,1,.41,0,0,.1,0,.15,0a1.52,1.52,0,0,0,.61-.05c.14-.07.2-.31.3-.5.38.11.74.25,1.1.33a2.39,2.39,0,0,1,1.54,1v.15c0,.42.1.56.38.58a5.15,5.15,0,0,0,.55,0l1.86-.09c.12.2.31.33.23.58a3.2,3.2,0,0,0-.63.07.38.38,0,0,0-.26.26.61.61,0,0,0,.14.4,1.4,1.4,0,0,0,1.1.51,1.78,1.78,0,0,1,1.3.38s.1,0,.18,0l.34-.5c.23,0,.44-.06.65-.07a1,1,0,0,1,.38.06c.59.23.59.24.74-.39a3.14,3.14,0,0,0,0-.45c-.18-.15-.4-.24-.47-.41a1,1,0,0,0-.73-.55c-.33-.11-.67-.2-1-.29l-1.1-.25c0-.43,0-.43.13-.5a.75.75,0,0,1,.67,0c.08,0,.2-.07.23-.16a.57.57,0,0,0,0-.34.42.42,0,0,0-.17-.2,6.92,6.92,0,0,0-1.22-.77c-.39-.15-.7-.47-1.09-.61a.52.52,0,0,1-.33-.5c.06-.68-.41-1-.75-1.37a3.17,3.17,0,0,0-.46-.36c0-.15,0-.27-.06-.39-.1-.43-.39-.75-.74-.71a1.39,1.39,0,0,1-.61,0,2.47,2.47,0,0,0-.61,0c-.33-1-.63-2-1-2.94a1.2,1.2,0,0,1,.18-1.25,9.19,9.19,0,0,1,1.8-1.83c.63-.42,1.22-.91,1.73-1.29.32-.81-.19-1.28-.35-1.79.19-.33.35-.6.5-.89a2,2,0,0,0,.24-.66c.06-.64.32-1.21.42-1.87.43-.12.84-.22,1.25-.35.14,0,.33-.14.38-.27a.57.57,0,0,1,.49-.4c.18,0,.37-.06.55-.11s.38-.19.39-.58a1.85,1.85,0,0,0-.06-.42l-.61-.27.27-1,1.74-1a1.15,1.15,0,0,1,.83.66c.12.23.23.5.55.52a2.12,2.12,0,0,0,.31-.25,4.06,4.06,0,0,1,1.94-1.22,2.54,2.54,0,0,0,.46-.17c.29-.14.61-.2.71-.66,0-.14.22-.26.35-.36a.83.83,0,0,0,.46-.57c-.11-.22-.26-.47-.38-.74-.36-.79-.4-.8-.89-.15a.8.8,0,0,1-.13.13h-.31a7.15,7.15,0,0,0-.8,0c-.37,0-.39-.49-.68-.58a1.73,1.73,0,0,1-.21-.13c0-.25,0-.5,0-.72l.5-.5c0-.19,0-.34,0-.49s-.11-.3.09-.44l.3.24a1.16,1.16,0,0,0,1,.08c.19,0,.26-.33.16-.53s-.4-.3-.41-.63l1.73-.27c.28-.37.52-.7.78-1a.54.54,0,0,1,.74-.18c-.12.32-.22.6-.34.89-.21.54-.44,1.07-.65,1.62a1.91,1.91,0,0,1-.52.92.56.56,0,0,0-.12.41,1.11,1.11,0,0,0,.36.81c.31,0,.62-.09.94-.1s.68,0,1,.07c.08.34.14.64.48.69s.52-.24.74-.4c.64.79.64.79,1.22.71a3.3,3.3,0,0,0,.44-1.28,2.9,2.9,0,0,0-.1-.81,5.28,5.28,0,0,1,0-.56.42.42,0,0,0-.31-.47s-.07-.07-.09-.09c0-.19,0-.37,0-.55-.45-.33-1-.22-1.33-.33l-.68-1c.13-.36.24-.72.37-1.06a2.15,2.15,0,0,0,0-1.54,1.41,1.41,0,0,1-.06-.71,1.37,1.37,0,0,0-.65-1.51.94.94,0,0,1-.43-.49.77.77,0,0,0-.52-.6c-.15-.06-.34-.11-.41-.25a1,1,0,0,0-.86-.55,1.34,1.34,0,0,0-.61-.91,2.39,2.39,0,0,1-.26-.21.5.5,0,0,1-.09-.78.87.87,0,0,0,.08-.94c-.61-1.45-1.19-2.9-1.77-4.33a3.33,3.33,0,0,0-.3-.46c-.39.07-.52.42-.72.67s-.53.66-.34,1.16a.55.55,0,0,1-.21.57c-.33.28-.67.54-1,.83-.26-.28-.5-.55-.75-.8a1,1,0,0,1-.25-.81c0-.59.07-1.18.08-1.76a5.36,5.36,0,0,0,0-.7l-1.05-.35a1.09,1.09,0,0,0-.46-.94,11.25,11.25,0,0,1-.88-.82.73.73,0,0,0-.78-.23,2.61,2.61,0,0,1-1.77-.09l-.23,0a.86.86,0,0,0-.88.79,1.77,1.77,0,0,0,0,1.07.77.77,0,0,1,0,.52,2.87,2.87,0,0,0-.11,1.78,4.93,4.93,0,0,1,0,.55.8.8,0,0,1-.32.8,1.39,1.39,0,0,0-.57.81c0,.09.08.23.16.27a2.17,2.17,0,0,1,.79,1.91c0,.33.08.66.11,1a1.91,1.91,0,0,1-.89,2c-.16.12-.34.2-.5.31s-.31.24-.5.39c.18,1.12.36,2.22.55,3.31a3,3,0,0,1-.79.75c-.16-.22-.29-.43-.44-.65.55-.44.27-.87.11-1.33l-.7-.19c0-.26,0-.5,0-.74,0-.45,0-.91,0-1.37s-.08-.53-.41-.64a3.11,3.11,0,0,0-1.18-.14,1.45,1.45,0,0,1-.69-.08,4.76,4.76,0,0,1-2-1.46,2.19,2.19,0,0,0-1-.75,1.48,1.48,0,0,0-1.68,0c-.27-.76-.16-1.65-.45-2.4l-.87-.11a4.74,4.74,0,0,1,.14-2,20.74,20.74,0,0,1,.81-2,1.8,1.8,0,0,1,.29-.46,1.74,1.74,0,0,0,.67-.93c0-.1.2-.2.32-.27.28-.19.62-.25.9-.63a6.91,6.91,0,0,1,.08-.85,1,1,0,0,1,.9-.91l.58-.08c.17-.25.33-.51.51-.75s.3-.6.6-.78a1.18,1.18,0,0,1-.34,1.21l-.18.2c-.12.14-.26.27-.22.48s.24.26.43.26l.45,0c.07.24.13.45.18.64a1.15,1.15,0,0,0,1.53-.71c.14-.26.29-.56.58-.66.49.16.7.8,1.28.93.26-.28.53-.55.78-.85a.43.43,0,0,0-.05-.69,1.41,1.41,0,0,1-.67-.65A4.48,4.48,0,0,0,55,86.4c-.08-.06-.15-.14-.23-.21a.74.74,0,0,1-.23-.76,4.35,4.35,0,0,0,.72-.37c.35-.27.67-.59,1-.89a2.2,2.2,0,0,0,1-1.88c0-.12,0-.24,0-.43s-.14-.11-.2-.18c-.47-.52-.46-.7,0-1.35a1.06,1.06,0,0,0,.23-.39,4.24,4.24,0,0,0,.11-1.69L56.65,78c0-.21,0-.38,0-.57l.34-.13.32-.1c.22.22.44.43.64.65a.43.43,0,0,0,.63,0,3.68,3.68,0,0,0,.58-.39,4.12,4.12,0,0,0,.47-.53l1.11,1.32c-.14.42-.27.78-.37,1.14s.14.51.4.38.37-.31.52-.3c.33.42.62.79.92,1.15a.91.91,0,0,1,.24.61c0,.21,0,.42.07.62a1.06,1.06,0,0,1-.25.86c-.39.51-.78,1-1.16,1.55-.27.37-.27.47-.1.82.08.17.17.34.26.51-.33.31-.33.32-.5.3s-.61-.12-.91-.15-.51-.23-.76,0a3,3,0,0,0-.37.61c-.08.13-.19.24-.28.37a1.67,1.67,0,0,0-.14,1.7,2.4,2.4,0,0,0,.19.29,2.25,2.25,0,0,0,1.81-.37,8.16,8.16,0,0,1,2,1.13c.07.8.15,1.06.51,1.34a2.33,2.33,0,0,0,.7.32,1.71,1.71,0,0,1,.94.55,2.92,2.92,0,0,0,1.75,1c.29.08.49-.07.52-.41s0-.73,0-1.11c.37-.16.77,0,1.15-.2a2.86,2.86,0,0,0,.3-1.17,1,1,0,0,0-.11-.78,1.49,1.49,0,0,1-.23-1.11.8.8,0,0,0-.24-.71c-.29-.29-.55-.6-.84-.88a1.79,1.79,0,0,1-.42-1.1,1.19,1.19,0,0,1,.15-.42,2.84,2.84,0,0,1,.71,1A10.7,10.7,0,0,0,68,86.94c.25.32.51.24.68-.17s.22-.58.33-.85a2.14,2.14,0,0,1,.34-.17.75.75,0,0,0,.51-.56c.2-.5.4-1,.61-1.49a.83.83,0,0,0-.11-.92c-.53-.65-1.06-1.29-1.54-2s-.83-1-1.54-.77c-.29.07-.46-.16-.62-.38a.79.79,0,0,1,0-.81c.11-.08.25-.18.38-.29.28-.24.33-.43.18-.71s-.29-.51-.41-.74a2.6,2.6,0,0,0-.62-2.77,5.34,5.34,0,0,1-.93-1.26,2.12,2.12,0,0,0-1.67-1.15,3,3,0,0,1-.44-.16c0-.39.09-.76.13-1.12a4.91,4.91,0,0,0,.06-.65c0-.24-.12-.39-.31-.36s-.41.12-.62.17-.45.06-.57-.19A6.61,6.61,0,0,0,61.94,67l-.55-.43a1.59,1.59,0,0,0-2,0l-.44.27c-.12-.19-.25-.37-.38-.56l-1.1.56c-.35-.09-.59-.17-.84-.21a2.33,2.33,0,0,0-.59,0c-.38,0-.74-.21-1.1.06a9.48,9.48,0,0,0-.94,1,6.5,6.5,0,0,0-1.53,2.69A11,11,0,0,0,52,72.54a1.85,1.85,0,0,0,.1.92c.33.78.66,1.57,1,2.37a1.43,1.43,0,0,0,.62.74c.25.14.49.32.74.49-.08.67-.15,1.3-.22,1.94S54,80.27,54,80.85a2.61,2.61,0,0,0-1,1.38,1,1,0,0,1-.26-1.09c.09-.37.16-.73.23-1.1a.89.89,0,0,0,0-.43,8.46,8.46,0,0,0-.61-1c-.1-.15-.33-.08-.47.13s-.31.44-.51.75c-.35-.64-.46-1.37-.95-1.78l.62-1c-.43-1.34-.83-2.63-1.23-3.93a4.14,4.14,0,0,1,.24-.43,1.31,1.31,0,0,0,.28-1.27s0-.11.06-.18c.19-.27.43-.24.65-.25a.8.8,0,0,0,.66-.5l1.5-2.68a4.14,4.14,0,0,0,.15-.41c-.13-.33-.4-.37-.64-.46a3.14,3.14,0,0,0-2.74,0,1.14,1.14,0,0,0-.66.8,6.49,6.49,0,0,0-.29,2,15.29,15.29,0,0,1-.22,2.75,2.29,2.29,0,0,1-.59,1.35,1.52,1.52,0,0,0-.28.48c-.29.7-.58,1.4-.84,2.11a1.09,1.09,0,0,0-.08.6c.23.62.36,1.33.91,1.69a1.94,1.94,0,0,1,.4.41,1.85,1.85,0,0,1-.57.76l-.42-.74c-.18-.35-.35-.7-.55-1s-.45-.39-.74.15a4.5,4.5,0,0,1-1.19,1.52l-.14.13c-.23.25-.24.49,0,.67s.47.34.71.53c-.1.27-.2.5-.28.73s-.16.52-.22.74a1,1,0,0,1-1,.13,4.46,4.46,0,0,1-2.79-2A.59.59,0,0,0,41,80.2a.88.88,0,0,0-.17-.12l-.82.2.71-.72,1,.91a.59.59,0,0,0,.55.14,2.54,2.54,0,0,0,1.49-1,.83.83,0,0,0,.23-.74s0-.11.06-.19l.52-.28A3.44,3.44,0,0,0,44.73,77c-.45-.21-.89-.45-1.37-.62a1.37,1.37,0,0,1-.8-.9.73.73,0,0,1,0-.58,2.67,2.67,0,0,0,.18-1.48c0-.41,0-.85-.11-1.25a1.41,1.41,0,0,1,.19-.94c.29-.53.55-1.08.83-1.62a.67.67,0,0,0,0-.72c-.19-.3-.4-.51-.81-.42s-.65.09-1,.14c-.13.23-.24.42-.34.62-.23.45-.43.92-.66,1.37a4.27,4.27,0,0,1-.3.44c-.81-.54-.81-.54-1.57-.22l-.7-.39-.6.41s0,0-.07,0c0-.26,0-.52,0-.8h-.74a8.89,8.89,0,0,1-.89-1,9.38,9.38,0,0,1-.52-1.29,1.17,1.17,0,0,0-.27,0,2.1,2.1,0,0,1-1.76-.25c-.17-.13-.41,0-.65.1l-1.91,1.13c-.15.09-.28.22-.44.34a9.15,9.15,0,0,0-.05,1,4.45,4.45,0,0,1-.64,2.29c-.3.56-.57,1.13-.89,1.67s-.22.73,0,1a2.15,2.15,0,0,1,.71,1.46.86.86,0,0,0,.05.23c.07.22.21.27.48.15l.77-.38A2.77,2.77,0,0,0,32.41,75c.11.17.19.31.28.42s.24.22.36.33c-.1.25-.19.47-.31.75a5.8,5.8,0,0,1,.47.52,1,1,0,0,0,1,.32,9.78,9.78,0,0,1,1.31-.11c.12,0,.22.11.35.18-.4.43-.76.33-1.11.41a5.54,5.54,0,0,0-1.16.31c-.26.51-.07.87-.06,1.28a.8.8,0,0,0,.27.69c.08.06.2.13,0,.38-.3,0-.69.11-.94,0a3.83,3.83,0,0,1-1.64-1.08,1.15,1.15,0,0,0-1.34-.45l-.39.08-.29.39-.4.47c0-.3.05-.47.08-.64s.05-.41-.12-.5-.31.08-.54.38-.26.57-.58.69c-.2-.41-.07-1-.39-1.31s-.44-.74-.86-.89c-.55.36-.47,1-.91,1.45-.05,0-.11,0-.12-.09s0-.4-.21-.43a.77.77,0,0,0-.52.25l-.87.68-1.36,1c-.32-.38-.81-.11-1.3,0l-.93,1.2-1.37-.94a.74.74,0,0,0-.66-.2A1,1,0,0,1,17,80.14c-.09-.11-.19-.2-.28-.3a.52.52,0,0,0-.6-.12,4.77,4.77,0,0,1-.47.13,1.59,1.59,0,0,1-1.16,0,1.26,1.26,0,0,0-.65,0,1.12,1.12,0,0,1-.88-.16,1.11,1.11,0,0,0-.89-.15,3.8,3.8,0,0,1-1.2.08,2.17,2.17,0,0,1-.15-.4c-.06-.29-.26-.39-.57-.34s-.46.06-.7.09c-.23-.56-.79-.66-1.25-.85a4.46,4.46,0,0,0-1,.79,1.29,1.29,0,0,1-.82.44,1.41,1.41,0,0,0-.92.45,3.29,3.29,0,0,1-1.63.93,5.73,5.73,0,0,0-1.59,2.06,1.77,1.77,0,0,1-.46.73,17.83,17.83,0,0,0-1.86.64A3.84,3.84,0,0,0-.4,85.27a.42.42,0,0,0,.18.42l.81.67a.69.69,0,0,1,.3.51,1.48,1.48,0,0,0,.48,1,1.8,1.8,0,0,1,.3.37.49.49,0,0,1,0,.34c0,.07-.18.14-.27.17a2.51,2.51,0,0,1-.39,0c0-.2-.06-.39-.09-.56a1.74,1.74,0,0,0-1.34.34c-.32.22-.66.41-1,.61a4.21,4.21,0,0,0-1,1,.26.26,0,0,0,.05.4l.55.22a1.87,1.87,0,0,0-.16.59c.06.37.23.67.67.69a4,4,0,0,0,.92,0,1.3,1.3,0,0,1,1,.1.72.72,0,0,0,.21.05l.64-.32c.06.12.12.21.17.32a1.31,1.31,0,0,1,.09.28.45.45,0,0,1-.37.49,1.73,1.73,0,0,0-1.2.67,1.36,1.36,0,0,0-1.48.76c-.35.57-.67,1.15-1,1.72a.81.81,0,0,0-.09,1,.9.9,0,0,1,.23.71,5.84,5.84,0,0,0-.63.13,4.65,4.65,0,0,0-.63.21.3.3,0,0,0-.15.46s.06.07.11.1c.86.5.66.7,1.87,0l.38.51A1.51,1.51,0,0,0-.2,99c.07,0,.18,0,.32,0-.2.48-.27.89.14,1.22l1.31-.14c.11.15.22.31.35.46s.32.16.53-.07.13-.34.34-.23A2.08,2.08,0,0,1,2,102a4.26,4.26,0,0,0-.42.43,2.89,2.89,0,0,1-1.86,1.19.75.75,0,0,0-.57.32,1.94,1.94,0,0,1-.93.7l-.66.36a.4.4,0,0,0-.23.41c.09.58.2.91.91.43l.14-.09a13.05,13.05,0,0,1,3.48-1.79,1,1,0,0,0,.62-.53,1.32,1.32,0,0,1,.45-.49,21.66,21.66,0,0,0,2.92-2.67,2.35,2.35,0,0,0,.61-.82L6.09,99a2.15,2.15,0,0,1,.72-.57c.07,0,.11,0,.11.07,0,.26,0,.52,0,.77a1.19,1.19,0,0,0,1.54-.38c.14-.14.28-.3.43-.43a1.1,1.1,0,0,1,.44-.23.73.73,0,0,0,.63-.5l.43-1a1.26,1.26,0,0,1,.76.22,7.25,7.25,0,0,1,.67.46,2.37,2.37,0,0,0,1.9.55,2,2,0,0,1,1.92.67,2.7,2.7,0,0,0,.58.48c.32.25.63.5,1,.74a1.29,1.29,0,0,1,.46.69c.16.6.35,1.19.51,1.79.08.32.19.56.58.46a.28.28,0,0,1,.35.24,3.77,3.77,0,0,0,.76,1.39,1,1,0,0,1,.1.28l-.2,0c-.39.09-.43.13-.47.47a2,2,0,0,0,.24,1.44,4.84,4.84,0,0,1,.42.78,1.5,1.5,0,0,0,.76.67.34.34,0,0,0,.29-.06.4.4,0,0,0,.11-.3,1.65,1.65,0,0,0-.22-.53,1.75,1.75,0,0,1-.19-.88c0-.53.2-1.08-.15-1.54-.07-.08.14-.36.31-.39l.36.45c-.08.27-.28.51-.13.76a7.84,7.84,0,0,0,1.22,1.89.9.9,0,0,1,.24.4c.08.27.12.54.17.78-.37.62-.36.7-.06,1.18a1.41,1.41,0,0,0,.55.45c.18.11.41.21.48.39a1.1,1.1,0,0,0,.65.57c.36.18.65.38.45.91a.86.86,0,0,0,0,.41c.08.34.14.67.25,1a2.63,2.63,0,0,1,.1,1.18c-.09.78-.15,1.55-.25,2.32a3.05,3.05,0,0,0,.1,1.44,2,2,0,0,1,.08,1.35,1.1,1.1,0,0,0,.12.83,1.38,1.38,0,0,1,.18.65,1.06,1.06,0,0,0,.57,1.06,1.53,1.53,0,0,1,.23.15c0,.47,0,.86.39,1.1a.26.26,0,0,1,.08.23c-.09.4.17.65.38.92a2.79,2.79,0,0,1,.79,1.34,4,4,0,0,1,1.79.85,2.12,2.12,0,0,1,.52.67c.28.72.59,1.42.87,2.14a3,3,0,0,0,.83,1.23,2.1,2.1,0,0,1,.37.42c-.12.12-.26.2-.28.31a.67.67,0,0,0,.08.41,1.7,1.7,0,0,0,.69.78l.65.4c.7.45.7.45.65,1.34a1,1,0,0,0,.06.15,4.36,4.36,0,0,0,.42.34,3.51,3.51,0,0,1,1.36,1.32s.1.05.2.1c.24-.21.63-.27.7-.81a6.58,6.58,0,0,0-.56-.64,3.23,3.23,0,0,1-.83-1.25,5.71,5.71,0,0,0-.74-1.43.66.66,0,0,1-.08-.29,3,3,0,0,1,1.55,2c.36.31.82.48,1.12.93a15.06,15.06,0,0,0,1,1.26,3.05,3.05,0,0,1,.75,1.37l-.2.77A4.3,4.3,0,0,0,41,140.62a4.37,4.37,0,0,1,1.24.76,1.1,1.1,0,0,0,.28.2,25,25,0,0,0,3,1.4.78.78,0,0,0,.94-.13c.25-.28.56-.21.87,0s.63.53.94.81A6.43,6.43,0,0,0,51,145.16c.28.08.57.14.73.17.44.43.77.78,1.12,1.1a1.07,1.07,0,0,1,.41.79,2.48,2.48,0,0,0,0,.27.77.77,0,0,0,.48.62,1,1,0,0,0,.38.07c.22,0,.35.16.45.37s.12.34.19.52l1,.38a2.85,2.85,0,0,1,.91.39,1.36,1.36,0,0,0,1.06.27c.19,0,.28-.21.22-.45,0-.09-.1-.18-.1-.26s0-.28.08-.29a.68.68,0,0,1,.36.07s.08.1.1.15a2.58,2.58,0,0,0,.63,1.13.63.63,0,0,1,.15.33c.09.76.17,1.52.26,2.3l-.61.3a1.58,1.58,0,0,1-.48,1.13c-.22.26-.47.45-.42.92a.36.36,0,0,1-.15.27c-.43.26-.44.75-.33,1.3a2.55,2.55,0,0,0,.15.62,2.6,2.6,0,0,0,.36.5l-.42.39a.43.43,0,0,0-.09.54,3.86,3.86,0,0,1,.33,1.42,3,3,0,0,0,.37.31,2.93,2.93,0,0,1,1,1.14c.33.59.68,1.15,1,1.74.6,1.13,1.2,2.26,1.77,3.41a4.15,4.15,0,0,0,1,1.3c.83.68,1.65,1.39,2.46,2.1s.62.45.86,1.47c0,.15,0,.31.09.46a25.46,25.46,0,0,1,.35,3.32,19.9,19.9,0,0,1,.07,3.69,2.71,2.71,0,0,0,.15,1.27,1,1,0,0,1,.07.53,2.85,2.85,0,0,0,.14,1.69,2.73,2.73,0,0,1,.11,1.08c-.08,1-.15,1.95-.22,2.92a1.45,1.45,0,0,1-.07.49,2.53,2.53,0,0,0,.06,2,5.5,5.5,0,0,1,.21.92,12.24,12.24,0,0,1,.08,1.69,8.82,8.82,0,0,0,.33,2.35,1.45,1.45,0,0,1,0,.92,1,1,0,0,0,0,.58,3.54,3.54,0,0,1,0,2,.86.86,0,0,0,.16.7c.16.25.31.16.46.19s.07.07.13.13,0,.15-.08.16c-.43.14-.43.13-.32.7s.21,1.1.33,1.65.47,1.1.38,1.61a.16.16,0,0,0,0,.09c.27.36.14.64.2.94a5.82,5.82,0,0,1,.38.59,5.1,5.1,0,0,1,.3.73,1.52,1.52,0,0,0,.54.87c.16.12.18.31.25.49a1.91,1.91,0,0,0,.79,1.13.52.52,0,0,1,.25.21,1.74,1.74,0,0,0,.56.58c.48.4.93,1,1.44,1.14,0,0,.08.1.12.13a1.34,1.34,0,0,0,.32.25,1.72,1.72,0,0,1,.66.4c.29.23.37.16.38-.27,0-.08,0-.16,0-.26a5.4,5.4,0,0,1,.7-.13c.24,0,.38-.18.46-.45.15-.52.08-.7-.39-.93a.69.69,0,0,0-.2-.09,2.74,2.74,0,0,1-1.2-1.11,2.6,2.6,0,0,1-.62-1.57,1.32,1.32,0,0,0-.15-.45l-.46-1c-.19-.44-.24-.82,0-1a1.12,1.12,0,0,0,.25-1.09.79.79,0,0,1,.22-.77,2.4,2.4,0,0,0,.7-.88,5.12,5.12,0,0,0-.33-1.41,1.83,1.83,0,0,1-1.2-1.15c0-.38.14-.6.45-.61s.35,0,.42-.25a1.53,1.53,0,0,0,0-1.38,1,1,0,0,1,0-.24,1.21,1.21,0,0,1,.79-.6,6.39,6.39,0,0,0,0-.64,2.64,2.64,0,0,0-.11-.56,5.64,5.64,0,0,0-.25-.58,2.37,2.37,0,0,1,.4-.16c.34,0,.42-.36.43-.77s0-.81.07-1.25a4.92,4.92,0,0,0,1.87-.48c.63-.18.7-.93.91-1.56a.69.69,0,0,0,0-.36,2.16,2.16,0,0,0-.27-.62,1.08,1.08,0,0,1-.15-1,3.5,3.5,0,0,1,.8-.09c.64.07,1-.26,1.28-.92a4.24,4.24,0,0,1,.91-1.51,2.1,2.1,0,0,0,.54-1.14,4.9,4.9,0,0,1,.66-1.87,1.39,1.39,0,0,0,.15-.85c0-.5,0-1,0-1.49a1.08,1.08,0,0,1,.16-.66A2.86,2.86,0,0,1,83.22,177a1.23,1.23,0,0,0,.26-.12,1.66,1.66,0,0,1,1.36-.36.48.48,0,0,0,.35-.08c.3-.2.58-.44.93-.71a2.81,2.81,0,0,1,.31-1.86,3,3,0,0,0,.17-1,2,2,0,0,1,.16-.77,1.46,1.46,0,0,0,.14-.88c-.07-.88-.12-1.77-.19-2.65a1.18,1.18,0,0,1,.2-.84c.51-.7,1-1.44,1.52-2.14a5.73,5.73,0,0,0,.71-2.17.61.61,0,0,0,0-.19,10.32,10.32,0,0,0-.55-2.17A6.66,6.66,0,0,0,87.83,161Zm-22.2-51.15a1.91,1.91,0,0,1,1-.22l.28.53c-.29,0-.52,0-.74,0l-.71.06C65.55,110,65.57,109.89,65.63,109.86Zm-11.12,2.53a4.29,4.29,0,0,0,.63,0c.51-.11.84.26,1.21.52,0,0,0,.1,0,.19a1.29,1.29,0,0,1-.21-.06,4.9,4.9,0,0,0-.48-.31c-.26-.12-.49.09-.45.41,0,.12.06.23.08.35a1.61,1.61,0,0,1-.22,1.09c-.5-.42-.32-1.21-.77-1.6Zm-2.81,5.19a.15.15,0,0,1-.11.11.5.5,0,0,1-.2-.08.22.22,0,0,1-.09-.14,6.14,6.14,0,0,1,0-2s.08-.06.2-.14a3.08,3.08,0,0,0,.19.73C52,116.61,51.76,117.09,51.7,117.58Zm-.25-2.84a.14.14,0,0,1,.12-.06s.08.11.07.13a3.1,3.1,0,0,1-.19.26A1.76,1.76,0,0,1,51.45,114.74Zm.38-.82c0-.09-.06-.18,0-.25s.1-.11.18-.18c0,.1.11.22.09.24A.87.87,0,0,1,51.83,113.92Zm-3-2.53a1.34,1.34,0,0,1,.39-.32,18.63,18.63,0,0,0,1.5-1.32,1.89,1.89,0,0,0,.45.19,1,1,0,0,0,.41-.1c.2.18.28.55.63.57.1,0,.19.17.26.28s.18.29.28.45c-.31.51-.83.49-1.26.69-.15.07-.35,0-.57-.06,0-.2,0-.34.05-.48,0-.51-.17-.7-.56-.49s-.51.33-.76.5l-.69.48s-.1,0-.21,0C48.73,111.64,48.71,111.47,48.78,111.39ZM59.71,70c0,.23-.13.22-.22.24s-.45.09-.71.14c0-.27,0-.53.06-.84A2.32,2.32,0,0,1,59.71,70ZM56.51,68l-.13.2A.17.17,0,0,1,56.51,68Zm-.16.23-.31.24C56.15,68.14,56.24,68.08,56.35,68.18Zm-9,12.54c.18-.14.37-.26.55-.39.16.16.1.32,0,.49l-1,1.3c-.29-.26-.11-.61-.11-.94Zm-14.1-7.37c0-.24.1-.41.25-.63C33.59,73.1,33.59,73.11,33.25,73.35Zm-1.34,56.9c0-.13-.06-.25-.1-.38A.31.31,0,0,1,31.91,130.25Zm-.29-.72.15.28C31.64,129.76,31.63,129.64,31.62,129.53Zm.31.78v0h0Zm.84-.27a.88.88,0,0,1-.16-.92c.33,0,.53.19.67.5.2.46.39.93.59,1.39.1.22.2.43.32.64a.49.49,0,0,1,0,.47,5.12,5.12,0,0,0-.27-.52C33.54,131.07,33.16,130.55,32.77,130Zm5-47.86a.53.53,0,0,0-.59,0l-.91.46a1.36,1.36,0,0,1-1.14.18,2,2,0,0,0-.43-.07c0-.2.09-.25.21-.34.43-.32.46-.45.27-.85a3.35,3.35,0,0,0-.3-.52,3.63,3.63,0,0,0-.44-.43,1.34,1.34,0,0,1,.9-.1c.06.37.13.74.19,1.11a1.82,1.82,0,0,0,1.1-.13l1-.28,1.18-.4c-.26.38-.46.64-.63.92s-.1.44.09.55A.51.51,0,0,1,37.73,82.18Zm.56.14.34.22C38.31,82.62,38.28,82.61,38.29,82.32Zm1.46-1.9,0,0,.06,0S39.75,80.41,39.75,80.42ZM73.67,193.28a.09.09,0,0,1-.11,0c0-.05-.09-.13-.14-.19s.06-.1.09-.09S73.7,193.2,73.67,193.28Z"/><path class="cls-6" d="M97,75.21a.64.64,0,0,0,0-.86l.58-.41c0-.6,0-1.2.07-1.81a2,2,0,0,0-.32-1.39,3.61,3.61,0,0,1-.23-.44,1.85,1.85,0,0,0,.61-1.62,2.55,2.55,0,0,0-.4-1.74c.26-.46.55-.76,1-.74s.52-.14.56-.7a6.6,6.6,0,0,0,0-.77c0-.23-.06-.46-.1-.74.69-.15.88-.79,1-1.46,0-.09.06-.18.08-.27.07-.3,0-.43-.24-.57-.1-.06-.26,0-.24-.28.27,0,.54,0,.82,0a.43.43,0,0,0,.32-.66,10.91,10.91,0,0,0-.63-1.23,1.13,1.13,0,0,1-.17-.58,6.85,6.85,0,0,0-.56-2.17c-.23-.16-.55,0-.74-.29,0-.94,0-.94.67-1.37.4,0,.68.49,1.1.38a2.21,2.21,0,0,0,.37-.86,1.81,1.81,0,0,0,0-1.37c-.21-.58-.37-1.2-.57-1.78A2.33,2.33,0,0,1,100,50a6.4,6.4,0,0,0,.22-2.46,1.5,1.5,0,0,1,.26-1.07,3.55,3.55,0,0,0,.52-1.3,13.3,13.3,0,0,1,.83-2.82c.22-.55.43-1.12.63-1.68a8.19,8.19,0,0,1,.79-1.66c.72-1.18,1.42-2.36,2.11-3.54.31-.52.31-.61.09-1.11s-.45-1-.66-1.47a.86.86,0,0,0-.51-.53c-.37-.14-.72-.3-1.07-.46-.62-.28-.62-.25-1,.47a4,4,0,0,1-.71,1.08l-.78-.44a3.26,3.26,0,0,0-.67,1.13,8.1,8.1,0,0,1-1.18,1.78,1.6,1.6,0,0,1-.9.56,4.17,4.17,0,0,1,.65-2l1.17-1.82A1.15,1.15,0,0,0,100,32c0-.5,0-1,0-1.5,0-.24-.15-.37-.33-.31-.4.14-.81.29-1.21.45a.54.54,0,0,0-.31.5c0,.31-.06.63-.1,1a.53.53,0,0,1-.13.33.72.72,0,0,1-.34.11,11,11,0,0,1,.15-2.22l.89-.33a2.52,2.52,0,0,0,1.6-1.18l.43-.53c.52-.65.49-.62.22-1.43a2.7,2.7,0,0,0-1.55-2c-.25-.08-.39-.29-.41-.68A3.92,3.92,0,0,0,98,21.9a5.89,5.89,0,0,1-.48-.77.64.64,0,0,0-.52-.36l-4.19-.41a1.26,1.26,0,0,0-1,.41A27.19,27.19,0,0,1,88,23.64l-.39.26a2.24,2.24,0,0,0-.84,1,4,4,0,0,1-.54.88,4.88,4.88,0,0,0-1,2.13c-.09.35-.19.69-.29,1,0,.12-.1.24-.17.4a8.41,8.41,0,0,1-1.15-.14c-.67-.17-.69.16-.91.85-.12.37-.22.74-.34,1.12,0,.14-.1.29-.17.5a1.91,1.91,0,0,1-.28-.23c-.23-.29-.47-.57-.67-.88a.53.53,0,0,0-.82-.15c-.86.5-1.73,1-2.6,1.46a2.24,2.24,0,0,0-.51.43c-.5.59-1,1.2-1.49,1.8a1.14,1.14,0,0,0-.28.86c0,.38.06.75.07,1.13a1.12,1.12,0,0,1-.06.44,3.27,3.27,0,0,1-.47,1l-.85-.18c-.15.19-.31.37-.45.58l-1.38,2a9.58,9.58,0,0,0-1.58,3c-.33.84-.18,1,.41.92a2.32,2.32,0,0,1,1,0,2.55,2.55,0,0,1-.31,2c-.11.2-.21.41-.3.62a1.35,1.35,0,0,1-.65.73c-.19.09-.38.23-.57.33a8.79,8.79,0,0,0-1.81,1.32,9.69,9.69,0,0,1-1,.76c-.21.15-.43.28-.65.42a1.06,1.06,0,0,0-.44.58L66,52.11c.39.57.64,1.31,1.47,1.14a5.35,5.35,0,0,0,.12.78,3.3,3.3,0,0,0,.33.62c-.39.36-.77.7-1.13,1.06a4.25,4.25,0,0,0-.34.5l1.12,1.33a.64.64,0,0,1,0,.14.91.91,0,0,1-.11.16c-.31.45-.32.54-.09.83a5.11,5.11,0,0,0,2,1.41c.22-.23.42-.46.63-.67a1.12,1.12,0,0,1,.42-.26c.6-.12,1.19-.21,1.8-.32.28.33.58.62.83,1s.71.37,1,.67A2.43,2.43,0,0,0,74.26,62c.16.38.29.79.47,1.16a2.18,2.18,0,0,1,.18,1.38A2.06,2.06,0,0,0,75,65.71a3.36,3.36,0,0,1,.1,1.79c0,.37-.11.75-.19,1.12a2.4,2.4,0,0,0,0,1.19,1.51,1.51,0,0,1,0,1,4,4,0,0,0-.15.45c-.18.69.14,1.32.7,1.35a2,2,0,0,0,.54,0,4.92,4.92,0,0,0,.5-.21,1.74,1.74,0,0,1,.2.85c-.41.19-.81-.06-1.21.32a30.75,30.75,0,0,0-.57,3.21c.24.27.47.49.68.73a.54.54,0,0,0,.71.11c.2-.09.4-.16.6-.27s.39-.29.6-.45a2.09,2.09,0,0,1-.11,1.66c-.26,0-.49,0-.72.08a.71.71,0,0,0-.41.26,3.52,3.52,0,0,0-.69,1.63A23.67,23.67,0,0,0,75.29,84a1.7,1.7,0,0,0,.4,1.22,1.13,1.13,0,0,1,.28.9c0,.5,0,1,0,1.49a.85.85,0,0,0,.08.44,1.8,1.8,0,0,1,.4,1.32.57.57,0,0,0,.08.25c.41,1.11.82,2.23,1.27,3.33.34.86.86,1.5,1.75,1.53l.08,0a1.08,1.08,0,0,1,.84.58,2,2,0,0,0,.92.78,1,1,0,0,0,.81-.85c.2-.79.44-1.57.69-2.35A2.33,2.33,0,0,0,83,91.23a5.76,5.76,0,0,1-.1-.66c.31-.31.58-.64.88-.9a1.53,1.53,0,0,0,.54-1.31c0-.56,0-1.13.06-1.67l.57-1.25,1.27-.22A3,3,0,0,0,88,84.07a7.71,7.71,0,0,0,1.32-2.2,5.42,5.42,0,0,1,1.26-1.76.66.66,0,0,1,.43-.18,1.76,1.76,0,0,0,1-.38c.51-.34,1-.71,1.55-1a9.47,9.47,0,0,0,2.65-2.31C96.53,75.92,96.76,75.55,97,75.21Zm-1.8-2.57,0,.19a.59.59,0,0,0,0-.14S95.18,72.66,95.2,72.64Zm.06,1.21c0-.45-.06-.71-.08-1,0,0,.1,0,.11,0A1.07,1.07,0,0,1,95.26,73.85Z"/><path class="cls-6" d="M54.13,47.22a.64.64,0,0,1,0,.07,2.47,2.47,0,0,1-.23,2.23,2.05,2.05,0,0,0-.28,1.14c0,.19,0,.4,0,.6a5.25,5.25,0,0,0,.51,2.38l2-.24c.19-.33.36-.61.51-.89.44-.8.87-1.61,1.32-2.41a4.76,4.76,0,0,1,1.15-1.41,2.72,2.72,0,0,1,0,1.13,2.72,2.72,0,0,0-1.21,1.25c-.3.5-.63,1-.94,1.49-.09.16-.17.33-.27.54.15.18.28.35.44.53l-.75.41a6.11,6.11,0,0,0-.26,2.2c-.33.39-.65.78-1,1.16a2.16,2.16,0,0,0-.58,1.18,1.18,1.18,0,0,1-.25.72.49.49,0,0,1-.18-.31c0-.5-.3-.65-.74-.54a1.5,1.5,0,0,1-.22,0,.56.56,0,0,1-.72-.38c-.08-.17-.18-.37-.33-.42A6.16,6.16,0,0,0,51,57.42c-.21,0-.4.14-.48.43a2.22,2.22,0,0,0,0,1.88,1.28,1.28,0,0,1,.18.41c.12.42.4.47.8.31a4.73,4.73,0,0,1,.59-.16,2,2,0,0,1,.2,2.28A5.42,5.42,0,0,0,52,65.21a4,4,0,0,0,2.54.53,7.56,7.56,0,0,1,1.57-.06A1.39,1.39,0,0,0,57.41,65s.1,0,.15-.06a.32.32,0,0,1,.14,0c.69.37.53.44,1.54-.13l.22-.12a1.29,1.29,0,0,0,.59-.68,5.92,5.92,0,0,0,.57-2.41c-.49-.43-1-.94-1.74-.86a2.07,2.07,0,0,1-.35,0,3,3,0,0,0-2,.48.88.88,0,0,1-.52.2c-.58-.08-1.2-.1-1.48-.82.07-.22.16-.48.25-.74a1.36,1.36,0,0,1,.27-.06c.54,0,1.1,0,1.64.09a1.64,1.64,0,0,0,1.18-.27.62.62,0,0,1,.58-.15,1,1,0,0,0,1.08-.34l.43.73,1.44-.73a.85.85,0,0,0,.27-.23,13.26,13.26,0,0,0,1.12-1.68l-.59-1.46a4.4,4.4,0,0,1,.4-.48,1.93,1.93,0,0,0,.68-1.57.75.75,0,0,1,.09-.19c.41-.29.88-.24,1.33-.66.18-.44.36-.93.57-1.4a6,6,0,0,0,.45-1.65,11.39,11.39,0,0,1,1-3.18c.4-.22.83-.48,1.26-.68a1.5,1.5,0,0,0,.74-.75c.58-1.09,1.18-2.17,1.79-3.25a11.43,11.43,0,0,1,.84-1.29c.86-1.15,1.72-2.29,2.59-3.41a2.63,2.63,0,0,0,.61-1.37,2,2,0,0,1,.39-1c.48-.67.94-1.37,1.4-2.06a3.19,3.19,0,0,0,.83-2.1,2.11,2.11,0,0,0,0-.35A.94.94,0,0,0,77,30.2a2.59,2.59,0,0,1-1.07-1.62,1,1,0,0,0-.54-.71c-.65-.32-1.28-.66-1.91-1a2.59,2.59,0,0,0-2.46.22c-.72.37-1.35.61-1.88.27a.69.69,0,0,0-.7.1,11.77,11.77,0,0,1-1.18.67,4,4,0,0,0-1.78,1.7,8.44,8.44,0,0,1-1.39,1.73c-.64.62-1.26,1.31-1.91,1.92A2.67,2.67,0,0,0,61.24,35s-.08.1-.16.22l-.77.15a.86.86,0,0,0-.59.48c-.4.69-.82,1.37-1.23,2a1.68,1.68,0,0,0-.25.72c-.09.64-.19,1.29-.26,1.93a1.35,1.35,0,0,0,.06.62,11.24,11.24,0,0,0,.58,1.15c.07.11.18.21.3.19a4.58,4.58,0,0,0,2.4-.62,2.39,2.39,0,0,1,.72-.35c.67-.13,1.32-.21,2.1-.33-.19.15-.27.23-.35.28l-.86.5a4,4,0,0,0-1.44,1.15,1.64,1.64,0,0,1-.24.19c-.41-.09-.65-.44-1-.49-.4.29-.44.74-.64,1.1-.07.14-.1.32-.29.33-.09-.41-.18-.83-.26-1.22-.34-.06-.64-.09-.93-.16s-.32-.06-.37-.19a2.46,2.46,0,0,1-.3-1.46c.07-.5.1-1,.15-1.48,0-.23-.08-.33-.24-.33l-.28,0c-.77.1-.84.16-1.13,1.16a8.7,8.7,0,0,1-1.22,2.65,3.66,3.66,0,0,0-.26.42,2.6,2.6,0,0,0-.22.53,8.93,8.93,0,0,0-.4,1.79A3.59,3.59,0,0,0,54.13,47.22Z"/><path class="cls-6" d="M209.86,172a.92.92,0,0,0,0-.37,3.94,3.94,0,0,0-.69-1.77.82.82,0,0,1,0-.18c.16-.43.07-.68-.25-.75-.1,0-.19-.08-.29-.11a.29.29,0,0,1-.25-.33,1.34,1.34,0,0,0-.79-1.34c-.07,0-.12-.11-.2-.14a.6.6,0,0,1-.26-.59,5.32,5.32,0,0,0-.06-1,1.36,1.36,0,0,1,0-.79.91.91,0,0,0-.24-1.15,2,2,0,0,0-.62-.23c0-.08,0-.17,0-.28,0-.42,0-.85,0-1.27,0-.16,0-.31,0-.48s-.09-.35-.29-.31a.77.77,0,0,0-.43.25,3.49,3.49,0,0,0-.89,1.71c0,.28-.13.57-.2.86a7.44,7.44,0,0,1-1.09,2.43.36.36,0,0,1-.48,0l-.71-.56c-.15-.12-.29-.3-.49-.31-.37,0-.48-.33-.67-.56,0-.18.09-.33.14-.47s.11-.28.16-.4a1.49,1.49,0,0,0,.8-.89c.13-.33,0-.63-.27-.63a1.14,1.14,0,0,0-.45.05,1.54,1.54,0,0,1-1.27-.06c-.25-.09-.51-.18-.78-.25s-.31,0-.54.41a1,1,0,0,0-.9-.26.62.62,0,0,0-.51.8.94.94,0,0,1-.21.82,11.61,11.61,0,0,1-1,1.12l-.25-.27c-.42-.52-.6-.52-1.28,0a1.65,1.65,0,0,1-.43.31,1,1,0,0,0-.66.58c-.29.62-.85.75-1.23,1.18-.48,0-.76.47-1.11.82a2.24,2.24,0,0,1-.17.78,3.31,3.31,0,0,1-1.4,1.31c-.66.24-1.33.56-2,.79a3.35,3.35,0,0,0-1.45.95c-.17.19-.35.35-.57.3s-.34.13-.44.36-.21.53-.32.79a2.5,2.5,0,0,1-.27.6,1.25,1.25,0,0,0-.26.85,1.46,1.46,0,0,1-.23,1,1.17,1.17,0,0,0-.11.67c0,.47.08.92.13,1.37.09.88.16,1.76.24,2.63a2.67,2.67,0,0,1-.57,2.11.82.82,0,0,0-.15.83l.1.17c.56.92.3.77,1.44.62a1.11,1.11,0,0,0,.65-.35c.13-.14.28-.26.41-.4a1.69,1.69,0,0,1,1-.58c.62-.12,1.26-.29,1.85-.44.11-.13.19-.19.24-.27a3.85,3.85,0,0,1,2-1.59c.68-.28,1.34-.44,2-.65,1-.31,1-.31,1.71,0,.24.1.55.11.47.58,0,.08.08.15.15.16.22.05.23.26.22.51s0,.64,0,.95.21.33.52,0c.1-.11.19-.24.28-.36a1.48,1.48,0,0,1-.25.75c-.19.32-.16.42,0,.51a.82.82,0,0,0,.81-.09l.59-.34c.21.17.22.46.1.82a.68.68,0,0,0,.06.68,3.77,3.77,0,0,0,.4.48.37.37,0,0,0,.32.1.79.79,0,0,1,.95.23c.08.12.26,0,.46-.12s.4-.46.69-.51a2.39,2.39,0,0,0,.25.33,2.9,2.9,0,0,0,.36.25,5.84,5.84,0,0,0,1.05-.88,4.59,4.59,0,0,1,1.13-.8c.82-.38.84-.4,1.23-1.36a7.57,7.57,0,0,1,1-1.67c.79-1,1.56-2.09,2.32-3.14a4.66,4.66,0,0,0,.48-.74,8.27,8.27,0,0,0,1.19-3.47C209.8,172.28,209.84,172.14,209.86,172Zm-13.21,9.37,0,0v0Z"/><path class="cls-6" d="M119.1,47.39a10.19,10.19,0,0,0,.86,1.55,1.33,1.33,0,0,0,.81.68,1.48,1.48,0,0,0-.31,1.51,16.22,16.22,0,0,0,.83,2.78,1.92,1.92,0,0,0,.25.47c.33.49.66,1,1,1.45l.16.2c.22.22.46.12.51-.21s0-.38.05-.57a15.06,15.06,0,0,1,.38-2.51,21.39,21.39,0,0,0,.63-3.69.83.83,0,0,1,.1-.35c0-.06.12-.08.19-.12a8.22,8.22,0,0,0,.3,1.09,10.27,10.27,0,0,0,.61,1c-.07.27-.14.53-.22.79s-.17.52-.23.79a.49.49,0,0,0,.22.62c.29.18.59.35.89.51a.41.41,0,0,0,.59-.16c.39-.55.79-1.07,1.18-1.61a2.73,2.73,0,0,0,.14-.36,6.55,6.55,0,0,0-.81-1.15,6.06,6.06,0,0,1-1.32-3,1.39,1.39,0,0,0-.58-1c-.38-.28-.74-.61-1.07-.88a1.79,1.79,0,0,1,0-1.05s.1,0,.12.07a2.36,2.36,0,0,0,1.3,1,5.53,5.53,0,0,1,.89.42c.34.2.57.06.83-.21A12.53,12.53,0,0,0,128.93,43a1.2,1.2,0,0,0,.18-.59,8.35,8.35,0,0,0-.14-2,11.17,11.17,0,0,1-1.44-.5,14.22,14.22,0,0,1-1.42-.92l-.9,1c-.11-.21-.19-.36-.26-.52s-.16-.4-.25-.59-.27-.31-.42-.17c-.47.41-.94.85-1.34,1.23-.15.45,0,.87-.14,1.21l-.67-.25a2.23,2.23,0,0,0-.34.87c-.07.19-.14.37-.21.53a3.79,3.79,0,0,0-1-.37,3.87,3.87,0,0,0-1,.22,3.1,3.1,0,0,1-.42.08c-.29.05-.46.28-.49.68a5.52,5.52,0,0,0,0,.57c0,.67.06,1.34.13,2A8.69,8.69,0,0,0,119.1,47.39Z"/><path class="cls-6" d="M32.78,64.07A2.41,2.41,0,0,1,34,63.91c.3,0,.53-.1.77-.44s.5-.68.75-1l.44-.56.25.27c-.22.25-.42.46-.6.68-.32.41-.63.82-.94,1.24-.15.22-.14.4,0,.51a1.16,1.16,0,0,0,.22.13c.27.15.65.15.66.63,0,.08.13.11.21.15l1.06.54a3.74,3.74,0,0,0,.43.11l.53-.68a1.2,1.2,0,0,1,.14.12,1.1,1.1,0,0,1,0,.21c-.22.19-.42.34-.59.52a.49.49,0,0,0-.14.32c0,.41.17.74.57.8a2.14,2.14,0,0,0,2-.75A10.5,10.5,0,0,1,41,65.57a7.43,7.43,0,0,1,.79.15c.48.13.94-.26,1.41-.55a.92.92,0,0,0,.23-.4c.25-.71.47-1.43.71-2.14.1-.3.08-.52-.09-.67-.34-.31-.67-.64-1-.94a.75.75,0,0,1-.24-.66,4.6,4.6,0,0,0,0-.83c0-.14-.11-.23-.18-.35a1.58,1.58,0,0,0-.33.26c-.47.57-1,1.14-1.42,1.72a.59.59,0,0,0-.1.16,1,1,0,0,0,0,.39,2.69,2.69,0,0,0,.35.42c-.08.22-.15.42-.21.62s.12.39-.06.64c-.32.09-.47,0-.53-.31s-.21-.83-.3-1.25a.7.7,0,0,0-.41-.5,4.83,4.83,0,0,0-1.67-.42c.35-.68.35-.68.26-1.24,0-.12,0-.24,0-.39l.73-.8c.19-.2.25-.43.15-.55-.23-.27-.4-.62-.81-.72-.27.33-.53.65-.81,1a4,4,0,0,1-.58,0,1,1,0,0,0-.8.35c-.4.36-.81.71-1.22,1a3.32,3.32,0,0,0-.92,1.11A3.1,3.1,0,0,1,32.72,62a1.33,1.33,0,0,0-.6.67,5.82,5.82,0,0,0,.28,1.22C32.45,64.08,32.58,64.15,32.78,64.07Zm4.52-2.6s0,0,0,.05v0Zm-.16.23a1.18,1.18,0,0,0,.13-.18.58.58,0,0,1,0,.29c-.35.63-.72,1.25-1.09,1.87,0,0,0,0,0,0A4.68,4.68,0,0,1,37.14,61.7Zm-1.09,2.08-.06.11s0,0,0,0Z"/><path class="cls-6" d="M145.81,70.69a3.59,3.59,0,0,1,0,.47,1.32,1.32,0,0,0,.34.85c1.32,1.7,1.55,1.85,3.37,2.36a1.08,1.08,0,0,0,.88-.13.39.39,0,0,0,.06-.55,7.55,7.55,0,0,0-.61-.65,2.39,2.39,0,0,1-.75-1.66c0-.41,0-.82-.09-1.23a4.43,4.43,0,0,1,.33-2.31c.71-1.72,1.38-3.45,2-5.18a2.61,2.61,0,0,1,.54-.88,15.72,15.72,0,0,1,3.18-2.69c.33-.2.65-.43,1-.65.15-.11.29-.25.45-.38a14.17,14.17,0,0,0-.27-2l-.8-.65c-.2-.16-.38-.2-.56-.07-.52.38-1.1.67-1.31,1.49a.7.7,0,0,1-.52.49,3,3,0,0,1-1.36.13,1,1,0,0,0-.81.22,6.21,6.21,0,0,0-1.54,1.94,2.78,2.78,0,0,1-1.08,1.31,2.8,2.8,0,0,0-.45.39,2.82,2.82,0,0,0,0,.4,5.4,5.4,0,0,1-.52,3,1.78,1.78,0,0,0-.12,1.67,3.45,3.45,0,0,0-.87,3.21c-.05,0-.12.12-.2.18A1,1,0,0,0,145.81,70.69Z"/><path class="cls-6" d="M168.84,46.5a3.89,3.89,0,0,1,1.75,2.08,1.67,1.67,0,0,0,.65.78c.6.39,1.2.8,1.79,1.23a1,1,0,0,0,.92.21.62.62,0,0,1,.6,0c0,.21,0,.39,0,.55,0,.69,0,1.36-.07,2.05a3,3,0,0,0,0,.6c0,.21.29.43.41.35a1.69,1.69,0,0,0,.41-.34,1.12,1.12,0,0,1,1.23-.39,2,2,0,0,0,1.66-.58c-.09-.44-.16-.85-.26-1.27-.3-1.42-.1-.95-1-2.23a9.2,9.2,0,0,0-1.65-1.8,1.39,1.39,0,0,0-.7,1.5,2.22,2.22,0,0,1-.09.57,5,5,0,0,1-.47-2.24,4.06,4.06,0,0,0-1.66-3.09,1.21,1.21,0,0,1-.14-.1,1.35,1.35,0,0,1-.5-.68,3,3,0,0,1-.35-1.59,1.55,1.55,0,0,0-.35-1.12c-.45-.6-.86-1.24-1.29-1.86a6.36,6.36,0,0,0-.44-.51,2,2,0,0,0-.3.26c-.16.2-.3.43-.46.64-.47.68-.47.67-.47,1.77a6.33,6.33,0,0,1-.21,1.61c-.11.41-.19.86-.28,1.3l.66,1.62A1.26,1.26,0,0,0,168.84,46.5Z"/><path class="cls-6" d="M196.46,153.06a2.86,2.86,0,0,0-.28-.45c-.16-.19-.3-.19-.54,0l-.21.17a1.45,1.45,0,0,1-1.55.44,1,1,0,0,0-.91,0,2.4,2.4,0,0,1-.32.41c-.09.07-.28.12-.35.06a2.23,2.23,0,0,1-.79-1.61.65.65,0,0,1,.17-.4c.31-.35.65-.69.95-1,0-.41-.31-.43-.5-.58s-.33-.17-.37-.33c-.1-.43-.42-.53-.76-.75a10.65,10.65,0,0,0-1.44,1.5.71.71,0,0,1-.41.31,1.84,1.84,0,0,0-.9.68,2.31,2.31,0,0,1-1.26.9.62.62,0,0,0-.48.49,2.06,2.06,0,0,1-.16.34c-.32.05-.57-.24-1,0-.14.2-.33.44-.51.7a.72.72,0,0,0-.16.33c0,.6-.21,1.3.28,1.66a.82.82,0,0,1,.27.8,1.4,1.4,0,0,0,.1.93l.74-.06c.28.41.28.4.72.29a1.78,1.78,0,0,1,1-.12,1.43,1.43,0,0,0,.23.39.78.78,0,0,0,.94-.18,3.27,3.27,0,0,0,1.09-1.8.58.58,0,0,1,.1-.24,11.39,11.39,0,0,0,1-1.59c.25-.11.5-.27.74-.2a1.82,1.82,0,0,1-.19,1c-.22.45-.42.91-.65,1.36a.86.86,0,0,0,0,.9,1,1,0,0,1,.15.84c-.17.76-.09.92.66.76.08,0,.15-.08.27-.15.09-.38.19-.77.29-1.17.29.07.07.4.17.5a3.52,3.52,0,0,0,.45.3s0,.14.08.21c.14.27.41.21.67.1s.28-.39.31-.62a.88.88,0,0,0,0-.49c-.34-.47-.23-1.18-.42-1.71a1.4,1.4,0,0,1,.72-.58,2.19,2.19,0,0,0,.37-.25c0-.3,0-.57-.05-.9A1.68,1.68,0,0,0,196.46,153.06Zm-3.84,1.79c.08-.33.25-.48.47-.51s.61-.06.92-.09A1.88,1.88,0,0,1,192.62,154.85Z"/><path class="cls-6" d="M201.89,154.81a8.29,8.29,0,0,0,0-.87,6.42,6.42,0,0,0-.68-.37c-.47-.2-1.08.26-1.56.06-.08,0-.21,0-.31.07a.39.39,0,0,0-.21.15c-.05.07-.11.2-.08.24s.22.19.25.32a3.58,3.58,0,0,1,0,.56c0,.07.09.11.15.15l.31.16c.15.11.19.26.07.5a2.85,2.85,0,0,0-.17.45c.43.09.52.52.7.86l.72-.38c.7.31,1.39.63,2.1.91a.58.58,0,0,1,.38.64c-.27.43-.52.79-.74,1.17s-.07.47.17.45a6.13,6.13,0,0,0,.84-.14c.33-.09.61-.1.76.2a.69.69,0,0,0,.77.34,1.43,1.43,0,0,1,.36,0,.87.87,0,0,0,.75-.21,1.5,1.5,0,0,0,.63-.76.57.57,0,0,1,.64-.44.89.89,0,0,1,.72.55c.08.24.23.45.33.68a.52.52,0,0,0,.51.36c.48,0,.95.07,1.43.1a1.22,1.22,0,0,0,.37-.05.8.8,0,0,0,.44-.46.26.26,0,0,0-.13-.36,1,1,0,0,0-.24-.11c-.23-.06-.42-.15-.38-.49,0-.06-.06-.13-.12-.14s-.24-.23-.31-.4a2.75,2.75,0,0,0-.24-.41c0-.06-.05-.13-.07-.18.11-.24.22-.45.34-.7l.24.15a1.63,1.63,0,0,0,1.52-.11c.64-.29,1.11-1,1.74-1.29a.35.35,0,0,0,.11-.15c.13-.31.24-.63.09-.86a3,3,0,0,0-1.17-1,.3.3,0,0,0-.36.15.53.53,0,0,0-.05.38,2.94,2.94,0,0,0,.39.42c-.39.34-.41.87-.9,1.22l-1.1.13c-.46.06-.46.06-.92.56-.45-.09-.84-.23-.88-.81A.2.2,0,0,0,209,156a3.62,3.62,0,0,0-1.38-1c-1-.27-2-.5-3-.78a.9.9,0,0,0-.89.2c-.35.3-.71.58-1.06.87l-.33.27C202,155.49,201.85,155.22,201.89,154.81Z"/><path class="cls-6" d="M145,168.19a2.53,2.53,0,0,0-.57-1.42c-.1-.17-.36-.12-.46.09s-.25.64-.37,1l-.69.48c-.05.26-.1.51-.16.84l-.79.52-.77.5a1.77,1.77,0,0,0-.54.55,2.45,2.45,0,0,0-.41,1.87,1.33,1.33,0,0,1,0,.28,2.33,2.33,0,0,1-.4,1.95,3.47,3.47,0,0,1-.18.33,1.44,1.44,0,0,0-.22,1c.07.65.11,1.3.18,1.94a1.31,1.31,0,0,0,.22.54c.39.55.85.89,1.52.55a1,1,0,0,1,.3,0c.32,0,.49-.25.6-.64.16-.55.34-1.09.52-1.64a46.59,46.59,0,0,0,1.54-5.34,1.89,1.89,0,0,1,.53-1.16.91.91,0,0,0,.25-.86C145.07,169.05,145,168.62,145,168.19Z"/><path class="cls-6" d="M46.49,51.67a1.43,1.43,0,0,1,.26.23l-.53,1c.05.22.1.41.13.61a.72.72,0,0,0,.56.67,3.4,3.4,0,0,0,1.58.25,2.57,2.57,0,0,1,.08.38c0,.26,0,.53.1.79s.2.27.44.11l.22-.17a3,3,0,0,1,1.88-.72,4,4,0,0,1-.41.33c-.27.21-.35.52-.13.63.67.31,1.36.6,2,.9a.36.36,0,0,0,.42-.14,2.47,2.47,0,0,0,.82-2.1,12.94,12.94,0,0,0-1.89-.06c.12-.38.26-.73.36-1.09.22-.82.29-1.55-.23-2a6,6,0,0,1-.49-.51,1.67,1.67,0,0,0-.23-.23c-.19-.15-.4,0-.54.3a3.35,3.35,0,0,0-.19.53c-.2.61-.38,1.21-.57,1.81,0,.13-.12.27-.18.4l-.15,0a2.54,2.54,0,0,1,0-.39c.08-.56.19-1.13.27-1.69a1.9,1.9,0,0,0,0-.66c-.11-.52-.26-1-.39-1.49a5.39,5.39,0,0,0-.6.05,1,1,0,0,1-1-.19.51.51,0,0,0-.4-.13c-.32,0-.66.11-.92.15a2.33,2.33,0,0,0-.8,2.13A4.41,4.41,0,0,1,46.49,51.67Z"/><path class="cls-6" d="M217.13,176.64a1.88,1.88,0,0,1-.23.16c-.28.14-.49.06-.4-.23.14-.48,0-.66-.36-.67,0,0-.07,0-.14-.05,0-.23.06-.43.07-.62s0-.21,0-.25a5.67,5.67,0,0,0-.69-.52.34.34,0,0,0-.28.09.88.88,0,0,0-.22.38,1.07,1.07,0,0,0,0,.4,8.72,8.72,0,0,0,.18,1.19,2,2,0,0,1-.29,1.27,3.17,3.17,0,0,1-.68.94c-.43.41-.44.52-.2.74.07.07.18.11.21.22s-.06.22-.11.41L212.9,180a1.7,1.7,0,0,0-.64.66,1.48,1.48,0,0,1-.57.65,1.07,1.07,0,0,0-.26.29,4.84,4.84,0,0,1-1.06,1.06l-1.15.92a5,5,0,0,0-.58.55c-.56.64-1.11,1.3-1.65,2-.4.49-.39.88,0,.89.09,0,.25-.1.22.1s-.28.36-.4.55a.43.43,0,0,0-.06.28c0,.1.14.08.28,0l.08-.05a13.06,13.06,0,0,1,1.3-.89,4.3,4.3,0,0,0,1.41-1.38c.15-.24.36-.48.54-.73a3.18,3.18,0,0,1,1.41-1.28.7.7,0,0,0,.37-.41,1.78,1.78,0,0,1,.58-.94l1-1a2.46,2.46,0,0,0,.56-.18,3.08,3.08,0,0,0,.58-.51c.36-.45.69-.91,1-1.37a1.59,1.59,0,0,1,.7-.62,1.48,1.48,0,0,0,.69-.65,4,4,0,0,0,.48-1C217.85,176.43,217.64,176.33,217.13,176.64Z"/><path class="cls-6" d="M102.08,87.23a3.17,3.17,0,0,0,.58-1.84c0-.19,0-.38,0-.57a1.43,1.43,0,0,0-.07-.28l-.55-.46c0-.37,0-.68,0-1s-.16-.34-.32-.3a3.8,3.8,0,0,0-.51.15l-.51-.47-.92.88a1.22,1.22,0,0,0-1.13,0,.7.7,0,0,1-.53.07c-.1,0-.24.06-.36.1,0,.32-.08.6-.12.88,0,0-.08,0-.14.09-.16-1-.47-1.83-1.46-1.93a2.91,2.91,0,0,1-.25.5,2,2,0,0,1-.32.27L95,84.58a.56.56,0,0,0,.11.67l.49.47c-.15.18-.27.31-.39.43a.46.46,0,0,0-.13.5.51.51,0,0,0,.31.23,5.22,5.22,0,0,0,.67,0,.43.43,0,0,1,.11.53c-.08.16-.19.31-.26.48s0,.56.26.61a1.27,1.27,0,0,0,.39,0,2.16,2.16,0,0,1,1.35.33c.3.17.62.31,1,.48l3-1.89A.64.64,0,0,0,102.08,87.23Z"/><path class="cls-6" d="M193.52,142c0,.26-.06.53-.09.8s.07.48.33.54c.06,0,.09.11.14.17-.1.24-.18.47-.27.69.23.53.34,1.12.89,1.3,0,.28-.07.52-.08.75a.53.53,0,0,0,0,.32c.29.28.21.79.49,1.13l-.31.34a3.2,3.2,0,0,0-.27.25.7.7,0,0,0-.2.8c.11.35.27.41.58.15a1.21,1.21,0,0,1,.67-.33.48.48,0,0,1,0,.17c-.12.39,0,.61.28.73s.38.21.58.31A.53.53,0,0,0,197,150a4.8,4.8,0,0,0,.86-1.2,1.41,1.41,0,0,0,.13-.43c.05-.68.11-1.36-.49-1.68,0,0,0-.08-.14-.23a3.23,3.23,0,0,0,.24-2.21l-.37-.06c-.47,0-.47,0-.52-.57a1.93,1.93,0,0,0-.06-.3l-1.21-.25a1.21,1.21,0,0,1,.11-1,3.41,3.41,0,0,0,.41-1.09,5.35,5.35,0,0,1,.13-1.12c.06-.27-.14-.47-.37-.33a.75.75,0,0,1-.82.06.54.54,0,0,0-.22,0,.36.36,0,0,0-.38.28c-.06.21-.09.41-.13.62-.07.44-.07.89-.49,1.21A.57.57,0,0,0,193.52,142Zm2.75,5.22,0,.12-.29.18-.06-.2Zm-1.14-2.64a1.44,1.44,0,0,1,1.12.13c.09.07.19.23.16.32a1.45,1.45,0,0,1-.31.36c-.35-.25-.67-.46-1-.69C195.11,144.73,195.12,144.68,195.13,144.61Z"/><path class="cls-6" d="M44.93,72.59c.26.63.52,1.25.8,1.86.16.36.33.38.67.06a5.75,5.75,0,0,1,1.43-1,.69.69,0,0,0,.4-.47,5.59,5.59,0,0,0,.38-2.22c-.09-1-.06-1-.65-1.46.25-.38.51-.77.75-1.15-.1-.42-.17-.79-.28-1.14a1.32,1.32,0,0,0-.23-.35l-.94.61-.61-.25c-.26.13-.48.27-.71.37a.94.94,0,0,0-.59.85c-.05.52-.09,1-.13,1.58a2.1,2.1,0,0,0-1.26.83,6.45,6.45,0,0,0,.31,1.84Z"/><path class="cls-6" d="M43.8,64.59c-.08.16,0,.41.15.37.35-.11.71-.24,1.06-.39.05,0,.11-.15.14-.23s.06-.29.08-.39l1-.68a5.12,5.12,0,0,1,.25,1.08c0,.22.16.36.39.34l1.27-.14a.49.49,0,0,0,.4-.32,13.86,13.86,0,0,0,.67-1.86,15.53,15.53,0,0,0,.28-2.13.88.88,0,0,0-.08-.53c-.39-.52-.75-1.07-1.53-.93a.75.75,0,0,1-.21,0c-.24,0-.44.12-.61.4l-.77,1.27a2.51,2.51,0,0,1-.44-.82.29.29,0,0,0-.4-.17,1.65,1.65,0,0,0-.9.57c.06,1,.13,2,.21,3C44.21,63.32,44.1,64,43.8,64.59Z"/><path class="cls-6" d="M202,67.8a1.5,1.5,0,0,0,1,.1,3.86,3.86,0,0,0,.41-.2l.77-.38c.15.13.29.26.44.37s.37.17.47,0c.34-.46.68-.9,1-1.38a1.48,1.48,0,0,0-.34-1.28,3.65,3.65,0,0,0-1-.7,2.26,2.26,0,0,1-.86-.65c-.08-.1-.17-.19-.26-.29-.47-.5-.63-.51-.74,0-.05.21-.1.42-.16.73l-.69-.66c-.18-.18-.36-.37-.55-.54s-.36-.21-.48-.09-.3.35-.47.51a1,1,0,0,0-.21.87,5.45,5.45,0,0,0,1,2.79C201.59,67.28,201.69,67.67,202,67.8Z"/><path class="cls-6" d="M147.87,40.16h-1.13c-.21.51-.43,1-.63,1.49a.45.45,0,0,0,.27.58c.28,0,.56.06.85.1a.5.5,0,0,0,.51-.31l.56-1a5.24,5.24,0,0,1,.82.28.71.71,0,0,0,1-.23,1,1,0,0,0,.21-.93,4.13,4.13,0,0,1-.11-1.2c.77.18.77.18,1.28-.45.08-.09.16-.16.24-.24-.24-.9-.56-1.68-.82-2.48-.13-.4-.37-.5-.55-.24a3.12,3.12,0,0,0-.79,2,.27.27,0,0,1,0,.09c0,.26-.13.4-.32.44s-.59.2-.89.27-.41.23-.41.63S147.9,39.75,147.87,40.16Z"/><path class="cls-6" d="M39.74,57.17a1.3,1.3,0,0,1,.26,0c0,.37,0,.66,0,.92,1,.28,1.17.23,2.2-.68a1.37,1.37,0,0,0,.43-.62c.09-.29.24-.59.31-.88a3.68,3.68,0,0,1,.92-1.75,2.39,2.39,0,0,0,.29-.46c0-.1,0-.19-.09-.22-.32-.15-.64-.29-1-.42a.54.54,0,0,0-.28,0,10.24,10.24,0,0,0-1,.33,1,1,0,0,0-.43.31c-.24.31-.46.64-.67,1s-.05.48.16.43a2.64,2.64,0,0,0,.45-.15c.37-.15.61-.09.71.34a8.65,8.65,0,0,1-1.56,1,6.76,6.76,0,0,0,0-.76c0-.09-.16-.2-.23-.16a3.16,3.16,0,0,0-1.29,1.07c.09.21.17.41.25.63S39.44,57.33,39.74,57.17Z"/><path class="cls-6" d="M140.42,40.47c.07.38.14.72.22,1.1l1.14.83.9-.36a.48.48,0,0,0,.25-.54c0-.1,0-.19,0-.29a2.07,2.07,0,0,1,.2-1.37,1.62,1.62,0,0,0,.29-.84c-.4-.7-.4-.7-.87-1l-1,.76a2.61,2.61,0,0,0-1.08-1.34,3.71,3.71,0,0,0-1.33,2C139.44,40.1,139.85,40.5,140.42,40.47Z"/><path class="cls-6" d="M144.86,38.86c.37.28.75.54,1.13.8a.42.42,0,0,0,.47.06c.37-.22.75-.42,1.11-.64.18-.12.19-.33.05-.63s-.26-.5-.41-.8c.13-.39.27-.76.38-1.16a1.35,1.35,0,0,0,0-.6c-.16-.75-.34-1.51-.54-2.25-.1-.41-.36-.53-.52-.26s-.43.81-.67,1.17a1.79,1.79,0,0,0-.23,1.4,1.63,1.63,0,0,1,0,1l-.7,0c-.11.44-.23.87-.33,1.31A.5.5,0,0,0,144.86,38.86Z"/><path class="cls-6" d="M201.75,185.36a4.66,4.66,0,0,0-.45.22c-.33.18-.57.21-.74,0a.64.64,0,0,0-.28-.16c-.1,0-.33.15-.4.31a1.73,1.73,0,0,0-.1.33c-.1.71-.19,1.4-.31,2.1-.05.29,0,.45.24.45l.35,0a6.1,6.1,0,0,1,.54-.45,3.28,3.28,0,0,1,.58-.24c.34-.75.66-1.43.94-2.1C202.33,185.38,202.17,185.19,201.75,185.36Z"/><path class="cls-6" d="M204.21,71.39a4.3,4.3,0,0,0,2.36,1c.17,0,.27-.08.24-.27a1.78,1.78,0,0,0-.64-1.35,3.11,3.11,0,0,1-.4-.41,1.68,1.68,0,0,0-1.21-.69l-.32-.93c-.39-.27-.69-.31-1-.14a2.7,2.7,0,0,0,.4,1.27,1.69,1.69,0,0,1,.25,1A.64.64,0,0,0,204.21,71.39Z"/><path class="cls-6" d="M208.61,68.33l.15.12a1.24,1.24,0,0,0,.82.42c.19,0,.38,0,.62,0a4.1,4.1,0,0,0,.05-1.35.58.58,0,0,0-.39-.55l-1.31-.58a3.66,3.66,0,0,1-1.51-.93c-.13-.15-.3-.18-.4-.08s-.06.22,0,.37A6.31,6.31,0,0,0,208.61,68.33Z"/><path class="cls-6" d="M51.3,65a3.18,3.18,0,0,0-.18-2.79l-1.06.11c-.35.61-.68,1.17-1,1.72-.17.3-.16.49,0,.58.56.26,1.13.51,1.7.74C51,65.44,51.23,65.27,51.3,65Z"/><path class="cls-6" d="M59.75,83A3.6,3.6,0,0,0,60.3,83a1.75,1.75,0,0,0,1.43-1.77s0-.07,0-.1a1.14,1.14,0,0,0-.07-.33c-.23-.37-.47-.72-1-.6l-.5.07c-.59.92-1.06,1.78-.61,2.74C59.66,83,59.71,83.05,59.75,83Z"/><path class="cls-6" d="M4.58,136.42c-.45-.6-1.14-.67-1.67-1.1-.09-.08-.32,0-.48.05-.35-.5-.39-.52-.79-.43a3.52,3.52,0,0,0-.43.13c-.14.05-.18.27-.1.47a.4.4,0,0,0,.4.24,3.35,3.35,0,0,1,.44-.07.39.39,0,0,1,.3.1,2,2,0,0,0,1.24.52c.3.34.63.61.6,1,.32.72.64.87,1.23.58l.13-.07c.29-.16.29-.41,0-.7A5.55,5.55,0,0,1,4.58,136.42Z"/><path class="cls-6" d="M196.49,157.45l.67-.64,1.61.38c.29.06.51-.17.53-.52,0-.06,0-.11,0-.17,0-.7-.18-.91-.82-.82a2.36,2.36,0,0,0-1.48.58,1.79,1.79,0,0,0-1.08,0c-.19.08-.33.36-.23.5A1.42,1.42,0,0,0,196.49,157.45Z"/><path class="cls-6" d="M218.92,158.94c-.16-.47-.28-.88-.45-1.27,0-.11-.18-.23-.29-.2a.66.66,0,0,1-.58-.13,2.53,2.53,0,0,0-.52-.26.48.48,0,0,0-.29.15.47.47,0,0,0-.11.31.33.33,0,0,0,.14.21,3,3,0,0,0,.53.34,2,2,0,0,0,.5.08c-.18,0-.36.06-.55.11a.46.46,0,0,0-.31.4c0,.24,0,.44.21.54a1.2,1.2,0,0,1,.88.22,3.06,3.06,0,0,0,.83.21c.11,0,.27-.1.33-.26a.31.31,0,0,0,0-.27A1.21,1.21,0,0,0,218.92,158.94Zm-1.1-.68.05-.06a.08.08,0,0,1,0,0Z"/><path class="cls-6" d="M79.24,205c-.34-.15-.68-.34-1-.51a1.27,1.27,0,0,0-.36.11,5,5,0,0,0-.59.53c-.09.09,0,.25,0,.41a2.75,2.75,0,0,0,1.38,1.12.11.11,0,0,0,.12,0,8.16,8.16,0,0,0,.73-.71A.77.77,0,0,0,79.24,205Z"/><path class="cls-6" d="M197.17,154.05c0,.19,0,.37.06.53s-.26.46-.36.68,0,.37.15.38a1.11,1.11,0,0,0,.77-.14c.13-.28.27-.55.42-.86l-.16-.56c.13-.2.26-.37.36-.56.35-.63.34-.86,0-1.27-.16-.18-.34-.18-.53.05C197.13,153.14,197.09,153.11,197.17,154.05Z"/><path class="cls-6" d="M46.13,58.06a2.09,2.09,0,0,0,0-.35l0-1.67a3.25,3.25,0,0,0-.06-.45A1.68,1.68,0,0,0,45,56a14.3,14.3,0,0,0-.15,2.12c.28.11.53.23.8.32S46.08,58.34,46.13,58.06Z"/><path class="cls-6" d="M6.5,99.92c-.57.53-1.12,1.07-1.68,1.62a.38.38,0,0,0-.08.45,1.94,1.94,0,0,0,.22.4c.16.23.37.26.6,0a3.43,3.43,0,0,1,1.22-.87c.11-.39.23-.73.3-1.08A.91.91,0,0,0,7,100,.29.29,0,0,0,6.5,99.92Z"/><path class="cls-6" d="M195,137.33l.08-.16c.34-.84.67-1.67,1-2.5a2.45,2.45,0,0,0,.08-.32c-.1-.07-.22-.24-.33-.22a1.15,1.15,0,0,0-.9.54c-.19.31-.41.59-.59.9a.65.65,0,0,0-.12.41c.07.45.15.9.26,1.33C194.55,137.53,194.87,137.53,195,137.33Z"/><path class="cls-6" d="M144.52,76.21c-.19.31-.36.64-.55,1,.14.39.26.75.4,1.09s.3.4.57.28a1.6,1.6,0,0,0,1-1.29,5.1,5.1,0,0,0-1-1.11C144.77,76.05,144.62,76.05,144.52,76.21Z"/><path class="cls-6" d="M216.42,157.14c0-.07-.07-.16-.14-.21-.42-.33-.85-.65-1.28-1-.05,0-.13,0-.16,0-.19,0-.38.28-.35.42s.14.5.22.75.21.34.54.21.55.09.5.49a.73.73,0,0,0,.46.81s.21,0,.29-.1a1.2,1.2,0,0,0,.15-.3.19.19,0,0,0,0-.08C216.49,157.85,216.24,157.63,216.42,157.14Z"/><path class="cls-6" d="M219.29,167.8a.52.52,0,0,0,.42-.3.38.38,0,0,0,0-.34c-.2-.29-.44-.54-.65-.82s-.53-.27-.91-.31a1,1,0,0,0-.31.21.75.75,0,0,0-.1.38c0,.06,0,.11.08.16a3.41,3.41,0,0,0,1.06,1A.52.52,0,0,0,219.29,167.8Z"/><path class="cls-6" d="M51,47.11c.27.19.53.38.81.54a.3.3,0,0,0,.27,0,.87.87,0,0,0,.21-.22c0-.08,0-.12,0-.14-.09-.65-.18-1.31-.29-1.95,0-.2-.32-.1-.46.16s-.42.81-.61,1.22C50.9,46.88,50.92,47,51,47.11Z"/><path class="cls-6" d="M192.92,145.84l-1.6,2a.34.34,0,0,0-.09.15c0,.11,0,.27,0,.32a.51.51,0,0,0,.33.09c.06,0,.14-.08.21-.14l1.7-1.62a4.66,4.66,0,0,0,.08-.72c0-.29-.26-.4-.49-.21A.8.8,0,0,0,192.92,145.84Z"/><path class="cls-6" d="M144.71,41.49a2.14,2.14,0,0,0,1.18-.26,1.38,1.38,0,0,0-.11-.42q-.32-.53-.66-1c-.17-.24-.38-.24-.46,0s-.23.75-.32,1.14S144.43,41.49,144.71,41.49Z"/><path class="cls-6" d="M58.25,140.27a6.1,6.1,0,0,0-.45.54.38.38,0,0,0,.2.58,12.54,12.54,0,0,0,1.33.27c.2,0,.44.05.53-.23s-.09-.48-.4-.64S58.7,140.46,58.25,140.27Z"/><path class="cls-6" d="M57.13,91.54a1.78,1.78,0,0,0-.27.08,2.89,2.89,0,0,0,0,1.9.36.36,0,0,0,.28.22.47.47,0,0,0,.29-.25,9.32,9.32,0,0,0,.33-1.06C58,91.59,57.88,91.47,57.13,91.54Z"/><path class="cls-6" d="M153.4,202.07c-.09,0-.21,0-.32.06-.1-.14-.18-.28-.28-.4a.2.2,0,0,0-.35,0,.92.92,0,0,0-.18.41,2.68,2.68,0,0,1-.15,1c-.07.18,0,.35.19.32a2.62,2.62,0,0,0,1.12-.62.55.55,0,0,0,.16-.51A.32.32,0,0,0,153.4,202.07Z"/><path class="cls-6" d="M220.82,161.69c-.25.38-.44.83-.29,1.07s.13.5.26.67a.77.77,0,0,0,.62-.2c.26-.18.36-.39.24-.55a.84.84,0,0,1-.18-.59c0-.22-.18-.36-.29-.52S220.89,161.58,220.82,161.69Z"/><path class="cls-6" d="M55.68,91a4,4,0,0,0-1,.48,2.9,2.9,0,0,0-.56.81.32.32,0,0,0,.2.4A1.93,1.93,0,0,0,56,91.36s0-.06,0-.14A.26.26,0,0,0,55.68,91Z"/><path class="cls-6" d="M56.24,102.05c.24.08.45.18.67.24a.31.31,0,0,0,.28-.13,1.81,1.81,0,0,0,.27-1.13c-.05-.28-.12-.6-.51-.61C56.55,100.82,56,101.15,56.24,102.05Z"/><path class="cls-6" d="M58.52,135.66a1.13,1.13,0,0,0-.55-.87.28.28,0,0,0-.41.12c-.07.25-.12.5-.18.77.31.42.43,1,1.06,1.12A2.37,2.37,0,0,0,58.52,135.66Z"/><path class="cls-6" d="M66,140.64c-.34-.12-.51,0-.51.41a2.31,2.31,0,0,0,0,.37.46.46,0,0,0,.52.45l.68-.11c.18,0,.38-.08.39-.35a.49.49,0,0,0-.35-.46C66.45,140.85,66.2,140.73,66,140.64Z"/><path class="cls-6" d="M100.45,132.48c-.21.1-.4.18-.59.29a.43.43,0,0,0-.08.58c.19.27.37.55.72.46.12,0,.26,0,.39.05a.37.37,0,0,0,.42-.32.54.54,0,0,0-.2-.57Z"/><path class="cls-6" d="M106.3,91.1c-.06.37.19.56.39.75a.25.25,0,0,0,.42,0c.2-.28.38-.6.56-.9a.66.66,0,0,0,0-.24c-.08-.07-.17-.21-.27-.22a1.71,1.71,0,0,0-.54.1C106.63,90.64,106.36,90.74,106.3,91.1Z"/><path class="cls-6" d="M201.05,157.66c-.15.36-.27.74-.4,1.08,0,.06,0,.09,0,.11,0,.19,0,.35.17.35a.61.61,0,0,0,.34-.2c.15-.2.27-.42.4-.63a.79.79,0,0,0,0-.86C201.48,157.34,201.15,157.42,201.05,157.66Z"/><path class="cls-6" d="M50.44,155.12c-.06-.08-.22-.15-.28-.12a.37.37,0,0,0-.2.28c0,.32.09.65.14,1a1.24,1.24,0,0,0,.85.16c.14,0,.23-.26.13-.41C50.88,155.71,50.66,155.4,50.44,155.12Z"/><path class="cls-6" d="M175.18,144.81a.35.35,0,0,0-.37.3c-.09.38-.18.77-.25,1.17a.29.29,0,0,0,.25.35.3.3,0,0,0,.3-.25c.1-.36.19-.72.25-.95s0-.19,0-.22C175.39,145,175.37,144.84,175.18,144.81Z"/><path class="cls-6" d="M149.34,146.61c0-.23-.15-.34-.52-.33a1,1,0,0,0-.39,0,.85.85,0,0,0-.39.29.68.68,0,0,0-.08.43.22.22,0,0,0,.3.19c.21,0,.41-.11.62-.16S149.3,146.94,149.34,146.61Z"/><path class="cls-6" d="M226.54,104.12a.28.28,0,0,0-.26.1c0,.06-.06.23,0,.28a10.44,10.44,0,0,0,.88.88c.14.13.4,0,.38-.27,0,0,0,0,0,0A2.34,2.34,0,0,0,226.54,104.12Z"/><path class="cls-6" d="M105.82,73.13a2.36,2.36,0,0,0,.93-1.12s0-.06,0-.09-.2-.36-.33-.28a2.44,2.44,0,0,0-.88,1.06.55.55,0,0,0,.08.34C105.66,73.1,105.78,73.16,105.82,73.13Z"/><path class="cls-6" d="M202.85,154.77a1.84,1.84,0,0,0,.25-.19c.16-.16.29-.34.23-.54a.35.35,0,0,0-.35-.3,1.63,1.63,0,0,0-.31,0,.43.43,0,0,0-.31.59C202.47,154.54,202.58,154.74,202.85,154.77Z"/><path class="cls-6" d="M195,155.81a1,1,0,0,0,.39,0,2.09,2.09,0,0,0,.43-.11.49.49,0,0,0,.19-.28c0-.12-.06-.3-.13-.3a3.31,3.31,0,0,0-.82.06.33.33,0,0,0-.24.33A.38.38,0,0,0,195,155.81Z"/><path class="cls-6" d="M110.83,95.22a.35.35,0,0,0,.23-.2,2.5,2.5,0,0,0,.07-.49,2.87,2.87,0,0,0,0-.35c0-.19,0-.38-.24-.44s-.36.12-.43.33a.58.58,0,0,0,0,.28,3.38,3.38,0,0,0,.19.71A.27.27,0,0,0,110.83,95.22Z"/><path class="cls-6" d="M199.07,159a8.19,8.19,0,0,0-.54.77.37.37,0,0,0,0,.29.2.2,0,0,0,.33,0,5.42,5.42,0,0,0,.59-.83.22.22,0,0,0-.21-.33A.5.5,0,0,0,199.07,159Z"/><path class="cls-6" d="M200.07,133.73a7.06,7.06,0,0,0,.48-.73.27.27,0,0,0,0-.15.26.26,0,0,0-.36-.21,1.4,1.4,0,0,0-.57.85.43.43,0,0,0,.16.32A.28.28,0,0,0,200.07,133.73Z"/><path class="cls-6" d="M149.13,173.26c-.22,0-.48.42-.49.79a.31.31,0,0,0,.35.32.44.44,0,0,0,.46-.41C149.48,173.6,149.32,173.27,149.13,173.26Z"/><path class="cls-6" d="M231.82,107.7c.28,0,.44-.14.4-.33s-.18-.28-.42-.3h-.39a.29.29,0,0,0-.25.32.32.32,0,0,0,.27.27A1.72,1.72,0,0,0,231.82,107.7Z"/><path class="cls-6" d="M70.08,143.11a.52.52,0,0,0-.16-.3.38.38,0,0,0-.23-.09c-.37,0-.52.13-.52.42s.14.46.31.47A.55.55,0,0,0,70.08,143.11Z"/><path class="cls-6" d="M147.76,174.3a.45.45,0,0,0-.48.38c0,.27.13.55.34.55s.45-.27.51-.54A.34.34,0,0,0,147.76,174.3Z"/><path class="cls-6" d="M201.05,132.15a5.24,5.24,0,0,0,.55-.41.35.35,0,0,0,0-.32c0-.08-.16-.17-.23-.15a1.45,1.45,0,0,0-.51.26.3.3,0,0,0-.09.39C200.85,132,201,132.05,201.05,132.15Z"/><path class="cls-6" d="M14.47,164.18c-.15,0-.16.28,0,.44a1,1,0,0,0,.66.36c.08,0,.12-.12.17-.17s-.07-.17-.1-.22A1.15,1.15,0,0,0,14.47,164.18Z"/><path class="cls-6" d="M94.09,123.92a.35.35,0,0,0,.28-.37.31.31,0,0,0-.29-.35,1.6,1.6,0,0,0-.31,0,.36.36,0,0,0-.3.36.4.4,0,0,0,.31.36l.16,0A.77.77,0,0,0,94.09,123.92Z"/><path class="cls-6" d="M91.66,122.42a.85.85,0,0,0-.09.23.39.39,0,0,0,0,.26.65.65,0,0,0,.62.34.23.23,0,0,0,.19-.14.6.6,0,0,0,0-.35A.71.71,0,0,0,91.66,122.42Z"/><path class="cls-6" d="M176.81,153.23c-.06-.08-.15-.11-.25-.19a1.39,1.39,0,0,0-.24.26.46.46,0,0,0,0,.26c0,.35.15.53.36.51a.29.29,0,0,0,.21-.12A.64.64,0,0,0,176.81,153.23Z"/><path class="cls-6" d="M210,154.78a.86.86,0,0,0,.23-.05.39.39,0,0,0,.29-.3c0-.16,0-.29-.13-.29a1.19,1.19,0,0,0-.52.09c-.07,0-.16.19-.18.28a.3.3,0,0,0,.11.24S209.92,154.78,210,154.78Z"/><path class="cls-6" d="M217.22,114a.47.47,0,0,0,.42-.55c-.06,0-.15-.19-.25-.2s-.51.28-.46.52A.28.28,0,0,0,217.22,114Z"/><path class="cls-6" d="M70.05,144.75a.26.26,0,0,0,.41,0,.4.4,0,0,0-.06-.49,3.47,3.47,0,0,0-.4-.3c-.09.09-.19.15-.22.24a.48.48,0,0,0,0,.33A.78.78,0,0,0,70.05,144.75Z"/><path class="cls-6" d="M94.43,142.69c-.16,0-.26.14-.26.37s.11.47.28.49.32-.19.32-.43S94.62,142.68,94.43,142.69Z"/><path class="cls-6" d="M118.35,119c0-.35.06-.7.07-1.05s-.24-.47-.44-.32a1.51,1.51,0,0,0-.71,1.47,5.72,5.72,0,0,1,0,.62.85.85,0,0,0-.34.94c.06.41.1.82.14,1.24a1.29,1.29,0,0,0,.47.85.34.34,0,0,0,.22.09c.3,0,.81-.49.86-.86s.08-.9.13-1.34a.93.93,0,0,0-.22-.86A.87.87,0,0,1,118.35,119Z"/><path class="cls-6" d="M130,125.94a3.89,3.89,0,0,0-1.88-.18.51.51,0,0,0-.28.16.44.44,0,0,0,0,.75A2.85,2.85,0,0,0,130,127a2.69,2.69,0,0,0,.19-.43C130.36,126.21,130.29,126.08,130,125.94Z"/><path class="cls-6" d="M114.15,121.16l-.24,0a1,1,0,0,0-.81.3.35.35,0,0,0,0,.49,4.7,4.7,0,0,0,.65.53.2.2,0,0,0,.22,0,6.36,6.36,0,0,0,.47-.85C114.46,121.42,114.31,121.2,114.15,121.16Z"/><path class="cls-6" d="M124.23,99.81a.37.37,0,0,0,.15,0,.65.65,0,0,0,.65-.65c0-.28.1-.56.12-.84A.51.51,0,0,0,125,98a.33.33,0,0,0-.29,0,4.67,4.67,0,0,0-.64.55A1,1,0,0,0,124.23,99.81Z"/></g></g><path class="cls-7" d="M158.3,89.05a3.72,3.72,0,0,0,0-6.81A3.71,3.71,0,0,0,157,76.1a3.72,3.72,0,0,0-2-6,4.18,4.18,0,0,0,.07-.72,3.72,3.72,0,0,0-3.61-3.71A3.73,3.73,0,0,0,148.27,60a3.54,3.54,0,0,0-1.08.17,3.86,3.86,0,0,0,.1-.84,3.73,3.73,0,0,0-3.73-3.73,3.58,3.58,0,0,0-.87.11,3,3,0,0,0,0-.42A3.72,3.72,0,0,0,139,51.54a3.65,3.65,0,0,0-1.74.43,3.71,3.71,0,0,0-5.48-2.6,3.72,3.72,0,0,0-6.24-1.51,3.72,3.72,0,0,0-6.71.1,3.72,3.72,0,0,0-6.6-.31,3.73,3.73,0,0,0-5.46.23,3.7,3.7,0,0,0-5.41,1.91,3.72,3.72,0,0,0-4.95,2.28,3.79,3.79,0,0,0-1.26-.22,3.71,3.71,0,0,0-3.72,3.72v.1a3.88,3.88,0,0,0-.85-.1,3.73,3.73,0,0,0-3.72,3.73,3.33,3.33,0,0,0,.1.84A3.6,3.6,0,0,0,85.86,60a3.72,3.72,0,0,0-3.72,3.73,3.76,3.76,0,0,0,.54,1.93,3.72,3.72,0,0,0-3.61,3.71,3.38,3.38,0,0,0,.07.72,3.73,3.73,0,0,0-2,6,3.72,3.72,0,0,0-1.32,6.14,3.72,3.72,0,0,0,0,6.81,3.72,3.72,0,0,0,.63,7,3.73,3.73,0,0,0,1.31,6.16,3.74,3.74,0,0,0,2.09,5.32,3.69,3.69,0,0,0-.8,2.3,3.73,3.73,0,0,0,3.72,3.73h.1a3.71,3.71,0,0,0,3.63,2.91h.18a3.58,3.58,0,0,0-.18,1.14,3.73,3.73,0,0,0,3.72,3.72,2.55,2.55,0,0,0,.39,0,3.15,3.15,0,0,0-.06.61,3.73,3.73,0,0,0,3.73,3.73,3.38,3.38,0,0,0,1-.15,3.71,3.71,0,0,0,5.56.61,40.2,40.2,0,0,0,32.63.2,3.76,3.76,0,0,0,2.28.78,3.7,3.7,0,0,0,3-1.59,3.5,3.5,0,0,0,1,.15,3.72,3.72,0,0,0,3.72-3.73,4.18,4.18,0,0,0-.05-.61,2.42,2.42,0,0,0,.38,0,3.73,3.73,0,0,0,3.73-3.72,3.89,3.89,0,0,0-.18-1.14h.18a3.72,3.72,0,0,0,3.63-2.91h.09a3.71,3.71,0,0,0,2.92-6,3.72,3.72,0,0,0,2.09-5.32,3.73,3.73,0,0,0,2.44-3.49,3.68,3.68,0,0,0-1.13-2.67,3.73,3.73,0,0,0,.64-7Z"/><path class="cls-8" d="M95.9,114.57l-.46-.15c-1.68.09-3.77-4-3.94-7.63l-.92-7c-.06-1.28.28-2.29,1.29-2l.31.1a5.1,5.1,0,0,1,3.19,4.78Z"/><path class="cls-8" d="M138.79,114.59l.46-.15c1.68.07,3.74-4,3.87-7.67l.86-7c0-1.27-.3-2.28-1.31-2l-.31.1a5.1,5.1,0,0,0-3.15,4.81Z"/><polygon class="cls-9" points="132.3 119.36 102.75 119.36 102.75 153.26 132.3 153.22 132.3 119.36"/><polygon class="cls-9" points="102.75 132.86 116.43 143.81 102.75 153.22 102.75 132.86"/><path class="cls-8" d="M132.3,132.86v20.36s-17.44,1.91-29.55,0Z"/><path class="cls-8" d="M117.51,60C103.92,60,92.9,70.24,92.9,82.9a21.58,21.58,0,0,0,.26,3.33l2.34,32.32a15.81,15.81,0,0,0,6,11.29l10.8,8.47a8.19,8.19,0,0,0,5.14,1.79h.13a8.19,8.19,0,0,0,5.14-1.79l10.74-8.43a15.9,15.9,0,0,0,6.06-11.4l2.34-32.25a21.58,21.58,0,0,0,.26-3.33h0C142.11,70.24,131.09,60,117.51,60Z"/><path class="cls-7" d="M117.48,59.3h-.13c-13.67,0-25.57,9-25.07,24.44l2,17.61h-.07s-.65-18.35,8.33-24c1.6-1,6.37-1.68,10.34-1a33,33,0,0,0,9.09,0c4-.67,8.76,0,10.36,1,9,5.7,8.48,23.57,8.48,23.57h0l1.76-17.13C143.05,68.31,131.15,59.3,117.48,59.3Z"/><path class="cls-8" d="M160.84,162.26l-28.93-9.15H117.43l0,.15v-.15H102.91L74,162.26A11.54,11.54,0,0,0,66.05,175c.83,5.63,2,13.32,3.24,22a87.61,87.61,0,0,0,96.29-.33c1.25-8.51,2.37-16.07,3.2-21.63A11.55,11.55,0,0,0,160.84,162.26Z"/><polygon class="cls-10" points="199.05 275.75 36 277.77 49.08 181.78 185.5 181.78 199.05 275.75"/><path class="cls-10" d="M170.11,163.63l-2.4-.5a174.06,174.06,0,0,1-17.49-4.25l-8.71-2.76c-1.9,6.35-12.62,12.51-24.21,12.51S95,162.47,93.08,156.12l-10.87,3.45a130,130,0,0,1-13.11,3.1l-4.62,1a19.63,19.63,0,0,0-15.25,17.08l-.14,1.07a87.26,87.26,0,0,0,136.41,0l-.14-1.07A19.62,19.62,0,0,0,170.11,163.63Z"/><path class="cls-11" d="M144.76,157.15l-3.25-1C138.16,163.79,128.72,168,117.3,168s-20.86-4.22-24.22-11.89l-3.25,1c3.12,11.39,19,14.31,27.45,14.32h0C125.77,171.46,141.64,168.54,144.76,157.15Z"/></g></g></svg>