<svg xmlns="http://www.w3.org/2000/svg" xmlns:xlink="http://www.w3.org/1999/xlink" viewBox="0 0 232.87 232.87"><defs><style>.cls-1{fill:none;}.cls-2{fill:#ff5a1f;}.cls-3{fill:#005014;}.cls-4{fill:#fff;}.cls-5{clip-path:url(#clip-path);}.cls-6{fill:#2d2d3d;}.cls-7{fill:#ffcec8;}.cls-8{fill:#ff9b8f;}.cls-9{fill:#965947;}.cls-10{fill:#e9ebde;}.cls-11{fill:#d7b38d;}</style><clipPath id="clip-path"><circle class="cls-1" cx="116.43" cy="116.43" r="105.1"/></clipPath></defs><g id="レイヤー_1" data-name="レイヤー 1"><circle class="cls-2" cx="116.43" cy="116.43" r="105.1"/><path class="cls-3" d="M157.46,120.41a3.33,3.33,0,0,0,.64-1.46c.22-.57.44-1.14.6-1.72.35-1.58,1.06-3.13,1-4.75,0-.18.09-.34,0-.51s-.38-.31-.45-.56.15-.39.13-.57-.19-.37-.24-.54c-.16-.52.13-.57.48-1s.25-.63.29-1.07c.06-.65.07-.75.68-1.14a4.08,4.08,0,0,0,1-1c.25-.36.1-.8.47-1.08a2.89,2.89,0,0,1,1.7-.35c.35,0,.67.13,1,.17a3.72,3.72,0,0,1,.95.05,3.05,3.05,0,0,0,.16.95c.14.47.36.51.77.78.12-.38.48-.72.54-1.06s-.34-.49-.42-.77c-.13-.47.21-.68.62-.89-.09-.53-.56-.44-.22-1,.16-.26.65-.7.11-1,.22-.62,1.28-1,1.64-1.58.11-.17.07-.37.22-.53s.41-.19.55-.34.21-.88.5-1.13c.55-.47,1.85,0,2.21-.7.18-.36-.06-.66.33-1s1.08-.27,1.09-.68c-1-.61,0-.87.41-1.26.13-.11.13-.23.28-.35s.42-.14.59-.28.48-.62.09-.81c0-.39.44-.38.39-.75,0-.1-.29-.27-.35-.37s-.09-.35-.16-.49c-.29-.59.17-.79.3-1.39a7.59,7.59,0,0,0,.3-2.55c-.06-.46-1.5-2.19-.56-2.27.27-.46-.52-.53-.74-.82s0-.55.19-.93c.26-.6-.5-.67-.44-1.29,0-.41.24-.73.12-1.14-.25-.84-1.39-.83-1.89-1.52a4.2,4.2,0,0,1-.67-2.88c.05-.38.14-.8.2-1.19s-.06-.83,0-1.22.54-.68.78-1c.5-.72.38-1.7.84-2.44.28-.45.42-.44.2-1s-.24-.73-.86-.5c-.31.11-.8.54-1.19.42s-.79-.82-1-1.05a9.54,9.54,0,0,1-1-.93c-.15-.18-.17-.41-.41-.54s-.57-.11-.79-.21c-.24.28-.47.62-.7.92a4.86,4.86,0,0,0-.43,1c-.23.47-.52.5-.9.83s-.21.45,0,.86,0,.62.55.79a1.77,1.77,0,0,0,1.2-.15c.58-.2,1.76-.25,2.11-.77.93.12.68.42.86,1s.44.83,0,1.37a10.73,10.73,0,0,1-1,1.13c-.42.39-.79.94-1.37,1,0-.5-1.25-1.92-1.85-1.57-.19.1-.18.38-.29.51a2.47,2.47,0,0,1-.61.43,1.59,1.59,0,0,1-1.31.29c-.83-.35-.58-1.64-.36-2.24s.33-.66.19-1.1a2.06,2.06,0,0,0-.55-1.1c-.47-.35-.77-.08-1.24,0-.29-1-2.12-.33-2.07.49,0,.48.81.44.56,1-.15.36-.6.56-.8.9-.45.8-.25,1.66-1.39,2a5.18,5.18,0,0,1-1.72,0c-.88-.08-.87.09-1.46.52-.41.3-1.1.16-.81.71s.6.52.56,1.08c0,.41-.38.85-.35,1.26.09,1.12,1.46,2,.24,3.13-.32.28-.76.55-1.11.8a5.25,5.25,0,0,1-1.09.83c-.6.22-2.77,0-1.6,1.11a1.42,1.42,0,0,0,1.22.26c.62-.06.7-.13,1.14.32.89.92.43,1.76.13,2.87-.24.87-.34,2.13-1,2.83A13.33,13.33,0,0,0,151.82,92c-.27.35-1,.87-1.06,1.25.35.34.87.47.59,1-.17.32-.57.56-.75.92a4.93,4.93,0,0,1-1.64,2,18.22,18.22,0,0,0-2,1.64,3.24,3.24,0,0,0-1.05,2.23,3.5,3.5,0,0,1-.28,1.31c-.28.49-.8.88-1.06,1.39-.71,1.39-2,2.48-2.64,3.84a3.86,3.86,0,0,1-1.62,1.49c-1.45.93-3.42,2.39-3.92,3.89a9.56,9.56,0,0,0-.17,1.77,10.07,10.07,0,0,0,0,2.74,12.42,12.42,0,0,0,.19,2.23c.26.79,1,1,1.8,1.4a55.42,55.42,0,0,0,5.19,2.38,6.21,6.21,0,0,0,2.21.43c.84,0,1.66.11,2.54.1a10,10,0,0,0,3-.19,5.88,5.88,0,0,0,1.08-.66c.64-.38,1.45-.61,2.11-.92C155.4,121.64,156.7,121.33,157.46,120.41Z"/><path class="cls-3" d="M126.46,120.09a4.53,4.53,0,0,0-.93,2.28c-.06.31-.25.6-.3.89s.19.69.26,1.06-.1.83,0,1.27a4.51,4.51,0,0,1,.15,1.71,3,3,0,0,0,.87,2.6c.71.62,1.44,1.19,2.1,1.86.48.5,1.61,1.27,1.33,2-.13.34-.61.57-.78.92a2.89,2.89,0,0,0-.21,1c-.07,1,.52,3.16,2.11,3,.57-.08.55-.24.78-.66.55-1,2-1,3.07-1a3.39,3.39,0,0,1,1.64.7,2.38,2.38,0,0,1,.63.81c.07.17.27,1,.43,1.11.53.27.5-.3.77-.6.42-.42.65-.17.38-.74s-1.16-1.32-.33-1.92a6.62,6.62,0,0,1,.95-.57,1.07,1.07,0,0,1,.5-.25c.19-.06.44.15.71.05.74-.25,1.16-1.34,2.15-1.39a1.31,1.31,0,0,1,1.08,1.82c-.43.68-1.63.84-2.42,1.08a6,6,0,0,0-1.25.55c-.55.45-.19.48-.09,1a3.45,3.45,0,0,1-.41,1.71c-.21.57-.87,1.2-.86,1.82.08,1.3,1,.84,1.72.16.1-.13.08-.29.3-.4s.43,0,.57-.08c.41-.17.57-.55,1-.72a7,7,0,0,1,2.53-.12c.86,0,1-.35,1.17-.94a11.32,11.32,0,0,1,1-1.74c.28-.56.31-.91.79-1.32s1.28-.91,1.89-1.34c.39-.33.46-.57,1.1-.48.81.1,1.59,1.1,2.41.3.45-.43,0-.58-.21-1.07a5.43,5.43,0,0,0-.47-1.29A3.4,3.4,0,0,1,152,132c-.11-.36-.46-.64-.58-1a6.09,6.09,0,0,1-.39-1.26c0-.41.31-.85.35-1.27a2.1,2.1,0,0,1,.32-1.11c.12-.22.12-.49.24-.72s.42-.28.65-.49.18-.37.33-.63a5.35,5.35,0,0,1,1-1.53c.18-.18.2-.34.35-.53s.41-.27.59-.45a1.57,1.57,0,0,0-.56-2.37c-1.33-.77-1.31.56-2,1-1.2.73-1.46-.94-1.81-1.42-.12-.17-.37-.32-.47-.51s0-.38,0-.61a1.76,1.76,0,0,0-.64-1c-.43-.36-.92-.33-1.43-.56s-.82-.69-1.4-.87a4.11,4.11,0,0,0-3,.53,7.74,7.74,0,0,1-2.62.84c-.95.15-1.71.17-2.3-.54a9.58,9.58,0,0,0-1-1.09,4.2,4.2,0,0,0-2-.69,4.46,4.46,0,0,0-2.86.66,13.74,13.74,0,0,0-3.62,1.79A28.77,28.77,0,0,0,126.46,120.09Z"/><path class="cls-3" d="M104.76,134c.45-.11.55-.45,1.08-.18a2.05,2.05,0,0,1,.47.51c0,.36-.1.13-.33.34s-.7.31-.91.62-.29.4-.28.61c0,.46.45.56.47.92.11.74-1.69.87-.43,1.6s.59-1,1.74-.8c.46.09.63.59,1.13.75a5.2,5.2,0,0,0,.88.14c.5,0,.57-.29,1.11-.07s.89.54.48.92-1,0-1.34,0-.76.1-1.24.09c-.79,0-2.15.73-.84,1.06a2.32,2.32,0,0,0,.94-.11c.19,0,.59.08.78.06s.38-.27.63-.32.75.16,1.12.13a3.38,3.38,0,0,0,.7-.1c.19,0,.35.07.48.05.5-.05.65-.38,1.25-.15s.64,1.3,1.5,1.2c.24,0,.29-.18.54-.2.52,0,1,.34,1.54.38.74.07.86-.12,1.38.34a1.93,1.93,0,0,0,1.09.65,2,2,0,0,0,1.27-.4c.22-.18.18-.38.35-.57s.46-.21.6-.31a2.51,2.51,0,0,0,1.15-2.1,4,4,0,0,0,1.6-.17c1-.16.4-.5.92-1a3.52,3.52,0,0,1,1.42-.38,2.49,2.49,0,0,1,1.37.15c.29.19.24.51.48.69s.47.09.68.35c.39.44.16.69-.22.86s-.69.22-.92.73a3.94,3.94,0,0,1-.59,1c-.17.18-.23.16-.35.4s-.08.43-.19.63c-.27.49-.45.44-.06.95s1.29,1.71,1.91.78c.1-.15.16-.43.29-.55s.42-.15.62-.29.6-.81.93-1,.87-.19,1.25-.5.64-.63.53-1.06-.52-.65-1-.88c-.77-.38-.45-.34.11-.59,1.39-.62-.32-1.19-.35-1.87,0-.48.35-.78.27-1.22s-.65-.76-.31-1.09a10.08,10.08,0,0,1,1.18-.46,9.3,9.3,0,0,0,1.26-.41.94.94,0,0,0,.14-1.67c-.39-.25-1-.32-1.19-.72s0-1.12-.34-1.7a2.47,2.47,0,0,0-1.77-1.06,2.13,2.13,0,0,0,0-1.12c-.23-.37-.76-.49-.83-1,0-.19.12-.37.11-.56s-.26-.24-.31-.52a3.22,3.22,0,0,1,.27-1.13c.16-.42.83-.54.82-1a4.15,4.15,0,0,0-.52-1c-.31-.26-1-.25-1.3-.5a.88.88,0,0,1-.47-1c.09-.48.13-.71.6-.89.22-.09.49-.07.69-.21s.14-.26.31-.5c.68-1,1.81-.45,2.92-.77.78-.23,2.43-.43,2.86-1,.32-.4.35-.68.82-1s.94-.61,1.33-.44.31.61.44.82c.28.43,1.1.77,1.39.25s-.16-1.08,0-1.55a1,1,0,0,0-.16-1.21c-.12-.17-.37-.28-.35-.49.06-.61,1.15-.27,1.37-.78.14-.32,0-.32-.23-.54s-.75-.75,0-.94c.48-.13,1,.17,1.45.19.81,0,.82-.43,1.4-.63.26-.08.49.09.76-.09a1,1,0,0,0,.33-.54c.18-.46.19-.66.67-1a3.08,3.08,0,0,0,.6-.37c.16-.16.16-.43.3-.6s.82-.48.77-.87-.49-.51-.47-1,.27-.58.53-.86a3.28,3.28,0,0,0,.61-1c.18-.45.3-.65.75-.77.7-.19,3-.39,2-1.43-.42-.43-1.17-.57-1.5-1s.09-1.18-.31-1.69c-.28-.35-.8-.63-1.07-1-.62.49-.72,1.59-1.17,2.23s-.9,1.35-1.37,2a7.55,7.55,0,0,1-1.85,1.72,2.21,2.21,0,0,1-1.48.45c-.73,0-1.19-.06-1.69.34-.2.16-.33.47-.52.62s-.52.18-1,.2c-1.08,0-1.1.6-1.56,1.31-.61.92-1.74,1.31-2.5,2.09-.25.25-.32.61-.62.81s-.56.1-.77.23-.25.4-.47.56-.42.11-.65.18c-.41.11-.79.28-1.21.4s-.88.47-1.37.59a9.45,9.45,0,0,1-2-.08c-.62,0-.69.31-1.18.52s-1.27,0-1.84.26a7.58,7.58,0,0,1-1.84.35,3.43,3.43,0,0,1-1.43,0,3.4,3.4,0,0,0-1.47-.15c-.09,0-.23.65-.29.75a1.58,1.58,0,0,1-.71.58,5.92,5.92,0,0,1-1.48.52c-1.5.13-3.43-2.32-2.25-3.28.51-.42,1.25-.91.08-1.21-.35-.09-.94,0-1.06-.29s.21-.71.22-.86c0-.45.11-1.37,1-1.05-.24.47.14.76.72.75s.38-.32.75-.55c.11-.07.42,0,.56-.1s.25-.2.38-.28a2.38,2.38,0,0,1,.89-.33c.17-.49.2-.76.73-.86.38-.07,1.28,0,1-.66s-2.47-.26-3-.15-1.13,0-1.7.11l-1.36.27a3.69,3.69,0,0,0-2.06,1.66c-.36.46-.34.48-.12,1a2,2,0,0,1,0,1.2c0,.47.35.7.37,1.1s-.4.66-.6.9a6.71,6.71,0,0,1-1.64,1.77c-.47.29-1,.49-1.55.76a11.94,11.94,0,0,0-1.23,1c-1,.71-2.21,1.22-3.1,2-.46.4-.9,0-1.48.23s-.15.43-.37.9-.68.54-1.09.71c-.64.26-1.46,1.32-1,1.92.17.21.47.24.55.49s-.11.44-.13.64c0,.36.18.73.12,1.1a1.24,1.24,0,0,1-.42.83c-.35-.28-.41-1-1-.72s-.37.69-1,.73-.82-.07-1.35.28a4.49,4.49,0,0,1-1.4.51c-.29.09-.27.2-.6.21a2.14,2.14,0,0,1-.94-.31c-.19-.13-.1-.25-.33-.38a2.54,2.54,0,0,0-.81-.16,1.94,1.94,0,0,0-1.34.87c-.25.68.38,1.58.92,2.07,1.35,1.26,3.7,1.63,5.37,2.49a33.38,33.38,0,0,0,3.33,1.67,11,11,0,0,0,2.09.39,2.22,2.22,0,0,1,1.11.45A1.92,1.92,0,0,0,104.76,134Z"/><path class="cls-3" d="M81,132.16c.81.38.6,1.16,1.38,1.43.33.12.7-.11.9.24s-.2,1-.37,1.15a21.54,21.54,0,0,1-2.37,1.09c-.48.2-.44.52-.89.83s-.91.22-1.24.51c-.67.68.37,1.57,1.26,1.65.47.05.39-.12.75-.3a2.33,2.33,0,0,0,1-.55c.63-.74-.22-1.44.74-2.05.25-.16.62-.23.84-.39s.1-.25.22-.36.45-.2.77-.35c.13-.06.26-.25.45-.32.36-.13.87,0,1.25-.05.54-.14.48-.24.41-.66.84.05,1.68.89,1.52,1.55a2.65,2.65,0,0,1-.36,1.09c-.1.11-.4.17-.53.31s-.12.39-.44.56-.52,0-.69.13-.16.38-.41.51a5.69,5.69,0,0,1-1.34.29c-.4.06-1,.07-.95.57,0,.35.69.74.71,1.19s-.68.6-.86,1.13c-.09.27,0,.53,0,.77-.11.39-.18.23-.47.43s-.45.12-.51.49a.75.75,0,0,0,.2.64A13.88,13.88,0,0,0,84.31,146c.47.41.6.62.48,1.16s-.36.83,0,1.24a2.83,2.83,0,0,0,1.41.61c.7.17.64.18,1,.63.21.25.89.68,1.25.58,0,0,.41-.4.5-.45s.41-.28.6-.39a2,2,0,0,0,.85-.85A13.23,13.23,0,0,1,92,147.18c.13-.14.1-.29.29-.4s.39,0,.56,0c.33-.15.49-.48.8-.63.62-.32,1.35-.21,1.81-.72a1.2,1.2,0,0,0,.26-.87c0-.36.15-.36.37-.61a1,1,0,0,0,.35-.8c0-.25,0-.27.14-.46s.4-.12.48-.39c.52.29.46.82,1.22.87.53,0,.35-.14.62-.28a1.41,1.41,0,0,1,.6-.18l.7-.11a2.36,2.36,0,0,0,.71-.15c.26-.09.22-.26.59-.14s.28.38.41.5a1.73,1.73,0,0,0,1.35.39c.4,0,.29.1.6-.12a1.76,1.76,0,0,0,.37-.49c.22-.4.45-.7.17-1.1s-.7-.5-1-.79a6.22,6.22,0,0,0-.92-.85c-.4-.23-.89-.18-1.17-.6a7.11,7.11,0,0,1-.53-1,1.29,1.29,0,0,1,0-1c.18-.27.75-.5,1-.69s.54-.55.9-.84.38-.65.66-.86.72-.14,1-.3.45-.5.66-.82a6.78,6.78,0,0,1-1.56-1.17c-.3-.38-.29-1.41-1-1.43a.58.58,0,0,1-1,.22c-.12-.2.11-.39.09-.58s-.34-.32-.21-.61.8-.44,1-.78a1.57,1.57,0,0,0,0-1.13,4.6,4.6,0,0,0-.71-1c-.3-.39-.18-.64-.32-1s-.66-.78-1.08-.54-.17.73-.7,1a4.13,4.13,0,0,1-.63.13c-.39.11-.27.19-.56.35-.57.31-.84,0-1.43,0s-.67.5-1.09.68-.79.16-1.2.29c-.81.27-.67.06-1.4-.35-.48-.27-.8-.27-1.21-.66s-.65-.51-.54-1,.6-.71.59-1a1.68,1.68,0,0,1,.06-.24c-.31-.08-1.32-.42-1.59-.18s.45.66-.23.86c-.94.29-2-1.06-1.12-1.53.4-.23,1-.23,1.23-.65s0-.7-.34-1-.48-.47-1.07-.29l-1.43.41a4.37,4.37,0,0,1-1,.16c-.3,0-.58.14-.83.13a2,2,0,0,1-.72-.3,4.77,4.77,0,0,0-1.27-.44,10.6,10.6,0,0,0-2-.2,13.75,13.75,0,0,1-1.88-.51c-.14.48-.32.57-.69.91a4,4,0,0,0-1,1.8,3.23,3.23,0,0,1-.56,1.13c-.32.45-.36,1.2-.78,1.56s-1.45.4-1.76,1.11a4.69,4.69,0,0,0-.2,2.69c.21.93,1.44.81,2.35,1A20.41,20.41,0,0,1,81,132.16Z"/><path class="cls-3" d="M17.19,169.86c-.69-.79-1.27-.53-2.18-.23-1.18.38-.67,1-.25,1.76.12.23.13.64.22.77.25.41.5.36,1,.2a5.28,5.28,0,0,0,1.24-.5C18.19,171.3,17.8,170.5,17.19,169.86Z"/><path class="cls-3" d="M24.34,167.07c-.61-1.41-3,1.55-3.08,2.12s0,.53-.62.54c-.51.41-.8,3.06.45,2.34.72-.41.22-1,.51-1.43.11-.18.61-.22.77-.39.33-.29.19-.48.4-.79a3.53,3.53,0,0,1,1.37-1A1.18,1.18,0,0,0,24.34,167.07Z"/><path class="cls-3" d="M17.67,156.92c-.3.2-.35.39-.85.44-.24,0-.61-.23-.81-.17-.64.12-.29.19-.21.57a5.61,5.61,0,0,0,.14,1.05c.17.71,1,.93,1.64,1.12a3,3,0,0,1,1.28.43c.61.44.53,1.86,1.53,1.1s.41-1.05.19-1.81a3,3,0,0,1,.88-2.79c.28-.31.44-.72.75-1a1.88,1.88,0,0,1,1.24-.46c.38.11.73.76.92,1,.36.5.48.74-.2,1-.39.14-.76.26-1.08.39-.54.23-.59.2-.38.79.14.38.28.73.41,1.11s.28.38,0,.78a5.42,5.42,0,0,1-.55.65c-.19.21-.44.44-.64.65s-.31.55-.5.71-.78.09-1,.33a2.49,2.49,0,0,0-.23.88c.19.45,1.53.07,2,0,0-.34.69-.46,1-.56.48-.16.95-.2,1.42-.4s2.35-.69,2.2-1.43c-.08-.43-.49-.5-.32-1.05s.63-.52,1.21-.2,1,1.69,1.77,1.77c.31,0,.79-.25.82-.55s-.34-.51-.31-.89.22-.48.55-.66.47-.19.62-.67c.48.08.88.35,1.24.1s.15-.59.12-.84c-.06-.55.28-1,.32-1.51,0-.22-.15-.34,0-.58s.36-.3.48-.47.08-.41.16-.58.26-.37.33-.55,0-.41.1-.6.31-.28.47-.47c.32-.37.2-.68.65-1a4,4,0,0,0,.51-.25c.17-.13.25-.33.4-.45.34-.27.84-.29,1.11-.61.63-.73-.05-1.53,1-2a8.46,8.46,0,0,0,1-.66c.44-.27.79-.26,1.19-.62a7,7,0,0,1,2.12-1.23,13.53,13.53,0,0,0,1.17-.72c.2-.11.5,0,.48-.28a5,5,0,0,0-.59-.44c-.2-.17-1-.48-1-.66-.12-.44,1.1-.15,1.32-.29-.25-.3-.27-.66-.78-.73-.16,0-.3.13-.57.07s-.69-.4-.67-.64.63-.46.86-.69,1.05-1.07,0-1.08c-.42,0-.25.14-.61.23a3.58,3.58,0,0,1-1.79-.34,2.27,2.27,0,0,1-1.25-.61c-.45-.53-.16-.61.39-.76,1.31-.37,4.48-1.13,3.2-2.95a3.15,3.15,0,0,0-1.7-1.14c-1-.27-1.23-.27-1.46.61a4.34,4.34,0,0,1-1.79-.36,4.27,4.27,0,0,0-.77-.39,1.37,1.37,0,0,1-.66-.55c-.38-.42-.4-.9-.81-1.31a2.11,2.11,0,0,1-.65-.93c-.12-.46.18-.9,0-1.34a2.46,2.46,0,0,0-.91-.9c-.71-.39-2.07.1-2.92,0-.55,0-1.19-.37-1.6.06s-.12.78-.59,1c-.2.1-.53,0-.74.11s-.24.33-.43.47a3.06,3.06,0,0,1-1.41.26c-.54-.05-.82-.39-1.33-.49-.67-.14-.69.12-1.24.31a1.15,1.15,0,0,1-1.24-.38c-.88-.91-1.16-.07-1.75.6-.16.18-.43.32-.51.56s.12.36,0,.61a1.71,1.71,0,0,1-.84,0c-.27-.14-.15-.33-.38-.54a3.3,3.3,0,0,0-1.49-.57c-.17.41.28.59-.36.63s-.79-.35-1.3.11c-.32.29-.35.55-.75.74s-.9.13-.91.62c.73.17,2-1.18,2.75-.5.47.44-.25.74-.24,1.1s.84.74,1,1.13-.13.55-.58.8-.75.45-.83,1-.31,2.24.81,1.9c.59-.19.84-.95,1-1.45.12-.32.05-.73.21-1.05.28-.55,1-.17,1.64,0a4.54,4.54,0,0,1,0,1.38,4.79,4.79,0,0,1-.05,1.32c-.81-.13-1-.31-1.68.11a3.37,3.37,0,0,0-.95.88,4.2,4.2,0,0,1-.92.87c-.32.25-.71.65-.18.9s.88-.11,1.2-.39.24-.27.48-.38.5,0,.7-.17.15-.34.34-.47a1.68,1.68,0,0,1,.58-.21,4.82,4.82,0,0,1,1.69.06c.68.13.84.38.67.92s-.77.51-1,1,.13.68.73.67a2,2,0,0,0,1.32-.59c.57-.48,1.24-1.4.71-2.16-.3-.43-1.08-.38-1.39-.7-.65-.68.64-.7.93-1s0-.44,0-.62c-.11-.35-.26-.26-.17-.69a1.09,1.09,0,0,1,.78-.94c.78-.21,1.8,1.13,1.74,1.72s-.24.85-.24,1.28a2.13,2.13,0,0,0,.52,1.24l.77,1.15c.35.53.5.75-.17,1s-.92.25-1,.9c.53.37.86.78.58,1.36-.63-.1-.59.79-.9,1.09a9.42,9.42,0,0,1-1.12.66c-.36.28-.45.78-.85,1-.21.12-.48.13-.69.26s-.26.31-.49.41c-.88.42-2.67.13-2.2-1.07a1.38,1.38,0,0,0-.66-.2c-.41.08-.17.14-.24.36a3.51,3.51,0,0,0-.21,1.09c.11.37.79.46.86.85s-.33.71-.35,1,.17.73-.18,1-.86.2-.73.76c.08.31.45.58.52.94A2.44,2.44,0,0,1,17.67,156.92Z"/><path class="cls-3" d="M14,151.16c-.29.19-.69.3-1,.48s-.25.35-.64.27c-.18.63-1.07.83-1.43,1.37s-.15.79.4,1c.86.39.55-.24.91-.68.24-.21.47-.16.64-.33s.32-.49.53-.6c.44-.27,1-.19,1.43-.57s.89-.79.25-1.13A1,1,0,0,0,14,151.16Z"/><path class="cls-3" d="M17.75,146.58c0-.06-.2-.22-.19-.41s.21-.35.31-.49c.28-.38.64-.65.75-1s-.27-.37.21-.47c.32-.07.52.17.79.22.54.1.89-.25,1.4,0s0,.85.52,1c.28.06.3-.19.5-.2s.53.19.73.14.72-.86,1.2-.82c.69.06.42.67.31.94s-.06.9-.19,1.09c-.4.63-1.49.45-2.17.36-1.14-.15-1.66-.2-2.42.47a2,2,0,0,1-1.92.59C16.57,147.55,17.73,147.12,17.75,146.58Z"/><path class="cls-3" d="M4.93,137.11a3.9,3.9,0,0,0-1.28.86c-.31.29-.16.89-.54,1.12s-.74-.16-1.09.43c-.23.41-.2.52.41.5.18,0,.36-.18.54-.19s.46.09.66,0l1-.19c.2-.06.36,0,.56,0s.16-.38.36-.44.72.05,1-.2-.15-.8.36-1.11c.08-.08.37,0,.57-.08a1.62,1.62,0,0,0,.39-.33c.51-.3.68-.47,1.06-.08.15.14-.28.35.05.48s.31-.25.44-.27c.71-.16.55-.24,1-.6.31-.25.9-.17,1-.62,0-.26-.29-.27-.33-.38a2.43,2.43,0,0,1,0-.66c0-1.13-.41-.71-1-.12-.42.43-.58.8-1.14,1s-1.41.27-2.08.48c-.32.09-.4.38-.79.45S5.32,137,4.93,137.11Z"/><path class="cls-3" d="M21.74,129.26A2,2,0,0,0,20.13,128c-1,.13-.32,1.33,0,1.65.11.07.44.4.5.41.4.09.1-.13.37-.23C21.5,129.72,21.83,129.84,21.74,129.26Z"/><path class="cls-3" d="M17.9,121.46c-.4.2-.85-.37-1.3,0s-.46,1.14-.55,1.49-.44.56,0,.8a1.24,1.24,0,0,0,.83,0c.72-.16.67-.42,1-.81s.6-.44.85-.69,1-.61,1.21-.87c.31-.45-.22-.51-.15-1s.77-.35,1.1-.69-.24-.67.07-.91.68.2,1.08-.38a.94.94,0,0,0,0-1c-.46-.56-.68-.2-1.11,0a4.13,4.13,0,0,0-1.09.43c-.51.3-.27.56-.4,1-.26.92-1.19.57-1.4,1.55C17.93,120.69,18.19,121.31,17.9,121.46Z"/><path class="cls-3" d="M47.25,140.4a18.48,18.48,0,0,0,2.85-.83,10.25,10.25,0,0,1,2.59-.58c.56,0,.69.36.92-.26,0-.15-.13-.39-.08-.58s.25-.26.43-.47.28-.82.52-1,1-.25,1.36-.53.5-.46,1-.61a3.09,3.09,0,0,0,1-.24c.16-.12.16-.37.32-.49a2.57,2.57,0,0,1,.58-.14c.55-.44,0-.41.21-1a.76.76,0,0,1,1.08-.38c.85.44.08.37,0,.71s.3.68,0,1-.6,0-1.09,0c-.74,0-.21.11-.13.48a3.91,3.91,0,0,0,.31,1.09c.52,1,1,.78,2,.59a1.4,1.4,0,0,1,1.42.4c.36.41.37.61,1.12.4a3.57,3.57,0,0,0,1.17-.38c.35-.27.39-.51.82-.73s.67-.33.69-.77c-.31-.09-1-.93-.83-1.15.51,0,.75.5,1.12.54s.77-.36,1.16-.43c.72-.12,1.88-.71,2.68-.45a2.87,2.87,0,0,0,1.27.27,1.72,1.72,0,0,1,1.35.3c.34.3.35.72.57,1.05s.65.62.91.95a1.77,1.77,0,0,0,.79.68,4.09,4.09,0,0,0,1.28.22c.55.09,1,.22,1,.78s-.36.52-.75.75-.66.48-.42.9c.11.19.42.29.55.47s.13.36.26.53c.33.45.62.43.2.9-.13.13-.37.13-.39.34s.37.36.37.58a23.69,23.69,0,0,0-2.71.55,9.73,9.73,0,0,0-1.34.5c-.49.19-.87.11-1.28.44a4.46,4.46,0,0,0-1,.82c-.22.37-.3.71-.55,1.06s-1.3,1.54-1.92,1.29-.74-1.71-1-2.13-.58-.47-.91-.75-.53-.75-1-1a5.08,5.08,0,0,0-3-.26,17.14,17.14,0,0,1-2.72.39c-.77.05-1.07-.15-1.38.51a5.53,5.53,0,0,1-2.24,2.45,4.39,4.39,0,0,1-1,.41c-.51.13-.63,0-.86.48-.15.3-.14.66-.27,1s-.41.47-.57.75c-.27.5.08.36.29.74a.56.56,0,0,1-.28.84,1.43,1.43,0,0,0-.51-.61c-.09-.07-.24-.1-.34-.17s-.14-.23-.24-.32c-.63-.53-1,.14-1.57-.13-.28-.12-.53-.35-.84-.48s-.53-.14-.46-.56c.1-.6,1-.61,1.07-1.25a15.61,15.61,0,0,0-2.54-.25,1.19,1.19,0,0,1,.07-.49c.07-.17.27-.24.32-.35.28-.56-.19-.3-.4-.78-.29-.7.52-1.56,1.17-1.77,1.19-.37.74-.73.08-1.38a1.52,1.52,0,0,1-.35-1.9,3,3,0,0,0-2.16.15c-.45.21-2.58.22-2-.32C45.65,140.48,46.75,140.49,47.25,140.4Z"/><path class="cls-3" d="M35.09,126.51c-.06.45.34.54.61.9.53.94-1.32.59-1.19,1.7,0,.31.48.46.57.79s-.24.67.11.94c.88.81.78-.85,1-1.11.49.46.57,1.25,1,1.76a1.91,1.91,0,0,0,1.73.58,3.51,3.51,0,0,0,.79,0c.39-.07.58-.34,1-.41.81-.08,1.06.79,1.86.76s1-.65,1.85-.53c1,.16.23.72.61,1.31s1.16.66,1.59,1.11c.15.13.61.64.62.85s-.55.45-.42.89a5.12,5.12,0,0,1,2.4-.19,3.58,3.58,0,0,0,2.24.1c.49-.18.56-.39.71-.82-.52-.16-1,.25-1.38.17-.06,0-1-.72-1-.78-.24-.39.26-.76.43-1.1s.16-.78.4-1.1a3.33,3.33,0,0,1,1.07-.73c.38-.21.43-.83.79-1a2.1,2.1,0,0,1,1.24.68c.12.54-.74.4-1,.6-.81.54-.1,1.91.62,2.27,1.65.82.34-1.51.59-1.95.38,0,.48.69.85.88a1.45,1.45,0,0,0,1.4-.16c.35-.25.43-.62.93-.76a3.14,3.14,0,0,1,1.49.06c0,.55-.82.4-1,.81-.25.81.92.06,1.09,0a3.63,3.63,0,0,1,1-.24c.66-.15.53-.54,1-.79,1-.52,1.63.9,2.56.9.65,0,.78-.37,1.21-.61s.82.07,1.37.08,1.55-.29,2,0c.22.14.19.44.36.61a2,2,0,0,0,.81.42,2.19,2.19,0,0,0,1.95,0c.27-.13.49-.31.77-.42s.75,0,1.09-.16.47-.43.87-.34c.17-.39,1-.57,1.42-.68s1-.6,1.42-.6a2.31,2.31,0,0,1-.4-1.16c0-.18-.13-.29-.1-.49s.26-.29.26-.51c0-.5-.51-.54.1-1a9.69,9.69,0,0,1,1.25-.62,2.45,2.45,0,0,0,.88-.73c.3-.42.27-.59.82-.79.3-.11.9-.17,1.08-.46s-.16-.72-.2-1c-.12-.93,0-2.28-.65-3.12-.17.35-.81.33-1.16.41s-.71.43-1.16.46c-1.13.08-2.28-.69-3.33-1a19.8,19.8,0,0,1-2.19-.47c-.57-.23-.6-.51-1.25-.51-.87,0-2.83-.49-3.53,0a.8.8,0,0,1,.45-1,5.11,5.11,0,0,1-.92-.4,6.73,6.73,0,0,1-.76-.38c-.09-.06-.21-.34-.26-.36-.52-.21-.73.31-1.2.36s-1.2-.32-1.64-.19-.63.52-1.3.52-1-.17-1.48.26c-.27.27-.33.68-.64,1a5,5,0,0,1-2.52.82,5.27,5.27,0,0,0-1.77.74,7.66,7.66,0,0,1-1.38.83c-.47.17-1,.21-1.45.35a3.08,3.08,0,0,0-1.12.49,2.42,2.42,0,0,1-1,.52,6.74,6.74,0,0,0-1.22.64,2.4,2.4,0,0,1-1.83.29,1.81,1.81,0,0,0-1.45.25,1.2,1.2,0,0,1-.56.18c-.21,0-.62-.22-.8-.16s-.36.73-.74.93a6.33,6.33,0,0,1-1.22.44c-.4.08-1-.08-1,.45a6.13,6.13,0,0,1-2.2-.41c-.54-.28-1.08-.88-1.81-.9a2.25,2.25,0,0,1-.27.49.94.94,0,0,1-.55.1C35.87,126.07,35.16,125.78,35.09,126.51Z"/><path class="cls-3" d="M75.31,133.51c-.76.11-2.51-.23-1.52.88.3.33.31.67.92.63A2,2,0,0,0,76,134c.17-.17.44-.27.1-.6S75.56,133.46,75.31,133.51Z"/><path class="cls-3" d="M132.45,104.75a2.23,2.23,0,0,0,1.19-.77c.34-.6.16-.58-.2-1.07s-.48-.67-.07-1.3c.29-.4,2-1.92.27-1.64-.65.12-.95.57-1.44.83s-1.43.38-1,1.08c-.64.12-.63.36-.79.85-.1.31-.2.32,0,.56s.42.09.47.46c.09.65-.61.47-1,.67-.26.12-.86.65-.85.92a7.27,7.27,0,0,0,1.77,0C131.59,105.42,131.76,105.11,132.45,104.75Z"/><path class="cls-3" d="M159,64.89a1.93,1.93,0,0,0,1.14,2.34c.47.19.83.42,1.23.12.1-.08.16-.31.28-.42a2.83,2.83,0,0,1,.67-.4c.45-.13.93.13,1.19-.32.09-.15-.06-.41,0-.61s.37-.23.53-.41.21-.66.79-.78c.15,0,.48,0,.59,0s.26-.37.4-.52c.42-.47.73-.44,1.18-.07s.81.47,1.18.74a3.29,3.29,0,0,0,1.19.76,2.54,2.54,0,0,0,1.39.05c.25-.12.2-.28.37-.44s.48-.16.6-.39c.3-.56-1.06-1.4-1.53-1.78a2.23,2.23,0,0,1-.59-.55c-.12-.24,0-.38,0-.59a2.69,2.69,0,0,0-.77-1,6.51,6.51,0,0,0-2.25-.89,3.11,3.11,0,0,1-1.55-1c-.31-.4-1.09-1.07-1.14-1.47s.22-.5.33-.76a3.1,3.1,0,0,0,.13-.78c.13-.61.33-.36.94-.64a8.22,8.22,0,0,1,1.09-.64,3.14,3.14,0,0,1,2.8.21c.56.4.69,1.2,1,1.76.19.32.34.64.5.95s.6.58.67.87c.38.11.84-.34,1.18-.5s.86-.56,1.35-.75.81-.11,1.3-.49A2.68,2.68,0,0,1,176.5,56c.44-.1.64-.37,1.05-.52s.89-.11,1.33-.25.8-.42,1.27-.08.54.75.85,1a25.59,25.59,0,0,0,2,1.87,13.83,13.83,0,0,1,2.06,1.81,7.3,7.3,0,0,0,2.37,1.8,17,17,0,0,1,3.32,1.69,8.31,8.31,0,0,1,1.87,1.82c.51.6,1.29,1.85,1.73.59.27-.77.65-1.5.88-2.33a6.09,6.09,0,0,1,1.13-2.33,7.31,7.31,0,0,1,1.7-1.52c.49-.33.81-.79,1.26-1.16s1.09-.45,1.47-.83.16-.5.73-.52c.12-.61,1.83-.81,2.3-1,.23-.12.28-.27.58-.34a3.45,3.45,0,0,1,.72,0c.47,0,.94-.3,1.43-.29a2,2,0,0,1,1.33.69,2.13,2.13,0,0,0,1.36.59,9.33,9.33,0,0,0,1.63.3c.7,0,.38-.35.52-.81a.78.78,0,0,1,1.2-.37c.39.24.22.82.95.77.3,0,.29-.17.54-.24a5.71,5.71,0,0,0,.77-.14,2.34,2.34,0,0,0,.93-.94c.53-.81,1.8-.22,2.75,0,1.27.26,1.35-.78,2.22-1.22a13.13,13.13,0,0,1,1.36-.66c.3-.11,1-.14,1-.52a5.35,5.35,0,0,0-1.55-.08c-.7-.06-.72.08-1.22.44a2.08,2.08,0,0,1-1.26.4c-.67-.05-.55-.32-.76-.73a11.5,11.5,0,0,1-.77-1.19c-.2-.46,0-.74.06-1.2.11-.94-1.05-1.3-1.42-2.1a2.55,2.55,0,0,1-.28-1.24c.06-.48.38-.62.61-1s.29-.69.54-1a11,11,0,0,1,.72-.87c.66-.66,1.55-.94,2.15-1.7.2-.25.61-.55.61-.89s-.41-.93-.78-.89-.75.69-.91.89a1.78,1.78,0,0,1-.91.66,8.93,8.93,0,0,0-2.55,1.37c-.31.28-.51.66-.91.88a2.36,2.36,0,0,1-1.28.19,18,18,0,0,1-2.89-.36,3.37,3.37,0,0,1-2-1.56,4.84,4.84,0,0,0-2.25-1.8c-.58-.22-1.23-.44-1.76-.65a13.69,13.69,0,0,1-1.3-.59c-1.47-.75-2.34-1.83-3.64-2.72a6.5,6.5,0,0,1-1-.93c-.57-.62-1.12-1.17-1.65-1.78-.31-.36-.42-.74-.74-1.07a11.81,11.81,0,0,1-.94-.93c-.26-.36,0-.68-.26-1.09s-.66-.61-.83-1a17.35,17.35,0,0,0-1.55-2.8,15.24,15.24,0,0,1-1-1.4,29.37,29.37,0,0,0-1.56-2.54c-.24-.38-.49-1.36-1.05-1.46s-.37.17-.66.38a3.13,3.13,0,0,1-.81.34,4,4,0,0,1-.81.29c-.43,0-.5-.32-.86-.38,0,.37.41.84.07,1.24-.12.13-.43.15-.57.27s-.2.3-.31.46a.78.78,0,0,0-.08,1,4.08,4.08,0,0,1,.19,1.16c.08.75.29,1.52.4,2.25a13.35,13.35,0,0,1-.08,3.22,10.38,10.38,0,0,1-.34,1.3c-.23.84-.95,1.19-1.47,1.85-1,1.33-.14,3.47-1.43,4.7a4.45,4.45,0,0,1-1.46.93c-.56.19-1.34.08-1.75.4-1.2.93-.23,2.25-.37,3.36,0,.21-.25.27-.26.51s.34.73.37,1.06c0,.69-1.33,1.29-1.91,1.69a1.91,1.91,0,0,1-2.42,0c-.43-.35-.43-.7-1.13-.76-.37,0-.78.16-1.21.16-1.54,0-1.17-1.36-1.94-2-.93-.84-1.77-.67-2.88-.35-.3.71.2,1.59.48,2.25s1.12,1.39.44,1.93a8.3,8.3,0,0,1-1.07.56c-.43.25-.55.63-.86.94-.81.8-1.79-.47-2.56.07a3.9,3.9,0,0,1-1.92,1c-.6.07-1-.24-1.26.35-.4.86.44,1.52-.5,2.25-.62.49-1.45,1.35-1,2.09a10,10,0,0,0,1.5,1.77c.68.74,1.34,1.42,1.27,2.35a5.8,5.8,0,0,1-.3,1.28c-.17.52-.74.79-1.14,1.16A3.47,3.47,0,0,0,159,64.89Z"/><path class="cls-3" d="M156.59,55.76c-.7-.69-1.78.22-1.94.76-.12.38-.3,1.66.48,1.7s.5-1,.65-1.3S157.12,56.28,156.59,55.76Z"/><path class="cls-3" d="M181.14,26c.65-.34,1.1-1.53.39-2a1.23,1.23,0,0,0-1.57.28C179.71,24.69,180.33,26.41,181.14,26Z"/><path class="cls-3" d="M179.81,21a.86.86,0,0,1,.7.75c0,.5-.47.38-.68.75-.09.16.06.32,0,.45a1.28,1.28,0,0,1-.77.57c0-.09,0-.31,0-.37s-.26-.3-.32-.42c-.14-.31,0-.41,0-.67a3,3,0,0,1-.07-.53A.89.89,0,0,1,179.81,21Z"/><path class="cls-4" d="M70.61,88.78c0,9.77-17.68,35.84-17.68,35.84S35.24,98.55,35.24,88.78a17.69,17.69,0,0,1,35.37,0Z"/><circle class="cls-2" cx="52.93" cy="88.78" r="9.08"/><g class="cls-5"><path class="cls-6" d="M142.05,76.45c-2.36-11.54-10.63-19.57-24.67-19.57-4.94,0-10.18,2-12,4.68-7-.41-11.7,3.39-13.84,9.72-.14.29-.28.58-.4.89-5,12.41-11,40.16-11,52.11,0,23,15.36,38.81,35,38.81S151.22,150,151.22,127C151.22,116.17,146.68,91,142.05,76.45Z"/><path class="cls-7" d="M95.69,115.76l-.44-.13c-1.64.08-3.67-3.85-3.83-7.43l-.9-6.84c-.06-1.24.27-2.23,1.25-1.92l.3.09a5,5,0,0,1,3.11,4.65Z"/><path class="cls-7" d="M137.42,115.79l.44-.15c1.64.07,3.64-3.88,3.76-7.46l.84-6.84c0-1.25-.29-2.23-1.27-1.91l-.3.09a5,5,0,0,0-3.06,4.68Z"/><polygon class="cls-8" points="131.1 120.43 102.35 120.43 102.35 153.41 131.1 153.36 131.1 120.43"/><polygon class="cls-8" points="102.35 133.56 115.67 144.22 102.35 153.36 102.35 133.56"/><path class="cls-7" d="M131.1,133.56v19.8s-17,1.87-28.75,0Z"/><path class="cls-7" d="M116.71,62.66c-13.22,0-23.93,10-23.93,22.3A21.68,21.68,0,0,0,93,88.2l2.27,31.44a15.39,15.39,0,0,0,5.85,11l10.49,8.24a7.94,7.94,0,0,0,5,1.74h.14a7.94,7.94,0,0,0,5-1.74l10.44-8.2a15.49,15.49,0,0,0,5.9-11.08l2.27-31.38a20.43,20.43,0,0,0,.26-3.24h0C140.65,72.64,129.93,62.66,116.71,62.66Z"/><path class="cls-6" d="M142.42,85.5a20.85,20.85,0,0,0-3.29-12.81c-4.06-7.19-11.83-11.42-22.29-11.42-9.5,0-16.89,3.67-21.24,9.78A20.7,20.7,0,0,0,91.11,85.5c.63,11.45,2.66,16.17,3.06,17,0-.55,0-2.77.16-5.74,1.06-4.48,4-13.54,11.1-19.35,3.23,4.71,11.37,7.53,11.37,7.53L112,79.64h0s10.32,8.21,18.3,8.91c-1.76-1.38-5-3.53-7.1-4.84,8.29,3.38,14,7.12,16.16,13.55.2,2.91.15,4.9.15,4.9a48.14,48.14,0,0,0,2.4-10.86q.19-1.42.3-2.79C142.29,87.55,142.36,86.55,142.42,85.5Z"/><path class="cls-9" d="M94.24,102.63a.67.67,0,0,1-.07-.14v.14Z"/><path class="cls-7" d="M74.41,162.27l28.14-8.91h14.09v.15l0-.15h14.09l28.14,8.91a11.23,11.23,0,0,1,7.72,12.36c-.88,5.93-2.1,14.19-3.46,23.44a85.25,85.25,0,0,1-93,.32c-1.37-9.38-2.61-17.77-3.5-23.76A11.22,11.22,0,0,1,74.41,162.27Z"/><path class="cls-4" d="M74.41,162.27l28.14-8.91,14.09,18.86,14.12-18.86,28.14,8.91a11.23,11.23,0,0,1,7.72,12.36c-.88,5.93-2.1,14.19-3.46,23.44a85.25,85.25,0,0,1-93,.32c-1.37-9.38-2.61-17.77-3.5-23.76A11.22,11.22,0,0,1,74.41,162.27Z"/><path class="cls-10" d="M116.52,200.64a1.43,1.43,0,1,0-1.43,1.43A1.43,1.43,0,0,0,116.52,200.64Z"/><path class="cls-10" d="M116.52,177.59a1.43,1.43,0,1,0-2.85,0,1.43,1.43,0,0,0,2.85,0Z"/><path class="cls-10" d="M130.32,184.19l10.3-27.73-4.2-1.81L122,170.55l-5.2-.21-5.46.21-14.44-15.9-4.19,1.81L103,184.19s11.45-10.76,13.38-10.76h.31a6.22,6.22,0,0,1,1.21.13l0,38.36.78,0,0-38.14C119.91,174.17,130.32,184.19,130.32,184.19Z"/><path class="cls-4" d="M102.35,148.61l14.43,21.64,14.32-21.64,8.32,7.48-8.84,25.17s-11.73-10.2-13.69-10.2h-.26c-2.1,0-13.9,10.2-13.9,10.2l-8.84-25.17Z"/><path class="cls-11" d="M191.52,223.7l-7.11-43.21a17.22,17.22,0,0,0-12.61-15.77c-5.1-1.41-15.68-4.4-21.58-6.1-7.56,24.62-32.59,53.28-32.59,53.28S92.14,181.25,85.2,158.62L62.14,165a16.06,16.06,0,0,0-12,14.89L41.78,223.7H191.52Z"/><path class="cls-3" d="M136.87,186.15l-1.5-18.66-16,2.89h-6.1l-16.34-2.89-.74,19.4,9.63-5.54c-3.65,5.11-8.89,12.52-8.89,13,0,.75,14.18,9.7,14.18,9.7l4.55-26.75H117l4.55,26.75s14.18-9,14.18-9.7c0-.51-5.8-8.68-9.45-13.78Z"/></g></g></svg>