<svg xmlns="http://www.w3.org/2000/svg" xmlns:xlink="http://www.w3.org/1999/xlink" viewBox="0 0 232.87 232.87"><defs><style>.cls-1{fill:none;}.cls-2{clip-path:url(#clip-path);}.cls-3{fill:#005014;}.cls-4{fill:#6a71b7;stroke:#fff;stroke-width:5.54px;}.cls-5{fill:#ffcec8;}.cls-6{fill:#141212;}.cls-7{fill:#ff9b8f;}.cls-8{fill:#965947;}.cls-9{fill:#2d2d3d;}.cls-10{fill:#ff5a1f;}.cls-11{fill:#fff;}</style><clipPath id="clip-path"><circle class="cls-1" cx="116.43" cy="116.43" r="105.1"/></clipPath></defs><g id="レイヤー_1" data-name="レイヤー 1"><g class="cls-2"><circle class="cls-3" cx="116.43" cy="116.43" r="105.1"/><rect class="cls-4" x="52.9" y="-3.81" width="172.72" height="156.51"/><path class="cls-5" d="M159.29,162.46l-28.31-9H116.8a1.1,1.1,0,0,1,0,.15v-.15H102.59l-28.32,9A11.3,11.3,0,0,0,66.5,174.9c1.06,7.18,2.63,17.75,4.32,29.37a85.39,85.39,0,0,0,46.3,13.55,84.32,84.32,0,0,0,45.25-13.09c1.72-11.8,3.61-22.56,4.69-29.83A11.3,11.3,0,0,0,159.29,162.46Z"/><ellipse class="cls-6" cx="115.75" cy="110.41" rx="29.98" ry="39.8"/><path class="cls-7" d="M95.69,115.67l-.45-.14c-1.65.08-3.7-3.88-3.85-7.47l-.91-6.89c-.06-1.25.27-2.24,1.26-1.93l.3.09A5,5,0,0,1,95.17,104Z"/><path class="cls-7" d="M137.68,115.69l.44-.14c1.65.06,3.66-3.91,3.79-7.51l.84-6.89c.05-1.25-.29-2.24-1.27-1.92l-.31.09a5,5,0,0,0-3.08,4.71Z"/><polygon class="cls-7" points="131.32 120.36 102.39 120.36 102.39 153.55 131.32 153.5 131.32 120.36"/><polygon class="cls-7" points="102.39 133.57 115.79 144.3 102.39 153.5 102.39 133.57"/><path class="cls-5" d="M131.32,133.57V153.5s-17.07,1.88-28.93,0Z"/><path class="cls-5" d="M116.84,62.23c-13.3,0-24.09,10-24.09,22.44A20.56,20.56,0,0,0,93,87.92l2.29,31.65a15.44,15.44,0,0,0,5.88,11.05l10.56,8.29a8,8,0,0,0,5,1.75h.14a8,8,0,0,0,5-1.75l10.51-8.25a15.6,15.6,0,0,0,5.93-11.16l2.29-31.58a21.81,21.81,0,0,0,.25-3.25h0C140.92,72.27,130.14,62.23,116.84,62.23Z"/><path class="cls-8" d="M121.08,95.93l7.21-1.69a9.27,9.27,0,0,1,6.07.64l2.21,1.05-3.34-2.57a4.44,4.44,0,0,0-3.57-.84L122.22,94Z"/><path class="cls-8" d="M112.54,95.93l-7.21-1.69a9.27,9.27,0,0,0-6.07.64l-2.21,1.05,3.34-2.57a4.45,4.45,0,0,1,3.57-.84L111.4,94Z"/><path class="cls-9" d="M133.8,80.13c7.14,18.78,12.78,58.3-9.56,66.45,26.39.61,39-10,26.79-50-9.8-32.24-21.5-37.06-35.24-37.06-12.85,0-26.69,11.77-32.71,32.81-9,31.52-9.69,54.08,25.69,54.89C93.51,140.24,89,109.85,99.4,80.13,108.91,76.7,126.91,76,133.8,80.13Z"/><polygon class="cls-9" points="96.09 77.21 96.09 95.89 112.96 95.89 113.87 88.05 114.65 95.89 118.32 95.89 119.34 92.62 120.51 95.89 136.95 95.89 136.95 76.15 126.54 69.46 110.94 69.46 96.09 77.21"/><path class="cls-10" d="M190.65,224.29l-7.12-43.21a17.2,17.2,0,0,0-12.61-15.77c-5.1-1.41-11.23-3.07-17.15-4.6-17.75,23.87-58.36,23.52-74.19,0l-18.31,4.84a16.1,16.1,0,0,0-12,14.9l-8.4,43.84H190.65Z"/><path class="cls-11" d="M151.71,57.8A19.73,19.73,0,0,1,159,33.85,34.48,34.48,0,0,0,155.31,35a19.75,19.75,0,1,0,15,36.52,20.64,20.64,0,0,0,3.42-1.82A19.75,19.75,0,0,1,151.71,57.8Z"/><circle class="cls-11" cx="187.27" cy="53.41" r="1.46"/><circle class="cls-11" cx="196.6" cy="81.88" r="1.46"/><circle class="cls-11" cx="213.99" cy="96.86" r="1.46"/><circle class="cls-11" cx="134.25" cy="24.65" r="1.46"/><circle class="cls-11" cx="109.18" cy="26.12" r="1.46"/><circle class="cls-11" cx="124.96" cy="38.61" r="1.46"/><circle class="cls-11" cx="71.41" cy="68.78" r="1.46"/><circle class="cls-11" cx="188.73" cy="106.47" r="1.46"/><circle class="cls-11" cx="170.28" cy="135.94" r="1.46"/><circle class="cls-11" cx="72.87" cy="38.61" r="1.46"/><polygon class="cls-11" points="98.71 56.4 96.95 55.18 94.97 55.97 95.59 53.92 94.22 52.28 96.36 52.24 97.5 50.42 98.2 52.45 100.28 52.97 98.57 54.26 98.71 56.4"/><polygon class="cls-11" points="204.03 135.94 202.27 134.72 200.28 135.52 200.9 133.47 199.53 131.82 201.67 131.78 202.81 129.97 203.51 131.99 205.59 132.51 203.88 133.81 204.03 135.94"/><polygon class="cls-11" points="173.31 95.01 171.17 95.05 170.03 96.86 169.33 94.83 167.25 94.3 168.97 93.01 168.83 90.88 170.58 92.11 172.57 91.32 171.94 93.36 173.31 95.01"/><polygon class="cls-11" points="71.41 101.64 69.26 101.67 68.12 103.48 67.42 101.45 65.35 100.92 67.06 99.64 66.92 97.5 68.68 98.73 70.67 97.94 70.04 99.99 71.41 101.64"/><polygon class="cls-11" points="72.57 243.75 116.18 259.5 115.73 197.35 72.39 181.51 72.57 243.75"/><polygon class="cls-11" points="80.16 241.33 116.18 259.5 115.73 197.35 79.98 179.09 80.16 241.33"/><polygon class="cls-11" points="115.32 197.44 158.7 181.08 159.13 243.23 116.02 259.68 115.32 197.44"/><path class="cls-9" d="M161.4,251.64,120.92,264.7a1.16,1.16,0,0,1-1.52-1.1l-.19-64.19a1.18,1.18,0,0,1,.81-1.11l40.48-13.06a1.16,1.16,0,0,1,1.52,1.1l.19,64.19A1.18,1.18,0,0,1,161.4,251.64Z"/><path class="cls-9" d="M70.35,251.91l40.56,12.82a1.16,1.16,0,0,0,1.51-1.11l-.19-64.19a1.16,1.16,0,0,0-.81-1.1L70.87,185.5a1.16,1.16,0,0,0-1.52,1.11l.19,64.19A1.17,1.17,0,0,0,70.35,251.91Z"/><rect class="cls-9" x="110.79" y="197.35" width="10.09" height="68.43" rx="0.9" transform="translate(-0.68 0.34) rotate(-0.17)"/></g></g></svg>