<svg display="none" version="1.1" xmlns="http://www.w3.org/2000/svg" xmlns:xlink="http://www.w3.org/1999/xlink">
  <defs>
    <symbol id="feature-01" viewBox="0 0 170 170">
<g transform="translate(-326 -1283)"><g transform="translate(107 -269)"><g transform="translate(142 1552)"><circle cx="85" cy="85" r="85" transform="translate(77)" fill="#ff5a1f"/><g transform="translate(100.726 30.718)"><g transform="translate(0 0.02)"><path d="M41.01,21.02,58.726,1.56,76.431,21.02" transform="translate(2.081 0.058)" fill="none" stroke="#ccc" stroke-linecap="round" stroke-linejoin="round" stroke-width="3.12"/><circle cx="3.793" cy="3.793" r="3.793" transform="translate(57.014)" fill="#4c4c4c"/><rect width="121.603" height="77.419" transform="translate(0 16.266)" fill="#e6e6e6"/><rect width="66.418" height="110.602" transform="translate(116.108 21.772) rotate(90)" fill="#fff"/><rect width="6.672" height="25.806" transform="matrix(0.472, 0.882, -0.882, 0.472, 125.167, 37.256)" fill="#f2f2f2"/><rect width="6.672" height="8.217" transform="matrix(0.472, 0.882, -0.882, 0.472, 132.405, 33.386)" fill="#191919"/><path d="M95.894,54.142,92.5,51.893l5.222-4.833,3.142,5.884Z" transform="translate(4.694 2.367)" fill="#191919"/><rect width="5.012" height="19.397" transform="translate(104.269 85.673) rotate(89.92)" fill="#f2f2f2"/><rect width="5.012" height="6.178" transform="translate(110.434 85.671) rotate(89.92)" fill="#f75252"/><path d="M77.29,85.625l-1.45-2.7,5.17-1.345.01,5.012Z" transform="translate(3.849 4.119)" fill="#f75252"/><rect width="5.012" height="19.397" transform="translate(72.092 85.673) rotate(89.92)" fill="#f2f2f2"/><rect width="5.012" height="6.178" transform="translate(78.267 85.661) rotate(89.92)" fill="#4e66ed"/><path d="M46.681,85.625l-1.461-2.7L50.4,81.58v5.012Z" transform="translate(2.295 4.119)" fill="#4e66ed"/><path d="M26.824,39.972c-.588,2.669-1.608,5.359-1.25,8.143a7.135,7.135,0,0,0,3.751,5.537A5.159,5.159,0,0,0,35.482,52.3c1.839-2.1,2-4.823,1.954-7.481H33.969A62.236,62.236,0,0,1,32.4,62.342c-.147.63-.3,1.271-.483,1.891s-.3.483.336.82c.925.483.315.231.6-.2a7.009,7.009,0,0,1,2.175-2.375,20.132,20.132,0,0,1,7.944-2.753A1.776,1.776,0,0,0,44.7,58a1.723,1.723,0,0,0-1.723-1.713c-3.888.515-8.112,1.692-11.159,4.3a6.683,6.683,0,0,0-2.459,4.35c-.168,1.86,1.051,3.667,3.152,3.278s2.532-2.28,2.974-3.982a62.894,62.894,0,0,0,1.261-6.3,66.4,66.4,0,0,0,.662-13.155c-.105-2.2-3.467-2.228-3.436,0,0,1.629.158,3.6-.893,4.981a1.818,1.818,0,0,1-2.806.4c-2.679-2.28-.736-6.546-.126-9.31.483-2.165-2.837-3.079-3.32-.914Z" transform="translate(1.294 1.943)" fill="#191919"/><path d="M51.853,52.606a54.164,54.164,0,0,0,7.03.4,1.723,1.723,0,1,0,0-3.446,54.166,54.166,0,0,1-7.03-.4,1.713,1.713,0,0,0-1.219.5,1.755,1.755,0,0,0-.5,1.219,1.776,1.776,0,0,0,.5,1.261,2.1,2.1,0,0,0,1.219.5Z" transform="translate(2.544 2.474)" fill="#191919"/><path d="M51.571,60.419a25.218,25.218,0,0,0,6.231.189,1.839,1.839,0,0,0,1.219-.462A1.713,1.713,0,0,0,57.8,57.215a24.6,24.6,0,0,1-5.558-.095l.462.063h-.221a1.86,1.86,0,0,0-1.324.168,1.7,1.7,0,0,0-.62,2.354,1.618,1.618,0,0,0,1.051.788Z" transform="translate(2.553 2.878)" fill="#191919"/><path d="M76.959,60.706l.715.252c.263.095-.2-.095,0,0l.378.179.284.168c.263.158,0,0,.095.074s.252.242.137.116.126.21.137.221h0c-.126-.063.084-.263,0,0s0-.158,0,.063c0,0-.105.326,0,.147s-.095.158-.126.189c.095-.137.105-.095,0,0s.105,0-.063.053.389-.105-.074,0a1.734,1.734,0,0,0-.757,2.879,9.119,9.119,0,0,1,.9.893c.116.158.221.326.315.483l.168.336v.105a2.028,2.028,0,0,1,.168,1.051A1.524,1.524,0,0,1,79,68.64a1.629,1.629,0,0,1-.5.557s-.473.252-.2.137c-.084,0-.683.147-.389.126a1.513,1.513,0,0,1-1.524-.683,1.723,1.723,0,0,0-2.438,0,1.765,1.765,0,0,0,0,2.427A4.876,4.876,0,0,0,77.9,72.9a5.065,5.065,0,0,0,3.909-2.249c1.86-2.648.567-6.094-1.7-8.007l-.767,2.879a3.993,3.993,0,0,0,2.721-4.707c-.525-1.975-2.406-2.869-4.2-3.446a1.723,1.723,0,1,0-.925,3.31Z" transform="translate(3.728 2.885)" fill="#191919"/><path d="M70.74,51.356l15.7.462c2.207.074,2.207-3.373,0-3.436l-15.7-.462C68.523,47.847,68.523,51.293,70.74,51.356Z" transform="translate(3.506 2.411)" fill="#191919"/><path d="M74.852,32.9c.378-.21-.21.074,0,0s-.284,0,0,0c-.441-.074,0,0,.084,0s.084.063,0,0,.4.284.116,0l.273.242.242.273c-.158-.179,0,0,0,.063a14.164,14.164,0,0,1,.788,1.324,2.859,2.859,0,0,1,.168.368c-.126-.326,0,.158,0,.179a.641.641,0,0,0,.074.315c.095.42,0-.3,0,.126a2.1,2.1,0,0,0,0,.368c0,.231.084-.357,0,.053a5.1,5.1,0,0,1-.2.715c.084-.221,0-.063,0,.074l-.179.326s-.252.357-.126.189-.126.137-.147.168a6.213,6.213,0,0,1-.546.5c.273-.231-.084.053-.126.084l-.315.2-.336.168s-.41.189-.2.105-.168,0-.21.074l-.431.126a1.723,1.723,0,0,0,.914,3.32,7.818,7.818,0,0,0,3.877-2.375A6.084,6.084,0,0,0,80,35.034a8.8,8.8,0,0,0-2.1-4.2,3.888,3.888,0,0,0-4.791-1.051,1.723,1.723,0,0,0,1.734,2.974Z" transform="translate(3.671 1.469)" fill="#191919"/><path d="M85.848,30.01a6.189,6.189,0,0,0-7.691,5,7.418,7.418,0,0,0,.946,5.254,6.241,6.241,0,0,0,5.075,2.616A1.723,1.723,0,0,0,85.9,41.158a1.755,1.755,0,0,0-1.723-1.713c-.105,0-.483-.063-.168,0l-.473-.084-.452-.116a.981.981,0,1,0-.179-.053l-.41-.221c-.315-.168.084.137-.126-.105s-.21-.2-.3-.315c.231.284,0-.063-.063-.137a3.522,3.522,0,0,1-.21-.389c-.189-.347,0,.21,0-.137a3.073,3.073,0,0,0-.231-.851c-.074-.294,0,.242,0-.126V35.831c.074-.273.158-.557.231-.841v.074l.095-.2c.063-.126.137-.252.21-.378s.315-.41.158-.231.147-.147.179-.179l.3-.273c.095-.084.063-.063-.084,0l.168-.105a2.449,2.449,0,0,1,.357-.21l.179-.095h-.105l.778-.221h.557c.147.053.3.074.452.126a1.723,1.723,0,1,0,.809-3.289Z" transform="translate(3.96 1.492)" fill="#191919"/></g></g></g></g></g></svg>
    </symbol>


    <symbol id="feature-02" viewBox="0 0 170 170">
 ><defs><clipPath id="a"><circle cx="85" cy="85" r="85" fill="none"/></clipPath></defs><g transform="translate(-326 -1283)"><g transform="translate(107 -269)"><g transform="translate(211.17 1544.17)"><g transform="translate(7.83 7.83)"><g clip-path="url(#a)"><rect width="85" height="89.157" transform="translate(84.992 0)" fill="#005014"/><rect width="85" height="89.157" transform="translate(0 0)" fill="#ff5a1f"/><path d="M166.694,69.392c-4.214-3.769-48.1-3.769-52.318,0-5.775,5.168-6.785,33.345-6.785,33.345h65.9S172.476,74.56,166.694,69.392Z" transform="translate(-20.576 -12.73)" fill="#00a79d"/><path d="M164.843,74.174c-.21-4.23-1.5-8.031-4.853-9.325L149.824,60.91H136.56L126.4,64.849c-3.356,1.294-4.642,5.111-4.853,9.349a29.439,29.439,0,0,0,43.285,0Z" transform="translate(-23.246 -11.649)" fill="#fb9b67"/><path d="M168.126,68.447a12.884,12.884,0,0,0-3.712-2.135c-4.472-1.618-9.495-3.47-10.8-3.842a12.528,12.528,0,0,1-11.484,7.077,12.358,12.358,0,0,1-11.387-7.077c-1.31.372-6.333,2.192-10.8,3.842a12.884,12.884,0,0,0-3.712,2.135,29.463,29.463,0,0,0,51.906,0Z" transform="translate(-22.227 -11.947)" fill="#00a79d"/><path d="M145.431,70.221c-7.044,0-10.878-3.906-12.131-7.57l1.383-.461c1.076,3.178,4.464,6.575,10.732,6.575Z" transform="translate(-25.493 -11.894)" fill="#fff"/><path d="M148.19,70.221c7.044,0,10.983-3.906,12.22-7.57l-1.383-.461c-1.076,3.178-4.561,6.575-10.837,6.575Z" transform="translate(-28.341 -11.894)" fill="#fff"/><path d="M138.808,44.827l-.154-.04A2.782,2.782,0,0,1,136.7,42.36l-.3-2.329c-.057-.421.235-.809.582-.7h.105a1.706,1.706,0,0,1,1.205,1.5Z" transform="translate(-26.084 -7.519)" fill="#fb9b67"/><path d="M157.6,44.846h.154A2.766,2.766,0,0,0,159.7,42.42l.3-2.329c.049-.421-.243-.809-.59-.7h-.105a1.715,1.715,0,0,0-1.205,1.512Z" transform="translate(-30.14 -7.53)" fill="#fb9b67"/><rect width="14.064" height="10.344" transform="translate(113.128 39.419)" fill="#fb9b67"/><path d="M147.71,66.647l14.056-4.9V56.57H147.71Z" transform="translate(-34.582 -17.151)" fill="#e07f57"/><path d="M147.71,59.821l5.152,5.03,5.2-1.812,3.7-3.583V56.57H147.71Z" transform="translate(-34.582 -17.151)" fill="#e07f57"/><path d="M146.469,24.44a8.775,8.775,0,0,0-8.8,8.6l.938,10.457a5.176,5.176,0,0,0,2.054,4.125l2.717,2.588a4.141,4.141,0,0,0,2.491.809h1.205a4.141,4.141,0,0,0,2.491-.809l2.717-2.588a5.176,5.176,0,0,0,2.054-4.125l.938-10.433A8.783,8.783,0,0,0,146.469,24.44Z" transform="translate(-26.329 -4.674)" fill="#fb9b67"/><path d="M146.432,24.16h-.049c-6.51,0-9.406,4.489-9.05,8.67.251,3,.979,8.168.979,8.168h0c.129-9.988,1.763-10.845,2.345-10.748l2.507.437a19.41,19.41,0,0,0,6.47,0l2.507-.437c.582-.1,2.07-.146,2.345,10.748h0s.809-5.16.979-8.168C155.757,28.374,152.934,24.184,146.432,24.16Z" transform="translate(-26.259 -4.621)" fill="#a3472e"/><path d="M154.563,27.627a6.866,6.866,0,0,0-1.213-5.807c-.073.938-.655,1.666-3.728.995s-10.4-1.4-11.056,4.173c-1.124.453-1.359,2.135-1.2,3.7l1.569,2.135A4.894,4.894,0,0,1,140.475,30c1.909.865,8,1.618,11.5.485a3.979,3.979,0,0,0,.655-.275,5.742,5.742,0,0,1,1.262,2.62l1.569-2.038C155.534,29.244,155.226,28.209,154.563,27.627Z" transform="translate(-26.263 -4.173)" fill="#a3472e"/><path d="M89.807,112.2H37.61L41.144,82.92H86.273Z" transform="translate(-13.525 -22.191)" fill="#6a71b7"/><path d="M73.06,52.343c-2.248-2.426-2.062-5.661-1.618-8.088.914-4.78-1.31-13-5.548-17.712-3.89-4.327-11.476-3.68-12.94-.534-6.276,1.569-5.661,12.382-6.219,14.485-.623,2.426-2.475,4.464-1.569,8.4a5.184,5.184,0,0,1-1.658,5.079c-2.232,1.763-3.971,6.26-.477,8,2.96,1.48,11.978.995,14.671.809v.073s10.611-.946,14.849-.946C76.861,58.805,75.3,54.786,73.06,52.343Z" transform="translate(-7.85 -4.489)" fill="#2d2d3d"/><path d="M53.281,45.925l-.154-.049c-.542,0-1.512-1.561-1.723-3.235s1.059-2.1,1.245-1.884a2.523,2.523,0,0,1,.461,1.343Z" transform="translate(-9.826 -7.785)" fill="#ffcec8"/><path d="M70.89,45.925l.146-.049c.55,0,1.52-1.561,1.731-3.235s-1.059-2.1-1.245-1.884A2.523,2.523,0,0,0,71.06,42.1Z" transform="translate(-13.557 -7.785)" fill="#ffcec8"/><path d="M73.859,56.91H64.3V67.877l9.559-.016Z" transform="translate(-18.63 -17.216)" fill="#ff9b8f"/><path d="M64.3,62.31l4.424,3.542L64.3,68.893Z" transform="translate(-18.63 -18.249)" fill="#ff9b8f"/><path d="M66.029,54.48v6.583a44.424,44.424,0,0,1-9.559,0Z" transform="translate(-10.8 -10.419)" fill="#ffcec8"/><path d="M60.488,25.31a7.706,7.706,0,0,0-7.958,7.416,6.834,6.834,0,0,0,.081,1.084l.76,10.457a5.119,5.119,0,0,0,1.965,3.656l3.494,2.742a2.653,2.653,0,0,0,1.666.574h0a2.653,2.653,0,0,0,1.666-.574l3.478-2.725a5.192,5.192,0,0,0,1.957-3.7l.752-10.433a6.835,6.835,0,0,0,.089-1.084h0A7.684,7.684,0,0,0,60.488,25.31Z" transform="translate(-10.046 -4.84)" fill="#ffcec8"/><path d="M52.712,37.673s.51-4.691,3.769-7.343c6.3,2.192,10.748,3.324,11.476,7.384C70.626,29.8,67.011,25,60.274,25S50.836,30.815,52.712,37.673Z" transform="translate(-9.97 -4.781)" fill="#2d2d3d"/><path d="M72.472,65.588,63.22,62.62H53.66l-9.276,2.968A3.728,3.728,0,0,0,41.82,69.7c.315,2.127.76,5.152,1.254,8.516a28.371,28.371,0,0,0,30.684.348c.51-3.51.979-6.664,1.3-8.9a3.728,3.728,0,0,0-2.588-4.076Z" transform="translate(-7.99 -11.976)" fill="#ffcec8"/><path d="M73.7,64.99l-8.759-2.467-3.17-3.963v3.292c2.717,5.1,4.044,6.7-4.853,14.873-6.3-6.907-7.91-7.837-4.723-14.873V58.7c-1.431,1.836-3.178,4.181-3.178,4.181l-7.9,2.224c-2.992.809-6.017,1.844-6.963,6.826A28.735,28.735,0,0,0,57.07,83.251,28,28,0,0,0,79.1,72.357l.178-.429A7.877,7.877,0,0,0,73.7,64.99Z" transform="translate(-6.531 -11.199)" fill="#6a71b7"/><path d="M62.059,80.658,61,79.59v6.931h1.723V80.132Z" transform="translate(-11.666 -15.221)" fill="#fff"/><path d="M68.3,58.56s3.3,7.788,1.132,11.533c1.852-2.677,2.806-2.968,5.661.388a40.219,40.219,0,0,0-2.046-7.521Z" transform="translate(-13.062 -11.199)" fill="#fff"/><path d="M49.14,72.219c2.362-1.99,2.96-1.5,9.147,4.966-2.256-2.507-3.413-3.607-4.642-6.324C51.922,68.434,49.738,69.51,49.14,72.219Z" transform="translate(-9.398 -13.293)" fill="#51588c"/><path d="M55.068,58.73s-2.426,8.152-1.343,10.223c-1.068-1.254-2.976-1.3-4.586,1.205A27.02,27.02,0,0,1,50.515,63.3Z" transform="translate(-9.398 -11.232)" fill="#fff"/><path d="M62.31,78.84c4.618-3.753,6.688-6.025,7.465-6.6s1.739-1.8,4.181.356c-1.205-3.4-3.081-4.133-5.661-.388A38.327,38.327,0,0,1,62.31,78.84Z" transform="translate(-11.917 -13.331)" fill="#51588c"/><path d="M62.276,83.433a.453.453,0,1,0-.453.453A.453.453,0,0,0,62.276,83.433Z" transform="translate(-11.737 -15.87)" fill="#6a71b7"/><rect width="85" height="79.986" transform="translate(84.992 90.006)" fill="#ff5a1f"/><rect width="85" height="79.986" transform="translate(0 90.006)" fill="#005014"/><path d="M81.814,166.93c-4.319-3.437-49.334-3.437-53.628,0-5.92,4.715-6.955,36.9-6.955,36.9H88.777S87.734,171.645,81.814,166.93Z" transform="translate(-4.06 -31.432)" fill="#edbaba"/><path d="M78.565,171.135c-.477-3.575-1.868-6.616-4.8-7.707L63.547,159.61l-6.616.081h0l-6.616.081s-2.119.809-10.118,4.044c-2.9,1.165-4.222,4.214-4.618,7.788a29.447,29.447,0,0,0,43.01-.485Z" transform="translate(-6.805 -30.525)" fill="#fb9b67"/><path d="M79.528,164.04,63.28,158.88l-3.364,9.745a26.146,26.146,0,0,0-3.235-2.75c0-.162-.065-.251-.105-.251a1,1,0,0,0-.259.057,1.011,1.011,0,0,0-.372-.105c-.04,0-.081.121-.113.34a34.166,34.166,0,0,0-3.712,2.766l-3.591-9.624L32.4,164.638a9.883,9.883,0,0,0-2.192,1.084,29.439,29.439,0,0,0,25.953,14.849c11.088-.137,21.327-6.122,26.236-15.245a20.131,20.131,0,0,0-2.871-1.286Z" transform="translate(-5.778 -30.385)" fill="#edbaba"/><rect width="14.064" height="10.344" transform="matrix(1, -0.012, 0.012, 1, 43.035, 119.322)" fill="#fb9b67"/><path d="M61.161,165.4l14.008-5.071L75.1,155.15l-14.064.17Z" transform="translate(-18.006 -36.004)" fill="#e07f57"/><path d="M61.08,158.571l5.216,4.966,5.176-1.876,3.664-3.623L75.1,155.15l-14.064.17Z" transform="translate(-18.006 -36.004)" fill="#e07f57"/><path d="M59.542,123.13a8.775,8.775,0,0,0-8.7,8.7L51.9,142.249a5.168,5.168,0,0,0,2.111,4.1l2.742,2.556a4.1,4.1,0,0,0,2.507.809h1.205a4.206,4.206,0,0,0,2.483-.865l2.677-2.62a5.152,5.152,0,0,0,2.006-4.149l.809-10.441A8.775,8.775,0,0,0,59.542,123.13Z" transform="translate(-9.723 -23.548)" fill="#fb9b67"/><path d="M52.1,143.617h-.162a2.782,2.782,0,0,1-1.981-2.426l-.332-2.362c-.057-.429.226-.809.574-.7h.105a1.706,1.706,0,0,1,1.237,1.512Z" transform="translate(-9.49 -26.413)" fill="#fb9b67"/><path d="M70.9,143.417h.154a2.79,2.79,0,0,0,1.925-2.475l.267-2.337c.049-.421-.251-.768-.6-.687h-.105a1.706,1.706,0,0,0-1.181,1.529Z" transform="translate(-13.559 -26.374)" fill="#fb9b67"/><path d="M62.008,181.746a.574.574,0,1,0-.566.582A.582.582,0,0,0,62.008,181.746Z" transform="translate(-11.639 -34.65)" fill="#ffd4d4"/><path d="M62.008,194.454a.574.574,0,1,0-.566.566.566.566,0,0,0,.566-.566Z" transform="translate(-11.639 -37.079)" fill="#ffd4d4"/><path d="M61.867,170.274a.578.578,0,1,0-.582.574.566.566,0,0,0,.582-.574Z" transform="translate(-11.611 -32.455)" fill="#ffd4d4"/><path d="M67.269,124.624c-.534-2.426-3.518-4.691-7.8-4.634-5.047.057-7.764,2.313-8.16,4.731a6.2,6.2,0,0,0-1.294,4.545,40.1,40.1,0,0,0,1.4,9.964h0c0-9.988,1.618-10.87,2.208-10.773l2.313.364c-1.221.4-2.046.687-2.046.687a16.984,16.984,0,0,0,7.667.809c1.7-.332,3.195-.679,4.238-1.8.671.574,1.512,2.758,1.8,10.514,0,0,1.173-6.082,1.375-9.09A6.47,6.47,0,0,0,67.269,124.624Z" transform="translate(-9.557 -22.947)" fill="#a3472e"/><path d="M57.72,165.434l-5.888-6.324-1.682.744,5.775,11.1,1.925-3.316a2.3,2.3,0,0,1,1.884-1.059h.105v-1.618Z" transform="translate(-9.591 -30.429)" fill="#dba7a7"/><path d="M70.047,158.87l-5.734,6.47-2.143-.4v1.618a1.963,1.963,0,0,1,.485,0l.186,31.347h.315l-.186-31.242a2.378,2.378,0,0,1,1.245.89l2,3.235,5.524-11.217Z" transform="translate(-11.89 -30.383)" fill="#dba7a7"/><path d="M66.933,155.88l-7,8.443-7.1-8.274-2.078,3.033,5.176,10.069,1.965-3.009A2.523,2.523,0,0,1,59.978,165h0a2.548,2.548,0,0,1,2.143,1.108l2.03,2.944,4.925-10.19Z" transform="translate(-9.706 -29.811)" fill="#ffd4d4"/><path d="M176.994,212.021l-54.364.671,4.367-32h45.476Z" transform="translate(-29.785 -40.889)" fill="#005014"/><path d="M139.025,124.3c1.189-2.353,4.125-4.853,9.511-3.486,5.912,1.456,9.212,8.088,7.044,15.423-4.044,13.6-14.719,8.363-18.237.655C133.429,128.307,136.583,124.458,139.025,124.3Z" transform="translate(-25.913 -23.032)" fill="#2d2d3d"/><path d="M158.65,164.373,149.042,161h-9.665l-9.6,3.348a3.486,3.486,0,0,0-2.637,3.906c.315,2.167.809,5.241,1.391,8.67a29.115,29.115,0,0,0,31.323.04c.574-3.437,1.076-6.535,1.4-8.71a3.494,3.494,0,0,0-2.6-3.882Z" transform="translate(-24.308 -30.791)" fill="#ffcec8"/><path d="M138.981,143.925l-.146-.049c-.55,0-1.52-1.561-1.731-3.235s1.068-2.1,1.245-1.884a2.426,2.426,0,0,1,.461,1.343Z" transform="translate(-26.216 -26.527)" fill="#ffcec8"/><path d="M157,143.844l.154-.049c.558,0,1.237-1.326,1.286-2.548l.283-2.337c0-.429-.1-.76-.429-.655h-.105a1.7,1.7,0,0,0-1.051,1.618Z" transform="translate(-30.026 -26.437)" fill="#f28c63"/><path d="M159.888,154.96H150.07v11.258l9.818-.016Z" transform="translate(-35.033 -35.968)" fill="#ff9b8f"/><path d="M150.07,160.5l4.545,3.639-4.545,3.122Z" transform="translate(-35.033 -37.028)" fill="#ff9b8f"/><path d="M152.058,152.67v6.737a46.261,46.261,0,0,1-9.818,0Z" transform="translate(-27.203 -29.198)" fill="#ffcec8"/><path d="M146.368,122.74a7.907,7.907,0,0,0-8.168,7.61,7.069,7.069,0,0,0,.089,1.108l.809,10.732a5.233,5.233,0,0,0,1.99,3.753l3.583,2.814a2.75,2.75,0,0,0,1.706.59h.049a2.718,2.718,0,0,0,1.706-.59l3.567-2.8a5.3,5.3,0,0,0,2.014-3.785l.809-10.716a7.074,7.074,0,0,0,.081-1.108h0A8.029,8.029,0,0,0,146.368,122.74Z" transform="translate(-26.43 -23.474)" fill="#ffcec8"/><path d="M160.539,164.789l-.809-.162a57.238,57.238,0,0,1-5.831-1.415l-2.9-.922c-.631,2.119-4.206,4.165-8.088,4.173s-7.441-2.054-8.088-4.173l-3.631,1.148a43.969,43.969,0,0,1-4.367,1.035l-1.545.315a6.543,6.543,0,0,0-5.079,5.7l-.049.356a29.115,29.115,0,0,0,45.476,0l-.04-.356A6.559,6.559,0,0,0,160.539,164.789Z" transform="translate(-22.978 -31.037)" fill="#005014"/><path d="M155.3,162.63l-1.084-.34c-1.116,2.556-4.262,3.963-8.088,3.963s-6.955-1.407-8.088-3.963l-1.092.34c1.043,3.8,6.333,4.772,9.155,4.772h0C148.968,167.4,154.257,166.431,155.3,162.63Z" transform="translate(-26.191 -31.037)" fill="#fff"/><path d="M146.7,121.415c4.044.235,6.138,1.618,7.489,3.688.251-.259.332.259.663.137,3.955,6.171,3.34,13.749.121,18-1.059,1.4-2.944,3.47-3.324,4.788,0,0-.469-.493.906-3.235a11.1,11.1,0,0,0,.914-6.882c-2.054-5.944-8.435-3.284-13.118-9.042a29.552,29.552,0,0,0-1.844,8.088C138.5,136.983,134.533,120.695,146.7,121.415Z" transform="translate(-26.37 -23.216)" fill="#2d2d3d"/><line x2="182.657" transform="translate(-6.333 90.006)" fill="none" stroke="#fff" stroke-miterlimit="10" stroke-width="2.42"/><line y2="182.657" transform="translate(84.992 -6.333)" fill="none" stroke="#fff" stroke-miterlimit="10" stroke-width="2.42"/><path d="M57.653,92.55v10.514H56.7v-.518H48.684v.518H47.73V92.55Zm-.987,9.058V93.464H48.684v8.144Zm-.615-1.787v.809H49.283v-.809h2.871V97.766H49.922v-.809h2.232V95.243H49.42v-.809h6.535v.809H53.124v1.715h2.265v.809H53.124v2.095ZM54.58,97.912a6.89,6.89,0,0,1,.954,1.383l-.809.356a6.389,6.389,0,0,0-.809-1.367Z" transform="translate(-9.128 -17.7)" fill="#fff"/><path d="M67.927,94.76H63.39v-.809h4.537ZM67.49,102.4h-2.8v.526h-.882V98.885H67.45Zm-.089-6H63.883V95.65h3.478Zm-3.518.865h3.478v.752H63.883Zm3.34-4.165H63.988V92.35h3.235Zm-2.531,6.624v1.844h1.86V99.726ZM74.4,96.919v.809H67.846v-.809H69.3c.154-.485.307-1.068.477-1.682H68.615v-.809h1.407l.283-1.173H68.283V92.35h5.766V93.2H71.308l-.291,1.173h2.426v2.548Zm-5.936,1.812h5.411v4.278h-.962v-.429H69.448v.4h-.962Zm.962.873v2.143h3.461V99.6Zm.93-2.685H72.5V95.213H70.8C70.645,95.828,70.475,96.41,70.353,96.919Z" transform="translate(-12.123 -17.662)" fill="#fff"/><path d="M139.826,94.99h-2.119v-.809h2.426V91.86h.938V94.2h2.362v.809h-2.3c.671.429,1.391.938,1.812,1.262l-.518.7a17.632,17.632,0,0,0-1.351-1.189v1.4h-.938V95.791a10.215,10.215,0,0,1-1.957,1.666l-.566-.7A8.936,8.936,0,0,0,139.826,94.99Zm2.507,7.279a11.451,11.451,0,0,0-1.27-.736,6.826,6.826,0,0,1-2.774,1.343l-.582-.728a6.349,6.349,0,0,0,2.467-1.035c-.372-.17-.744-.324-1.148-.477l-.121.218-.873-.315c.259-.453.6-1.116.922-1.8h-1.245v-.809h1.618l.364-.809.995.113-.323.728h3.178v.809h-.97a5.2,5.2,0,0,1-.865,2.119,12.675,12.675,0,0,1,1.334.736Zm-3.6-8.2a5.346,5.346,0,0,0-.655-1.537l.679-.34a5.749,5.749,0,0,1,.809,1.561Zm.639,5.863c.518.178.979.372,1.44.566a4.141,4.141,0,0,0,.744-1.739h-1.617Zm2.806-5.855-.671-.332a11.784,11.784,0,0,0,.865-1.617l.809.348a12.268,12.268,0,0,1-.979,1.6Zm6.7,8.088-.7.809a7.109,7.109,0,0,1-2.281-2.224,9.931,9.931,0,0,1-2.426,2.208l-.72-.7a9.188,9.188,0,0,0,2.612-2.426,14.145,14.145,0,0,1-1.148-3.478,11.178,11.178,0,0,1-.7,1.189l-.712-.615a11.557,11.557,0,0,0,1.82-5.014l.93.146a16.869,16.869,0,0,1-.4,1.884h3.55v.9h-.865a11.039,11.039,0,0,1-1.391,5.063,6.252,6.252,0,0,0,2.451,2.24Zm-2.936-3.235a10.158,10.158,0,0,0,.93-4.044h-1.99v.04a14,14,0,0,0,1.124,3.939Z" transform="translate(-26.317 -17.568)" fill="#fff"/><path d="M157.74,92.94v9.212h-1.1V92.94Z" transform="translate(-29.957 -17.774)" fill="#fff"/><path d="M54.388,184.075v-3.882h-2.07v5.661h7.732v.97H52.317v.639H51.266v-7.279H49.43v-.962h1.836v-2.653h1.051v2.653h2.111V176.44H55.4v2.782h2.176v-2.774h1.019v2.774h1.876v.962H58.593v3.882Zm.971-3.882v2.944h2.216v-2.944Z" transform="translate(-9.453 -33.744)" fill="#fff"/><path d="M72.677,184.146c0,1.771-1.181,2.556-3.154,2.556H66.83V177.49h2.507c1.545,0,3,.453,3,2.216a2.03,2.03,0,0,1-1.537,2.1,2.095,2.095,0,0,1,1.876,2.337Zm-4.772-2.677h1.933a1.488,1.488,0,0,0,1.423-1.618c0-1-.7-1.464-2.062-1.464H67.906Zm3.647,2.58c0-1.221-.809-1.739-2.078-1.739H67.906v3.445h1.488C70.51,185.755,71.553,185.545,71.553,184.049Z" transform="translate(-12.781 -33.944)" fill="#fff"/><path d="M144.568,186.59l-.607.89a6.883,6.883,0,0,1-4.933-3.025c-.631,1.205-2.119,2.232-4.925,3.025l-.623-.809c2.984-.768,4.335-1.739,4.78-2.92h-4.772v-.873h1.618v-2.9h3.308v-1.076h.995v1.076h3.47v2.9H144.5v.873h-4.853C140.637,185.45,142.376,186.275,144.568,186.59Zm-8.088-8.2h-2.912v-.865h2.912V176.4h.987v1.084h3.057V176.4h1.011v1.084h2.976v.865H141.5v1.116h-1.011v-1.116h-3.057v1.092h-.987Zm1.981,4.5v-2.062h-2.337v2.062Zm.995-2.062v2.062h2.426v-2.062Z" transform="translate(-25.528 -33.736)" fill="#fff"/><path d="M154.3,179.3h-4.5V178.5h4.5Zm-.429,7.643H151.11v.55h-.89v-4.044h3.647Zm-.1-5.993h-3.453v-.736h3.453Zm-3.453.882h3.453v.76h-3.453Zm3.332-4.157h-3.186v-.76h3.186Zm-2.539,6.583v1.844h1.86v-1.844Zm9.705-2.839v.865h-6.551v-.865h1.448c.162-.477.315-1.059.485-1.674h-1.189v-.809h1.423l.291-1.173h-2.03v-.857h5.783v.882h-2.75l-.283,1.173h2.426v2.515Zm-5.936,1.812h5.411v4.286H159.3v-.4h-3.47v.4h-.954Zm.954.882v2.143h3.47v-2.143Zm.89-2.693h2.135v-1.674h-1.618c-.178.631-.348,1.213-.493,1.69Z" transform="translate(-28.649 -33.833)" fill="#fff"/></g></g></g></g></g>
     </symbol>

     <symbol id="feature-03" viewBox="0 0 170 170">
  <circle cx="85" cy="85" r="85" transform="translate(991.059 1705.196)" fill="none"/></clipPath><clipPath id="b"><circle cx="55.855" cy="55.855" r="55.855" transform="translate(945.685 1734.34)" fill="none"/></clipPath><clipPath id="c"><circle cx="55.855" cy="55.855" r="55.855" transform="translate(1094.502 1734.34)" fill="none"/></clipPath></defs><g transform="translate(-324 -1283)"><g transform="translate(107 -269)"><g transform="translate(-774.059 -153.195)"><circle cx="85" cy="85" r="85" transform="translate(991.059 1705.196)" fill="#ff5a1f"/><rect width="44.752" height="5.124" transform="translate(1053.708 1787.633)" fill="#fff"/><g clip-path="url(#a)"><circle cx="55.855" cy="55.855" r="55.855" transform="translate(945.685 1734.34)" fill="#fff"/><g clip-path="url(#b)"><path d="M1024.824,1808.195l27.6-6.9,18.493,43.71-12.766,3.112a8.833,8.833,0,0,1-1.908-1.648C1045.828,1834.275,1034.4,1819.993,1024.824,1808.195Z" fill="#d7b38d"/><path d="M964.431,1898.57l-.941,2.406-3.008,5.231-2.616.969a1.725,1.725,0,0,0-.863.627l-2.408,3.4a.628.628,0,0,0-.055.887.709.709,0,0,0,.055.055.655.655,0,0,0,.812,0l.863-.863-1.675,3.479a.444.444,0,0,0,0,.5.392.392,0,0,0,.471,0l-.654,1.491a.576.576,0,0,0,.262.68.6.6,0,0,0,.68,0l3.243-4.133,2.119-.994-2.092,2.223-2.616,3.662a.445.445,0,0,0,0,.471.467.467,0,0,0,.575,0l7.847-6.175,2.616-2.25.392.392-.5,2.171a4.575,4.575,0,0,0,0,2.145,1.647,1.647,0,0,0,1.883,1.177v-2.983s.837-3.427.889-3.558l1.255-5.388,1.387-3.506Z" fill="#ffcec8"/><path d="M998.3,1806.546c-.5-.363-1.02-.68-1.491-.969a8.685,8.685,0,0,0-7.01-.811,11.2,11.2,0,0,0-4.917,4.812,38.014,38.014,0,0,0-3.009,9.261l-4.55,17.264-2.826,10.8h0l-12.241,53.546,10.464,3.086s13.5-32.749,17.68-41.852a35.139,35.139,0,0,0,1.8-5.048l4.787-17.369,5.075-18.311a16.769,16.769,0,0,0,.419-9.286,10.7,10.7,0,0,0-4.185-5.127Z" fill="#d7b38d"/><path d="M1023.7,1779.316l15.694-11.141s-1.073,18.546,10.463,25.034l-2.851,3.008a40.845,40.845,0,0,0-6.176,4.682c-.363.916-14.072,0-14.491,0s-6.618-3.531-6.618-3.531l1.046-10.829Z" fill="#2d2d3d"/><path d="M1038.453,1766.028s2.093,21.947-13.078,22.679l-.916,6.2-6.383,6.147s-5.7-5.99-7.664-7.847l2.381-15.171s-5.6-2.616-3.008-6.958,6.512-.235,6.512-.235l3.61-7.847Z" fill="#ffcec8"/><path d="M990.349,1785.2l-.419-.523a16.136,16.136,0,0,1-2.171-3.875,19.456,19.456,0,0,0-.812-2.616c12.817,2.616,17.923-8.235,20.612-14.44s8.5-10.462,19.488-9.312l1.332.183a13.523,13.523,0,0,1,10.955,15.676q-.055.311-.125.62l-.785,3.633a7.847,7.847,0,0,1-4.446-6.566,17.055,17.055,0,0,1-17.839,3.191c-5.833-2.25-6.487,1.491-6.487,1.491a5.233,5.233,0,0,0,4.159,5.65l-2.275,10.882c-.261,1.2-.419,4.446-1.543,4.682a11.363,11.363,0,0,1-3.086-.706l-3.349-.6a29.018,29.018,0,0,1-6.277-1.727l-.472-.209a18.319,18.319,0,0,1-6.46-5.441Z" fill="#2d2d3d"/><path d="M975.674,1842.331s15.7-9.1,21.685-8.84l6.985,14.125h33.22l4.578-18.311s7.847,5.231,18.891-7.638l-6.593-19.617-.915-1.465a17.681,17.681,0,0,0-13.759-8.235h-1.858l-20.534-1.387-13.367,2.907-4.965,1.1a17.635,17.635,0,0,0-8.684,4.787C982.371,1807.62,975.674,1842.331,975.674,1842.331Z" fill="#d7b38d"/><path d="M1064.9,1962.291s-60.346,15.695-87.891-5.934C977.009,1956.352,1045.15,1921.484,1064.9,1962.291Z" fill="#00320f"/><path d="M990.976,1953.5l27.884-6.67c1.7,29.9-4.029,74.131-8.187,120.326H998.456l-.288-10.463Z" fill="#ffcec8"/><path d="M1048.707,1947.59l-7.194,109.183-.288,10.462h-12.216c-3.924-47.083-7.429-92.414-7.166-119.567Z" fill="#ffcec8"/><path d="M977.009,1956.353c.811.341,1.621.628,2.459.889a57.283,57.283,0,0,0,19.012,1.831,69.918,69.918,0,0,0,11.431-1.15c8.684-1.779,16.767-6.176,25.583-7.168a33.727,33.727,0,0,1,14.41,1.574,34.8,34.8,0,0,1,7.847,3.766,33.139,33.139,0,0,1,7.168,6.2h.34c-1.7-20.089-3.923-36.831-6.383-50.72-.523-2.983-1.046-5.813-1.595-8.528-8.816-44.1-19.7-55.428-19.7-55.428h-33.221C983.234,1870.765,978.107,1936.237,977.009,1956.353Z" fill="#005014"/><path d="M1047.163,2068.726l9.7,4.029a1.352,1.352,0,0,1-.68,2.616h-24.536a2.616,2.616,0,0,1-2.615-2.616h0v-5.989l10.462-1.622Z" fill="#2d2d3d"/><path d="M982.814,2072.755l9.7-4.028,7.664-3.792,10.464,1.621v5.991a2.616,2.616,0,0,1-2.616,2.615H983.495a1.332,1.332,0,0,1-.681-2.406Z" fill="#2d2d3d"/><path d="M1015.8,2013.743c-1.6,16.977-3.479,35.025-5.232,53.415H998.352l-.287-10.464-3.008-43.029Z" fill="#2d2d3d"/><path d="M1044.364,2013.744l-2.851,43.029-.288,10.463h-12.212c-1.518-18.311-2.983-36.621-4.212-53.415Z" fill="#2d2d3d"/><path d="M1026.525,1791.558l-8.4,12.451-9.626-11.457,8.868-1.695Z" fill="#ffcec8"/><path d="M1065.237,1840a.682.682,0,0,0,.606-.341.733.733,0,0,0-.235-.994l-12.817-8.056a.7.7,0,0,0-.98.188l-.014.021a.758.758,0,0,0,.235,1.021l12.818,8.057A.686.686,0,0,0,1065.237,1840Z" fill="#ff897a"/><path d="M1025.531,1788.706a11.067,11.067,0,0,1-6.933-3.633,8.4,8.4,0,0,0,6.487,6.7Z" fill="#ffaba1"/><path d="M1027.885,1792.553c-1.648,8.057-9.548,29.742-9.548,29.742s-8.188-22.052-10.463-29.318l10.149,6.435Z" fill="#fff"/><path d="M1010.987,1802.049l7.145-2.381,7.168,2.381,3.687-10.415-3.687-.994-2.119,2.564-5.049,6.2-7.145-8.763-3.008,2.328Z" fill="#fff"/><path d="M1009.6,1805.92l.627-7.847,6.723,1.2h2.616l6.853-1.2.314,8.135-4.055-2.328c1.544,2.144,3.741,5.231,3.741,5.467a66.767,66.767,0,0,1-5.964,4.054l-1.91-11.222h-.575l-1.91,11.222a66.293,66.293,0,0,1-5.933-4.054c0-.209,2.432-3.662,3.95-5.781Z" fill="#005014"/><rect width="19.042" height="9.626" rx="0.484" transform="translate(1030.034 1818.041) rotate(-61.56)" fill="#2d2d3d"/><path d="M1047.4,1819.442a4.5,4.5,0,0,0,0-4.107l-1.91-5.362-1.36,2.485s-3.087-5.754-6.853-6.566-4.787,6.383-2.041,9.522l3.4,5.468,4.212,3.113Z" fill="#ffcec8"/><path d="M1047.4,1819.443l12.816,13.628-11.457,5.885-6.331-15.511C1044,1819.051,1047.4,1819.443,1047.4,1819.443Z" fill="#ffcec8"/><path d="M1048.839,1820.018s13.235,13.628,18.965,19.7,3.792,13.655.363,14.832l-.916.289a10.149,10.149,0,0,1-11.9-4.239c-2.851-4.6-13.915-24.745-13.915-24.745Z" fill="#d7b38d"/><path d="M1018.469,1831.79a1.648,1.648,0,1,1,1.648-1.648h0A1.648,1.648,0,0,1,1018.469,1831.79Z" fill="#966642"/><path d="M1018.468,1838.72a1.648,1.648,0,1,1-1.622,1.675v-.027A1.649,1.649,0,0,1,1018.468,1838.72Z" fill="#966642"/></g><circle cx="55.855" cy="55.855" r="55.855" transform="translate(1094.502 1734.34)" fill="#fff"/><g clip-path="url(#c)"><path d="M1168.234,1855.766H1093.1l5.087-42.143h64.96Z" fill="#6a71b7"/><path d="M1152.3,1795.09c-3.237-3.493-2.969-8.15-2.329-11.639,1.316-6.88-1.887-18.719-7.986-25.495-5.6-6.228-16.52-5.3-18.626-.767-9.034,2.259-8.149,17.823-8.952,20.846-.9,3.493-3.562,6.427-2.259,12.1a7.462,7.462,0,0,1-2.386,7.312c-3.213,2.537-5.716,9.011-.687,11.51,4.261,2.131,17.241,1.432,21.117,1.164v.106s15.274-1.361,21.368-1.361C1157.769,1804.391,1155.522,1798.6,1152.3,1795.09Z" fill="#2d2d3d"/><path d="M1120.981,1781.11l-.221-.071c-.78,0-2.174-2.247-2.48-4.656s1.525-3.027,1.791-2.713a3.632,3.632,0,0,1,.663,1.933Z" fill="#ffcec8"/><path d="M1140.958,1781.11l.209-.071c.792,0,2.189-2.247,2.492-4.656s-1.525-3.027-1.791-2.713a3.632,3.632,0,0,0-.663,1.933Z" fill="#ffcec8"/><path d="M1137.931,1783.344h-13.76v15.786l13.76-.023Z" fill="#ff9b8f"/><path d="M1124.171,1789.63l6.367,5.1-6.367,4.374Z" fill="#ff9b8f"/><path d="M1137.931,1789.63v9.477a63.936,63.936,0,0,1-13.76,0Z" fill="#ffcec8"/><path d="M1131.04,1755.674c-6.322,0-11.455,4.784-11.455,10.675a9.819,9.819,0,0,0,.116,1.56l1.095,15.053a7.367,7.367,0,0,0,2.829,5.261l5.028,3.947a3.822,3.822,0,0,0,2.4.826h0a3.822,3.822,0,0,0,2.4-.826l5.006-3.924a7.47,7.47,0,0,0,2.813-5.32l1.084-15.018a9.947,9.947,0,0,0,.128-1.561h0C1142.506,1760.458,1137.373,1755.674,1131.04,1755.674Z" fill="#ffcec8"/><path d="M1119.957,1773.554s.733-6.753,5.425-10.57c9.069,3.155,15.475,4.784,16.52,10.629,3.836-11.382-1.362-18.3-11.06-18.3S1117.257,1763.682,1119.957,1773.554Z" fill="#2d2d3d"/><path d="M1151.249,1803.379l-13.318-4.272h-13.76l-13.353,4.272a5.372,5.372,0,0,0-3.691,5.914c.454,3.062,1.1,7.418,1.8,12.258a40.838,40.838,0,0,0,44.169.5c.732-5.052,1.406-9.591,1.875-12.805a5.372,5.372,0,0,0-3.726-5.868Z" fill="#ffcec8"/><path d="M1155.114,1803.64l-12.613-3.555-4.563-5.7v4.732c3.916,7.341,5.826,9.657-6.98,21.409-9.069-9.942-11.382-11.281-6.8-21.409v-4.54c-2.06,2.642-4.574,6.018-4.574,6.018l-11.374,3.2c-4.307,1.163-8.66,2.653-10.023,9.826a41.362,41.362,0,0,0,33,16.3,40.3,40.3,0,0,0,31.717-15.681l.256-.616a11.337,11.337,0,0,0-8.033-9.988Z" fill="#6a71b7"/><path d="M1130.969,1820.4l-1.524-1.538v9.976h2.48v-9.195Z" fill="#fff"/><path d="M1137.943,1794.381s4.75,11.211,1.63,16.6c2.666-3.854,4.04-4.273,8.149.558a57.934,57.934,0,0,0-2.942-10.827Z" fill="#fff"/><path d="M1115.638,1811.029c3.4-2.864,4.261-2.166,13.173,7.147-3.249-3.609-4.913-5.192-6.683-9.1C1119.642,1805.582,1116.5,1807.129,1115.638,1811.029Z" fill="#51588c"/><path d="M1124.171,1794.578s-3.493,11.735-1.934,14.715c-1.535-1.8-4.284-1.875-6.6,1.734a38.916,38.916,0,0,1,1.978-9.872Z" fill="#fff"/><path d="M1130.969,1820.507c6.651-5.4,9.628-8.674,10.743-9.5s2.5-2.585,6.019.511c-1.734-4.9-4.435-5.949-8.149-.558a55.191,55.191,0,0,1-8.615,9.545Z" fill="#51588c"/><path d="M1131.18,1823.462a.652.652,0,1,0-.652.652.652.652,0,0,0,.652-.652Z" fill="#6a71b7"/></g><g transform="translate(666.559 -37.805)"><line x2="6.736" y2="7.414" transform="translate(393.5 1784.5)" fill="none" stroke="#fff" stroke-linecap="round" stroke-linejoin="round" stroke-width="3"/><line y1="5.882" x2="7.257" transform="translate(415.94 1783.262) rotate(130)" fill="none" stroke="#fff" stroke-linecap="round" stroke-linejoin="round" stroke-width="3"/><line x1="6.736" y2="7.414" transform="translate(423.5 1784.5)" fill="none" stroke="#fff" stroke-linecap="round" stroke-linejoin="round" stroke-width="3"/></g><g transform="translate(1060.059 1823.676)"><line y1="7.414" x2="6.736" transform="translate(0 0)" fill="none" stroke="#fff" stroke-linecap="round" stroke-linejoin="round" stroke-width="3"/><line x2="7.257" y2="5.883" transform="translate(17.934 12.434) rotate(-130)" fill="none" stroke="#fff" stroke-linecap="round" stroke-linejoin="round" stroke-width="3"/><line x1="6.736" y1="7.414" transform="translate(30 0)" fill="none" stroke="#fff" stroke-linecap="round" stroke-linejoin="round" stroke-width="3"/></g></g><circle cx="85" cy="85" r="85" transform="translate(991.059 1705.196)" fill="none"/></g></g></g>
     </symbol>


  <symbol id="feature-04" viewBox="0 0 170 170">
 <g transform="translate(-324 -1282)"><g transform="translate(107 -269)"><g transform="translate(5714 18449)"><circle cx="85" cy="85" r="85" transform="translate(-5497 -16898)" fill="#ff5a1f"/><g transform="translate(2.36 -2.07)"><g transform="translate(-5473.36 -16861.93)"><path d="M72.358,8.07H14.842A4.627,4.627,0,0,0,10.215,12.7V41.455L1.64,47.56l8.588,6.17v3.32a4.627,4.627,0,0,0,4.627,4.627H72.371a4.627,4.627,0,0,0,4.614-4.627V12.7A4.627,4.627,0,0,0,72.358,8.07Z" transform="translate(-1.64 -8.07)" fill="#005014"/><path d="M47.486,50.431A35.883,35.883,0,0,0,43.708,46.4,13.542,13.542,0,0,1,36.4,48.274a14.013,14.013,0,0,1-10.34-3.922,17.255,17.255,0,0,1-4.5-12.457c0-10.013,5.921-16.575,14.954-16.575S51.263,21.712,51.263,31.7a20.549,20.549,0,0,1-1.307,7.359,14.562,14.562,0,0,1-2.98,4.693l1.111,1.072A32.6,32.6,0,0,0,50.7,47.045ZM40.139,36.9a36.992,36.992,0,0,0,3.1,3.229c1.752-2.157,2.431-4.536,2.431-8.51s-1.111-7.2-3.176-9.268a8.4,8.4,0,0,0-6.118-2.418,8.575,8.575,0,0,0-6.17,2.418c-2.065,2.065-3.176,5.372-3.176,9.464.026,7.2,3.725,11.843,9.49,11.843a7.843,7.843,0,0,0,3.582-.784,32.076,32.076,0,0,0-3.189-2.784Z" transform="translate(4.474 -5.843)" fill="#fff"/></g><g transform="translate(-5430.099 -16815.098)"><path d="M121.392,98.662l-8.588-6.17V63.734a4.614,4.614,0,0,0-4.614-4.614H50.674a4.614,4.614,0,0,0-4.614,4.614v44.418a4.614,4.614,0,0,0,4.614,4.627H108.19a4.614,4.614,0,0,0,4.614-4.627v-3.32Z" transform="translate(-46.06 -59.12)" fill="#fff"/><path d="M84.418,99.933a27.712,27.712,0,0,0-1.163-4.366l-1.66-4.549H68.3l-1.712,4.549a20.535,20.535,0,0,0-1.242,4.366H58.51a46.1,46.1,0,0,0,2.209-4.915l9.15-24.039a24.067,24.067,0,0,0,1.307-4.209h7.255a28.485,28.485,0,0,0,1.451,4.222l9.255,24.039a44.028,44.028,0,0,0,2.118,4.915ZM75.634,73.894c-.17-.458-.288-.954-.745-2.327-.68,1.948-.68,1.948-.8,2.327l-4.34,12.34H80.065Z" transform="translate(-42.236 -56.77)" fill="#ff5a1f"/></g></g></g></g></g>
</symbol>
</defs>
</svg>

