<svg xmlns="http://www.w3.org/2000/svg" xmlns:xlink="http://www.w3.org/1999/xlink" viewBox="0 0 322.05 336.48"><defs><style>.cls-1{fill:none;}.cls-2{clip-path:url(#clip-path);}.cls-3{fill:#ff5a1f;}.cls-4{fill:#2d2d3d;}.cls-5{fill:#ffcec8;}.cls-6{fill:#ff9b8f;}.cls-7{fill:#fff;}.cls-8{fill:#e9ebde;}.cls-9{fill:#d7b38d;}.cls-10{fill:#005014;}.cls-11{fill:#966642;}</style><clipPath id="clip-path"><circle class="cls-1" cx="161.02" cy="161.02" r="161.02"/></clipPath></defs><g id="レイヤー_2" data-name="レイヤー 2"><g id="レイヤー_1-2" data-name="レイヤー 1"><g class="cls-2"><circle class="cls-3" cx="161.02" cy="161.02" r="161.02"/><path class="cls-4" d="M209.83,124.7c-.89-33.79-7.84-42.25-18.55-43.27-5.59-10.35-18.78-20.74-42.48-14.91-18.78,4.63-31.72,20.89-34.31,41.64a120.06,120.06,0,0,0-1.84,15.58C106.23,228.89,71.81,268,159.86,264.41,262.23,260.21,213,243.09,209.83,124.7Z"/><path class="cls-5" d="M130.41,156.05l-.67-.21c-2.52.12-5.63-5.9-5.87-11.38L122.49,134c-.09-1.9.41-3.41,1.92-2.94l.46.14c2.67.84,4.61,3.74,4.76,7.12Z"/><path class="cls-5" d="M194.35,156.09l.68-.22c2.51.1,5.57-6,5.76-11.43L202.08,134c.07-1.91-.45-3.42-2-2.93l-.46.15c-2.67.86-4.58,3.78-4.7,7.16Z"/><polygon class="cls-6" points="184.67 163.2 140.62 163.2 140.62 213.73 184.67 213.66 184.67 163.2"/><polygon class="cls-6" points="140.62 183.32 161.03 199.65 140.62 213.66 140.62 183.32"/><path class="cls-5" d="M184.67,183.32v30.34s-26,2.85-44,0Z"/><path class="cls-5" d="M162.62,74.68C142.37,74.68,126,90,126,108.85a32.44,32.44,0,0,0,.39,5L129.82,162a23.57,23.57,0,0,0,9,16.83l16.09,12.62a12.17,12.17,0,0,0,7.66,2.67h.2a12.17,12.17,0,0,0,7.66-2.67l16-12.56a23.8,23.8,0,0,0,9-17l3.47-48.08a31.22,31.22,0,0,0,.39-5h0C199.29,90,182.87,74.68,162.62,74.68Z"/><path class="cls-5" d="M97.81,227.3l43.11-13.64h21.59v.23c0-.15.05-.23.05-.23h21.59l43.11,13.64a17.22,17.22,0,0,1,11.83,18.94c-1.35,9.09-3.22,21.74-5.3,35.92a130.64,130.64,0,0,1-142.45.49c-2.1-14.38-4-27.22-5.37-36.41A17.23,17.23,0,0,1,97.81,227.3Z"/><path class="cls-7" d="M97.81,227.3l43.11-13.64,21.59,28.9,21.64-28.9,43.11,13.64a17.22,17.22,0,0,1,11.83,18.94c-1.35,9.09-3.22,21.74-5.3,35.92C213.23,295.66,188.63,308,162.2,308c-26.12,0-50.45-12.11-70.86-25.32-2.1-14.38-4-27.22-5.37-36.41A17.23,17.23,0,0,1,97.81,227.3Z"/><path class="cls-8" d="M162.32,286.1a2.18,2.18,0,1,0-2.18,2.19A2.18,2.18,0,0,0,162.32,286.1Z"/><path class="cls-8" d="M162.32,250.78a2.18,2.18,0,1,0-2.18,2.18A2.18,2.18,0,0,0,162.32,250.78Z"/><path class="cls-8" d="M183.47,260.9l15.78-42.5-6.43-2.76L170.7,240l-8-.31-8.36.31-22.13-24.35-6.42,2.76,15.78,42.5s17.54-16.49,20.5-16.49h.47a9.78,9.78,0,0,1,1.86.19l.08,58.78,1.19,0-.08-58.43C167.52,245.55,183.47,260.9,183.47,260.9Z"/><path class="cls-7" d="M140.62,206.39l22.11,33.15,21.94-33.15,12.74,11.45L183.86,256.4s-18-15.62-21-15.62h-.4c-3.2,0-21.29,15.62-21.29,15.62l-13.55-38.56Z"/><path class="cls-4" d="M126.7,131.79a49.66,49.66,0,0,1,18.11-35.38c21.43,5.39,45.27,15.31,53.46,34.3,11.3-29.55-4.47-59.13-35.8-59.13S115.64,91.18,126.7,131.79Z"/><path class="cls-9" d="M275.74,322.3l-10.9-66.21a26.4,26.4,0,0,0-19.32-24.17c-7.82-2.15-24-6.73-33.06-9.34-11.58,37.73-49.94,81.64-49.94,81.64s-39.05-47-49.69-81.64L77.51,232.3a24.64,24.64,0,0,0-18.32,22.82L46.31,322.3H275.74Z"/><path class="cls-4" d="M109.69,184.13c-4.65,33.33,14.93,57,35.83,55.18a127.59,127.59,0,0,1-5.35-40.57Z"/><path class="cls-10" d="M193.83,263.89l-2.29-28.58L167,239.73h-9.35l-25-4.42L131.47,265l14.76-8.49c-5.6,7.83-13.62,19.18-13.62,19.92,0,1.15,21.72,14.87,21.72,14.87l7-41h2.12l7,41s21.72-13.72,21.72-14.87c0-.78-8.87-13.3-14.47-21.11Z"/><path class="cls-11" d="M58.69,227.45s-20.06,48.86-28.52,70.41,4.38,39.13,14.38,38.6l2.66-.14a28.21,28.21,0,0,0,26.3-23.27c2.62-14.87,6.71-78.22,6.71-78.22Z"/><path class="cls-11" d="M261.2,227.45s20.06,48.86,28.52,70.41-4.38,39.13-14.38,38.6l-2.67-.14a28.21,28.21,0,0,1-26.29-23.27c-2.62-14.87-6.71-78.22-6.71-78.22Z"/><path class="cls-5" d="M62.65,211.37s-11-10.29-8.75-18.06c2.42-8.51,1.35-10.86,8.55-9.83,0,0,3.74-10.32,9.15-9.28,1.58.31,4.53,5.31,4.53,5.31,2.64-3.09,8.14,1.93,9.11,4.85,4.26-1.91,11.61,5.74,9.84,9.85,0,0-1.58,9.31-3.65,16.27S80.54,220,80.54,220Z"/><path class="cls-5" d="M62.65,211.37s-26.86,59.26-35.32,80.81,4.38,39.13,14.38,38.6l2.66-.14a28.21,28.21,0,0,0,26.3-23.28C73.29,292.5,81,218.08,81,218.08,72.1,206.87,62.65,211.37,62.65,211.37Z"/><path class="cls-9" d="M55.85,221.77s-20.06,48.86-28.52,70.41,4.38,39.13,14.38,38.6l2.66-.14a28.21,28.21,0,0,0,26.3-23.28C73.29,292.5,81,229.14,81,229.14Z"/><path class="cls-5" d="M257.3,211.37s11-10.29,8.75-18.06c-2.43-8.51-1.35-10.86-8.55-9.83,0,0-3.74-10.32-9.15-9.28-1.58.31-4.53,5.31-4.53,5.31-2.64-3.09-8.14,1.93-9.11,4.85-4.26-1.91-11.61,5.74-9.85,9.85,0,0,1.59,9.31,3.66,16.27S239.4,220,239.4,220Z"/><path class="cls-5" d="M257.3,211.37s26.86,59.26,35.32,80.81-4.38,39.13-14.38,38.6l-2.67-.14a28.2,28.2,0,0,1-26.29-23.28c-2.62-14.86-10.3-89.28-10.3-89.28C247.85,206.87,257.3,211.37,257.3,211.37Z"/><path class="cls-9" d="M264.1,221.77s20.06,48.86,28.52,70.41-4.38,39.13-14.38,38.6l-2.67-.14a28.2,28.2,0,0,1-26.29-23.28c-2.62-14.86-10.3-78.22-10.3-78.22Z"/></g><path class="cls-7" d="M42,85.14l6.07-8.76,1,.67-1,1.5c-.47.67-.68,1.14-.63,1.44s.34.62.88,1L62.64,91a2,2,0,0,0,1.24.52A2,2,0,0,0,65,90.56l1.16-1.68,1,.66L61,98.3l-1-.67L61.19,96a2.11,2.11,0,0,0,.53-1.31c0-.29-.37-.64-.94-1l-14.38-10c-.55-.38-.94-.54-1.18-.48A2.68,2.68,0,0,0,44,84.31L43,85.8Z"/><path class="cls-7" d="M64.93,69l4.83-4.24.71.82-.63.55a1.59,1.59,0,0,0-.54.74.6.6,0,0,0,.14.56,1.9,1.9,0,0,0,.61.45L78,71.9l-3-7.79a4,4,0,0,0-1.82-.48,2.88,2.88,0,0,0-1.4.82L71,63.64,76.33,59l.71.81-.44.4a2,2,0,0,0-.7.89.68.68,0,0,0,.15.64,2,2,0,0,0,.54.4l8,4-2.86-7.28a3.78,3.78,0,0,0-.63-1.11.9.9,0,0,0-.83-.33,3.18,3.18,0,0,0-1.37.76l-.71-.81,4.29-3.76.71.82A3.11,3.11,0,0,0,82.37,56a4,4,0,0,0,.3,1.75l4.62,11.69-.7.6-9.84-5,4,10.12-.68.6L67.57,69.51a1.8,1.8,0,0,0-1-.25,2.18,2.18,0,0,0-1,.52Z"/><path class="cls-7" d="M106.49,54.36l.93.46a3.43,3.43,0,0,1-1.57,2.3,2.82,2.82,0,0,1-1.83.42,4.66,4.66,0,0,1-2.14-1.09,9.52,9.52,0,0,1-1.17,3.12,6.33,6.33,0,0,1-2.06,1.84,5.25,5.25,0,0,1-3.43.91,3.07,3.07,0,0,1-2.28-1.53q-1.17-2,.36-4.63a18.94,18.94,0,0,1,5.1-5.37l-1.13-1.91a2.65,2.65,0,0,0-1.86-1.26,3.57,3.57,0,0,0-2.51.52,4.59,4.59,0,0,0-1.73,1.68c-.26.48-.32.84-.18,1.07a1.48,1.48,0,0,0,.7.44,2,2,0,0,1,1,.72,1.53,1.53,0,0,1,.19,1.22,1.59,1.59,0,0,1-.79,1,1.72,1.72,0,0,1-1.39.21,1.85,1.85,0,0,1-1.15-.9,3.59,3.59,0,0,1,0-3.32,7.62,7.62,0,0,1,3.28-3.44,6.16,6.16,0,0,1,4-1.07,3.46,3.46,0,0,1,2.6,1.67l4.09,6.88a2.81,2.81,0,0,0,1.1,1.16,1,1,0,0,0,1,0A2.16,2.16,0,0,0,106.49,54.36Zm-7.56-2.69A12.7,12.7,0,0,0,95,56.08a3.13,3.13,0,0,0,.3,2.92,2.62,2.62,0,0,0,1.51,1.29A2.21,2.21,0,0,0,98.61,60a4.34,4.34,0,0,0,2-2.84,4.89,4.89,0,0,0-.64-3.71Z"/><path class="cls-7" d="M104.36,40.83l4.42-2.06a23.13,23.13,0,0,1,1.58,2.84,6.9,6.9,0,0,1,1.29-3.08,5.81,5.81,0,0,1,2.52-1.85,4.89,4.89,0,0,1,2.48-.36,4,4,0,0,1,2.12,1.1,6.27,6.27,0,0,1,1.57,2.36L123,46.41a1.51,1.51,0,0,0,.75.92,1.72,1.72,0,0,0,1.24-.13l1-.37.43,1.09-7.18,2.82-.43-1.09.68-.27a2.3,2.3,0,0,0,1.22-.83,1.19,1.19,0,0,0,0-1.06l-2.3-5.83a5.71,5.71,0,0,0-1.69-2.59,2.91,2.91,0,0,0-3-.34,3.7,3.7,0,0,0-2.22,2.4A5.68,5.68,0,0,0,111.7,45l2,5a1.43,1.43,0,0,0,.76.92,1.74,1.74,0,0,0,1.25-.13l.94-.37.43,1.09-7.21,2.84-.43-1.09.94-.37a1.86,1.86,0,0,0,1-.72,1,1,0,0,0,.09-.87L108,42.55a1.87,1.87,0,0,0-1-1.14,2.09,2.09,0,0,0-1.54.09l-.69.27Z"/><path class="cls-7" d="M127.51,26.57l1-.24,1.39,5.81,4.6-1.1.34,1.4-4.61,1.09,2.18,9.14a2.7,2.7,0,0,0,1,1.68,1.86,1.86,0,0,0,1.57.29,2.22,2.22,0,0,0,1.54-1.38,6,6,0,0,0,.1-3.36l1-.24a6.75,6.75,0,0,1-.28,4.52,4,4,0,0,1-2.79,2.12,3.89,3.89,0,0,1-3-.31A3.45,3.45,0,0,1,130,43.7l-2.28-9.56-2.47.59L125,33.67a4.1,4.1,0,0,0,2.24-2A8.23,8.23,0,0,0,127.51,26.57Z"/><path class="cls-7" d="M154,22.66l1,0,.25,6,4.73-.19.06,1.44-4.74.19.39,9.38a2.7,2.7,0,0,0,.65,1.84,1.84,1.84,0,0,0,1.49.59,2.24,2.24,0,0,0,1.78-1.06,6,6,0,0,0,.74-3.28l1,0a6.77,6.77,0,0,1-1.15,4.39,4,4,0,0,1-3.14,1.54,3.86,3.86,0,0,1-2.87-.88,3.43,3.43,0,0,1-1.13-2.56l-.4-9.81-2.55.1,0-1.09a4.16,4.16,0,0,0,2.59-1.56A8.28,8.28,0,0,0,154,22.66Z"/><path class="cls-7" d="M172.14,28.48A6.56,6.56,0,0,1,176.91,31a7.85,7.85,0,0,1,1.54,5.76,8.79,8.79,0,0,1-1.24,4,6.73,6.73,0,0,1-2.78,2.45,6.89,6.89,0,0,1-3.65.69,6.33,6.33,0,0,1-4.63-2.55,8,8,0,0,1-1.5-5.74,7.93,7.93,0,0,1,2.44-5.42A6.37,6.37,0,0,1,172.14,28.48Zm-.09,1.11a3.38,3.38,0,0,0-3,1.34,8.73,8.73,0,0,0-1.54,4.9,9.17,9.17,0,0,0,.69,5.17A3.38,3.38,0,0,0,171,42.84,3.46,3.46,0,0,0,174,41.48c.84-1,1.37-2.72,1.57-5.15a8.38,8.38,0,0,0-.71-5A3.52,3.52,0,0,0,172.05,29.59Z"/><path class="cls-7" d="M193.3,41.76a8.61,8.61,0,0,0,1,4.23A4.7,4.7,0,0,0,197,47.9a4.05,4.05,0,0,0,2.72.07,2.33,2.33,0,0,0,1.43-1.52,2,2,0,0,0-.65-2.18,23,23,0,0,0-2.74-1.59,12.72,12.72,0,0,1-2.88-1.93,3.71,3.71,0,0,1-1-1.79,3.89,3.89,0,0,1,.08-2,4.5,4.5,0,0,1,1.9-2.47,4.78,4.78,0,0,1,4.22-.44,5.84,5.84,0,0,1,3,2.19l1.31-.73.61.19-1.16,5.1-1-.31a6.52,6.52,0,0,0-.83-3.6,4.35,4.35,0,0,0-2.47-1.8,3.47,3.47,0,0,0-2.45,0,2.24,2.24,0,0,0-1.33,1.44,1.85,1.85,0,0,0,.29,1.69A7,7,0,0,0,198.65,40a22.68,22.68,0,0,1,3,1.7,4.21,4.21,0,0,1,1.47,2,4,4,0,0,1,0,2.48,4.17,4.17,0,0,1-2.43,2.68,5.61,5.61,0,0,1-4.09.14,6.47,6.47,0,0,1-3.43-2.57l-1.48.91-.79-.24,1.43-5.66Z"/><path class="cls-7" d="M216.6,34.09l1,.43L215.11,40l4.32,1.94-.59,1.31-4.32-1.94-3.85,8.57a2.65,2.65,0,0,0-.24,1.94A1.86,1.86,0,0,0,211.5,53a2.24,2.24,0,0,0,2.06-.15,6.1,6.1,0,0,0,2.13-2.61l.95.43a6.76,6.76,0,0,1-3,3.41,4.09,4.09,0,0,1-3.5,0A3.93,3.93,0,0,1,208,52a3.46,3.46,0,0,1,.14-2.79l4-9-2.32-1,.44-1a4.06,4.06,0,0,0,3-.24A8.21,8.21,0,0,0,216.6,34.09Z"/><path class="cls-7" d="M228.69,46.64l-5.18,8.21a3.9,3.9,0,0,0-.71,2.8,3,3,0,0,0,1.44,2.05,3.75,3.75,0,0,0,3.27.39,5.18,5.18,0,0,0,2.92-2.34l2.93-4.63a1.41,1.41,0,0,0,.17-1.28A3.87,3.87,0,0,0,232,50.35l.58-.93,4.49,2.52-6.41,10.17a1.65,1.65,0,0,0-.28,1.32,1.79,1.79,0,0,0,.87,1.08l.78.49-.56.89-4.22-2.54,1.27-2.6a10.58,10.58,0,0,1-3.47.57,5.27,5.27,0,0,1-2.69-.78,4.54,4.54,0,0,1-2.1-2.89c-.3-1.23.11-2.72,1.23-4.49l3.39-5.38a1.44,1.44,0,0,0,.12-1.44A4,4,0,0,0,223.58,45l.58-.92Z"/><path class="cls-7" d="M254.78,55.66l4.45,3.6-13.31,15a2.53,2.53,0,0,0-.77,1.54,1.68,1.68,0,0,0,.66,1.26l.76.68-.78.87-3.73-3.32,1.7-2.48a6.8,6.8,0,0,1-3.15.41A4.67,4.67,0,0,1,238.07,72a5.33,5.33,0,0,1-1.79-4.39,8.3,8.3,0,0,1,2.35-5.3,8,8,0,0,1,5.63-2.95,5.68,5.68,0,0,1,4.19,1.4,4.74,4.74,0,0,1,1.42,2.2,6,6,0,0,1,0,2.88l5.49-6.17a1.23,1.23,0,0,0,.31-1.12,2.63,2.63,0,0,0-.93-1.34l-.78-.69ZM247.9,62a3.14,3.14,0,0,0-2.92-.74,8.36,8.36,0,0,0-3.86,2.85c-1.58,1.78-2.45,3.26-2.59,4.44a3.06,3.06,0,0,0,1,2.82,3.54,3.54,0,0,0,3.27.72,8,8,0,0,0,4.07-2.76A7.56,7.56,0,0,0,249,65,3.38,3.38,0,0,0,247.9,62Z"/><path class="cls-7" d="M258.2,70.51l4.47,5.41-.82.68-.42-.51a2.38,2.38,0,0,0-1-.82.81.81,0,0,0-.75.19,1.06,1.06,0,0,0-.26.33l-4.18,8.75,7.56-2.32a3.91,3.91,0,0,0,1.39-.72,1,1,0,0,0,.4-.92,4,4,0,0,0-.84-1.66l.82-.68,3.89,4.7-.82.67a2.66,2.66,0,0,0-2.73-.82l-13.16,3.86a12.6,12.6,0,0,1-5.17.68,4.51,4.51,0,0,1-2.86-1.55,2.68,2.68,0,0,1-.71-1.86,2,2,0,0,1,.76-1.55A1.56,1.56,0,0,1,245,82a1.51,1.51,0,0,1,1.39,1.57,1.27,1.27,0,0,1-.47.91,2.37,2.37,0,0,1-.4.25,1.63,1.63,0,0,0-.3.17c-.2.16-.19.37,0,.61a2.3,2.3,0,0,0,1,.66,3.79,3.79,0,0,0,1.7.17,39.58,39.58,0,0,0,4.08-.82l5.64-11.87a2.35,2.35,0,0,0,.24-1.16,3,3,0,0,0-.51-1.27Z"/><path class="cls-7" d="M263.07,95.42a1.87,1.87,0,0,1,.26,1.44,1.89,1.89,0,0,1-.85,1.2,1.8,1.8,0,0,1-1.42.25,1.85,1.85,0,0,1-1.2-.83,1.82,1.82,0,0,1-.26-1.42,1.8,1.8,0,0,1,.83-1.19,1.85,1.85,0,0,1,1.44-.28A1.8,1.8,0,0,1,263.07,95.42Zm3.07-1.52-.44-.69c1.56-1,2.7-1.82,3.43-2.4q1.8-1.44,4.13-3.61a36.19,36.19,0,0,1,3.51-3,3.22,3.22,0,0,1,2-.65,1.91,1.91,0,0,1,1.6,2.41A3.22,3.22,0,0,1,279,87.52a32.82,32.82,0,0,1-4.22,2c-1.9.78-3.45,1.48-4.63,2.09S267.6,93,266.14,93.9Z"/></g></g></svg>